<svg xmlns="http://www.w3.org/2000/svg" xmlns:xlink="http://www.w3.org/1999/xlink" width="538.907" height="91.708" viewBox="0 0 538.907 91.708">
  <defs>
    <clipPath id="clip-path">
      <rect id="長方形_3887" data-name="長方形 3887" width="63.049" height="91.708" transform="translate(0)" fill="none"/>
    </clipPath>
    <clipPath id="clip-path-2">
      <path id="パス_9497" data-name="パス 9497" d="M72.758,42.214,53.116,58.8,33.475,42.214a5.134,5.134,0,0,0-5.5-.728A5.193,5.193,0,0,0,25,46.191V87.957A13.026,13.026,0,0,0,28.017,96.3l22.135,26.542a3.854,3.854,0,0,0,5.928,0L78.216,96.3a13.026,13.026,0,0,0,3.017-8.341V46.191a5.193,5.193,0,0,0-2.979-4.7,5.133,5.133,0,0,0-5.5.728" transform="translate(-25 -41)" fill="none"/>
    </clipPath>
    <clipPath id="clip-path-3">
      <rect id="長方形_3889" data-name="長方形 3889" width="63.049" height="91.708" transform="translate(0)" fill="#fff"/>
    </clipPath>
    <clipPath id="clip-path-4">
      <rect id="長方形_5158" data-name="長方形 5158" width="74.063" height="70.598" fill="none"/>
    </clipPath>
    <clipPath id="clip-path-5">
      <rect id="長方形_5157" data-name="長方形 5157" width="74.064" height="70.599" fill="none"/>
    </clipPath>
    <clipPath id="clip-path-6">
      <rect id="長方形_5156" data-name="長方形 5156" width="71.001" height="67.536" fill="rgba(0,0,0,0.5)"/>
    </clipPath>
  </defs>
  <g id="グループ_7239" data-name="グループ 7239" transform="translate(-252.156 -213.538)">
    <g id="グループ_6770" data-name="グループ 6770" transform="translate(252.012 213.485)">
      <g id="グループ_6764" data-name="グループ 6764" transform="translate(0.145 0.053)">
        <g id="グループ_6763" data-name="グループ 6763" transform="translate(0 0)" clip-path="url(#clip-path)">
          <path id="パス_9496" data-name="パス 9496" d="M54.237,127.019a4.023,4.023,0,0,0,3.082-1.437L80.337,98.151a13.412,13.412,0,0,0,3.138-8.621V46.365a5.365,5.365,0,0,0-8.813-4.11L54.237,59.393,33.813,42.255A5.365,5.365,0,0,0,25,46.365V89.53a13.412,13.412,0,0,0,3.138,8.621l23.017,27.431a4.023,4.023,0,0,0,3.082,1.437" transform="translate(-23.289 -37.876)" fill="#ffef6e" fill-rule="evenodd"/>
        </g>
      </g>
      <g id="グループ_6766" data-name="グループ 6766" transform="translate(2.693 4.707)">
        <g id="グループ_6765" data-name="グループ 6765" clip-path="url(#clip-path-2)">
          <rect id="長方形_3888" data-name="長方形 3888" width="31.235" height="88.736" transform="translate(27.752 -3.023)" fill="#5fc1aa"/>
        </g>
      </g>
      <g id="グループ_6768" data-name="グループ 6768" transform="translate(0.145 0.053)">
        <g id="グループ_6767" data-name="グループ 6767" transform="translate(0 0)" clip-path="url(#clip-path-3)">
          <path id="パス_9498" data-name="パス 9498" d="M31.161,105.917a5.933,5.933,0,0,1-4.556-2.124L3.588,76.362A15.359,15.359,0,0,1,0,66.5V23.339a7.288,7.288,0,0,1,11.973-5.583l19.188,16.1,19.188-16.1a7.288,7.288,0,0,1,11.973,5.583V66.5a15.36,15.36,0,0,1-3.588,9.857L35.716,103.793a5.933,5.933,0,0,1-4.556,2.124M7.284,19.9a3.436,3.436,0,0,0-3.437,3.439V66.5a11.506,11.506,0,0,0,2.688,7.384L29.552,101.32a2.1,2.1,0,0,0,3.217,0L55.787,73.889A11.507,11.507,0,0,0,58.474,66.5V23.339A3.441,3.441,0,0,0,52.821,20.7L32.4,37.841a1.924,1.924,0,0,1-2.473,0L9.5,20.7a3.449,3.449,0,0,0-2.216-.8" transform="translate(-0.213 -14.851)" fill="#fff"/>
        </g>
      </g>
    </g>
    <g id="グループ_7093" data-name="グループ 7093" transform="translate(159 163.784)">
      <path id="パス_11656" data-name="パス 11656" d="M9.512-17.835l1.856-.725q-.609-1-.957-1.566h1.682a17.538,17.538,0,0,1,1.885.087l-.58.58a9.333,9.333,0,0,1,2.175,1.566l-.2-.029a18.863,18.863,0,0,1,.116,2.378v3.364a19.06,19.06,0,0,1-.116,2.407c.812-.058,1.74-.087,3.016-.087H23.4v8.526c0,.609-.2.725-1.044.725-.464,0-1.421-.058-2.175-.116-.029-.812-.029-1.073-.029-1.827V-6.409c0-1.1.029-1.856.087-2.581-.754.058-1.45.087-2.755.087H11.4c-1.218,0-1.972-.029-2.7-.087a21.815,21.815,0,0,1,.116,2.581v4.9c0,1.1-.058,1.769-.116,2.552h2.958V-.116h5.829c.986,0,1.653.029,2.291.058a8.605,8.605,0,0,1,.464,2.233c.841.029,1.247.029,1.8.029A7.721,7.721,0,0,0,25.317,1.8a2.513,2.513,0,0,0,1.1-2.465V-14.645c0-1.392.029-2.378.116-3.306a25.693,25.693,0,0,1-2.987.116H21.576l1.856-.725A15.721,15.721,0,0,0,22.417-20.1h2a22.72,22.72,0,0,1,3.045.145v-2.871a22.128,22.128,0,0,1-3.19.174H18.792c.464-.928.464-.928.7-1.421l-3.074-.609a10.932,10.932,0,0,1-2.088,4.234v-2.378a17.5,17.5,0,0,1-2.842.145H7.743c.29-.551.377-.7.667-1.276l-3.016-.754a9.6,9.6,0,0,1-1.653,3.074A11.015,11.015,0,0,1,.928-18.908a8.848,8.848,0,0,1,1.856,2.117c.029.841.058,1.305.058,2.146V-1.16a25.154,25.154,0,0,1-.174,3.567H6A22.031,22.031,0,0,1,5.858-.957v-8.9h4.669c1.276,0,2.175.029,2.987.087a18.752,18.752,0,0,1-.087-2.407v-3.364a18.265,18.265,0,0,1,.087-2.378c-.609.058-1.45.087-2.726.087Zm-3.915,0c-.551,0-.87,0-1.421-.029a17.76,17.76,0,0,0,1.972-2.262H7.569A23.476,23.476,0,0,1,8.7-17.835Zm12.5,0c-1.044,0-1.566,0-2.349-.058A16.729,16.729,0,0,0,17.4-20.1h2a23.3,23.3,0,0,1,1.334,2.262ZM11.658-6.757h5.655v1.218H11.658Zm0,3.219h5.655v1.189H11.658Zm-5.8-12.267h4.756v1.1H5.858Zm0,2.813h4.756v1.1H5.858Zm12.5-2.813H23.4v1.1H18.357Zm0,2.813H23.4v1.1H18.357ZM41.7-7.134v1.885h-8.12a24.02,24.02,0,0,1-3.19-.145v3.219a27.039,27.039,0,0,1,3.451-.174H41.7V-.464a15.531,15.531,0,0,1-.174,2.929H45.1a13.359,13.359,0,0,1-.2-2.929V-2.349h8.149a27.231,27.231,0,0,1,3.48.174V-5.394a22.767,22.767,0,0,1-3.161.145H44.892V-7.134h6.09c1.189,0,2.059.029,3.074.087a26.34,26.34,0,0,1-.116-2.987v-6.032a26.772,26.772,0,0,1,.116-3.074,26.13,26.13,0,0,1-3.074.116,45.453,45.453,0,0,0,2.755-4.089l-3.393-1.073A21.55,21.55,0,0,1,47.5-19.024H36.511l2.2-.928a22.24,22.24,0,0,0-2.871-4.089l-2.871,1.218a16.027,16.027,0,0,1,2.581,3.8,20.386,20.386,0,0,1-2.668-.116A28.1,28.1,0,0,1,33-16.066v6.119a28,28,0,0,1-.116,2.9c.986-.058,1.769-.087,3.074-.087Zm3.19-7.308v-1.972h5.945v1.972Zm-3.19,0H36.1v-1.972h5.6Zm3.19,4.669v-2.233h5.945v2.233Zm-3.19,0H36.1v-2.233h5.6Zm4-10.469a21.734,21.734,0,0,0-2.349-4.292l-2.987.841A18.135,18.135,0,0,1,42.63-19.2Zm21.141-3.8a29.626,29.626,0,0,1-.87,5.046c-.638.029-1.131.029-1.479.029a20.136,20.136,0,0,1-3.915-.261v3.306l1.537.029c.609.029.783.029,1.16.029.348,0,.522,0,1.827-.029a44.615,44.615,0,0,1-2.726,6.844,26.4,26.4,0,0,1-2.813,4.64L62.9-2.552c.174-.348.174-.348.551-1.044,1.1-2.03,1.363-2.552,2.03-3.973a55.664,55.664,0,0,0,3.19-8.41c1.8-.145,3.567-.348,4.611-.522a5.655,5.655,0,0,1,.928-.145l-.087-3.335a24.874,24.874,0,0,1-4.64.812c.319-1.276.464-1.856.609-2.552a14.516,14.516,0,0,1,.464-1.943ZM85.4-16.5a45.778,45.778,0,0,0-8.178-3.886l-1.74,2.813a35.493,35.493,0,0,1,8.352,4.06ZM85.289-3.422a5.191,5.191,0,0,1-.435-.406,10.693,10.693,0,0,0-1.015-.783,18.119,18.119,0,0,0-4.582-2.668A30.79,30.79,0,0,1,79-11.252a9.666,9.666,0,0,1,.348-2.929l-3.364-.174a15.382,15.382,0,0,0-.232,2.929c0,.87.058,2,.145,3.335a14.4,14.4,0,0,0-2.7-.261c-3.683,0-6.264,2.059-6.264,4.988,0,2.958,2.494,4.872,6.322,4.872A6.7,6.7,0,0,0,78.068-.116,4.634,4.634,0,0,0,79.315-3.19c0-.116-.029-.319-.058-.58a17.539,17.539,0,0,1,4.437,3.6Zm-9.28-1.595s.058.7.058.986c0,1.624-.957,2.436-2.929,2.436-1.8,0-2.842-.7-2.842-1.885,0-1.218,1.218-2,3.1-2A7.31,7.31,0,0,1,76.009-5.017ZM98.977-8.874a18.562,18.562,0,0,1,5.568-.957c3.1,0,5.133,1.624,5.133,4.118a2.98,2.98,0,0,1-2.929,3.219,2.006,2.006,0,0,1-1.827-.986,5.588,5.588,0,0,1-.406-2.552,10.056,10.056,0,0,1,.058-1.276,12.234,12.234,0,0,1-3.219,1.276,9.688,9.688,0,0,0,.493,3.712A4.682,4.682,0,0,0,106.6.9a6.442,6.442,0,0,0,6.583-6.612c0-4.118-3.451-7.076-8.294-7.076a20.109,20.109,0,0,0-5.916.812v-3.77c1.1-.116,1.682-.2,2.639-.377,2-.348,2.552-.435,3.074-.522l-.116-3.248a32.342,32.342,0,0,1-5.6,1.1v-1.856a17.8,17.8,0,0,1,.174-3.161H95.526a19.871,19.871,0,0,1,.174,3.335v1.914c-.319,0-.464,0-1.16.029-.406.029-.725.029-1.015.029a17.786,17.786,0,0,1-3.509-.261l.029,3.248a5.437,5.437,0,0,1,.609-.029c.087,0,.348,0,.725.029.348,0,1.16.029,1.6.029.725,0,1.131,0,1.566-.029.957-.058.957-.058,1.189-.058l.029,4.466a15.514,15.514,0,0,0-4.234,2.465C89.929-7.25,89.03-5.713,89.03-4.35a4.26,4.26,0,0,0,1.6,3.277A9.033,9.033,0,0,0,96.106.986,2.548,2.548,0,0,0,98.774-.7a8.635,8.635,0,0,0,.232-2.465ZM95.729-3.6c0,.957-.145,1.218-.638,1.218a3.486,3.486,0,0,1-1.856-.638c-.667-.406-.957-.841-.957-1.334,0-1.044,1.276-2.32,3.451-3.48Zm18.734-12.238a24.6,24.6,0,0,0-5.742-5.945l-2.726,1.827a24.764,24.764,0,0,1,5.8,6.264ZM129.572-1.1a12.358,12.358,0,0,1,1.769,3.219,22.72,22.72,0,0,0,5.829-5.51,21.369,21.369,0,0,0,5.742,5.481,16.306,16.306,0,0,1,1.74-3.248,17.379,17.379,0,0,1-5.6-5.1A34.146,34.146,0,0,0,143.2-20.039c.087-.87.145-1.45.2-1.827a20.848,20.848,0,0,1-2.349.145h-7.6c-.725,0-1.334-.029-1.856-.058v-1.8a17.353,17.353,0,0,1-2.639.145h-8.845a23.561,23.561,0,0,1-2.61-.145v3.132c.638-.058.957-.087,1.943-.116V-4.727a13.8,13.8,0,0,1-2.233.29l.812,3.306a16.236,16.236,0,0,1,2.32-.609c1.305-.261,3.277-.783,6.177-1.653V-.7a25.436,25.436,0,0,1-.174,3.132h3.393A19.92,19.92,0,0,1,129.572-.7Zm0-19.459a10.035,10.035,0,0,1,1.1.029v1.856c.464-.058.667-.087,1.218-.116a36.536,36.536,0,0,0,1.334,7.337,27.291,27.291,0,0,0,2.146,5.191,17.834,17.834,0,0,1-5.8,5.1Zm10.411,1.74a29.635,29.635,0,0,1-2.726,9.512c-1.305-2.842-1.827-4.785-2.407-9.512ZM122.5-20.561h4.031v3.19H122.5Zm0,5.771h4.031v3.1H122.5Zm0,5.742h4.031v2.813a40.387,40.387,0,0,1-4.031.928Zm28.594-1.566c.261-1.247.435-2.233.609-3.48h6.467c.928,0,1.856.029,2.581.087-.058-.7-.087-1.305-.087-2.262v-4.756c0-.957.029-1.624.087-2.349a26.235,26.235,0,0,1-2.813.116h-7.279a23.813,23.813,0,0,1-3.074-.174v3.219a25.332,25.332,0,0,1,3.045-.174h6.815v3.538h-6.467a15.879,15.879,0,0,1-2.262-.116,43.331,43.331,0,0,1-1.392,9.222c.667-.058,1.334-.087,2.146-.087h8a17.14,17.14,0,0,1-1.16,5.916c-.261.551-.754.725-1.885.725a31.351,31.351,0,0,1-5.365-.551,13.019,13.019,0,0,1,.754,3.306c1.856.174,3.219.261,4.582.261,2.784,0,4.031-.493,4.756-1.943.928-1.8,1.537-5.1,1.711-9.077.029-.754.058-.957.116-1.537a18,18,0,0,1-2.378.116Zm15.428-13.34a17.48,17.48,0,0,1,.2,3.219V-1.45a26.885,26.885,0,0,1-.2,3.712H170.2a26.437,26.437,0,0,1-.174-3.712V-20.735a20.2,20.2,0,0,1,.174-3.219Zm20.1,3.828h-7.453a25.816,25.816,0,0,1-3.625-.2v3.509a31.53,31.53,0,0,1,3.625-.174h4.756c-.145,5.916-1.131,9.28-3.625,12.267A18.748,18.748,0,0,1,175.1-.435a8.086,8.086,0,0,1,2.349,2.755c5.481-3.6,8.091-7.308,9.309-13.137h8a42.455,42.455,0,0,1-.638,7.279c-.377,2-.667,2.32-1.943,2.32a27.565,27.565,0,0,1-4.35-.377,9.411,9.411,0,0,1,.841,3.364c2.233.174,2.9.2,3.915.2,2.9,0,3.857-.725,4.524-3.48a57.322,57.322,0,0,0,.986-10.179c.058-1.247.058-1.6.116-2.03a.727.727,0,0,0,.029-.29,18.23,18.23,0,0,1-2.987.145h-8.033c.087-.87.087-.957.232-3.132H198.07a25.813,25.813,0,0,1,3.538.174v-3.509a24.4,24.4,0,0,1-3.654.2h-7.975V-21.9a13,13,0,0,1,.174-2.407h-3.741a11.649,11.649,0,0,1,.2,2.407Zm25,21.6c.928-.174,1.537-.261,4.7-.58a95.766,95.766,0,0,0,10.5-1.508c.464.9.667,1.334,1.334,2.668L230.985.348a62.805,62.805,0,0,0-5.858-8.932L222.546-7.25a36.959,36.959,0,0,1,2.842,4.118,69.6,69.6,0,0,1-7.714.957l.261-.551a58,58,0,0,0,2.552-5.626c.406-1.073.406-1.073.58-1.6h6.815a22.87,22.87,0,0,1,3.016.174v-3.248a23.028,23.028,0,0,1-3.045.174h-5.568V-17.2h4.669a19.911,19.911,0,0,1,2.929.145v-3.19a21.058,21.058,0,0,1-2.958.174h-4.64v-1.276a16.742,16.742,0,0,1,.174-3.045H218.95a15.634,15.634,0,0,1,.174,3.045v1.276h-3.451a20.881,20.881,0,0,1-3.074-.174v3.19c.928-.087,1.914-.145,3.045-.145h3.48v4.35H214.6a22.8,22.8,0,0,1-3.161-.174v3.248a25.1,25.1,0,0,1,3.132-.174H217.7a43.922,43.922,0,0,1-3.6,8c-.986.058-1.682.087-2.146.087-.29,0-.522,0-.986-.029ZM205.32-21.982a29.581,29.581,0,0,1,4.988,4L212.28-20.5a30.5,30.5,0,0,0-4.988-3.712Zm-1.247,7.163a29.876,29.876,0,0,1,5.162,3.857l1.827-2.639a35.931,35.931,0,0,0-5.191-3.538Zm4.379,5.771c-1.479,4-3.248,7.6-4.263,8.7l2.784,2.436a5.844,5.844,0,0,0,.348-.725c.377-.9.377-.9.9-1.972,1.16-2.407,1.8-3.944,2.813-6.612Zm33.93-5.539a.51.51,0,0,1,.174-.029,1.332,1.332,0,0,1,.29.029,4.318,4.318,0,0,1,.493.029c.145,0,.464.029.87.029,1.363.116,2.523.145,3.6.145.754,0,1.45-.029,2.61-.058.116,4.031.145,5.452.232,6.177a6.893,6.893,0,0,0-2.581-.406c-3.509,0-5.974,1.972-5.974,4.785,0,2.958,2.32,4.756,6.119,4.756,2.813,0,4.843-1.015,5.51-2.726a5.074,5.074,0,0,0,.232-1.624v-.406c.174.116.841.551,1.827,1.189a10.864,10.864,0,0,1,2.175,1.856l1.392-3.509a5.518,5.518,0,0,1-.812-.493,23.121,23.121,0,0,0-4.553-2.639c-.29-4.872-.29-4.93-.29-6.554v-.638c1.537-.174,3.045-.435,4.031-.638a5.011,5.011,0,0,1,.841-.145l-.116-3.277-.232.058c-.464.174-.464.174-.638.232a29.155,29.155,0,0,1-3.915.7v-1.334a28.374,28.374,0,0,1,.2-4.263l-3.625.087a8.112,8.112,0,0,1,.087,1.392c0,1.189.029,2.639.029,4.35-1.015.058-1.653.058-2.668.058a20.9,20.9,0,0,1-5.249-.464Zm8.323,9.28v.783a2.434,2.434,0,0,1-.377,1.566,2.851,2.851,0,0,1-2.349.9c-1.624,0-2.668-.725-2.668-1.8,0-1.189,1.16-1.914,3.016-1.914A6.07,6.07,0,0,1,250.705-5.307ZM239.366.87a5.682,5.682,0,0,1-.058-.783c0-1.914,1.16-5.51,2.871-8.874L239.772-9.86a5.526,5.526,0,0,1-.348.9c-.29.7-.29.7-.551,1.3-.145.464-.29.783-.348.986-.2.522-.2.522-.348.841h-.029a4.935,4.935,0,0,0,.029-.609V-6.9c0-.464,0-.464.029-1.508.029-5.046,1.131-12.035,2.32-14.558l-3.915-.406v.116a15.566,15.566,0,0,1-.319,2.146c-.638,3.277-.638,3.277-.783,4.147a51.835,51.835,0,0,0-.551,7.685,55,55,0,0,0,.783,9.222,10.587,10.587,0,0,1,.145,1.131Zm42.485-2.291V.348h3.886a19.13,19.13,0,0,1-.145-2.987V-18.56a17.592,17.592,0,0,1,.087-2.407c-1.015.058-1.015.058-2.523.058H269.207a19.493,19.493,0,0,1-3.741-.2v3.77a28.379,28.379,0,0,1,3.712-.145h12.7V-4.843h-13.2a18.644,18.644,0,0,1-3.625-.2v3.741a32.417,32.417,0,0,1,3.567-.116ZM312.04-23.548a15.251,15.251,0,0,1-3.509,1.363A50.061,50.061,0,0,1,296.119-20.5c-.435,0-.9,0-1.8-.058a12.171,12.171,0,0,1,1.073,3.132,64.893,64.893,0,0,0,8.033-.667c0,2.03,0,3.161-.058,4.379h-7.424a17.977,17.977,0,0,1-3.538-.2v3.48a26.5,26.5,0,0,1,3.48-.145h7.163a16.684,16.684,0,0,1-.319,1.943,9.255,9.255,0,0,1-3.335,4.93A13.373,13.373,0,0,1,294.9-1.276,9.4,9.4,0,0,1,297.424,1.8a18.083,18.083,0,0,0,2.7-1.45,15,15,0,0,0,4.727-4.611,15.2,15.2,0,0,0,1.943-6.322H313.2a26.5,26.5,0,0,1,3.48.145v-3.48a17.977,17.977,0,0,1-3.538.2h-6.148c.058-.986.058-.986.087-4.9a35.868,35.868,0,0,0,4.843-1.189c2.088-.7,2.088-.7,2.436-.783Zm12.818,4.321a22.3,22.3,0,0,1,3.335-.145H338.43a22.3,22.3,0,0,1,3.335.145v-3.567a16.5,16.5,0,0,1-3.393.2H328.251a16.5,16.5,0,0,1-3.393-.2Zm18.386,3.364a12.685,12.685,0,0,1-3.277.261h-13.8a20.584,20.584,0,0,1-3.77-.2v3.538a29.5,29.5,0,0,1,3.712-.145h14.123a15.089,15.089,0,0,1-4.669,6.786A18.833,18.833,0,0,1,327.5-1.8a10.1,10.1,0,0,1,2.262,3.364,25.806,25.806,0,0,0,7.6-3.944,20.506,20.506,0,0,0,6.728-9.8,13.073,13.073,0,0,1,.812-1.827ZM364.211-5.829a10.36,10.36,0,0,1-.058-1.218c0-.406,0-.406.058-2.088l.406-9.86c.058-1.247.174-2.755.261-3.538h-4.756c.116.812.2,2.262.261,3.538l.406,9.86c.087,1.74.087,1.74.087,2.059,0,.348-.029.638-.058,1.247Zm.406,6.351V-3.451h-4.205V.522Z" transform="translate(174 128)" fill="#fff"/>
      <g id="グループ_6987" data-name="グループ 6987" transform="translate(-500 -3769)">
        <path id="パス_11655" data-name="パス 11655" d="M6.8-9.557a.334.334,0,0,1,.114-.019.872.872,0,0,1,.19.019,2.829,2.829,0,0,1,.323.019c.1,0,.3.019.57.019.893.076,1.653.1,2.356.1.494,0,.95-.019,1.71-.038.076,2.641.1,3.572.152,4.047a4.516,4.516,0,0,0-1.691-.266c-2.3,0-3.914,1.292-3.914,3.135C6.612-.608,8.132.57,10.621.57c1.843,0,3.173-.665,3.61-1.786a3.324,3.324,0,0,0,.152-1.064v-.266c.114.076.551.361,1.2.779A7.118,7.118,0,0,1,17-.551l.912-2.3a3.615,3.615,0,0,1-.532-.323A15.149,15.149,0,0,0,14.4-4.9c-.19-3.192-.19-3.23-.19-4.294v-.418c1.007-.114,1.995-.285,2.641-.418a3.283,3.283,0,0,1,.551-.1l-.076-2.147-.152.038c-.3.114-.3.114-.418.152a19.1,19.1,0,0,1-2.565.456V-12.5a18.589,18.589,0,0,1,.133-2.793l-2.375.057a5.315,5.315,0,0,1,.057.912c0,.779.019,1.729.019,2.85-.665.038-1.083.038-1.748.038a13.693,13.693,0,0,1-3.439-.3Zm5.453,6.08v.513a1.594,1.594,0,0,1-.247,1.026,1.868,1.868,0,0,1-1.539.589c-1.064,0-1.748-.475-1.748-1.178,0-.779.76-1.254,1.976-1.254A3.977,3.977,0,0,1,12.255-3.477ZM4.826.57A3.723,3.723,0,0,1,4.788.057,15.853,15.853,0,0,1,6.669-5.757l-1.577-.7a3.621,3.621,0,0,1-.228.589c-.19.456-.19.456-.361.855-.1.3-.19.513-.228.646-.133.342-.133.342-.228.551H4.028a3.234,3.234,0,0,0,.019-.4v-.3c0-.3,0-.3.019-.988.019-3.306.741-7.885,1.52-9.538l-2.565-.266v.076a10.2,10.2,0,0,1-.209,1.406c-.418,2.147-.418,2.147-.513,2.717A33.961,33.961,0,0,0,1.938-6.08,36.031,36.031,0,0,0,2.451-.038a6.934,6.934,0,0,1,.1.741ZM22.857-15.105a9.45,9.45,0,0,1,.076,1.292c0,.266,0,.665-.019,1.235-.114,4.75-.152,6.669-.152,7.657,0,2.546.551,4.009,1.862,4.883A6.194,6.194,0,0,0,27.949.8a7.191,7.191,0,0,0,5.7-2.413c.931-1.045,1.5-2.28,2.261-4.845a8.779,8.779,0,0,1-2.3-1.463,12.737,12.737,0,0,1-.874,3.192,4.889,4.889,0,0,1-4.6,3.249,3.009,3.009,0,0,1-2.546-.988c-.38-.57-.494-1.254-.494-3.059,0-1.349.114-5.206.19-6.973a17.368,17.368,0,0,1,.228-2.565ZM29.6-13.566A14.221,14.221,0,0,1,31.6-10.735l1.33-.7a13.613,13.613,0,0,0-2-2.793Zm5.586.893a11.5,11.5,0,0,0-1.976-2.679l-1.273.665a15.8,15.8,0,0,1,1.938,2.755ZM41.629-14.5a2.432,2.432,0,0,1,.19.646c.209,1.064.551,2.717.646,3a7.117,7.117,0,0,0-3.04,5.833c0,2.565,1.311,4.275,3.268,4.275a3.179,3.179,0,0,0,1.767-.513,8.525,8.525,0,0,0,2.261-2.09,22.824,22.824,0,0,0,3.458-7.087,4.483,4.483,0,0,1,1.71.817,3.478,3.478,0,0,1,1.387,2.945,4.553,4.553,0,0,1-.646,2.337A5.533,5.533,0,0,1,49.97-2.3a8.627,8.627,0,0,1-3.1.741A5.516,5.516,0,0,1,48.051.665a13.935,13.935,0,0,0,3.1-.912A6.669,6.669,0,0,0,55.594-6.5a5.6,5.6,0,0,0-2.318-4.712,6.565,6.565,0,0,0-2.546-1.14c.076-.266.323-1.2.589-2.223a2.018,2.018,0,0,1,.19-.532l-2.394-.475a14.58,14.58,0,0,1-.551,2.945h-.513a9.2,9.2,0,0,0-3.667.76,18.671,18.671,0,0,1-.456-3.059Zm1.406,5.909a20.412,20.412,0,0,0,1.558,4.37c-.646.817-1.254,1.235-1.786,1.235-.76,0-1.292-.855-1.292-2.09A4.8,4.8,0,0,1,43.035-8.588ZM46.018-6.08a1.627,1.627,0,0,0-.095-.285,22.072,22.072,0,0,1-1.14-3.591,6.3,6.3,0,0,1,3.268-.76,20.907,20.907,0,0,1-1.9,4.389,1.538,1.538,0,0,0-.114.247Zm12.616-4.655a27.58,27.58,0,0,1,3.154-.38c4.123-.3,4.864-.361,6.4-.589A8.374,8.374,0,0,0,65.55-9.8,6.7,6.7,0,0,0,63.745-5.32,5.084,5.084,0,0,0,66.462-.741,11.431,11.431,0,0,0,70.908.513a4.036,4.036,0,0,1,.646.114L71.9-1.957c-.19.019-.361.019-.38.019a11.53,11.53,0,0,1-2.831-.494,3.19,3.19,0,0,1-2.527-3.1c0-1.919,1.425-3.819,3.838-5.073a8.5,8.5,0,0,1,3.762-1.026,2.942,2.942,0,0,1,.4.019l-.133-2.432a10.727,10.727,0,0,1-2.185.19c-5.263.247-8.417.418-9.481.475-2.793.19-2.793.19-3.135.19-.1,0-.3,0-.722-.019Zm21.147-1.311c.133,0,.228.019.266.019.076,0,.209.019.437.038a29.959,29.959,0,0,0,3.477.228,20.254,20.254,0,0,0,2.85-.152,3.437,3.437,0,0,1-.418.228c-.247.152-.3.19-.494.3-.475.266-.684.4-1.881,1.159l1.653,1.311a34.407,34.407,0,0,1,5.073-3.135l-.076-2.147a23.563,23.563,0,0,1-5.016.361,24.92,24.92,0,0,1-5.7-.475Zm1.406,4.294c-1.71,1.425-2.451,2.679-2.451,4.142A3.28,3.28,0,0,0,81.168-.437a13.591,13.591,0,0,0,4.75.627,30.66,30.66,0,0,0,5.13-.437,7.976,7.976,0,0,1,.836-.076l-.209-2.6a19.567,19.567,0,0,1-5.966.817c-3.211,0-4.6-.532-4.6-1.767,0-.817.532-1.615,1.729-2.622ZM94.24-8.531a10.988,10.988,0,0,0-1.976-2.679l-1.273.665A14,14,0,0,1,92.929-7.79Zm-5.586-.893a12.824,12.824,0,0,1,2,2.831l1.33-.7a12.313,12.313,0,0,0-2-2.793Zm10.982-1.349h-1.71a8.886,8.886,0,0,1-1.786-.114v2.109a11.366,11.366,0,0,1,1.748-.114h1.368a23.032,23.032,0,0,1-1.482,2.85A11.541,11.541,0,0,1,95.7-3.5a10.045,10.045,0,0,1,1.064,2,12.866,12.866,0,0,0,1.653-2.09A14.172,14.172,0,0,0,99.712-6.27c-.057.646-.1,1.52-.1,2.28V-.817A16.611,16.611,0,0,1,99.484,1.6h2.261a15.8,15.8,0,0,1-.114-2.413V-4.123c0-.969-.038-1.748-.095-2.394a10.5,10.5,0,0,0,2.223,3.04,8.754,8.754,0,0,1,1.007-1.862,11.257,11.257,0,0,1-3.04-3.553h1.387a9.934,9.934,0,0,1,1.634.1v-2.071a9.307,9.307,0,0,1-1.6.1h-1.52v-2.451c.836-.228,1.71-.494,3.078-.969l-1.235-1.748c-1.178.76-4.18,1.5-7.315,1.824a7.6,7.6,0,0,1,.7,1.824c1.14-.171,1.539-.228,2.774-.475Zm6.08-3.781a14.88,14.88,0,0,1,.114,2.3v7.22a14.575,14.575,0,0,1-.1,2.223h2.242a15.836,15.836,0,0,1-.095-2.261v-7.182a14.446,14.446,0,0,1,.114-2.3Zm4.484-1.14c.076.836.114,1.634.114,2.584V-1.235c0,.494-.133.57-.969.57a23.665,23.665,0,0,1-2.508-.171,8.447,8.447,0,0,1,.646,2.109c.646.038.931.038,1.406.038A5.805,5.805,0,0,0,111.53.988c.608-.323.855-.874.855-1.881V-13.11a19.871,19.871,0,0,1,.133-2.584ZM122.683-4.408v3.135a15.652,15.652,0,0,1-.114,2.242h2.242a16.686,16.686,0,0,1-.095-2.261V-4.408h4.56v3.325c0,.4-.171.475-.95.475-.608,0-1.444-.057-2.394-.152a7.685,7.685,0,0,1,.532,1.976c.57.038,1.539.076,2.128.076,2.166,0,2.736-.4,2.736-1.976V-13.167c0-1.026.019-1.5.076-2.147a21.129,21.129,0,0,1-2.185.076H118.56c-1.026,0-1.52-.019-2.185-.076a25.667,25.667,0,0,1,.1,2.755c0,2.242-.076,4.94-.171,6.536a19.225,19.225,0,0,1-.38,2.907A8.689,8.689,0,0,1,114.532.095a11.43,11.43,0,0,1,1.843,1.5,12.755,12.755,0,0,0,1.938-6Zm0-1.881h-4.237c0-.38,0-.513.019-1.406,0-.266.019-.646.019-1.2h4.2Zm2.033,0v-2.6h4.56v2.6Zm-2.033-4.465h-4.161l.019-.532v-1.957h4.142Zm2.033,0v-2.489h4.56v2.489Zm10.792.988a7.139,7.139,0,0,1,.836-.057,66.213,66.213,0,0,0,6.745-.456,21.01,21.01,0,0,0,2.052,3.458,8.827,8.827,0,0,0-3.287-.57,7.263,7.263,0,0,0-4.845,1.368,3.7,3.7,0,0,0-1.368,2.831,3.544,3.544,0,0,0,1.121,2.565c.969.931,2.85,1.444,5.282,1.444a19.614,19.614,0,0,0,6.023-1.026l-.3-2.432a13.2,13.2,0,0,1-5.719,1.273c-2.584,0-3.99-.684-3.99-1.919,0-1.349,1.52-2.128,4.1-2.128a9.522,9.522,0,0,1,3,.437,3.357,3.357,0,0,1,1.311.817l2.2-1.007c-.665-.893-1.5-2.128-2.014-3-.19-.342-.627-1.14-1.311-2.413q2.365-.456,2.793-.57c.646-.133.855-.19,1.349-.266l-.266-2.261a28.91,28.91,0,0,1-4.655,1.121,15.919,15.919,0,0,1-1.045-3.04l-2.451.323c.1.152.912,2.166,1.235,3-1.178.152-3.705.323-5.13.323a13.026,13.026,0,0,1-1.843-.1Zm22.781.817c.019-.228.038-.342.038-.342l.038-1.121c.114-.152.152-.19.228-.3a1.73,1.73,0,0,1,.266-.342,3.178,3.178,0,0,1,.551-.57l-.7-.8c-.133.038-.209.076-.228.076.038-1.159.057-1.311.076-1.691.038-.38.057-.627.057-.722a2.649,2.649,0,0,1,.076-.7l-2.413-.038a6.312,6.312,0,0,1,.057,1.064c0,.437-.019,1.026-.019,1.558-.019.437-.019.437-.038.722-.893.057-1.938.114-2.3.114a5.893,5.893,0,0,1-.779-.038l.114,2.147a24.482,24.482,0,0,1,2.907-.266c0,.513-.019.551-.019.988-.038.741-.038.95-.057,1.862-.361.4-.361.4-2.147,2.166A8.512,8.512,0,0,1,152.76-4.1l1.1,2.261a10.849,10.849,0,0,1,.874-1.083,14.8,14.8,0,0,0,1.349-1.6l.038-.019c-.038.513-.038.513-.038,2.546a16.678,16.678,0,0,1-.133,3.021H158.4a25.64,25.64,0,0,1-.1-3.135c-.019-2.109-.019-2.109-.019-2.261,0-.532,0-1.064.038-1.919a21.6,21.6,0,0,1,3.458-3.1,4.551,4.551,0,0,1,2.356-1.026c.513,0,.779.247.779.7a12.047,12.047,0,0,1-.4,2.394,19.164,19.164,0,0,0-.779,4.769,2.71,2.71,0,0,0,.988,2.394,2.823,2.823,0,0,0,1.634.494,3.675,3.675,0,0,0,2.812-1.368,8.669,8.669,0,0,0,1.33-1.881,9.237,9.237,0,0,1-1.273-2.28,9.326,9.326,0,0,1-1.1,2.166,1.906,1.906,0,0,1-1.33.969c-.494,0-.779-.342-.779-.95a24.025,24.025,0,0,1,.8-4.275,13.593,13.593,0,0,0,.475-2.907,2.45,2.45,0,0,0-2.66-2.527c-1.159,0-2.356.532-4.009,1.786a13.931,13.931,0,0,0-2.318,1.976Zm20.2,1.064a7.458,7.458,0,0,0,.779-.494c.38-.247,1.748-1.273,2.09-1.558.646-.551,2.033-1.786,2.983-2.66a4.073,4.073,0,0,1,.988-.779l-1.178-1.672a2.8,2.8,0,0,1-1.178.247c-1.843.133-4.161.228-5.776.228a17.184,17.184,0,0,1-2.242-.114l.1,2.28a6.409,6.409,0,0,1,.912-.1c3.439-.152,4.655-.228,5.377-.323l.019.019-.342.342a63.442,63.442,0,0,1-5.681,4.94,17.088,17.088,0,0,1-2.679,1.786l1.292,2.052a11.707,11.707,0,0,1,7.828-3.192c2.3,0,3.762.969,3.762,2.451,0,1.349-.684,2.166-2.261,2.755a5.11,5.11,0,0,0-.874-1.71,4.089,4.089,0,0,0-3.287-1.558c-1.9,0-3.268,1.14-3.268,2.717a2.712,2.712,0,0,0,1.14,2.185,6.428,6.428,0,0,0,3.686.874,9.4,9.4,0,0,0,4.6-1.083,4.643,4.643,0,0,0,2.584-4.2c0-2.6-2.09-4.275-5.339-4.275a9.275,9.275,0,0,0-3.99.874Zm2.736,6.764a5.143,5.143,0,0,1-.988.076c-1.406,0-2.261-.437-2.261-1.2,0-.532.437-.874,1.121-.874C180.158-3.116,180.88-2.432,181.222-1.121Zm17.043-12.065h-4.883a16.914,16.914,0,0,1-2.375-.133v2.3a20.657,20.657,0,0,1,2.375-.114H196.5c-.1,3.876-.741,6.08-2.375,8.037a12.283,12.283,0,0,1-3.4,2.812,5.3,5.3,0,0,1,1.539,1.8c3.591-2.356,5.3-4.788,6.1-8.607H203.6a27.815,27.815,0,0,1-.418,4.769c-.247,1.311-.437,1.52-1.273,1.52a18.06,18.06,0,0,1-2.85-.247,6.166,6.166,0,0,1,.551,2.2c1.463.114,1.9.133,2.565.133,1.9,0,2.527-.475,2.964-2.28a37.556,37.556,0,0,0,.646-6.669c.038-.817.038-1.045.076-1.33a.477.477,0,0,0,.019-.19,11.944,11.944,0,0,1-1.957.1h-5.263c.057-.57.152-2.052.152-2.052h6.954a16.912,16.912,0,0,1,2.318.114v-2.3a15.988,15.988,0,0,1-2.394.133h-5.225v-1.159a8.517,8.517,0,0,1,.114-1.577h-2.451a7.632,7.632,0,0,1,.133,1.577ZM210.976-6.1a3.218,3.218,0,0,1,.722.114c.76.171,1.5.285,2.641.437a12.976,12.976,0,0,0-.1,1.615c0,3.059,1.881,4.712,5.339,4.712a6.826,6.826,0,0,0,4.294-1.254A4.52,4.52,0,0,0,225.7-4.028a5.91,5.91,0,0,0-.817-2.793,7.3,7.3,0,0,0-.893-1.2,7.02,7.02,0,0,1-2.356.475,4.425,4.425,0,0,1,1.71,3.211c0,1.862-1.387,2.926-3.8,2.926a3.457,3.457,0,0,1-2.356-.7,2.376,2.376,0,0,1-.7-1.957,13.477,13.477,0,0,1,.1-1.349c.741.038.912.038,1.216.038a27.672,27.672,0,0,0,2.85-.171,2.442,2.442,0,0,1,.57-.057l.057-2.185a15.19,15.19,0,0,1-3.629.38c-.209,0-.361,0-.931-.019.114-.912.171-1.292.361-2.679.817.019.988.019,1.178.019.684,0,1.292-.038,2.66-.152.418-.038.513-.057.76-.076l.076-2.223a18.875,18.875,0,0,1-4.332.4,15.427,15.427,0,0,1,.608-3.211L215.5-15.58a.787.787,0,0,1,.019.19,22.363,22.363,0,0,1-.38,3.154,14.417,14.417,0,0,1-3.439-.684l-.19,2.09c.285.057.38.076.646.133a24.919,24.919,0,0,0,2.717.475c-.1.7-.266,1.976-.342,2.66a12.459,12.459,0,0,1-3.344-.722Zm32.946-1.159a15.244,15.244,0,0,1,2.09.114V-9.291a13.763,13.763,0,0,1-2.09.095H236.7c.494-1.045.494-1.045.741-1.539l.38-.8-2.28-.342A12.206,12.206,0,0,1,234.4-9.2h-3.268a13.784,13.784,0,0,1-2.071-.095v2.147a14.565,14.565,0,0,1,2.071-.114h2.185a26.511,26.511,0,0,1-2.28,3.173,39.589,39.589,0,0,1,5.092,1.577,17.285,17.285,0,0,1-7.106,2.033,9.378,9.378,0,0,1,1.045,2.033C234,.8,236.265-.076,238.3-1.615A37.633,37.633,0,0,1,244.15,1.5l1.577-1.748a50,50,0,0,0-5.833-2.793,11.561,11.561,0,0,0,2.413-4.218Zm-3.819,0a8.026,8.026,0,0,1-2.2,3.439c-1.349-.494-1.805-.627-3.686-1.178a25,25,0,0,0,1.463-2.261Zm-3.857-6.916h-4.807a17.715,17.715,0,0,1-2.185-.1,13.169,13.169,0,0,1,.1,1.463V-11.4a10.019,10.019,0,0,1-.1,1.406h2.09v-2.28h12.274v2.28h2.09a7.915,7.915,0,0,1-.1-1.406v-1.406a12.156,12.156,0,0,1,.076-1.463,17.9,17.9,0,0,1-2.185.1h-5.13v-.342a9.9,9.9,0,0,1,.1-1.425h-2.318a8.367,8.367,0,0,1,.1,1.444ZM249.584-1.216c1.216-2.641,1.539-3.857,2.166-8.455l-2.109-.437c-.456,3.781-.874,5.282-2.147,7.714Zm10.868-11.951a33.313,33.313,0,0,0-6.517-2.869l-1.216,1.8a26.038,26.038,0,0,1,6.422,3.059Zm5.187,10.431a35.667,35.667,0,0,0-3.211-7.7l-2.033.912a31.159,31.159,0,0,1,3.059,7.885Zm-10.659-7.2a11.848,11.848,0,0,1,.133-1.881h-2.451a13.659,13.659,0,0,1,.133,1.938V-.912c0,1.729.57,2.033,3.933,2.033,3.04,0,3.876-.228,4.408-1.2.418-.8.608-1.881.779-4.446a8.966,8.966,0,0,1-2.128-.76,12.068,12.068,0,0,1-.418,3.762c-.209.437-.76.57-2.28.57-1.748,0-2.109-.095-2.109-.57Zm21.641,6.118a6.787,6.787,0,0,1-.038-.8c0-.266,0-.266.038-1.368l.266-6.46c.038-.817.114-1.805.171-2.318h-3.116c.076.532.133,1.482.171,2.318l.266,6.46c.057,1.14.057,1.14.057,1.349,0,.228-.019.418-.038.817Zm.266,4.161v-2.6h-2.755v2.6Z" transform="translate(720 3848)" fill="#fff"/>
        <g id="グループ_7016" data-name="グループ 7016" transform="translate(696.998 3829.218)">
          <rect id="長方形_5106" data-name="長方形 5106" width="1.054" height="24.454" transform="translate(0.002 0.655) rotate(-38.541)" fill="#fff"/>
          <rect id="長方形_5107" data-name="長方形 5107" width="1.054" height="14.17" transform="translate(9.901 4.939) rotate(-30.563)" fill="#fff"/>
        </g>
        <g id="グループ_7017" data-name="グループ 7017" transform="translate(1009 3829.216)">
          <rect id="長方形_5106-2" data-name="長方形 5106" width="1.054" height="24.454" transform="translate(2.776 19.784) rotate(-141.459)" fill="#fff"/>
          <rect id="長方形_5107-2" data-name="長方形 5107" width="1.054" height="14.171" transform="translate(0.908 17.142) rotate(-149.437)" fill="#fff"/>
        </g>
      </g>
    </g>
    <g id="グループ_7115" data-name="グループ 7115" transform="translate(717 218.45)">
      <g id="グループ_7114" data-name="グループ 7114" clip-path="url(#clip-path-4)">
        <g id="グループ_7113" data-name="グループ 7113" transform="translate(0 0)">
          <g id="グループ_7112" data-name="グループ 7112" clip-path="url(#clip-path-5)">
            <g id="グループ_7111" data-name="グループ 7111" transform="translate(3.062 3.062)" opacity="0.3" style="mix-blend-mode: multiply;isolation: isolate">
              <g id="グループ_7110" data-name="グループ 7110">
                <g id="グループ_7109" data-name="グループ 7109" clip-path="url(#clip-path-6)">
                  <path id="パス_10606" data-name="パス 10606" d="M40.267,2.145C20.721.469,3.638,13.546,2.11,31.355,1.179,42.2,6.236,52.287,14.742,58.906L6.063,69.536l14.186-7.092a38.292,38.292,0,0,0,14.484,4.192c19.545,1.678,36.629-11.4,38.157-29.208S59.814,3.822,40.267,2.145" transform="translate(-2 -2)" fill="rgba(0,0,0,0.5)"/>
                </g>
              </g>
            </g>
            <path id="パス_10607" data-name="パス 10607" d="M38.267.145C18.721-1.531,1.638,11.546.11,29.355-.821,40.2,4.236,50.287,12.742,56.906L4.063,67.536l14.186-7.092a38.292,38.292,0,0,0,14.484,4.192c19.545,1.678,36.629-11.4,38.157-29.208S57.814,1.822,38.267.145" transform="translate(0 0.001)" fill="#fff"/>
            <path id="パス_10608" data-name="パス 10608" d="M15.374,16.2l.262-1.81.741.109c.282.04,2.069.133,2.255-1.158.179-1.229-1.141-1.421-1.586-1.485-1.141-.164-1.966-.1-2.182,1.184l-2.773-.4C12.82,9.9,14.917,9.219,17.48,9.591c2.773.4,4.175,1.9,3.9,3.8a2.52,2.52,0,0,1-2.173,2.26,2.794,2.794,0,0,1,1.7,3.09c-.381,2.638-2.9,3.514-5.567,3.128-2.549-.367-4.5-1.86-4.266-4.929l2.787.4a1.89,1.89,0,0,0,1.83,2.307c.282.04,2.2.274,2.433-1.343.138-.948-.424-1.77-1.877-1.981Z" transform="translate(5.873 5.045)" fill="#5fc1aa"/>
            <path id="パス_10609" data-name="パス 10609" d="M21.7,16.963l.2-1.376a12.459,12.459,0,0,1-2.15,1.367,4.2,4.2,0,0,0-1.441-1.963A12.321,12.321,0,0,0,23.6,10.443l1.77,1.572a.279.279,0,0,1,.113.257c-.017.119-.23.119-.407.109a18.249,18.249,0,0,1-2.395,2.528l6.4.926a9.634,9.634,0,0,1-1.216-2.885l-1.883-.273.3-2.059L30,11.157c-.064,1.277.329,3.679,3.154,5.708A4.808,4.808,0,0,0,31.5,18.59a6.971,6.971,0,0,1-1.413-1.415c-1.13,6.769-1.612,7.378-5.022,6.885a4.351,4.351,0,0,1-.482-.1,5.269,5.269,0,0,0-.289-2.4,11.276,11.276,0,0,0,1.389.338c.519.073.845.121,1.09-.312a12.78,12.78,0,0,0,.9-3.759l-2.075-.3a7.632,7.632,0,0,1-6.169,5.827,4.791,4.791,0,0,0-1.265-2.136c3.972-.576,4.818-2.359,5.24-4.008Z" transform="translate(9.65 5.547)" fill="#5fc1aa"/>
            <path id="パス_10610" data-name="パス 10610" d="M41.742,15.273c-3.652-.588-7.3,2.243-7.646,4.645-.25,1.719,1.808,2.88,3.817,3.215a20.308,20.308,0,0,0-1.5,2.536c-1.154-.5-5.236-2.3-4.725-5.841a6.811,6.811,0,0,1,3.466-4.705,41,41,0,0,0-6.273.046l.063-2.834a48.764,48.764,0,0,0,6.645.611,35.8,35.8,0,0,0,6.1-.222Zm-2.764,1.75a9.33,9.33,0,0,1,1.15,1.785c-.459.236-.691.369-1.271.724a11.945,11.945,0,0,0-1.076-1.865Zm1.709-.827a9.428,9.428,0,0,1,1.093,1.747c-.41.228-.7.413-1.216.763a11.078,11.078,0,0,0-1.076-1.866Z" transform="translate(15.339 6.552)" fill="#5fc1aa"/>
            <path id="パス_10611" data-name="パス 10611" d="M15.612,24.506A2.912,2.912,0,0,0,15,25.16a5.533,5.533,0,0,1,3.1-.43,4.1,4.1,0,0,1,3.584,4.938c-.665,4.595-5.311,4.6-6.356,4.6a6.32,6.32,0,0,0-.859-2.318c1.629.129,4.534.035,4.9-2.485a2.195,2.195,0,0,0-1.908-2.621A6.291,6.291,0,0,0,13.6,27.939l-.922,6.373L10.24,34.14c.43-1.828.735-3.617.816-4.073-.518.545-1.444,1.516-1.566,1.618l-1.448-1.9a20.9,20.9,0,0,0,3.584-3.445l.063-.43a17.01,17.01,0,0,1-2.369.461l-.026-2.531a15.473,15.473,0,0,0,2.779-.067c.067-.475.3-2.56.357-2.99l2.232.459c.28.055.441.095.413.288-.023.162-.158.156-.357.158-.231.877-.3,1.245-.366,1.6.095-.031.144-.054.332-.1Z" transform="translate(4.271 11.036)" fill="#5fc1aa"/>
            <path id="パス_10612" data-name="パス 10612" d="M26.217,23.456c.158.069.285.132.265.265-.031.208-.346.193-.433.179-.369.977-.513,1.349-.674,1.719,1.275.184,3.388.536,2.869,4.123a10.023,10.023,0,0,1-2.275,5.267,2.567,2.567,0,0,1-2.344.723,8.2,8.2,0,0,1-1.546-.39A4.737,4.737,0,0,0,22.2,34.8a11.323,11.323,0,0,0,.064-2.018,2.491,2.491,0,0,0,1.243.513,1.132,1.132,0,0,0,.916-.156c.567-.371,1.282-1.961,1.548-3.8.22-1.527-.86-1.591-1.5-1.638a22.662,22.662,0,0,1-4.9,7.281,10.547,10.547,0,0,0-2.009-1.485,17.958,17.958,0,0,0,4.423-5.7,15.626,15.626,0,0,0-2.465.415l-.47-2.5c.625-.031,3.344-.2,3.9-.207a23.127,23.127,0,0,0,.929-3.18Zm3.891,1.35a10.542,10.542,0,0,1,1.879,5.855,1.534,1.534,0,0,1-1.28,1.418,5.843,5.843,0,0,1-1.55.245,11.9,11.9,0,0,0-.573-2.11c.413-.031.981-.07,1.049-.545a5.984,5.984,0,0,0-.478-2.142A11.259,11.259,0,0,0,28.133,25.7Z" transform="translate(9.329 11.853)" fill="#5fc1aa"/>
            <path id="パス_10613" data-name="パス 10613" d="M38.961,26.081a36.977,36.977,0,0,0-4.11,2.781,8.091,8.091,0,0,1,1.811.035,3.885,3.885,0,0,1,3.525,4.489c-.47,3.26-3.773,4.237-6.337,3.866-1.912-.277-3.656-1.3-3.4-3.094.211-1.467,1.707-2.174,3.248-1.951a3.206,3.206,0,0,1,2.872,2.638A1.975,1.975,0,0,0,37.8,33.237a2.154,2.154,0,0,0-2.1-2.513c-2.506-.363-4.14.9-6.512,2.751l-1.527-1.992a39.6,39.6,0,0,0,6.835-4.9,31.39,31.39,0,0,1-4.018-.051l-.018-2.379c.574.1,4.852.762,7.545.138Zm-5.7,7.951c-.5-.072-.665.191-.7.444-.081.563.718.906,1.222.978a2.508,2.508,0,0,0,.759-.011,1.474,1.474,0,0,0-1.28-1.412" transform="translate(14.693 12.83)" fill="#5fc1aa"/>
          </g>
        </g>
      </g>
    </g>
  </g>
</svg>
