<svg xmlns="http://www.w3.org/2000/svg" viewBox="0 0 26 26"><g id="レイヤー_2" data-name="レイヤー 2"><g id="ヘッダー"><path d="M18.82,0H7.18A7.19,7.19,0,0,0,0,7.18V18.82A7.19,7.19,0,0,0,7.18,26H18.82A7.19,7.19,0,0,0,26,18.82V7.18A7.19,7.19,0,0,0,18.82,0Zm4.87,18.82a4.87,4.87,0,0,1-4.87,4.87H7.18a4.87,4.87,0,0,1-4.87-4.87V7.18A4.87,4.87,0,0,1,7.18,2.31H18.82a4.87,4.87,0,0,1,4.87,4.87Z"/><path d="M13,6.3A6.7,6.7,0,1,0,19.7,13,6.71,6.71,0,0,0,13,6.3Zm0,11.09A4.39,4.39,0,1,1,17.39,13,4.4,4.4,0,0,1,13,17.39Z"/><path d="M20,4.34a1.7,1.7,0,0,0,0,3.39,1.7,1.7,0,0,0,0-3.39Z"/></g></g></svg>