<svg xmlns="http://www.w3.org/2000/svg" viewBox="0 0 27.26 22.14"><g id="レイヤー_2" data-name="レイヤー 2"><g id="ヘッダー"><path d="M27.26,2.62a11.14,11.14,0,0,1-3.21.88A5.69,5.69,0,0,0,26.51.41,11.17,11.17,0,0,1,23,1.76a5.6,5.6,0,0,0-9.67,3.83,5.32,5.32,0,0,0,.15,1.27A15.85,15.85,0,0,1,1.9,1,5.58,5.58,0,0,0,3.63,8.48,5.52,5.52,0,0,1,1.1,7.79v.06a5.6,5.6,0,0,0,4.48,5.49,5.49,5.49,0,0,1-1.47.19,5.36,5.36,0,0,1-1.06-.1,5.61,5.61,0,0,0,5.23,3.89,11.24,11.24,0,0,1-6.95,2.39A11.73,11.73,0,0,1,0,19.63a15.83,15.83,0,0,0,8.58,2.51,15.79,15.79,0,0,0,15.9-15.9l0-.72a11.35,11.35,0,0,0,2.8-2.9Z"/></g></g></svg>