<svg xmlns="http://www.w3.org/2000/svg" viewBox="0 0 29.18 29.18"><defs><style>.cls-1{fill:#fff;}</style></defs><g id="レイヤー_2" data-name="レイヤー 2"><g id="パーツ"><path class="cls-1" d="M21.13,0H8.05A8.06,8.06,0,0,0,0,8.05V21.13a8.06,8.06,0,0,0,8.05,8.05H21.13a8.06,8.06,0,0,0,8.05-8V8.05a8.06,8.06,0,0,0-8-8ZM26.6,21.13a5.48,5.48,0,0,1-5.47,5.47H8.05a5.48,5.48,0,0,1-5.46-5.47V8.05A5.47,5.47,0,0,1,8.05,2.59H21.13A5.48,5.48,0,0,1,26.6,8.05Z"/><path class="cls-1" d="M14.59,7.07a7.52,7.52,0,1,0,7.52,7.52,7.54,7.54,0,0,0-7.52-7.52Zm0,12.45a4.93,4.93,0,1,1,4.93-4.93,4.93,4.93,0,0,1-4.93,4.93Z"/><path class="cls-1" d="M22.43,4.88a1.9,1.9,0,1,0,1.34,3.24,1.9,1.9,0,0,0,0-2.69,1.91,1.91,0,0,0-1.34-.55Z"/></g></g></svg>