<svg xmlns="http://www.w3.org/2000/svg" viewBox="0 0 30.6 24.85"><defs><style>.cls-1{fill:#fff;}</style></defs><g id="レイヤー_2" data-name="レイヤー 2"><g id="パーツ"><path class="cls-1" d="M30.6,2.94a12.45,12.45,0,0,1-3.61,1A6.33,6.33,0,0,0,29.76.46a12.56,12.56,0,0,1-4,1.52A6.28,6.28,0,0,0,14.91,6.27a6.67,6.67,0,0,0,.16,1.43A17.8,17.8,0,0,1,2.13,1.15,6.27,6.27,0,0,0,4.07,9.52a6.09,6.09,0,0,1-2.84-.78v.08a6.3,6.3,0,0,0,5,6.16,6.38,6.38,0,0,1-1.65.21,6.64,6.64,0,0,1-1.18-.11,6.29,6.29,0,0,0,5.86,4.36,12.63,12.63,0,0,1-7.8,2.68A14.72,14.72,0,0,1,0,22a17.79,17.79,0,0,0,9.63,2.81c11.54,0,17.85-9.56,17.85-17.85l0-.81A12.76,12.76,0,0,0,30.6,2.94Z"/></g></g></svg>