<svg xmlns="http://www.w3.org/2000/svg" viewBox="0 0 31.22 29.74"><defs><style>.cls-1{fill:#00b900;}</style></defs><g id="レイヤー_2" data-name="レイヤー 2"><g id="パーツ"><g id="TYPE_A" data-name="TYPE A"><path class="cls-1" d="M31.22,12.67c0-7-7-12.67-15.61-12.67S0,5.68,0,12.67c0,6.26,5.55,11.5,13.05,12.49.51.11,1.2.34,1.38.77a3.21,3.21,0,0,1,.05,1.41s-.18,1.11-.22,1.34c-.07.4-.32,1.54,1.35.84s9-5.29,12.26-9.06h0A11.28,11.28,0,0,0,31.22,12.67ZM10.1,16.4a.3.3,0,0,1-.3.3H5.42a.32.32,0,0,1-.21-.08h0a.29.29,0,0,1-.09-.21h0V9.6a.31.31,0,0,1,.3-.31h1.1a.3.3,0,0,1,.3.31V15h3a.29.29,0,0,1,.3.3Zm2.64,0a.3.3,0,0,1-.3.3h-1.1a.3.3,0,0,1-.3-.3V9.6a.3.3,0,0,1,.3-.31h1.1a.3.3,0,0,1,.3.31Zm7.54,0a.31.31,0,0,1-.31.3H18.71a.3.3,0,0,1-.08-.08l-3.12-4.21v4a.31.31,0,0,1-.31.3H14.11a.3.3,0,0,1-.3-.3V9.6a.3.3,0,0,1,.3-.31h1.32l0,0,3.11,4.21v-4a.31.31,0,0,1,.31-.31H20a.31.31,0,0,1,.31.31Zm6-5.71a.29.29,0,0,1-.3.3H23v1.15h3a.3.3,0,0,1,.3.31v1.09a.3.3,0,0,1-.3.31H23V15h3a.29.29,0,0,1,.3.3v1.1a.3.3,0,0,1-.3.3H21.65a.26.26,0,0,1-.21-.09h0a.29.29,0,0,1-.09-.21h0V9.6h0a.26.26,0,0,1,.09-.21h0a.29.29,0,0,1,.22-.09H26a.3.3,0,0,1,.3.31Z"/></g></g></g></svg>