<svg xmlns="http://www.w3.org/2000/svg" xmlns:xlink="http://www.w3.org/1999/xlink" width="100" height="100" viewBox="0 0 100 100">
  <defs>
    <clipPath id="clip-path">
      <rect id="長方形_3953" data-name="長方形 3953" width="90" height="84" transform="translate(0.288 0.269)" fill="#e86573"/>
    </clipPath>
  </defs>
  <g id="グループ_6832" data-name="グループ 6832" transform="translate(-1544 -3080)">
    <rect id="長方形_5031" data-name="長方形 5031" width="100" height="100" transform="translate(1544 3080)" fill="none"/>
    <g id="グループ_6828" data-name="グループ 6828" transform="translate(1548.712 3087.731)">
      <g id="グループ_6803" data-name="グループ 6803" clip-path="url(#clip-path)">
        <path id="パス_9525" data-name="パス 9525" d="M91.375,89.016c1.063,2.87,3,5.331,4.8,7.776.3.34.562.759.28,1.2a.961.961,0,0,1-1.124.419c-.808-.263-1.63-.491-2.439-.752a105.836,105.836,0,0,1-11.624-4.29C64.986,98,43.095,89.357,42.116,74.724c18.139,2.7,39.157-4.483,47.56-17.961,14.1,7.622,15.2,23.611,1.7,32.253" transform="translate(-10.327 -13.919)" fill="#e86573"/>
        <path id="パス_9526" data-name="パス 9526" d="M0,28.3C0,37.452,6,45.581,15.36,50.82a51.609,51.609,0,0,1-5.276,8.242c-.506.777-1.683,1.608-.808,2.551.619.747,1.555.257,2.317.045a160.759,160.759,0,0,0,16.885-5.993C49.967,60.255,78.4,50.571,79.306,28.3,77.419-9.421,1.895-9.443,0,28.3M44.156,38.622H24.531a2.264,2.264,0,1,1,0-4.529H44.156a2.264,2.264,0,0,1,0,4.529M54.723,25.036H24.531a2.264,2.264,0,1,1,0-4.529H54.723a2.264,2.264,0,0,1,0,4.529" transform="translate(0 0)" fill="#e86573"/>
      </g>
    </g>
  </g>
</svg>
