<svg xmlns="http://www.w3.org/2000/svg" xmlns:xlink="http://www.w3.org/1999/xlink" width="222.598" height="41.671" viewBox="0 0 222.598 41.671"><defs><clipPath id="a"><rect width="38.792" height="25.318" fill="#fff"/></clipPath></defs><g transform="translate(-959.176 -3605.325)"><g transform="translate(-322 3746)"><g transform="translate(1284 -140.675)"><rect width="38.793" height="25.318" fill="#e86573"/><g clip-path="url(#a)"><path d="M9.75,27.962A4.8,4.8,0,0,1,4.98,22.98c0-2.6,2.579-4.685,4.77-5.929,2.189,1.245,4.769,3.325,4.769,5.929A4.8,4.8,0,0,1,9.75,27.962m14.615-5.039c0-2.6,2.578-4.686,4.769-5.93,2.191,1.244,4.768,3.325,4.768,5.93a4.773,4.773,0,1,1-9.537,0M38.789,12.264a21.86,21.86,0,0,0-9.807,2.216,20.881,20.881,0,0,0-9.589-2.216A20.877,20.877,0,0,0,9.8,14.48,21.833,21.833,0,0,0,0,12.264v2.217a19.6,19.6,0,0,1,7.376,1.4c-2.4,1.6-4.768,4.032-4.768,7.1A7.25,7.25,0,0,0,9.8,30.125a7.108,7.108,0,0,0,7.024-7.148c0-3.066-2.2-5.495-4.6-7.1a19.035,19.035,0,0,1,14.33,0c-2.4,1.6-4.6,4.032-4.6,7.1a7.108,7.108,0,0,0,7.024,7.148,7.2,7.2,0,0,0,7.139-7.148c0-3.066-2.317-5.495-4.715-7.1a19.628,19.628,0,0,1,7.383-1.4Z" transform="translate(-0.003 -8.324)" fill="#fff"/></g></g><path d="M13.7-7.643a9.364,9.364,0,0,1-1.587,5.865A5.539,5.539,0,0,1,7.465.254,5.578,5.578,0,0,1,2.844-1.739,9.09,9.09,0,0,1,1.206-7.452v-3.4a9.241,9.241,0,0,1,1.606-5.878,5.581,5.581,0,0,1,4.627-2.006,5.586,5.586,0,0,1,4.621,1.987A9.062,9.062,0,0,1,13.7-11.045Zm-3.669-3.732A6.756,6.756,0,0,0,9.4-14.72a2.124,2.124,0,0,0-1.961-1.047,2.087,2.087,0,0,0-1.911,1,6.323,6.323,0,0,0-.654,3.117V-7.16A7.092,7.092,0,0,0,5.491-3.8,2.1,2.1,0,0,0,7.465-2.7,2.061,2.061,0,0,0,9.407-3.758a6.923,6.923,0,0,0,.622-3.225ZM25.606,0H21.937V-14.143l-4.38,1.358v-2.983l7.655-2.742h.394ZM44.8,0H32.131V-2.514L38.11-8.887a14.751,14.751,0,0,0,1.822-2.349,3.773,3.773,0,0,0,.59-1.9,2.823,2.823,0,0,0-.622-1.936,2.245,2.245,0,0,0-1.777-.7,2.422,2.422,0,0,0-1.961.857,3.394,3.394,0,0,0-.717,2.253H31.763a6.06,6.06,0,0,1,.806-3.085,5.682,5.682,0,0,1,2.279-2.19,6.926,6.926,0,0,1,3.339-.793,6.558,6.558,0,0,1,4.437,1.371A4.851,4.851,0,0,1,44.2-13.5a6.215,6.215,0,0,1-.711,2.793,15.521,15.521,0,0,1-2.437,3.313l-4.2,4.431H44.8ZM60.009-7.643a9.364,9.364,0,0,1-1.587,5.865A5.539,5.539,0,0,1,53.776.254a5.578,5.578,0,0,1-4.621-1.993,9.09,9.09,0,0,1-1.638-5.713v-3.4a9.241,9.241,0,0,1,1.606-5.878,5.581,5.581,0,0,1,4.627-2.006,5.586,5.586,0,0,1,4.621,1.987,9.062,9.062,0,0,1,1.638,5.707ZM56.34-11.375a6.756,6.756,0,0,0-.628-3.345,2.124,2.124,0,0,0-1.961-1.047,2.087,2.087,0,0,0-1.911,1,6.323,6.323,0,0,0-.654,3.117V-7.16A7.092,7.092,0,0,0,51.8-3.8a2.1,2.1,0,0,0,1.974,1.1,2.061,2.061,0,0,0,1.942-1.054,6.923,6.923,0,0,0,.622-3.225ZM70.292-6.437H63.144V-9.395h7.147ZM86.046-7.643a9.364,9.364,0,0,1-1.587,5.865A5.539,5.539,0,0,1,79.813.254a5.578,5.578,0,0,1-4.621-1.993,9.09,9.09,0,0,1-1.638-5.713v-3.4a9.241,9.241,0,0,1,1.606-5.878,5.581,5.581,0,0,1,4.627-2.006,5.586,5.586,0,0,1,4.621,1.987,9.062,9.062,0,0,1,1.638,5.707Zm-3.669-3.732a6.756,6.756,0,0,0-.628-3.345,2.124,2.124,0,0,0-1.961-1.047,2.087,2.087,0,0,0-1.911,1,6.323,6.323,0,0,0-.654,3.117V-7.16A7.092,7.092,0,0,0,77.839-3.8a2.1,2.1,0,0,0,1.974,1.1,2.061,2.061,0,0,0,1.942-1.054,6.923,6.923,0,0,0,.622-3.225Zm10.4.508h1.955a2.755,2.755,0,0,0,2.069-.7,2.559,2.559,0,0,0,.673-1.854,2.262,2.262,0,0,0-.667-1.739,2.583,2.583,0,0,0-1.834-.622,2.707,2.707,0,0,0-1.765.578,1.847,1.847,0,0,0-.711,1.5H88.826a4.512,4.512,0,0,1,.781-2.6,5.2,5.2,0,0,1,2.184-1.8,7.288,7.288,0,0,1,3.091-.647,6.911,6.911,0,0,1,4.6,1.4,4.786,4.786,0,0,1,1.663,3.866,3.889,3.889,0,0,1-.774,2.336A5.031,5.031,0,0,1,98.335-9.5a4.593,4.593,0,0,1,2.33,1.676,4.546,4.546,0,0,1,.768,2.641,4.866,4.866,0,0,1-1.8,3.948A7.223,7.223,0,0,1,94.882.254a6.849,6.849,0,0,1-4.526-1.46A4.768,4.768,0,0,1,88.6-5.065h3.669a2.126,2.126,0,0,0,.781,1.7,2.877,2.877,0,0,0,1.923.66,2.891,2.891,0,0,0,2.05-.692,2.388,2.388,0,0,0,.743-1.834Q97.764-8,94.717-8H92.774Zm18.992,4.431h-7.147V-9.395h7.147Zm13.266-12.238v3.021h-.355a6.233,6.233,0,0,0-4.005,1.295,5.261,5.261,0,0,0-1.822,3.491,5,5,0,0,1,3.72-1.5,4.708,4.708,0,0,1,3.834,1.727,6.921,6.921,0,0,1,1.422,4.545,6.808,6.808,0,0,1-.781,3.263,5.6,5.6,0,0,1-2.209,2.272A6.418,6.418,0,0,1,121.6.254a5.994,5.994,0,0,1-4.716-2.031,7.885,7.885,0,0,1-1.8-5.421v-1.32a11.866,11.866,0,0,1,1.136-5.313,8.331,8.331,0,0,1,3.263-3.567,9.561,9.561,0,0,1,4.932-1.276Zm-3.58,9.255a2.927,2.927,0,0,0-1.612.463,2.79,2.79,0,0,0-1.066,1.225v1.117a4.956,4.956,0,0,0,.724,2.875A2.337,2.337,0,0,0,121.528-2.7a2.311,2.311,0,0,0,1.911-.933,3.811,3.811,0,0,0,.73-2.418,3.8,3.8,0,0,0-.736-2.437A2.4,2.4,0,0,0,121.452-9.42Zm21.505,1.777a9.364,9.364,0,0,1-1.587,5.865A5.539,5.539,0,0,1,136.724.254,5.578,5.578,0,0,1,132.1-1.739a9.09,9.09,0,0,1-1.638-5.713v-3.4a9.241,9.241,0,0,1,1.606-5.878,5.581,5.581,0,0,1,4.627-2.006,5.586,5.586,0,0,1,4.621,1.987,9.062,9.062,0,0,1,1.638,5.707Zm-3.669-3.732a6.756,6.756,0,0,0-.628-3.345,2.124,2.124,0,0,0-1.961-1.047,2.087,2.087,0,0,0-1.911,1,6.323,6.323,0,0,0-.654,3.117V-7.16A7.092,7.092,0,0,0,134.75-3.8a2.1,2.1,0,0,0,1.974,1.1,2.061,2.061,0,0,0,1.942-1.054,6.923,6.923,0,0,0,.622-3.225ZM158.623,0h-12.67V-2.514l5.979-6.373a14.751,14.751,0,0,0,1.822-2.349,3.773,3.773,0,0,0,.59-1.9,2.823,2.823,0,0,0-.622-1.936,2.245,2.245,0,0,0-1.777-.7,2.422,2.422,0,0,0-1.961.857,3.394,3.394,0,0,0-.717,2.253h-3.682a6.06,6.06,0,0,1,.806-3.085,5.682,5.682,0,0,1,2.279-2.19,6.926,6.926,0,0,1,3.339-.793,6.558,6.558,0,0,1,4.437,1.371,4.851,4.851,0,0,1,1.581,3.872,6.215,6.215,0,0,1-.711,2.793,15.521,15.521,0,0,1-2.437,3.313l-4.2,4.431h7.947ZM174.06,0H161.39V-2.514l5.979-6.373a14.751,14.751,0,0,0,1.822-2.349,3.773,3.773,0,0,0,.59-1.9,2.823,2.823,0,0,0-.622-1.936,2.245,2.245,0,0,0-1.777-.7,2.422,2.422,0,0,0-1.961.857,3.394,3.394,0,0,0-.717,2.253h-3.682a6.06,6.06,0,0,1,.806-3.085,5.682,5.682,0,0,1,2.279-2.19,6.926,6.926,0,0,1,3.339-.793,6.558,6.558,0,0,1,4.437,1.371,4.851,4.851,0,0,1,1.581,3.872,6.215,6.215,0,0,1-.711,2.793,15.521,15.521,0,0,1-2.437,3.313l-4.2,4.431h7.947Z" transform="translate(1329.714 -119)" fill="#e86573"/></g><path d="M2.568-7.74c.156.012.192.012.408.036a21.409,21.409,0,0,0,2.532.156A11.632,11.632,0,0,0,7.3-7.68l-.228.12-.312.168c-.48.276-.7.408-1.476.924l.732.588A17.787,17.787,0,0,1,9.084-7.752l-.06-.96a14.008,14.008,0,0,1-3.156.24A14.06,14.06,0,0,1,2.652-8.76ZM9.72-1.632A11.712,11.712,0,0,1,6.1-1.164,8.485,8.485,0,0,1,3.924-1.38c-.648-.216-.984-.588-.984-1.1,0-.552.36-1.092,1.128-1.728l-.732-.552a3.22,3.22,0,0,0-1.428,2.4A1.938,1.938,0,0,0,3.324-.5,8.505,8.505,0,0,0,6.168-.12,20.7,20.7,0,0,0,9.4-.4a3.668,3.668,0,0,1,.432-.06ZM9.4-6.888a8.794,8.794,0,0,1,1.236,1.86l.7-.4a8.954,8.954,0,0,0-1.26-1.824ZM8-6.24a8.376,8.376,0,0,1,1.248,1.9l.708-.4A9.391,9.391,0,0,0,8.7-6.6Zm8.256-.672a7.75,7.75,0,0,1,.78.036v-.9a4.835,4.835,0,0,1-.78.048h-.828v-1.1a9.787,9.787,0,0,1,.06-1.236h-1.02a5.9,5.9,0,0,1,.072,1.236v1.1h-.912a5.294,5.294,0,0,1-.876-.048v.912a5.506,5.506,0,0,1,.864-.048h.792a10.4,10.4,0,0,1-2,4.116,3.338,3.338,0,0,1,.528.876,10.8,10.8,0,0,0,1.68-3.624c-.06,1.14-.072,1.464-.072,1.944V-.468A10.727,10.727,0,0,1,14.472.948H15.5a10.479,10.479,0,0,1-.072-1.416V-3.96c0-.372-.012-.816-.048-1.848A8.677,8.677,0,0,0,16.7-3.432a3.633,3.633,0,0,1,.492-.84A7.252,7.252,0,0,1,15.5-6.912ZM18.384.9V.072h3.6v.78h.96a13.812,13.812,0,0,1-.06-1.464V-8.3c0-.6.012-.924.036-1.2a8.449,8.449,0,0,1-.948.036H18.408c-.54,0-.672,0-.972-.024.036.552.048.888.048,1.284V-.6c0,.612-.024,1.068-.06,1.5Zm0-9.516h3.6v1.992h-3.6Zm0,2.832h3.6v2.04h-3.6Zm0,2.88h3.6V-.768h-3.6Zm6.7-5.868a6.451,6.451,0,0,1,.9-.048h1.476a6.451,6.451,0,0,1,.9.048v-.876a4.665,4.665,0,0,1-.9.06H25.98a4.517,4.517,0,0,1-.9-.06Zm-.528,1.7a7.525,7.525,0,0,1,.96-.048H27.84a5.777,5.777,0,0,1,.876.048v-.9a6.212,6.212,0,0,1-.96.048H25.512a5.128,5.128,0,0,1-.96-.06ZM25.068-5.4a4.692,4.692,0,0,1,.8-.048H27.54a4.559,4.559,0,0,1,.78.048v-.852a4.053,4.053,0,0,1-.78.048H25.872a4.6,4.6,0,0,1-.8-.048Zm0,1.656a4.625,4.625,0,0,1,.792-.048h1.668a4.45,4.45,0,0,1,.792.048v-.84a6.118,6.118,0,0,1-.78.036H25.872a6.836,6.836,0,0,1-.8-.036Zm.852,4.6V.168h1.6V.66h.828a7.252,7.252,0,0,1-.024-.792v-1.92a8.436,8.436,0,0,1,.036-.912,3.737,3.737,0,0,1-.732.036H25.812a4.3,4.3,0,0,1-.78-.048A8.1,8.1,0,0,1,25.08-2v1.68c0,.372-.024.828-.06,1.176ZM25.9-2.22h1.62V-.588H25.9ZM29.76-9.3a4.222,4.222,0,0,1-.888,2.052l.8.348a6.637,6.637,0,0,0,.936-2.2Zm4.632-.108a5.769,5.769,0,0,1-1.284,1.884,5.028,5.028,0,0,1,.708.456,9.118,9.118,0,0,0,1.416-1.968ZM29.664-4.2a4.182,4.182,0,0,1-.936,2.064l.816.36A6.537,6.537,0,0,0,30.5-3.96Zm4.7-.024A5.336,5.336,0,0,1,33.18-2.388a4.259,4.259,0,0,1,.708.468A9.787,9.787,0,0,0,35.2-3.852ZM31.5-9.888a3.861,3.861,0,0,1,.06.756,3.7,3.7,0,0,1-1.224,3.06,4.17,4.17,0,0,1-1.788.924,2.32,2.32,0,0,1,.54.78A5.1,5.1,0,0,0,31.32-5.976a3.755,3.755,0,0,0,.7-1.32,3.863,3.863,0,0,0,.7,1.212,5.873,5.873,0,0,0,2.244,1.716,3.628,3.628,0,0,1,.5-.84,4.9,4.9,0,0,1-1.2-.564,4.309,4.309,0,0,1-1.188-1.08,3.8,3.8,0,0,1-.636-2.3,5.463,5.463,0,0,1,.048-.732Zm-.024,4.752a5.426,5.426,0,0,1,.048.816,4.63,4.63,0,0,1-.756,2.832A4.3,4.3,0,0,1,28.392.18,2.732,2.732,0,0,1,28.92,1a5.283,5.283,0,0,0,2.172-1.56A4.088,4.088,0,0,0,32-2.352a4.682,4.682,0,0,0,.972,1.68A6.882,6.882,0,0,0,35.124.984a3.239,3.239,0,0,1,.528-.9A5.392,5.392,0,0,1,33.2-1.7a4.165,4.165,0,0,1-.792-2.688,4.746,4.746,0,0,1,.048-.744Zm10.536-.54A1.122,1.122,0,0,0,40.9-4.56a1.119,1.119,0,0,0,1.116,1.1,1.119,1.119,0,0,0,1.1-1.116A1.1,1.1,0,0,0,42.012-5.676Zm8.256-1.068A10.758,10.758,0,0,1,48.84-6.8a8.734,8.734,0,0,1,.048.936v.792a6.554,6.554,0,0,1-.06.876h.96V-5.892h8.46V-4.26h.96a5.194,5.194,0,0,1-.06-.792v-.8a7.371,7.371,0,0,1,.048-.936,12.565,12.565,0,0,1-1.344.048h-.96a16.373,16.373,0,0,0,.9-1.728l-.924-.312a10.357,10.357,0,0,1-.948,2.04H54.636a11.783,11.783,0,0,0-.6-1.74A31.776,31.776,0,0,0,58.08-9.12c.336-.084.336-.084.492-.12l-.612-.828a27.848,27.848,0,0,1-7.98.984,5.921,5.921,0,0,1-.792-.036,3.015,3.015,0,0,1,.324.888c.528,0,.684,0,1-.012a9.775,9.775,0,0,1,.6,1.5Zm1.764,0a13.476,13.476,0,0,0-.624-1.548c.828-.036.876-.036,1.74-.108a11.227,11.227,0,0,1,.6,1.656Zm4.992,2a5.9,5.9,0,0,1-1.056.06H51.54a8.185,8.185,0,0,1-1.212-.072v.936a5.36,5.36,0,0,1,.8-.06A8.51,8.51,0,0,0,53.22-1.428a12.87,12.87,0,0,1-4.56,1.4,2.811,2.811,0,0,1,.492.912A14.84,14.84,0,0,0,54-.864a10.239,10.239,0,0,0,1.68.876A13.659,13.659,0,0,0,58.98.9a4.127,4.127,0,0,1,.48-.948A12.812,12.812,0,0,1,54.84-1.4a10.739,10.739,0,0,0,2.328-2.208,5.4,5.4,0,0,1,.432-.456Zm-.792.852a8.644,8.644,0,0,1-2.208,1.98,6.717,6.717,0,0,1-1.872-1.98ZM69.708-6.36h.528c.4,0,.8.024,1.14.048v-.96a7.316,7.316,0,0,1-1.152.072h-.516V-8.484a9.983,9.983,0,0,1,.072-1.44H68.7A11.126,11.126,0,0,1,68.784-8.5v1.3h-3.66a9.293,9.293,0,0,1-1.284-.072v.984a10.32,10.32,0,0,1,1.308-.072h3.636V-.576c0,.252-.108.3-.636.3A9.285,9.285,0,0,1,66.54-.408a3.273,3.273,0,0,1,.276.96,11.808,11.808,0,0,0,1.44.072c1.176,0,1.452-.2,1.452-1.092Zm-6.492-.828c.4-.78.744-1.536.936-2.04a5.636,5.636,0,0,1,.24-.552l-1.008-.3a6.379,6.379,0,0,1-.528,1.524A11.449,11.449,0,0,1,60.5-4.992a2.706,2.706,0,0,1,.564.852,8.82,8.82,0,0,0,1.26-1.7c-.036.516-.036.84-.036,1.416V-.552A12.157,12.157,0,0,1,62.22.9h1.056a13.076,13.076,0,0,1-.06-1.428ZM64.56-4.872a12.261,12.261,0,0,1,1.92,2.82l.8-.588A14.858,14.858,0,0,0,65.3-5.376ZM76.464,0H75.2V-5.688q0-.456.012-.822t.036-.714a3.952,3.952,0,0,1-.324.312q-.168.144-.384.324l-.936.756-.648-.816,2.448-1.92h1.056Zm8.724-4.3A8.541,8.541,0,0,1,84.9-1.92a2.974,2.974,0,0,1-.93,1.512A2.569,2.569,0,0,1,82.284.12a2.361,2.361,0,0,1-2.178-1.17A6.319,6.319,0,0,1,79.4-4.3a8.713,8.713,0,0,1,.282-2.376A2.924,2.924,0,0,1,80.6-8.178a2.565,2.565,0,0,1,1.68-.522,2.4,2.4,0,0,1,2.184,1.158A6.15,6.15,0,0,1,85.188-4.3Zm-4.512,0a6.671,6.671,0,0,0,.36,2.514,1.265,1.265,0,0,0,1.248.834,1.279,1.279,0,0,0,1.248-.828A6.468,6.468,0,0,0,83.9-4.3a6.434,6.434,0,0,0-.372-2.5,1.279,1.279,0,0,0-1.248-.834,1.265,1.265,0,0,0-1.248.834A6.629,6.629,0,0,0,80.676-4.3Zm5.868-1.452a.833.833,0,0,1,.24-.684.893.893,0,0,1,.576-.192.918.918,0,0,1,.582.192.822.822,0,0,1,.246.684.811.811,0,0,1-.246.66.883.883,0,0,1-.582.2.86.86,0,0,1-.576-.2A.821.821,0,0,1,86.544-5.748Zm0,5.04a.8.8,0,0,1,.24-.66.893.893,0,0,1,.576-.192.918.918,0,0,1,.582.192.789.789,0,0,1,.246.66.827.827,0,0,1-.246.672.883.883,0,0,1-.582.2.86.86,0,0,1-.576-.2A.838.838,0,0,1,86.544-.708ZM95.328-4.3A8.541,8.541,0,0,1,95.04-1.92a2.974,2.974,0,0,1-.93,1.512A2.569,2.569,0,0,1,92.424.12a2.361,2.361,0,0,1-2.178-1.17,6.319,6.319,0,0,1-.7-3.246,8.713,8.713,0,0,1,.282-2.376,2.924,2.924,0,0,1,.918-1.506,2.565,2.565,0,0,1,1.68-.522,2.4,2.4,0,0,1,2.184,1.158A6.15,6.15,0,0,1,95.328-4.3Zm-4.512,0a6.671,6.671,0,0,0,.36,2.514,1.265,1.265,0,0,0,1.248.834,1.279,1.279,0,0,0,1.248-.828,6.468,6.468,0,0,0,.372-2.52,6.434,6.434,0,0,0-.372-2.5,1.279,1.279,0,0,0-1.248-.834,1.265,1.265,0,0,0-1.248.834A6.629,6.629,0,0,0,90.816-4.3Zm11.376,0A8.541,8.541,0,0,1,101.9-1.92a2.974,2.974,0,0,1-.93,1.512A2.569,2.569,0,0,1,99.288.12,2.361,2.361,0,0,1,97.11-1.05a6.319,6.319,0,0,1-.7-3.246,8.713,8.713,0,0,1,.282-2.376,2.924,2.924,0,0,1,.918-1.506,2.565,2.565,0,0,1,1.68-.522,2.4,2.4,0,0,1,2.184,1.158A6.15,6.15,0,0,1,102.192-4.3Zm-4.512,0a6.671,6.671,0,0,0,.36,2.514,1.265,1.265,0,0,0,1.248.834,1.279,1.279,0,0,0,1.248-.828,6.468,6.468,0,0,0,.372-2.52,6.434,6.434,0,0,0-.372-2.5,1.279,1.279,0,0,0-1.248-.834A1.265,1.265,0,0,0,98.04-6.8,6.629,6.629,0,0,0,97.68-4.3Zm6.324.36a2.826,2.826,0,0,1,2.2-1.14,3.264,3.264,0,0,1,2.136.876,5.647,5.647,0,0,0,1.656.948,3.36,3.36,0,0,0,1.116.192,3.367,3.367,0,0,0,1.632-.42,4.9,4.9,0,0,0,1.4-1.284l-.708-.66A3.322,3.322,0,0,1,112.1-4.272a2.2,2.2,0,0,1-.936.2,3.933,3.933,0,0,1-2.268-.948,6.2,6.2,0,0,0-1.116-.708,3.291,3.291,0,0,0-1.512-.348,3.216,3.216,0,0,0-1.764.5,4.585,4.585,0,0,0-1.2,1ZM119.2,0h-1.26V-5.688q0-.456.012-.822t.036-.714a3.952,3.952,0,0,1-.324.312q-.168.144-.384.324l-.936.756-.648-.816,2.448-1.92H119.2Zm5.82-8.688a3.613,3.613,0,0,1,1.344.234,2.085,2.085,0,0,1,.93.7,1.853,1.853,0,0,1,.342,1.134,1.754,1.754,0,0,1-.468,1.26,4.118,4.118,0,0,1-1.128.828,6.142,6.142,0,0,1,.93.57,2.619,2.619,0,0,1,.684.744,1.9,1.9,0,0,1,.258,1,2.133,2.133,0,0,1-.36,1.242,2.354,2.354,0,0,1-1,.81A3.652,3.652,0,0,1,125.04.12a3.358,3.358,0,0,1-2.148-.606,2.053,2.053,0,0,1-.756-1.7,2.076,2.076,0,0,1,.24-1.014,2.437,2.437,0,0,1,.636-.75,4.306,4.306,0,0,1,.864-.528,3.785,3.785,0,0,1-1.044-.87,1.962,1.962,0,0,1-.42-1.29,1.811,1.811,0,0,1,.348-1.122,2.125,2.125,0,0,1,.936-.7A3.543,3.543,0,0,1,125.016-8.688Zm-.012,1a1.573,1.573,0,0,0-.984.294.989.989,0,0,0-.384.834,1.121,1.121,0,0,0,.414.93,4.669,4.669,0,0,0,1,.594A3.593,3.593,0,0,0,126-5.628a1.183,1.183,0,0,0,.4-.936.989.989,0,0,0-.384-.834A1.614,1.614,0,0,0,125-7.692ZM123.36-2.208a1.264,1.264,0,0,0,.408.96,1.766,1.766,0,0,0,1.248.384,1.816,1.816,0,0,0,1.242-.378,1.247,1.247,0,0,0,.426-.978,1.2,1.2,0,0,0-.468-.972,4.857,4.857,0,0,0-1.164-.684l-.18-.072a3.3,3.3,0,0,0-1.122.726A1.424,1.424,0,0,0,123.36-2.208Zm5.916-3.54a.833.833,0,0,1,.24-.684.893.893,0,0,1,.576-.192.918.918,0,0,1,.582.192.822.822,0,0,1,.246.684.811.811,0,0,1-.246.66.883.883,0,0,1-.582.2.86.86,0,0,1-.576-.2A.821.821,0,0,1,129.276-5.748Zm0,5.04a.8.8,0,0,1,.24-.66.893.893,0,0,1,.576-.192.918.918,0,0,1,.582.192.789.789,0,0,1,.246.66.827.827,0,0,1-.246.672.883.883,0,0,1-.582.2.86.86,0,0,1-.576-.2A.838.838,0,0,1,129.276-.708ZM138.06-4.3a8.541,8.541,0,0,1-.288,2.376,2.974,2.974,0,0,1-.93,1.512,2.569,2.569,0,0,1-1.686.528,2.361,2.361,0,0,1-2.178-1.17,6.318,6.318,0,0,1-.7-3.246,8.712,8.712,0,0,1,.282-2.376,2.924,2.924,0,0,1,.918-1.506,2.565,2.565,0,0,1,1.68-.522,2.4,2.4,0,0,1,2.184,1.158A6.15,6.15,0,0,1,138.06-4.3Zm-4.512,0a6.671,6.671,0,0,0,.36,2.514,1.265,1.265,0,0,0,1.248.834,1.279,1.279,0,0,0,1.248-.828,6.468,6.468,0,0,0,.372-2.52,6.434,6.434,0,0,0-.372-2.5,1.279,1.279,0,0,0-1.248-.834,1.265,1.265,0,0,0-1.248.834A6.629,6.629,0,0,0,133.548-4.3Zm11.376,0a8.541,8.541,0,0,1-.288,2.376,2.974,2.974,0,0,1-.93,1.512A2.569,2.569,0,0,1,142.02.12a2.361,2.361,0,0,1-2.178-1.17,6.318,6.318,0,0,1-.7-3.246,8.712,8.712,0,0,1,.282-2.376,2.924,2.924,0,0,1,.918-1.506,2.565,2.565,0,0,1,1.68-.522A2.4,2.4,0,0,1,144.2-7.542,6.15,6.15,0,0,1,144.924-4.3Zm-4.512,0a6.671,6.671,0,0,0,.36,2.514,1.265,1.265,0,0,0,1.248.834,1.279,1.279,0,0,0,1.248-.828,6.468,6.468,0,0,0,.372-2.52,6.434,6.434,0,0,0-.372-2.5,1.279,1.279,0,0,0-1.248-.834,1.265,1.265,0,0,0-1.248.834A6.629,6.629,0,0,0,140.412-4.3ZM157.032,1a7.961,7.961,0,0,1-1.668-2.3,7.408,7.408,0,0,1-.708-3.252,7.408,7.408,0,0,1,.708-3.252,7.961,7.961,0,0,1,1.668-2.3h-1.224a8.454,8.454,0,0,0-1.392,2.1,7.986,7.986,0,0,0-.768,3.456,7.986,7.986,0,0,0,.768,3.456A8.454,8.454,0,0,0,155.808,1Zm2.46-1.56A10.327,10.327,0,0,1,159.42.768h1.044V0h6V.768h1.044a10.143,10.143,0,0,1-.072-1.344V-8.268a8.178,8.178,0,0,1,.06-1.14,8.975,8.975,0,0,1-1.26.06h-5.5a10.188,10.188,0,0,1-1.308-.06,11.844,11.844,0,0,1,.06,1.212Zm.972-7.9h6v3.192h-6Zm0,4.08h6V-.888h-6ZM176-4.92c-.048,1.884-.408,3.06-1.152,3.852a4.928,4.928,0,0,1-1.68,1.14,4.056,4.056,0,0,1,.66.768,4.861,4.861,0,0,0,2.5-2.676,8.13,8.13,0,0,0,.54-3.084h.936V-.18c0,.336.06.48.216.6.228.168.468.2,1.2.2,1.116,0,1.476-.12,1.656-.564a7.1,7.1,0,0,0,.24-1.968,2.568,2.568,0,0,1-.864-.384,7.011,7.011,0,0,1-.108,1.8c-.072.216-.228.264-.924.264-.288,0-.444-.036-.492-.108-.036-.048-.036-.06-.036-.708V-4.92h.588a8.054,8.054,0,0,1,.984.048,7.682,7.682,0,0,1-.048-.984v-2.6a8.007,8.007,0,0,1,.048-1,8.987,8.987,0,0,1-1.08.048h-3.42a9.707,9.707,0,0,1-1.14-.048,8.8,8.8,0,0,1,.048,1v2.544a8.348,8.348,0,0,1-.048,1.044,7.975,7.975,0,0,1,.972-.048Zm-.432-3.648h3.756v2.832h-3.756Zm-2.9,4.452a8.444,8.444,0,0,0,1.536,1.26,2.991,2.991,0,0,1,.444-.8,7.1,7.1,0,0,1-1.812-1.368,8.129,8.129,0,0,0,1.032-1.536,8.6,8.6,0,0,1,.5-.972l-.456-.5a5.4,5.4,0,0,1-.732.036h-.5V-9.132a5.258,5.258,0,0,1,.072-.948h-1.044a6.424,6.424,0,0,1,.072.948V-8h-.672a6.757,6.757,0,0,1-.948-.048v.9a7.805,7.805,0,0,1,.984-.048h2.076a8.1,8.1,0,0,1-1.452,2.172,8.86,8.86,0,0,1-2.088,1.752,3.376,3.376,0,0,1,.444.852A13.061,13.061,0,0,0,171.78-3.84V-.408a8.132,8.132,0,0,1-.072,1.26h1.032a8.026,8.026,0,0,1-.072-1.26ZM187.1-.768A3.577,3.577,0,0,1,184.968-2.7c.132-.456.3-1.056.324-1.224.108-.468.108-.468.156-.648l-.984-.192v.084a7.789,7.789,0,0,1-.756,2.748A6.556,6.556,0,0,1,182.124.156a2.442,2.442,0,0,1,.744.684,8.549,8.549,0,0,0,1.776-2.628c.876,1.6,2.52,2.28,5.46,2.28,1.14,0,1.428,0,2.328-.036a3.611,3.611,0,0,1,.288-.984c-1.056.084-1.884.12-2.784.12a12.949,12.949,0,0,1-1.944-.12v-2.5h2.292a8.023,8.023,0,0,1,1.164.06v-.948a7.276,7.276,0,0,1-1.164.072h-2.292V-5.688h1.944a7.9,7.9,0,0,1,1.2.072v-.96a8.007,8.007,0,0,1-1.2.072h-4.86a7.723,7.723,0,0,1-1.188-.072v.96a7.831,7.831,0,0,1,1.188-.072H187.1Zm-.192-7.9h-3.228c-.468,0-.84-.012-1.236-.048a7.916,7.916,0,0,1,.048.828v.8a4.838,4.838,0,0,1-.06.888h.948V-7.824h8.208v1.632h.924a6.306,6.306,0,0,1-.048-.876v-.816a5.81,5.81,0,0,1,.048-.828c-.408.036-.768.048-1.236.048h-3.432V-9.2a3.054,3.054,0,0,1,.072-.756h-1.092a3.318,3.318,0,0,1,.084.756ZM199.98-6.576a11.3,11.3,0,0,1-1.056,2.028,10.96,10.96,0,0,1-2.448,2.736,3.659,3.659,0,0,1,.672.792,10.449,10.449,0,0,0,1.908-2.16,11.027,11.027,0,0,0,1.236-2.436c-.012.4-.024.876-.024,1.332V-.36A10.575,10.575,0,0,1,200.184.9h1.056a10.121,10.121,0,0,1-.072-1.272v-4c0-.552-.012-.876-.048-1.32a11.252,11.252,0,0,0,1.836,3.168,10.637,10.637,0,0,0,1.464,1.5,5.628,5.628,0,0,1,.744-.792,11.561,11.561,0,0,1-3.708-4.764h2.208a9.336,9.336,0,0,1,1.248.072v-1.02a9.4,9.4,0,0,1-1.26.072h-2.484V-8.724a7.433,7.433,0,0,1,.084-1.176H200.2a9.666,9.666,0,0,1,.072,1.176v1.272h-2.052a9.021,9.021,0,0,1-1.236-.072V-6.5a9.4,9.4,0,0,1,1.236-.072ZM195.324-.54a12.144,12.144,0,0,1-.072,1.428h1.056c-.036-.42-.06-.888-.06-1.4V-7.032a14.139,14.139,0,0,0,.732-1.656c.216-.576.216-.576.456-1.164l-1.008-.312a8.093,8.093,0,0,1-.672,2.064,11.209,11.209,0,0,1-2.1,3.132,3.323,3.323,0,0,1,.5.912,9.452,9.452,0,0,0,1.2-1.692c-.024.54-.036.876-.036,1.428Zm12.168-.024A10.327,10.327,0,0,1,207.42.768h1.044V0h6V.768h1.044a10.143,10.143,0,0,1-.072-1.344V-8.268a8.178,8.178,0,0,1,.06-1.14,8.975,8.975,0,0,1-1.26.06h-5.5a10.188,10.188,0,0,1-1.308-.06,11.844,11.844,0,0,1,.06,1.212Zm.972-7.9h6v3.192h-6Zm0,4.08h6V-.888h-6ZM219.132,1a8.724,8.724,0,0,0,1.38-2.1,7.948,7.948,0,0,0,.768-3.456,7.948,7.948,0,0,0-.768-3.456,8.724,8.724,0,0,0-1.38-2.1H217.9a7.961,7.961,0,0,1,1.668,2.3,7.335,7.335,0,0,1,.708,3.252,7.335,7.335,0,0,1-.708,3.252A7.961,7.961,0,0,1,217.9,1Z" transform="translate(957.268 3646)"/></g></svg>