<svg xmlns="http://www.w3.org/2000/svg" xmlns:xlink="http://www.w3.org/1999/xlink" width="53.452" height="66.316" viewBox="0 0 53.452 66.316">
  <defs>
    <clipPath id="clip-path">
      <rect id="長方形_5161" data-name="長方形 5161" width="57.641" height="34.362" fill="none"/>
    </clipPath>
  </defs>
  <g id="グループ_7118" data-name="グループ 7118" transform="translate(31.859) rotate(68)">
    <g id="グループ_7117" data-name="グループ 7117" clip-path="url(#clip-path)">
      <path id="パス_10614" data-name="パス 10614" d="M56.161,9.874A6.1,6.1,0,0,0,53.13,6.718,3.407,3.407,0,0,0,50.8,6.649a2.883,2.883,0,0,0-1.247.845c-.017-.028-.028-.059-.046-.088a7.458,7.458,0,0,0-1.752-2,12.966,12.966,0,0,0-4.58-2.363,23.124,23.124,0,0,0-2.488-.584c-.836-.169-1.705-.238-2.515-.333-1.662-.175-3.32-.3-4.982-.394C26.539,1.377,19.916,1.59,13.377.912,11.741.75,10.112.546,8.491.292L7.266.1A9.072,9.072,0,0,0,5.9,0,7.141,7.141,0,0,0,3.182.529,5.415,5.415,0,0,0,.9,2.283,4.567,4.567,0,0,0,0,5.1,5.122,5.122,0,0,0,.924,7.86,7.49,7.49,0,0,0,2.905,9.8a13.825,13.825,0,0,0,4.874,1.956,25.44,25.44,0,0,0,5.086.531c1.269.015,2.531-.036,3.787-.137-.04.032-.082.059-.121.092a5.264,5.264,0,0,0-1.587,2.3,5.571,5.571,0,0,0-.149,2.841,5.858,5.858,0,0,0,1.217,2.589,6.433,6.433,0,0,0,2.1,1.655,2.353,2.353,0,0,0-.168.337,2.727,2.727,0,0,0-.153,1.163,5,5,0,0,0,.7,2.045,7.942,7.942,0,0,0,2.956,2.844,9.7,9.7,0,0,0,1.45.662,2.073,2.073,0,0,0-.295.716,2.926,2.926,0,0,0,.186,1.7,4.872,4.872,0,0,0,2.176,2.277,9.206,9.206,0,0,0,5.768.871,8.911,8.911,0,0,0,4.892-2.327,33.529,33.529,0,0,0,4.449-.2,24.941,24.941,0,0,0,4.449-.9,12.872,12.872,0,0,0,4.139-2.06A8.4,8.4,0,0,0,49.5,28a3.641,3.641,0,0,0,1.415,1.184,3.077,3.077,0,0,0,2.362.077,4.577,4.577,0,0,0,1.838-1.384,8.2,8.2,0,0,0,1.127-1.855,20.465,20.465,0,0,0,1.4-8.064,19.222,19.222,0,0,0-1.48-8.079M16.139,17.12a5.43,5.43,0,0,1,.069-2.218,5.4,5.4,0,0,1,.912-2.1,3.443,3.443,0,0,1,.784-.769l.01,0a37.746,37.746,0,0,0,3.968-.566c-.354.647-.724,1.283-1.119,1.9s-.8,1.212-1.264,1.852a2.913,2.913,0,0,0-.3,2.673,3.826,3.826,0,0,0,1.69,1.974,5.141,5.141,0,0,0,2.419.66,5.772,5.772,0,0,0,2.436-.414,5.672,5.672,0,0,0,2.013-1.422A8.355,8.355,0,0,0,29.7,14.738l1.555.091c.194.038.385.083.572.14A3.6,3.6,0,0,1,33.695,16.2a2.856,2.856,0,0,1,.568,2.041,2.42,2.42,0,0,1-.325.972,1.671,1.671,0,0,1-.728.646,15.65,15.65,0,0,1-4.693,1.338,26.277,26.277,0,0,1-4.964.24,20.221,20.221,0,0,1-2.449-.271,8.054,8.054,0,0,1-2.269-.674,4.738,4.738,0,0,1-2.7-3.368m6.01,9.683a6.55,6.55,0,0,1-2.411-2.349,4.443,4.443,0,0,1-.534-1.493,4.089,4.089,0,0,1-.07-.714,1.62,1.62,0,0,1,.01-.189,10.687,10.687,0,0,0,1.715.419,21.252,21.252,0,0,0,2.628.28,24.2,24.2,0,0,0,5.223-.331,17.812,17.812,0,0,0,4.554-1.333,2.941,2.941,0,0,1,2.119,1.375A3.5,3.5,0,0,1,35.947,24a1.325,1.325,0,0,1,.006.358,1.4,1.4,0,0,1-.093.322,2.743,2.743,0,0,1-.419.649,7.508,7.508,0,0,1-2.9,1.891,12.748,12.748,0,0,1-3.49.821,11.771,11.771,0,0,1-6.9-1.235m12.88,4.043a7.634,7.634,0,0,1-4.491,1.966,9.138,9.138,0,0,1-2.505-.033,6.623,6.623,0,0,1-2.3-.752,3.991,3.991,0,0,1-1.561-1.559A2.092,2.092,0,0,1,23.9,29a12.107,12.107,0,0,0,1.351.288,14.755,14.755,0,0,0,3.938.058A13.954,13.954,0,0,0,33,28.33a10.532,10.532,0,0,0,2.094-1.2,2.992,2.992,0,0,1,.8,1.7,2.7,2.7,0,0,1-.873,2.015m20.55-9.078a15.772,15.772,0,0,1-.822,3.634,4.883,4.883,0,0,1-1.984,2.683,1.914,1.914,0,0,1-1.489.144A3.261,3.261,0,0,1,50,27.4c.092-.124.188-.25.272-.383a6.1,6.1,0,0,0,.858-2.2l-.706-.166a5.816,5.816,0,0,1-2.46,3.144,12.507,12.507,0,0,1-3.845,1.584,27.433,27.433,0,0,1-4.215.685c-1.053.1-2.114.15-3.177.185a3.184,3.184,0,0,0,.151-1.535,3.672,3.672,0,0,0-1.17-2.092,6.8,6.8,0,0,0,.585-.6,3.466,3.466,0,0,0,.555-.959,2.445,2.445,0,0,0,.137-.592,2.385,2.385,0,0,0-.028-.584,4.46,4.46,0,0,0-.813-1.949,4.188,4.188,0,0,0-1.606-1.34c-.087-.039-.182-.066-.272-.1a2.63,2.63,0,0,0,.617-.72,3.328,3.328,0,0,0,.439-1.445,3.715,3.715,0,0,0-.024-.756,9.426,9.426,0,0,0,2.35,1.5,19.748,19.748,0,0,0,5.838,1.468l.094-.718a18.927,18.927,0,0,1-5.533-1.587,8.137,8.137,0,0,1-2.262-1.6A4.92,4.92,0,0,1,35,15.566a3.028,3.028,0,0,1-.36-1.142l.009-.573-.565.015-3.281.091a9.373,9.373,0,0,0-1.392.037l-.251-.022-.1.313a9.571,9.571,0,0,1-2.067,3.679,4.563,4.563,0,0,1-3.637,1.452,4.046,4.046,0,0,1-1.886-.525A2.692,2.692,0,0,1,20.288,17.5a1.757,1.757,0,0,1,.188-1.636c.418-.576.868-1.242,1.266-1.882a44.885,44.885,0,0,0,2.193-4A11.458,11.458,0,0,1,25,8.143a1.887,1.887,0,0,1,.3-.3l.121-.078.1-.04.109-.035a8.02,8.02,0,0,1,1.03-.2c1.453-.193,2.96-.266,4.459-.4A33.133,33.133,0,0,0,35.64,6.5L35.5,5.79c-2.915.4-5.934.293-8.978.629a8.935,8.935,0,0,0-1.189.2l-.162.046-.162.064a2.006,2.006,0,0,0-.363.21,2.8,2.8,0,0,0-.507.487,12.192,12.192,0,0,0-1.212,2.042c-.177.349-.356.7-.535,1.04a33.212,33.212,0,0,0-4.618.045,41.191,41.191,0,0,1-4.873.155,26.8,26.8,0,0,1-4.772-.554A12.484,12.484,0,0,1,3.836,8.438,4.469,4.469,0,0,1,1.618,5.061,3.31,3.31,0,0,1,3.8,1.988a5.577,5.577,0,0,1,2.122-.422,7.493,7.493,0,0,1,1.115.07l1.23.178c1.655.233,3.315.413,4.977.551,6.663.58,13.315.262,19.894.514,1.644.066,3.293.167,4.924.314a16.518,16.518,0,0,1,2.406.339,18.3,18.3,0,0,1,2.305.71A18.567,18.567,0,0,1,47,6.373a5.788,5.788,0,0,1,2.514,3.675l.72-.072A4.842,4.842,0,0,0,49.921,8.3a2.2,2.2,0,0,1,1.163-.669,2.262,2.262,0,0,1,1.53.252A5.045,5.045,0,0,1,54.7,10.53a14.565,14.565,0,0,1,.875,3.6,28.119,28.119,0,0,1,.217,3.805,29.482,29.482,0,0,1-.209,3.827" transform="translate(0 0.001)" fill="#fff"/>
    </g>
  </g>
</svg>
