<svg xmlns="http://www.w3.org/2000/svg" xmlns:xlink="http://www.w3.org/1999/xlink" width="100" height="100" viewBox="0 0 100 100">
  <defs>
    <clipPath id="clip-path">
      <rect id="長方形_2128" data-name="長方形 2128" width="94.914" height="77.996" fill="#5fc1aa"/>
    </clipPath>
  </defs>
  <g id="グループ_6820" data-name="グループ 6820" transform="translate(-1419 -2803)">
    <rect id="長方形_5025" data-name="長方形 5025" width="100" height="100" transform="translate(1419 2803)" fill="none"/>
    <g id="グループ_6811" data-name="グループ 6811" transform="translate(1422 2814)">
      <g id="グループ_6420" data-name="グループ 6420" transform="translate(0 0)" clip-path="url(#clip-path)">
        <path id="パス_3597" data-name="パス 3597" d="M51.818,34.957l29.61-9.065c.116-.116.23-.116.346-.23h.114L82,25.547h.116v-.114h.114v-.116h.116V25.2h.114V25.09h.116v-.116l.114-.114v-.116h.116v-.23h.114v-.343A2.294,2.294,0,0,0,81.314,21.3h-.23L48.261,12.7H47.8v-.116h-.687L47,12.7h-.343L13.833,21.3H13.6A2.3,2.3,0,0,0,12,24.171v.343h.116v.23h.114v.23h.116v.116h.114V25.2a2.756,2.756,0,0,0,1.033.689l32.824,9.984-.116-.114a2.62,2.62,0,0,0,.573.343h.46v.114h.46v-.114h.46a2.563,2.563,0,0,0,.573-.343l-.114.114ZM45.049,15.564,14.177,23.6l30.872,9.524Zm4.82,0L80.739,23.6l-30.87,9.524ZM11.192,23.825.633,12.465a2.377,2.377,0,0,1,1.149-3.9L35.063.071a2.378,2.378,0,0,1,2.411.8l9.984,10.673L57.444.874a2.3,2.3,0,0,1,2.409-.8L93.133,8.562a2.377,2.377,0,0,1,1.149,3.9L83.723,23.825l9.41,14.117A2.214,2.214,0,0,1,91.987,41.5L59.966,51.713a2.159,2.159,0,0,1-2.752-.8L47.458,37.6,37.7,50.91a2.163,2.163,0,0,1-2.755.8L2.931,41.5a2.5,2.5,0,0,1-1.492-2.982,2.5,2.5,0,0,1,.343-.576ZM46.655,77.995,13.6,66.632A2.237,2.237,0,0,1,12,64.453l-.114-17.674L34.146,54.01a5.29,5.29,0,0,0,2.982.114,4.984,4.984,0,0,0,2.525-1.836l5.4-7.461L47,42.189V77.995h-.343Zm1.262-35.806,1.952,2.639,5.393,7.461a4.564,4.564,0,0,0,2.525,1.836,5.3,5.3,0,0,0,2.984-.114L82.92,46.779V64.453a2.238,2.238,0,0,1-1.606,2.179L48.261,77.995h-.343Z" transform="translate(0 0)" fill="#5fc1aa" fill-rule="evenodd"/>
      </g>
    </g>
  </g>
</svg>
