<svg xmlns="http://www.w3.org/2000/svg" xmlns:xlink="http://www.w3.org/1999/xlink" width="100" height="100" viewBox="0 0 100 100">
  <defs>
    <clipPath id="clip-path">
      <rect id="長方形_3947" data-name="長方形 3947" width="91.263" height="58.392" fill="#5fc1aa"/>
    </clipPath>
  </defs>
  <g id="グループ_6817" data-name="グループ 6817" transform="translate(-1424 -3196)">
    <rect id="長方形_5027" data-name="長方形 5027" width="100" height="100" transform="translate(1424 3196)" fill="none"/>
    <g id="グループ_6814" data-name="グループ 6814" transform="translate(1428 3217)">
      <g id="グループ_6792" data-name="グループ 6792" transform="translate(0 0)" clip-path="url(#clip-path)">
        <path id="パス_9516" data-name="パス 9516" d="M80.418,17.607H10.807a2,2,0,1,0,0,4.009H78.413V56.35a2,2,0,1,0,4.009,0V19.611a2,2,0,0,0-2-2" transform="translate(-2.922 -5.844)" fill="#5fc1aa"/>
        <path id="パス_9517" data-name="パス 9517" d="M89.221,8.8H19.61a2,2,0,0,0,0,4.009H87.216V47.546a2,2,0,0,0,4.009,0V10.807a2,2,0,0,0-2-2" transform="translate(-5.844 -2.922)" fill="#5fc1aa"/>
        <path id="パス_9518" data-name="パス 9518" d="M98.025,0H28.414a2,2,0,1,0,0,4.009H96.02V38.743a2,2,0,1,0,4.009,0V2a2,2,0,0,0-2-2" transform="translate(-8.766 0)" fill="#5fc1aa"/>
        <path id="パス_9519" data-name="パス 9519" d="M71.615,26.41H2a2,2,0,0,0-2,2V65.153a2,2,0,0,0,2,2h69.61a2,2,0,0,0,2-2V28.414a2,2,0,0,0-2-2m-2,36.739H4.009V30.419h65.6Z" transform="translate(0 -8.766)" fill="#5fc1aa"/>
        <path id="パス_9520" data-name="パス 9520" d="M11.969,57.269c3.363,0,6.1,2.331,6.1,5.2a2,2,0,0,0,2,2H60.16a2,2,0,0,0,2-2c0-2.865,2.737-5.2,6.1-5.2a2,2,0,0,0,2-2V43.612a2,2,0,0,0-2-2c-3.363,0-6.1-2.331-6.1-5.2a2,2,0,0,0-2-2H20.073a2,2,0,0,0-2,2c0,2.865-2.737,5.2-6.1,5.2a2,2,0,0,0-2,2V55.264a2,2,0,0,0,2,2m2-11.834a9.753,9.753,0,0,0,7.863-7.019H58.4a9.75,9.75,0,0,0,7.863,7.019v8.007A9.75,9.75,0,0,0,58.4,60.461H21.836a9.752,9.752,0,0,0-7.863-7.019Z" transform="translate(-3.307 -11.42)" fill="#5fc1aa"/>
        <path id="パス_9521" data-name="パス 9521" d="M41.842,53.932a2,2,0,0,0,2,2H46.5A9.483,9.483,0,0,0,55.678,62.3a2,2,0,0,0,0-4.009,5.369,5.369,0,0,1-4.709-2.355h2.75a2,2,0,0,0,0-4.009H49.712c-.005-.118-.011-.237-.011-.349s.005-.231.011-.349h4.007a2,2,0,1,0,0-4.009H50.97a5.369,5.369,0,0,1,4.709-2.356,2,2,0,0,0,0-4.009A9.484,9.484,0,0,0,46.5,47.22H43.846a2,2,0,1,0,0,4.009h1.861c0,.116-.014.232-.014.349s.011.233.014.349H43.846a2,2,0,0,0-2,2" transform="translate(-13.888 -13.561)" fill="#5fc1aa"/>
      </g>
    </g>
  </g>
</svg>
