<svg xmlns="http://www.w3.org/2000/svg" xmlns:xlink="http://www.w3.org/1999/xlink" width="100" height="100" viewBox="0 0 100 100">
  <defs>
    <clipPath id="clip-path">
      <rect id="長方形_3946" data-name="長方形 3946" width="96.746" height="53.415" transform="translate(0 0)" fill="#5fc1aa"/>
    </clipPath>
  </defs>
  <g id="グループ_6819" data-name="グループ 6819" transform="translate(-1419 -2934)">
    <rect id="長方形_5026" data-name="長方形 5026" width="100" height="100" transform="translate(1419 2934)" fill="none"/>
    <g id="グループ_6812" data-name="グループ 6812" transform="translate(1421 2957.002)">
      <g id="グループ_6790" data-name="グループ 6790" transform="translate(0 -0.002)" clip-path="url(#clip-path)">
        <path id="パス_9512" data-name="パス 9512" d="M661.137,418.629H637.055A7.416,7.416,0,0,0,635.9,413.3H655.27l9.271-8.617,2.876-19.7a1.914,1.914,0,0,1,.477-.061h14.478c7,0,11.518,12.346,10.151,26.9h.588a.548.548,0,0,1,.554.648l-.8,5.51a.779.779,0,0,1-.743.649H684.7a7.031,7.031,0,0,0-7.115-8.332,9.981,9.981,0,0,0-9.547,8.332Zm-40.744,0h-.42a2.193,2.193,0,0,1-2.215-2.593l.4-2.738H623.1a9.68,9.68,0,0,0-2.707,5.331m52.653-31.008a1.471,1.471,0,0,0-1.4,1.224l-.818,5.6c-.219,1.5-.332,1.334,1.175,1.334h7.577a4.2,4.2,0,0,1,2.817.584l1.6,1.006a3.657,3.657,0,0,0,2.545.783l1.844.021c1.329.015,1.021-.163.812-1.367-.942-5.431-3.339-9.19-6.493-9.19Z" transform="translate(-596.924 -371.955)" fill="#5fc1aa" fill-rule="evenodd"/>
        <path id="パス_9513" data-name="パス 9513" d="M67.568,0H23.7a2.6,2.6,0,0,0-2.476,2.161l-.76,5.208h-9.3a1.689,1.689,0,0,0-1.616,1.41,1.19,1.19,0,0,0,1.2,1.41H35.927a.861.861,0,0,1,0,1.723H19.8l-.879,6.018H1.631a1.689,1.689,0,0,0-1.616,1.41,1.19,1.19,0,0,0,1.2,1.41H26.39a.861.861,0,1,1,0,1.723H18.262l-.878,6.018h-9.3A1.69,1.69,0,0,0,6.468,29.9a1.19,1.19,0,0,0,1.2,1.41H32.844a.861.861,0,0,1,0,1.723H16.72l-.509,3.485a1.829,1.829,0,0,0,1.846,2.161H57.574l7.531-7L69.414,2.159A1.828,1.828,0,0,0,67.568,0" transform="translate(0 0.002)" fill="#5fc1aa" fill-rule="evenodd"/>
        <path id="パス_9514" data-name="パス 9514" d="M749.64,1185.58a5.782,5.782,0,0,1,4.478,1.975,5.917,5.917,0,0,1,1.279,4.766,7.92,7.92,0,0,1-2.67,4.766,7.767,7.767,0,0,1-5.054,1.974,5.782,5.782,0,0,1-4.478-1.974,5.917,5.917,0,0,1-1.279-4.766,7.919,7.919,0,0,1,2.67-4.766,7.767,7.767,0,0,1,5.054-1.975m2.193,3.969a3.363,3.363,0,0,0-2.6-1.148,4.52,4.52,0,0,0-2.94,1.148,4.608,4.608,0,0,0-1.553,2.772,3.442,3.442,0,0,0,.744,2.772,3.362,3.362,0,0,0,2.6,1.148,4.517,4.517,0,0,0,2.94-1.148,4.609,4.609,0,0,0,1.553-2.772,3.442,3.442,0,0,0-.744-2.772" transform="translate(-716.856 -1145.646)" fill="#5fc1aa"/>
        <path id="パス_9515" data-name="パス 9515" d="M2164.228,1185.58a5.782,5.782,0,0,1,4.478,1.975,5.916,5.916,0,0,1,1.279,4.766,7.918,7.918,0,0,1-2.67,4.766,7.766,7.766,0,0,1-5.054,1.974,5.782,5.782,0,0,1-4.478-1.974,5.916,5.916,0,0,1-1.279-4.766,7.917,7.917,0,0,1,2.67-4.766,7.766,7.766,0,0,1,5.054-1.975m2.193,3.969a3.364,3.364,0,0,0-2.6-1.148,4.517,4.517,0,0,0-2.94,1.148,4.608,4.608,0,0,0-1.553,2.772,3.444,3.444,0,0,0,.744,2.772,3.363,3.363,0,0,0,2.605,1.148,4.517,4.517,0,0,0,2.94-1.148,4.607,4.607,0,0,0,1.553-2.772,3.443,3.443,0,0,0-.744-2.772" transform="translate(-2083.797 -1145.646)" fill="#5fc1aa"/>
      </g>
    </g>
  </g>
</svg>
