<svg xmlns="http://www.w3.org/2000/svg" xmlns:xlink="http://www.w3.org/1999/xlink" width="374.462" height="325.886" viewBox="0 0 374.462 325.886">
  <defs>
    <clipPath id="clip-path">
      <rect id="長方形_5099" data-name="長方形 5099" width="353.578" height="304.724" fill="none"/>
    </clipPath>
  </defs>
  <g id="グループ_7004" data-name="グループ 7004" transform="translate(15.948 0) rotate(3)" opacity="0.708">
    <path id="パス_9740" data-name="パス 9740" d="M0,64.418l5.28,5.688H174.65V5.373L116.66,3.925Z" transform="translate(0 14.176)" fill="#429a6b" opacity="0.5"/>
    <path id="パス_9741" data-name="パス 9741" d="M64.033,0V264.342H61.76l103.145,31.391L232.853,61.007Z" transform="translate(116.081)" fill="#429a6b" opacity="0.5"/>
    <path id="パス_9742" data-name="パス 9742" d="M17.194,56.595v137.5l103.2-83.711,20.651,6.285V56.595Z" transform="translate(33.609 105.055)" fill="#429a6b" opacity="0.5"/>
    <g id="グループ_7001" data-name="グループ 7001" transform="translate(0 0)" opacity="0.5">
      <g id="グループ_7000" data-name="グループ 7000" transform="translate(0 0)" clip-path="url(#clip-path)">
        <path id="パス_9743" data-name="パス 9743" d="M147.246,94.12V30.732H14.019l4.181,4.5a19.465,19.465,0,0,1,5.2,13.243V94.12Z" transform="translate(27.404 60.074)" fill="#429a6b"/>
      </g>
    </g>
    <g id="グループ_7003" data-name="グループ 7003" transform="translate(5.574 2.787)">
      <g id="グループ_7002" data-name="グループ 7002" transform="translate(0 0)" clip-path="url(#clip-path)">
        <path id="パス_9744" data-name="パス 9744" d="M37.13,35.4,30.981,37.02a1.832,1.832,0,0,1-.349.05c-.621,0-.836-.78-.836-1.291,0-.434.216-.65.674-.783l2.1-.564V22.3H30.712c-.594,0-.889-.242-.889-1.052,0-.78.3-1.049.889-1.049h1.861V14.4c0-.594.242-.919,1.025-.919s1.049.325,1.049.919v5.8h1.808c.594,0,.916.269.916,1.049,0,.81-.322,1.052-.916,1.052H34.648V33.891l1.994-.538a1.72,1.72,0,0,1,.352-.056c.378,0,.647.242.783.836a3.2,3.2,0,0,1,.053.431c0,.485-.242.7-.7.836M53.2,24.911h-.57V35.749A1.538,1.538,0,0,1,50.9,37.475H49.478a1.019,1.019,0,0,1,0-1.994h1.135V24.911H39.151c-.594,0-.863-.242-.863-1,0-.73.269-1,.863-1H53.2c.591,0,.886.269.886,1,0,.753-.3,1-.886,1m-.65-7.709H45.243l-3.637,4.45a.834.834,0,0,1-.647.375c-.434,0-1.241-.594-1.241-1.078a.86.86,0,0,1,.242-.538L42.575,17.2H39.718c-.567,0-.836-.242-.836-.969s.269-1,.836-1h4.476l1.483-1.808a.93.93,0,0,1,.753-.4c.431,0,1.265.428,1.265.913a.867.867,0,0,1-.242.541l-.62.756h5.717c.567,0,.863.269.863,1s-.3.969-.863.969M46.322,35.563H41.334a1.549,1.549,0,0,1-1.726-1.752V28.74a1.549,1.549,0,0,1,1.726-1.752h4.988a1.555,1.555,0,0,1,1.752,1.752v5.07a1.555,1.555,0,0,1-1.752,1.752m-.106-6.743H41.494v4.908h4.722Zm4.961-6.713a.919.919,0,0,1-.594-.269l-2.8-2.482a.733.733,0,0,1-.325-.564,1.423,1.423,0,0,1,1.135-1.052.85.85,0,0,1,.591.269l2.8,2.455a.771.771,0,0,1,.325.567,1.455,1.455,0,0,1-1.132,1.076" transform="translate(58.244 25.459)" fill="#fff"/>
        <path id="パス_9745" data-name="パス 9745" d="M63.71,36.289H41.221c-.62,0-.916-.242-.916-1.052s.3-1.078.916-1.078H51.359V25.236H43.514c-.62,0-.916-.269-.916-1.081s.3-1.076.916-1.076h7.845V15.556H42.7c-.594,0-.889-.245-.889-1.052,0-.783.3-1.052.889-1.052H62.2c.591,0,.916.269.916,1.052,0,.807-.325,1.052-.916,1.052H53.6v7.523h7.818c.62,0,.946.269.946,1.076s-.325,1.081-.946,1.081H53.6v8.923H63.71c.621,0,.943.269.943,1.078s-.322,1.052-.943,1.052m-2.751-4.1c-.3,0-.485-.163-.677-.514l-1.669-3.259a1.135,1.135,0,0,1-.136-.461c0-.511.81-.972,1.268-.972a.734.734,0,0,1,.65.488l1.7,3.262a.94.94,0,0,1,.136.485c0,.514-.81.972-1.268.972" transform="translate(78.787 26.295)" fill="#fff"/>
        <path id="パス_9746" data-name="パス 9746" d="M98.7,55.921H88.62V66.3c0,.644-.3.969-1.158.969s-1.135-.325-1.135-.969V55.921H76.219c-.62,0-.919-.242-.919-1.052s.3-1.078.919-1.078H86.327V46.457l-8.3,1.321c-.674,0-.833-.727-.833-1.268s.266-.753.753-.836l18.577-2.967c.674,0,.886.756.886,1.324,0,.485-.266.7-.751.78l-8.037,1.3V53.79H98.7c.621,0,.943.269.943,1.078s-.322,1.052-.943,1.052" transform="translate(141.619 80.695)" fill="#fff"/>
        <path id="パス_9747" data-name="パス 9747" d="M109.385,46.024h-4.692v.7c0,.62-.272.916-1.078.916s-1.052-.3-1.052-.916v-.7H93.53v.7c0,.62-.269.916-1.076.916s-1.055-.3-1.055-.916v-.7H86.681c-.538,0-.78-.216-.78-.886s.242-.919.78-.919H91.4V43.7c0-.621.242-.943,1.055-.943s1.076.322,1.076.943v.514h9.033V43.7c0-.621.242-.943,1.052-.943s1.078.322,1.078.943v.514h4.692c.538,0,.807.242.807.919s-.269.886-.807.886m.053,15.344H99.059v4.9c0,.594-.269.863-1.025.863-.78,0-1.022-.269-1.022-.863v-4.9h-.242l-8.495,5.605a1.047,1.047,0,0,1-.488.163c-.458,0-.969-.81-.969-1.211a.72.72,0,0,1,.431-.621l6.175-3.936H86.711c-.538,0-.78-.219-.78-.919,0-.674.242-.916.78-.916h10.3V57.725H90.079a1.393,1.393,0,0,1-1.56-1.563V51.549H86.681c-.538,0-.78-.213-.78-.886s.242-.919.78-.919h1.838v-.671c0-.6.242-.919,1.049-.919.783,0,1.049.322,1.049.919v.671H96.55v-.7c0-.591.242-.916,1.025-.916s1.049.325,1.049.916v.7h6.527v-.727c0-.591.242-.889,1.025-.889.753,0,1.025.3,1.025.889v.727h2.184c.538,0,.807.242.807.919s-.269.886-.807.886H107.2v1.483c0,1.025-.567,1.433-1.566,1.433h-7.52c-1,0-1.566-.408-1.566-1.433V51.549H90.617v4.4h18.255c.514,0,.783.245.783.889,0,.674-.269.889-.783.889H99.059v1.808h10.38c.538,0,.81.242.81.916,0,.7-.272.919-.81.919m-4.287-10.031H98.624V52.9h6.527Zm3.992,15.288c-.245.4-.488.564-.756.564a1.029,1.029,0,0,1-.485-.16l-5.339-3.371a.727.727,0,0,1-.431-.62c0-.431.485-1.214.943-1.214a1.049,1.049,0,0,1,.514.163l5.31,3.345c.3.186.458.375.458.644a1.427,1.427,0,0,1-.213.65" transform="translate(162.342 80.802)" fill="#fff"/>
        <path id="パス_9748" data-name="パス 9748" d="M50.529,41.337H40.362v2.319H48.1a1.541,1.541,0,0,1,1.729,1.726v7.2A1.541,1.541,0,0,1,48.1,54.309H40.362v6.6c0,.647-.3.969-1.129.969-.863,0-1.138-.322-1.138-.969v-6.6h-.16L29.282,61.1a.882.882,0,0,1-.538.245c-.488,0-1.025-.839-1.025-1.3a.88.88,0,0,1,.4-.674l6.495-5.067H30.36a1.54,1.54,0,0,1-1.726-1.726v-7.2a1.54,1.54,0,0,1,1.726-1.726H38.1V41.337H27.878c-.564,0-.833-.242-.833-.969s.269-.969.833-.969H38.1v-.836c0-.647.275-1,1.138-1,.833,0,1.129.352,1.129,1V39.4H50.529c.564,0,.863.242.863.969s-.3.969-.863.969M38.1,45.6H30.821v2.426H38.1Zm0,4.311H30.821v2.426H38.1Zm9.52-4.311H40.362v2.426h7.254Zm0,4.311H40.362v2.426h7.254Zm2.807,10.894c-.275.349-.517.511-.756.511a.887.887,0,0,1-.567-.242l-5.011-4.042a.839.839,0,0,1-.381-.65c0-.458.618-1.241,1.105-1.241a1.007,1.007,0,0,1,.567.272l4.958,4.016a.866.866,0,0,1,.378.647,1.2,1.2,0,0,1-.293.73" transform="translate(47.292 70.641)" fill="#fff"/>
        <path id="パス_9749" data-name="パス 9749" d="M61.05,41.2H38.508c-.591,0-.863-.242-.863-1s.272-1.022.863-1.022H48.646V38.56c0-.644.272-1,1.135-1,.836,0,1.132.352,1.132,1v.623H61.05c.591,0,.889.266.889,1.022s-.3,1-.889,1M43.2,56.114l-2.506,4.742c-.189.355-.4.541-.727.541-.461,0-1.347-.458-1.347-1a1,1,0,0,1,.16-.514l2.509-4.716a.812.812,0,0,1,.727-.541c.485,0,1.347.428,1.347.969a1.049,1.049,0,0,1-.163.514m15.152-2.7H50.885v7.5c0,.647-.3.943-1.132.943s-1.108-.3-1.108-.943v-7.5h-7.44A2,2,0,0,1,39.184,51.4V45.923A2,2,0,0,1,41.205,43.9H58.352a2,2,0,0,1,2.024,2.024V51.4a2,2,0,0,1-2.024,2.021m-.163-7.549H41.338v5.555H58.189Zm1.3,15.53a.822.822,0,0,1-.756-.541l-2.509-4.742a1.042,1.042,0,0,1-.16-.514c0-.541.863-.969,1.347-.969.322,0,.538.186.727.541l2.535,4.716a1.04,1.04,0,0,1,.163.514c0,.538-.892,1-1.347,1" transform="translate(68.013 70.641)" fill="#fff"/>
        <path id="パス_9750" data-name="パス 9750" d="M31.345,66.742,28.06,72.161V85.1c0,.594-.272.863-1,.863-.756,0-1-.269-1-.863v-9.68l-2.319,3.8a.718.718,0,0,1-.591.434A1.5,1.5,0,0,1,21.964,78.5a1,1,0,0,1,.189-.564l7.091-11.459H23.069c-.594,0-.886-.242-.886-1.025s.293-1.052.886-1.052H25.82V62.564c0-.594.242-.889,1-.889.727,0,1,.3,1,.889V64.4h2.051a1.57,1.57,0,0,1,1.752,1.457,1.665,1.665,0,0,1-.272.889m.109,12.673a.779.779,0,0,1-.538-.3l-2.051-2.074a.746.746,0,0,1-.272-.538,1.4,1.4,0,0,1,1.025-1.081.773.773,0,0,1,.541.3L32.208,77.8a.835.835,0,0,1,.3.564,1.358,1.358,0,0,1-1.052,1.055m12.295,2.266h-3.4V85.02c0,.62-.269.919-1.078.919s-1.052-.3-1.052-.919V81.681H34.8a1.743,1.743,0,0,1-1.859-1.861V65.908A1.74,1.74,0,0,1,34.8,64.047h3.425V62.564c0-.62.242-.946,1.052-.946s1.078.325,1.078.946v1.483h3.4a1.74,1.74,0,0,1,1.859,1.862V79.819a1.743,1.743,0,0,1-1.859,1.861M38.277,66.068H34.906V72h3.371Zm0,7.981H34.906v5.584h3.371Zm5.363-7.981H40.3V72H43.64Zm0,7.981H40.3v5.584H43.64Z" transform="translate(42.934 114.874)" fill="#fff"/>
        <path id="パス_9751" data-name="パス 9751" d="M55.957,78.361H45.875v6.5c0,.644-.3.969-1.158.969s-1.135-.325-1.135-.969v-6.5H33.474c-.594,0-.892-.242-.892-1.022s.3-1.055.892-1.055H55.957c.594,0,.919.272.919,1.055s-.325,1.022-.919,1.022M55.741,66.04H41.1l-6.66,6.172a.883.883,0,0,1-.594.3A1.541,1.541,0,0,1,32.718,71.3a.89.89,0,0,1,.349-.677l4.991-4.583h-4.37c-.591,0-.889-.242-.889-1.022s.3-1.055.889-1.055h6.633l2.157-1.992a1,1,0,0,1,.647-.3c.458,0,1.268.564,1.268,1.049a.8.8,0,0,1-.322.57l-.73.671h12.4c.594,0,.919.272.919,1.055s-.325,1.022-.919,1.022M38.193,81.3l-2.482,3.826a.8.8,0,0,1-.647.434c-.434,0-1.214-.541-1.214-1a.874.874,0,0,1,.189-.541l2.509-3.853c.186-.272.378-.434.621-.434.455,0,1.211.57,1.211,1.025a.907.907,0,0,1-.186.541m13.072-8.575H38.057c-.594,0-.889-.242-.889-1.022s.3-1.052.889-1.052H51.265c.6,0,.919.269.919,1.052s-.322,1.022-.919,1.022m5.177-.7a1.027,1.027,0,0,1-.807.538.979.979,0,0,1-.591-.242l-5.88-4.311a.8.8,0,0,1-.4-.647c0-.461.567-1.191,1.052-1.191a1.1,1.1,0,0,1,.567.219l5.957,4.231a.891.891,0,0,1,.434.677,1.284,1.284,0,0,1-.328.727M54.394,85.562a.8.8,0,0,1-.647-.434L51.265,81.3a.888.888,0,0,1-.186-.541c0-.455.756-1.025,1.211-1.025.245,0,.431.163.621.434l2.509,3.853a.93.93,0,0,1,.189.541c0,.485-.756,1-1.214,1" transform="translate(63.69 114.982)" fill="#fff"/>
        <path id="パス_9752" data-name="パス 9752" d="M45.514,84.288c-.109.514-.325.81-.863.81-.594,0-1.35-.213-1.35-.946a.9.9,0,0,1,.03-.266l2.021-10.463V62.907c0-.647.269-.969,1.108-.969s1.132.322,1.132.969V73.586Zm10.108.567c-.863,0-1.132-.325-1.132-.969V63.259c0-.644.269-1,1.132-1s1.161.355,1.161,1V83.886c0,.644-.3.969-1.161.969m9.142.352c-.836,0-1.105-.3-1.105-.943V62.907c0-.647.269-.969,1.105-.969s1.132.322,1.132.969V84.264c0,.644-.3.943-1.132.943" transform="translate(84.643 115.5)" fill="#fff"/>
      </g>
    </g>
  </g>
</svg>
