<svg xmlns="http://www.w3.org/2000/svg" xmlns:xlink="http://www.w3.org/1999/xlink" width="436.238" height="475.761" viewBox="0 0 436.238 475.761">
  <defs>
    <clipPath id="clip-path">
      <rect id="長方形_5111" data-name="長方形 5111" width="374.785" height="422.332" fill="#5fc1aa"/>
    </clipPath>
  </defs>
  <g id="グループ_7023" data-name="グループ 7023" transform="translate(0 58.629) rotate(-9)" opacity="0.2">
    <path id="パス_9761" data-name="パス 9761" d="M138.554,482.6,144.9,500.2l20.2-7.895h-.57V478.582Z" transform="translate(-49.744 -171.821)" fill="#5fc1aa"/>
    <path id="パス_9762" data-name="パス 9762" d="M287.919,413.828l1.88-14.941h-7.1l-6.626,14.941Z" transform="translate(-99.117 -143.209)" fill="#5fc1aa"/>
    <path id="パス_9763" data-name="パス 9763" d="M88.755,489.731l24.866-16.138-1.22-12.254L83.5,482.174Z" transform="translate(-29.979 -165.631)" fill="#5fc1aa"/>
    <path id="パス_9764" data-name="パス 9764" d="M136.318,470.913l26.972-4.166v-9.034l-28.2.854Z" transform="translate(-48.5 -164.329)" fill="#5fc1aa"/>
    <path id="パス_9765" data-name="パス 9765" d="M173.941,518.2l-1.722-5.637-21.808,8.165,4.734,7.9Z" transform="translate(-54.001 -184.02)" fill="#5fc1aa"/>
    <path id="パス_9766" data-name="パス 9766" d="M203.351,482.685v-8.646l-11.677-16.808-5.892.179v26.642l9.92.249Z" transform="translate(-66.7 -164.156)" fill="#5fc1aa"/>
    <path id="パス_9767" data-name="パス 9767" d="M340.81,423.919l13.018-6.75V398.887H340.81Z" transform="translate(-122.358 -143.209)" fill="#5fc1aa"/>
    <path id="パス_9768" data-name="パス 9768" d="M383.526,398.887h-15.71v17.494l5.2.13,10.511-3.777Z" transform="translate(-132.054 -143.209)" fill="#5fc1aa"/>
    <g id="グループ_7022" data-name="グループ 7022">
      <g id="グループ_7021" data-name="グループ 7021" clip-path="url(#clip-path)">
        <path id="パス_9769" data-name="パス 9769" d="M299.624,416.443l-2.077,28.029h13.822V427.9a2.146,2.146,0,0,1,2.146-2.146h7.471V398.887H301.833Z" transform="translate(-106.826 -143.209)" fill="#5fc1aa"/>
        <path id="パス_9770" data-name="パス 9770" d="M264.208,441.62a2.146,2.146,0,0,1-2.146,2.146h-7.119l5.455,11.479h17.549l1.953-26.353H266.585l-2.377,5.361Z" transform="translate(-91.53 -153.982)" fill="#5fc1aa"/>
        <path id="パス_9771" data-name="パス 9771" d="M325.808,447.5v14.428h13.723v-9.449l-4.624-4.979Z" transform="translate(-116.972 -160.661)" fill="#5fc1aa"/>
        <path id="パス_9772" data-name="パス 9772" d="M364.433,432.974l-6.4-.16-12.865,6.671.582.627h18.679Z" transform="translate(-123.924 -155.389)" fill="#5fc1aa"/>
        <path id="パス_9773" data-name="パス 9773" d="M119.1,487.261l-23.579,15.3,7.662,11.022,22.273-8.706Z" transform="translate(-34.294 -174.937)" fill="#5fc1aa"/>
        <path id="パス_9774" data-name="パス 9774" d="M218.336,489.725l-2.343-1.406v7.268a2.145,2.145,0,0,1-1.7,2.1l-5.252,1.109v7.05h9.3Z" transform="translate(-75.049 -175.317)" fill="#5fc1aa"/>
        <path id="パス_9775" data-name="パス 9775" d="M288.9,476.7H266.635l5.621,11.83H284.3Z" transform="translate(-95.728 -171.146)" fill="#5fc1aa"/>
        <path id="パス_9776" data-name="パス 9776" d="M399.26,276.023l4.915-38.266H383.1v27.281l-3.16,5.955Z" transform="translate(-136.407 -85.36)" fill="#5fc1aa"/>
        <path id="パス_9777" data-name="パス 9777" d="M416.028,183.7l-31.157,8.078v22.28H423.9Z" transform="translate(-138.177 -65.952)" fill="#5fc1aa"/>
        <path id="パス_9778" data-name="パス 9778" d="M39.64,597.005,52.483,579.6l-7.354-6.922-11.877,5.649,4.073,3.259-3.789,15.42Z" transform="translate(-11.938 -205.603)" fill="#5fc1aa"/>
        <path id="パス_9779" data-name="パス 9779" d="M64.829,550.753l-8,11.206,7.824,7.365H78.817l2.877-7.919Z" transform="translate(-20.404 -197.732)" fill="#5fc1aa"/>
        <path id="パス_9780" data-name="パス 9780" d="M74.466,586.422H62.1L49.057,604.1l12.649,17.454Z" transform="translate(-17.612 -210.538)" fill="#5fc1aa"/>
        <path id="パス_9781" data-name="パス 9781" d="M69.5,497.761,54.21,508.786l4.232,11.54h22.31l3.489-1.364Z" transform="translate(-19.462 -178.707)" fill="#5fc1aa"/>
        <path id="パス_9782" data-name="パス 9782" d="M22.083,563.383l5.9-8.378-7.994-5.156-5.177,6.09Z" transform="translate(-5.318 -197.408)" fill="#5fc1aa"/>
        <path id="パス_9783" data-name="パス 9783" d="M34.535,531.364l-7.269,8.55,9.394,6.058a2.147,2.147,0,0,1,.592,3.039l-7.207,10.231,11.913-5.666,8.62-12.08Z" transform="translate(-9.789 -190.771)" fill="#5fc1aa"/>
        <path id="パス_9784" data-name="パス 9784" d="M236.307,494.963h-4.751a2.133,2.133,0,0,1-1.1-.312l0,.006-.212-.127v23.932h1.492l4.575-4.52Z" transform="translate(-82.661 -177.547)" fill="#5fc1aa"/>
        <path id="パス_9785" data-name="パス 9785" d="M223.873,532.746h-3.391a2.146,2.146,0,0,1-2.146-2.146v-8.24h-9.3v19.491h16.54l2.529-2.943Z" transform="translate(-75.049 -187.538)" fill="#5fc1aa"/>
        <path id="パス_9786" data-name="パス 9786" d="M140.162,546.623,112.992,561.7l4.25,11.816,28.2-18.083Z" transform="translate(-40.567 -196.249)" fill="#5fc1aa"/>
        <path id="パス_9787" data-name="パス 9787" d="M161.239,537.818l5.136,8.572,15.373-9.858-2.636-8.63Z" transform="translate(-57.888 -189.529)" fill="#5fc1aa"/>
        <path id="パス_9788" data-name="パス 9788" d="M35.734,617.328H28.587L22.4,642.492H48.561l1.806-4.974Z" transform="translate(-8.043 -221.634)" fill="#5fc1aa"/>
        <path id="パス_9789" data-name="パス 9789" d="M134.446,536.14l-5.065-8.454-26.162,9.794,4.793,13.326Z" transform="translate(-37.058 -189.451)" fill="#5fc1aa"/>
        <path id="パス_9790" data-name="パス 9790" d="M381.778,435.273v29.152h-.251l11.375,3.462L400.4,442Z" transform="translate(-136.976 -156.273)" fill="#5fc1aa"/>
        <path id="パス_9791" data-name="パス 9791" d="M431.306,0,410.535,60.434H392.071l-15,25.387,9.232,30.773,24.618-8.078-10-23.849L429,81.59l23.464,19.233,57.7-40.389Z" transform="translate(-135.376 0)" fill="#5fc1aa"/>
        <path id="パス_9792" data-name="パス 9792" d="M421.669,237.757l-5.055,39.356,21.929,5.711,5.037-17.4-7.173-27.665Z" transform="translate(-149.574 -85.36)" fill="#5fc1aa"/>
        <path id="パス_9793" data-name="パス 9793" d="M367.571,468.5H353.912v15.164l11.381-9.232,2.277.693Z" transform="translate(-127.062 -168.201)" fill="#5fc1aa"/>
        <path id="パス_9794" data-name="パス 9794" d="M252.866,480.509l-4.409,8.282a2.145,2.145,0,0,1-1.894,1.138H243.49V509.8a2.146,2.146,0,0,1-.638,1.527l-4.562,4.508,3.213,4.675,18.042-21,.181-4.564Z" transform="translate(-85.551 -172.513)" fill="#5fc1aa"/>
        <path id="パス_9795" data-name="パス 9795" d="M6.7,564.474,0,572.357l6.411,11.411,10.647-8.692Z" transform="translate(0 -202.658)" fill="#5fc1aa"/>
        <path id="パス_9796" data-name="パス 9796" d="M366.992,457.888V450.9H352.3l.461.5a2.147,2.147,0,0,1,.573,1.46v5.034Z" transform="translate(-126.483 -161.882)" fill="#5fc1aa"/>
        <path id="パス_9797" data-name="パス 9797" d="M225.908,445.271l4.5,5.2,9.536-6.048-.763-1.607a2.146,2.146,0,0,1,1.938-3.067h8.368v-4.364l-11.136-5.719Z" transform="translate(-81.106 -154.26)" fill="#5fc1aa"/>
        <path id="パス_9798" data-name="パス 9798" d="M330.761,476.7H305.975l-4.594,11.83h29.379Z" transform="translate(-108.202 -171.146)" fill="#5fc1aa"/>
        <path id="パス_9799" data-name="パス 9799" d="M410.825,398.887H394.471v15.355a2.146,2.146,0,0,1-1.42,2.02l-6.7,2.41,16.976,6.134Z" transform="translate(-138.707 -143.209)" fill="#5fc1aa"/>
        <path id="パス_9800" data-name="パス 9800" d="M240.392,477.838h3.93l5.3-9.954-4.322-9.1-9.658,6.126v12.925h4.2v.08a2.139,2.139,0,0,1,.551-.08" transform="translate(-84.6 -164.714)" fill="#5fc1aa"/>
        <path id="パス_9801" data-name="パス 9801" d="M213.164,471.5l6.451,3.871V463.71l-6.244-7.213-10.412.315Z" transform="translate(-72.867 -163.892)" fill="#5fc1aa"/>
        <path id="パス_9802" data-name="パス 9802" d="M371,295.687l-10.2,19.21,22.711,11.516,7.847-25.423Z" transform="translate(-129.537 -106.158)" fill="#5fc1aa"/>
        <path id="パス_9803" data-name="パス 9803" d="M259.1,412.036l10.08-22.73V376.485H256.485v22.022l-6.9,8.644Z" transform="translate(-89.608 -135.166)" fill="#5fc1aa"/>
        <path id="パス_9804" data-name="パス 9804" d="M331.663,370.427l12.368-34.455-8.678-4.4-9.1,17.153-30.733,21.7Z" transform="translate(-106.097 -119.041)" fill="#5fc1aa"/>
        <rect id="長方形_5110" data-name="長方形 5110" width="27.899" height="14.103" transform="matrix(0.93, -0.368, 0.368, 0.93, 244.484, 395.485)" fill="#5fc1aa"/>
        <path id="パス_9805" data-name="パス 9805" d="M370.691,341.489l-11.667,32.5h43.234l4.163-14.382Z" transform="translate(-128.897 -122.602)" fill="#5fc1aa"/>
        <path id="パス_9806" data-name="パス 9806" d="M410.419,305.648l-8.121,26.31,20.874,10.584,9.037-31.221Z" transform="translate(-144.434 -109.734)" fill="#5fc1aa"/>
        <path id="パス_9807" data-name="パス 9807" d="M436.865,539.91l.076,4.005-99.5,1.878L297.2,616.171l-3.478-1.989L335.1,541.831Z" transform="translate(-105.451 -193.839)" fill="#5fc1aa"/>
      </g>
    </g>
  </g>
</svg>
