<svg xmlns="http://www.w3.org/2000/svg" xmlns:xlink="http://www.w3.org/1999/xlink" width="227.064" height="27.69" viewBox="0 0 227.064 27.69">
  <defs>
    <clipPath id="clip-path">
      <rect id="長方形_5062" data-name="長方形 5062" width="227.064" height="27.69" fill="#fff"/>
    </clipPath>
  </defs>
  <g id="グループ_6942" data-name="グループ 6942" transform="translate(0 0)">
    <path id="パス_9604" data-name="パス 9604" d="M117.877,15.357l7.964-10.363H133.9l-9.963,11.9,10.9,13.228h-8.463l-8.5-10.9v10.9h-6.531V4.994h6.531Z" transform="translate(-68.251 -3.061)" fill="#fff"/>
    <g id="グループ_6875" data-name="グループ 6875" transform="translate(0 0)">
      <g id="グループ_6874" data-name="グループ 6874" clip-path="url(#clip-path)">
        <path id="パス_9605" data-name="パス 9605" d="M177.629,3.4a3.277,3.277,0,0,1,.267-1.316A3.46,3.46,0,0,1,179.712.267a3.381,3.381,0,0,1,2.632,0,3.462,3.462,0,0,1,1.816,1.816,3.29,3.29,0,0,1,.266,1.316,3.289,3.289,0,0,1-.266,1.316,3.459,3.459,0,0,1-1.816,1.816,3.381,3.381,0,0,1-2.632,0A3.456,3.456,0,0,1,177.9,4.715a3.276,3.276,0,0,1-.267-1.316m6.431,23.658h-6.031V9.963h6.031Z" transform="translate(-108.88 0)" fill="#fff"/>
        <path id="パス_9606" data-name="パス 9606" d="M205.824,25.162h6.031v2.166a6.593,6.593,0,0,1,2.5-2.016,7.814,7.814,0,0,1,2.965-.517,7.412,7.412,0,0,1,3.082.583,6.155,6.155,0,0,1,2.183,1.649,4.755,4.755,0,0,1,1,1.933,10.07,10.07,0,0,1,.267,2.432V42.255H217.82v-8.63a9.33,9.33,0,0,0-.183-2.049,2.543,2.543,0,0,0-.65-1.25,2.289,2.289,0,0,0-.9-.567,3.362,3.362,0,0,0-1.066-.166,2.982,2.982,0,0,0-2.349.916,3.8,3.8,0,0,0-.816,2.616v9.13h-6.031Z" transform="translate(-126.163 -15.198)" fill="#fff"/>
        <path id="パス_9607" data-name="パス 9607" d="M263.824,25.162h6.031v2.166a6.592,6.592,0,0,1,2.5-2.016,7.813,7.813,0,0,1,2.965-.517,7.412,7.412,0,0,1,3.082.583,6.155,6.155,0,0,1,2.183,1.649,4.755,4.755,0,0,1,1,1.933,10.069,10.069,0,0,1,.267,2.432V42.255H275.82v-8.63a9.33,9.33,0,0,0-.183-2.049,2.543,2.543,0,0,0-.65-1.25,2.289,2.289,0,0,0-.9-.567,3.362,3.362,0,0,0-1.066-.166,2.982,2.982,0,0,0-2.349.916,3.8,3.8,0,0,0-.816,2.616v9.13h-6.031Z" transform="translate(-161.715 -15.198)" fill="#fff"/>
        <path id="パス_9608" data-name="パス 9608" d="M319.6,33.137a8.314,8.314,0,0,1,.766-3.549,8.716,8.716,0,0,1,2.133-2.866,10.143,10.143,0,0,1,3.249-1.916,11.726,11.726,0,0,1,4.115-.7,11.89,11.89,0,0,1,4.082.683,10.11,10.11,0,0,1,3.265,1.9,8.542,8.542,0,0,1,2.149,2.9,8.87,8.87,0,0,1,.766,3.716,8.7,8.7,0,0,1-.783,3.715,8.814,8.814,0,0,1-2.15,2.9,9.61,9.61,0,0,1-3.282,1.883,12.557,12.557,0,0,1-4.148.666A12.015,12.015,0,0,1,325.7,41.8a9.37,9.37,0,0,1-3.215-1.9,8.809,8.809,0,0,1-2.116-2.949,9.246,9.246,0,0,1-.766-3.815m6.364.067a3.869,3.869,0,0,0,.317,1.583,4.211,4.211,0,0,0,.833,1.249,3.657,3.657,0,0,0,1.233.833,3.982,3.982,0,0,0,3.032,0,3.67,3.67,0,0,0,1.233-.833,4.241,4.241,0,0,0,.833-1.249,3.793,3.793,0,0,0,.317-1.55,3.713,3.713,0,0,0-.317-1.516,4.258,4.258,0,0,0-.833-1.249,3.675,3.675,0,0,0-1.233-.833,3.982,3.982,0,0,0-3.032,0,3.661,3.661,0,0,0-1.233.833,4.287,4.287,0,0,0-.833,1.233,3.591,3.591,0,0,0-.317,1.5" transform="translate(-195.906 -14.777)" fill="#fff"/>
        <path id="パス_9609" data-name="パス 9609" d="M383.047,4.994h9.73a7.488,7.488,0,0,1,5.264,1.666,6.215,6.215,0,0,1,1.8,4.8,6.517,6.517,0,0,1-.683,3.149,5.739,5.739,0,0,1-2.083,2.116,7.907,7.907,0,0,1,2.383.816,5.188,5.188,0,0,1,1.6,1.35,5.055,5.055,0,0,1,.883,1.8,8.255,8.255,0,0,1,.267,2.133,7.541,7.541,0,0,1-.617,3.133,6.362,6.362,0,0,1-1.732,2.3,7.41,7.41,0,0,1-2.716,1.4,12.84,12.84,0,0,1-3.6.466h-10.5Zm6.531,9.863h1.2q3.065,0,3.065-2.433t-3.065-2.433h-1.2Zm0,10.2h1.433a7.281,7.281,0,0,0,3.532-.633,2.185,2.185,0,0,0,1.067-2.032,2.186,2.186,0,0,0-1.067-2.033,7.291,7.291,0,0,0-3.532-.633h-1.433Z" transform="translate(-234.794 -3.061)" fill="#fff"/>
        <path id="パス_9610" data-name="パス 9610" d="M449.514,25.742v9.63q0,3.166,3.065,3.166t3.066-3.166v-9.63h6.031v10.8a6.113,6.113,0,0,1-2.283,5.2q-2.283,1.732-6.815,1.733t-6.814-1.733a6.111,6.111,0,0,1-2.283-5.2v-10.8Z" transform="translate(-271.839 -15.779)" fill="#fff"/>
        <path id="パス_9611" data-name="パス 9611" d="M508.68,22.647V34.709h-6.031V22.647h-2V17.615h2V12.484h6.031v5.131h3.432v5.032Z" transform="translate(-306.88 -7.652)" fill="#fff"/>
        <path id="パス_9612" data-name="パス 9612" d="M549.051,24.9h6.064V41.992h-6.064v-1.9a6.329,6.329,0,0,1-5.232,2.433,8.494,8.494,0,0,1-3.432-.683,8.26,8.26,0,0,1-2.732-1.916,8.838,8.838,0,0,1-1.816-2.9,9.909,9.909,0,0,1-.649-3.632,9.639,9.639,0,0,1,.633-3.482,8.95,8.95,0,0,1,1.766-2.882,8.336,8.336,0,0,1,2.7-1.95,8.238,8.238,0,0,1,3.465-.716,6.965,6.965,0,0,1,5.3,2.232Zm-7.6,8.5a3.987,3.987,0,0,0,1.116,2.8,3.66,3.66,0,0,0,1.233.833,3.972,3.972,0,0,0,1.55.3,3.887,3.887,0,0,0,1.516-.3,3.67,3.67,0,0,0,1.233-.833,4.322,4.322,0,0,0,.833-1.233,3.6,3.6,0,0,0,.316-1.5,3.72,3.72,0,0,0-.316-1.516A4.256,4.256,0,0,0,548.1,30.7a3.688,3.688,0,0,0-1.233-.833,3.894,3.894,0,0,0-1.516-.3,3.979,3.979,0,0,0-1.55.3,3.678,3.678,0,0,0-1.233.833,4.107,4.107,0,0,0-.816,1.216,3.646,3.646,0,0,0-.3,1.483" transform="translate(-328.052 -14.935)" fill="#fff"/>
        <path id="パス_9613" data-name="パス 9613" d="M36.3,10.337a.33.33,0,0,0-.4.24,1.79,1.79,0,0,1-1.581,1.2,2.559,2.559,0,0,0,.307-1.173c.046-1.661-.748-1.968-1.091-2.023a1.447,1.447,0,0,0-1.523,1.058,2.352,2.352,0,0,0,.4,2.105,1.9,1.9,0,0,0,.6.488,3.886,3.886,0,0,1-1.3.509c-.018-.036-.038-.081-.056-.115a13.651,13.651,0,0,0-3.992-4.355c-2.54-2.032-6.9-2.468-9.8-2.54A21.085,21.085,0,0,0,11.4,6.965s-2.032-.218-4.282-.218a15.08,15.08,0,0,0-4.572.871A10.206,10.206,0,0,0,3.847,9.941c.581.581,1.887,1.6,1.887,1.6s-.8.943-1.307,1.6-.218,1.6-.944,2.831S0,17.561,0,17.561a26.626,26.626,0,0,0,1.452,3.919c.29.508,3.121,1.452,3.121,1.452s1.089,1.379,1.742,2.177a10.456,10.456,0,0,0,2.83,1.742l-.508,3.556h4.137L14.08,27.94a23.756,23.756,0,0,0,3.774.435,14.976,14.976,0,0,0,3.266-.435l-.435,2.468h4.79s5.671-6.256,6.822-11.322a9.429,9.429,0,0,0-.321-5.731,4.082,4.082,0,0,0,1.808-.906,2.671,2.671,0,0,0,.465,0,2.449,2.449,0,0,0,2.287-1.71.33.33,0,0,0-.241-.4M6.024,17.126a.944.944,0,1,1,.944-.944.943.943,0,0,1-.944.944M33.556,11.74a1.242,1.242,0,0,1-.64-.413,1.7,1.7,0,0,1-.276-1.5.828.828,0,0,1,.714-.6.459.459,0,0,1,.073.005c.358.057.558.564.536,1.354a1.893,1.893,0,0,1-.408,1.155" transform="translate(0 -3.511)" fill="#fff"/>
      </g>
    </g>
  </g>
</svg>
