<?xml version="1.0" encoding="UTF-8"?><svg id="_レイヤー_2" xmlns="http://www.w3.org/2000/svg" viewBox="0 0 100 83"><defs><style>.cls-1{fill:none;}.cls-2{fill:#fff;}.cls-3{isolation:isolate;}</style></defs><g id="_フローティングバナー_PC_"><rect id="_長方形_2127" class="cls-1" width="100" height="83"/><g class="cls-3"><path class="cls-2" d="M19.17,55.62c-.88,.02-1.74,.04-2.63,.04l-.02-1.32c.37,.01,.74,.01,1.1,.01,.52,0,1.03-.01,1.54-.02v-1.94h1.39v1.9c.85-.05,1.71-.11,2.58-.18l.02,1.32c-.88,.06-1.75,.11-2.62,.14v1.71c1-.34,1.74-.44,2.76-.44,1.93,0,3.12,1.08,3.12,2.71,0,2.22-1.43,3-4.26,3.01-.07-.46-.2-.89-.38-1.33h.24c2.12,0,2.94-.47,2.94-1.63,0-.84-.58-1.49-1.83-1.49-.91,0-1.71,.17-2.58,.5v2.73c0,.96-.47,1.34-1.33,1.34-1.15,0-2.88-.83-2.88-2.15,0-1.2,1.29-2.17,2.84-2.88v-2.04Zm.04,3.41c-.73,.37-1.57,.96-1.57,1.42,0,.48,.79,.88,1.27,.88,.23,0,.3-.08,.3-.31v-1.98Zm4.93-5.9c1.25,.7,2.07,1.34,2.94,2.25l-.85,1.05c-.91-1.02-1.76-1.7-2.95-2.35l.86-.96Z"/><path class="cls-2" d="M29.58,61.59c0,.72,.02,1.16,.07,1.48h-1.4c.05-.36,.07-.74,.07-1.49v-7.86c0-.64-.01-.97-.05-1.36,.37,.04,.65,.05,1.22,.05h2.12c.62,0,.9-.01,1.22-.05-.02,.38-.04,.66-.04,1.13v1.98c0,.54,.01,.82,.04,1.08-.29-.02-.71-.04-1.1-.04h-2.16v5.07Zm0-7.57h2.05v-.62h-2.05v.62Zm0,1.56h2.05v-.63h-2.05v.63Zm6.07,4.75c0,.35,.01,.59,.04,.82-.25-.02-.5-.04-.85-.04h-2.67v.8h-1.27c.04-.34,.06-.71,.06-1.16v-2.57c0-.32-.01-.59-.04-.84,.26,.02,.54,.04,.89,.04h2.96c.37,0,.67-.01,.92-.04-.02,.24-.04,.48-.04,.83v2.16Zm-3.49-.31h2.28v-1.57h-2.28v1.57Zm6.19,1.57c0,.66-.11,.97-.42,1.16-.24,.14-.56,.19-1.26,.19-.19,0-.32,0-1.12-.05-.08-.58-.14-.83-.34-1.27,.5,.06,1.08,.11,1.48,.11,.34,0,.4-.05,.4-.31v-4.91h-2.31c-.4,0-.83,.01-1.09,.04,.01-.32,.02-.56,.02-1.08v-1.98c0-.46-.01-.78-.04-1.13,.36,.04,.62,.05,1.22,.05h2.28c.58,0,.86-.01,1.24-.05-.05,.4-.06,.76-.06,1.34v7.88Zm-3.45-7.57h2.2v-.62h-2.2v.62Zm0,1.56h2.2v-.63h-2.2v.63Z"/><path class="cls-2" d="M42.03,53.23c-.12,1.22-.18,2.2-.18,3.17v.26c.01,1.27,.07,2.39,.3,3.21,.18,.67,.43,1.14,.77,1.14,.38,0,.76-.71,1.22-2.61,.41,.36,.84,.65,1.32,.91-.73,2.52-1.52,3.27-2.58,3.27-.82,0-1.45-.52-1.92-1.64-.35-.84-.59-2.15-.59-4.34,0-1.12,.01-2.22,.07-3.54l1.58,.17Zm5.17,.37c2.42,1.73,3.06,4.75,3.13,7.38l-1.58,.42v-.23c0-2.52-.76-5.3-2.59-6.66l1.04-.91Z"/><path class="cls-2" d="M53.81,56.02c-.78,.48-1.09,.65-1.92,1.01-.2-.5-.35-.75-.7-1.22,1.12-.43,2.13-1.01,3.06-1.73,.83-.66,1.39-1.26,1.88-2h1.43c.52,.77,1.05,1.31,2.01,2.03,.94,.71,1.83,1.19,3.06,1.64-.31,.5-.43,.73-.66,1.32-.85-.38-1.22-.58-1.96-1.05v.84c-.3-.04-.6-.05-1.08-.05h-4.1c-.38,0-.72,.01-1.03,.05v-.83Zm-.97,7.02c.05-.38,.07-.74,.07-1.27v-2.79c0-.49-.02-.84-.06-1.19,.26,.04,.55,.05,1.03,.05h6c.48,0,.77-.01,1.04-.05-.05,.34-.06,.67-.06,1.19v2.81c0,.55,.01,.89,.07,1.26h-1.43v-.61h-5.24v.61h-1.43Zm1.43-1.79h5.24v-2.25h-5.24v2.25Zm4.67-5.7h.41c-1.06-.76-1.71-1.38-2.47-2.34-.72,1.03-1.25,1.55-2.35,2.34h4.41Z"/><path class="cls-2" d="M63.35,60.02c.8-1,1.59-1.94,2.33-2.75,.01-.43,.01-.86,.02-1.29h-2.1v-1.31h2.12c.02-.74,.04-1.48,.06-2.22h1.45c-.05,1.12-.1,2.24-.13,3.38,1.08-.96,2.19-1.59,3.57-1.59,1.92,0,3.36,1.21,3.36,4.01,0,3.23-1.93,4.39-5.04,4.44-.13-.46-.31-.88-.56-1.33,2.94-.05,4.11-.9,4.11-3.06,0-1.93-.86-2.72-1.93-2.72s-2.15,.67-3.15,1.63c-.13,.13-.26,.26-.4,.4-.01,.68-.02,1.37-.02,2.05,0,1.07,.01,2.13,.05,3.23l-1.45,.02v-1.08c0-.86,0-1.73,.01-2.58-.42,.54-.88,1.16-1.4,1.92l-.9-1.14Z"/><path class="cls-2" d="M77.18,52.79h1.42v2.4c.67-.04,1.32-.06,1.97-.1,.5-.02,1.03-.05,1.61-.07v-2.63s1.37,0,1.37,0v2.58c.73-.02,1.51-.05,2.35-.07v1.34c-.82,0-1.61,.01-2.34,.04v1.29c0,.74-.12,1.21-.34,1.49-.29,.41-.68,.62-1.21,.65h-.1c-.75,0-1.38-.13-1.89-.28,0-.48-.01-.9-.07-1.37,.72,.28,1.19,.32,1.58,.32,.25,0,.44-.1,.55-.3,.08-.18,.11-.44,.11-.96v-.82c-.58,.02-1.1,.05-1.6,.07-.66,.04-1.32,.06-1.99,.1v2.66c0,1.68,.32,2.01,2.55,2.01,1.29,0,2.7-.14,3.86-.36l.08,1.43c-1.25,.19-2.64,.28-4.11,.28-2.92,0-3.79-.67-3.79-3.06v-2.88c-.7,.05-1.42,.1-2.16,.16l-.06-1.32c.79-.05,1.52-.1,2.21-.13v-2.48Z"/></g><g id="_グループ_6789"><path id="_パス_2663" class="cls-2" d="M66,16.71v3.47l-14.62,8.43c-.23,.14-.52,.14-.75,0l-14.63-8.43v-3.47c0-.83,.67-1.5,1.5-1.5h27c.83,0,1.5,.67,1.5,1.5Z"/><path id="_パス_2664" class="cls-2" d="M52.12,29.9l13.87-7.99v12.8c0,.83-.67,1.5-1.5,1.5h-27c-.83,0-1.5-.67-1.5-1.5v-12.8l13.87,7.99c.7,.4,1.55,.4,2.25,0Z"/></g></g></svg>