<?xml version="1.0" encoding="UTF-8"?><svg id="_レイヤー_2" xmlns="http://www.w3.org/2000/svg" xmlns:xlink="http://www.w3.org/1999/xlink" viewBox="0 0 100 83"><defs><style>.cls-1{fill:none;}.cls-2{clip-path:url(#clippath);}.cls-3,.cls-4{fill:#fff;}.cls-4{fill-rule:evenodd;}.cls-5{isolation:isolate;}</style><clipPath id="clippath"><rect class="cls-1" x="35" y="11.38" width="30" height="24.65"/></clipPath></defs><g id="_フローティングバナー_PC_"><rect id="_長方形_2127" class="cls-1" width="100" height="83"/><g class="cls-5"><path class="cls-3" d="M14.56,50.27q-1.46,.24-2.93,.43c-.2-.56-.31-.82-.55-1.21,1.55-.08,3.39-.35,4.91-.68,1.24-.28,2.01-.54,2.58-.88l1.12,1.08c-.36,.08-.48,.11-.92,.25-1.39,.42-2.06,.6-2.87,.77v1.26l4.1-.44c.5-.06,.97-.13,1.3-.23l.13,1.37c-.1-.01-.16-.01-.22-.01-.22,0-.78,.04-1.1,.07l-4.21,.46v1.99c0,.3,.06,.37,.34,.44,.2,.04,.79,.07,1.46,.07,1.16,0,1.74-.07,1.97-.23,.2-.16,.26-.46,.31-1.61,.56,.3,.68,.34,1.32,.48-.07,.92-.12,1.19-.28,1.55-.2,.5-.49,.74-1.07,.89-.42,.11-1.04,.14-2.43,.14-2.53,0-2.95-.19-2.95-1.36v-2.23l-2.6,.29c-.58,.06-.9,.12-1.31,.22l-.13-1.36h.24c.24,0,.75-.04,1.08-.06l2.72-.3v-1.16Zm.61-4.19c0-.26-.02-.44-.07-.7h1.48c-.05,.25-.06,.43-.06,.7v.38h3.31c.61,0,.92-.01,1.33-.05-.04,.24-.05,.47-.05,.89v.91c0,.36,.01,.65,.05,.92h-1.31v-1.45h-7.76v1.45h-1.32c.05-.3,.06-.53,.06-.94v-.9c0-.38-.01-.61-.05-.89,.38,.04,.72,.05,1.32,.05h3.07v-.38Z"/><path class="cls-3" d="M23.92,46.9c-.52,0-.97,.02-1.31,.06v-1.28c.38,.05,.82,.07,1.32,.07h2.94c.52,0,.95-.02,1.34-.07v1.27c-.32-.02-.79-.05-1.22-.05h-.37v.98h.17c.62,0,.89-.01,1.24-.05-.02,.37-.04,.82-.04,1.32v5.76c0,.58,.01,.97,.05,1.33h-1.15v-.46h-2.84v.67h-1.2c.05-.47,.07-.92,.07-1.63v-5.55c0-.61-.01-1.02-.05-1.44,.34,.04,.61,.05,1.22,.05h.25v-.98h-.42Zm.12,5.8h2.84v-.94h-.34c-.78,0-.9-.07-.9-.54v-2.34h-.34v.14c0,.71-.1,1.67-.24,2.25-.11,.48-.22,.73-.53,1.28-.13-.36-.26-.58-.5-.89v1.02Zm0-1.15c.34-.68,.44-1.28,.47-2.66h-.47v2.66Zm0,3.12h2.84v-.93h-2.84v.93Zm1.27-6.79h.34v-.98h-.34v.98Zm1.13,2.67c0,.19,.01,.2,.44,.22v-1.88h-.44v1.67Zm6.57-1c0,.49,.01,.83,.05,1.17-.38-.04-.66-.05-1.2-.05h-1.93v3.92c0,.22,.02,.28,.1,.32,.11,.06,.43,.1,.85,.1,.89,0,1.13-.07,1.24-.37,.08-.25,.13-.89,.13-1.76,.5,.28,.82,.4,1.26,.49-.07,1.44-.18,2.03-.42,2.34-.31,.38-.89,.52-2.28,.52-1.87,0-2.15-.16-2.15-1.25v-4.39c0-.58-.01-.79-.05-1.17,.36,.04,.68,.05,1.2,.05h1.93v-2.52h-1.91c-.61,0-.96,.01-1.33,.06v-1.34c.38,.05,.79,.07,1.34,.07h1.98c.54,0,.89-.01,1.24-.05-.04,.42-.05,.64-.05,1.21v2.65Z"/><path class="cls-3" d="M36.76,54.47c-.52,0-.88,.01-1.3,.05,.04-.34,.06-.74,.06-1.42v-2.76c0-.6-.02-1-.06-1.36,.37,.02,.62,.04,1.26,.04h6.08c.7,0,.98-.01,1.32-.04-.04,.4-.05,.72-.05,1.37v2.79c0,.67,.01,1.09,.05,1.37-.4-.04-.75-.05-1.27-.05h-.89c.85,.47,1.97,.78,3.43,.94-.28,.36-.42,.61-.65,1.16-1.07-.17-1.59-.3-2.35-.6-.73-.29-1.13-.49-1.78-.91l.72-.59h-3.36l.74,.59c-.6,.44-.96,.65-1.64,.92-.75,.31-1.27,.46-2.18,.62-.16-.41-.35-.7-.73-1.09,1.52-.23,2.61-.58,3.29-1.04h-.7Zm8.05-6.82c0,.46,.01,.7,.05,.97-.29-.02-.6-.04-1.26-.04h-7.65c-.6,0-.98,.01-1.25,.04,.05-.3,.06-.53,.06-.97v-.94c0-.44-.01-.67-.06-1.01,.35,.04,.68,.05,1.36,.05h7.45c.67,0,1.02-.01,1.36-.05-.04,.32-.05,.54-.05,1.01v.94Zm-7.15-.86h-1.67v.77h1.67v-.77Zm-.84,3.78h5.96v-.53h-5.96v.53Zm0,1.42h5.96v-.5h-5.96v.5Zm0,1.49h5.96v-.58h-5.96v.58Zm3.71-6.68h-1.66v.77h1.66v-.77Zm3,.77v-.77h-1.79v.77h1.79Z"/><path class="cls-3" d="M51.23,55.18c0,.62,.02,1,.07,1.3h-1.4c.05-.38,.07-.82,.07-1.3v-1.12c-1.2,.36-2.01,.58-2.55,.68-.46,.1-.78,.18-.96,.25l-.33-1.37c.28-.01,.48-.04,.92-.12v-6.55c-.41,.01-.54,.02-.8,.05v-1.3c.34,.04,.67,.06,1.08,.06h3.66c.48,0,.74-.01,1.09-.06v.74c.22,.01,.47,.02,.77,.02h3.14c.32,0,.66-.02,.97-.06-.02,.16-.05,.4-.08,.76-.18,2.05-.78,4.07-1.72,5.7,.67,.92,1.22,1.43,2.32,2.11-.31,.47-.56,.92-.72,1.34-1.21-.88-1.7-1.34-2.38-2.27-.71,.95-1.27,1.46-2.41,2.28-.22-.55-.4-.88-.73-1.33v.17Zm-2.93-6.9h1.67v-1.32h-1.67v1.32Zm0,2.35h1.67v-1.28h-1.67v1.28Zm0,2.64c.79-.16,.88-.17,1.67-.38v-1.16h-1.67v1.55Zm2.93,1.71c1.16-.71,1.66-1.15,2.4-2.11-.4-.74-.66-1.39-.89-2.15-.26-.89-.38-1.52-.55-3.03-.23,.01-.31,.02-.5,.05v-.77c-.12-.01-.19-.01-.46-.01v8.02Zm2.18-7.3c.24,1.96,.46,2.76,1,3.93,.55-1.09,.85-2.16,1.13-3.93h-2.12Z"/><path class="cls-3" d="M67.53,47.26l.14,1.31-3.81,.44,.34,2.03,4.32-.54,.14,1.32-4.25,.53,.62,3.71-1.46,.22-.62-3.74-4.55,.56-.17-1.32,4.49-.55-.34-2.04-3.79,.44-.14-1.31,3.71-.43-.35-2.1,1.48-.18,.35,2.11,3.9-.46Z"/><path class="cls-3" d="M71.38,48.72c.59,1.04,.85,1.64,1.25,2.87l-1.2,.42c-.4-1.25-.66-1.87-1.24-2.9l1.19-.38Zm7.03-.1c-.35,2.32-.8,3.63-1.68,4.77-.98,1.28-2.13,2.03-4.23,2.83-.31-.47-.47-.68-.88-1.12,2.06-.66,3.18-1.32,4.08-2.5,.78-1.03,1.1-2.09,1.38-4.28l1.33,.29Zm-4.4-.46c.55,1.03,.8,1.66,1.18,2.87l-1.19,.42c-.36-1.21-.59-1.8-1.15-2.92l1.16-.37Z"/><path class="cls-3" d="M83.4,56.12h-1.55v-10.4h1.55v3.2c2.29,.58,4.37,1.5,6.08,2.58l-.78,1.4c-1.75-1.2-3.51-1.99-5.3-2.5v5.71Z"/><path class="cls-3" d="M29.25,67.75v.68h-1.42c.05-.37,.06-.71,.06-1.24v-4.65c0-.49-.01-.79-.06-1.15,.44,.04,.73,.05,1.33,.05h2.76v-.35c0-.62-.01-.91-.07-1.31h1.49c-.06,.36-.08,.68-.08,1.26v.4h2.84c.68,0,.95-.01,1.38-.05-.05,.36-.06,.62-.06,1.14v4.67c0,.58,.01,.89,.06,1.24h-1.43v-.68h-2.79v1.62c0,.72,.02,1.08,.08,1.5h-1.5c.06-.47,.08-.82,.08-1.5v-1.62h-2.67Zm0-5.11v1.34h2.67v-1.34h-2.67Zm0,2.53v1.38h2.67v-1.38h-2.67Zm4.01-1.19h2.79v-1.34h-2.79v1.34Zm0,2.57h2.79v-1.38h-2.79v1.38Z"/><path class="cls-3" d="M41.87,60.23c-.04,1.54-.11,2.61-.17,3.85-.05,1.03-.1,2.34-.1,3.21,0,1.34,.58,1.76,1.93,1.76,2.12,0,3.43-1.3,4.21-3.75,.42,.42,.88,.8,1.3,1.06-1.1,2.93-2.78,4.12-5.61,4.12-2.25,0-3.36-.9-3.36-3.32,0-1.39,.1-2.45,.13-3.49,.04-.94,.08-2.02,.08-3.45h1.58Z"/><path class="cls-3" d="M50.07,64.29c.31,.05,.5,.06,.96,.06h.98c.36,0,.63-.01,.91-.06-.04,.4-.05,.65-.05,1.32v2.51c.18,.38,.29,.5,.68,.77,.58,.36,1.2,.44,3.26,.44,1.74,0,3.26-.08,4.45-.25-.2,.58-.28,.88-.36,1.43-1.07,.04-2.81,.07-3.63,.07-1.97,0-2.94-.07-3.56-.28-.62-.19-1.05-.52-1.52-1.13-.38,.38-.67,.64-1.24,1.07-.2,.16-.28,.22-.36,.29q-.12,.1-.18,.14l-.59-1.37c.52-.22,1.27-.72,1.79-1.18v-2.58h-.73c-.34,0-.52,.01-.82,.06v-1.32Zm1.14-4.33c.86,.75,1.51,1.43,2.1,2.19l-1,.97c-.74-1.01-1.13-1.43-2.06-2.27l.96-.9Zm3.86,1.47c-.41,0-.7,.01-1,.06v-1.3c.26,.05,.52,.06,1,.06h1.71c.38,0,.65-.01,.88-.05-.02,.28-.02,.44-.02,.65,0,1.17,.28,2.39,.79,3.48,.61,1.32,1.33,2.15,2.64,3.08-.34,.41-.54,.74-.79,1.26-.88-.66-1.37-1.14-1.92-1.87-.6-.8-.94-1.54-1.34-2.84-.3,1.27-.64,2.03-1.31,2.93-.44,.61-.82,1-1.62,1.64-.32-.43-.5-.62-.95-1.04,.73-.53,1.09-.89,1.58-1.54,.64-.85,1.09-1.83,1.33-2.85,.12-.49,.17-.84,.23-1.67h-1.21Z"/><path class="cls-3" d="M72.46,68.06c-.48-.36-1-.7-1.52-1-.07,.28-.17,.54-.28,.79-.53,1.26-1.48,2.19-2.99,2.82-.34-.4-.67-.72-1.04-1.01,1.59-.64,2.42-1.5,2.82-2.58,.07-.2,.14-.42,.2-.67-.98-.44-1.93-.72-2.71-.8-.36,1.55-.74,2.65-1.27,3.39-.46,.62-1.03,1-1.75,1-1.08,0-1.88-.98-1.88-2.48,0-1.81,1.27-3.09,3.74-3.24,.18-.82,.3-1.67,.38-2.46-1.08,.05-2.02,.07-3.17,.11l-.04-1.33h.77c1.33,0,2.71-.02,4.04-.08-.16,1.46-.35,2.63-.58,3.84,.79,.06,1.71,.29,2.67,.65,.05-.43,.07-.91,.07-1.46,0-.37-.01-.76-.04-1.19h1.42c.01,.34,.01,.64,.01,.92,0,.94-.04,1.69-.11,2.33,.61,.3,1.2,.65,1.75,1.02l-.52,1.44Zm-9.15-.54c0,.74,.29,1.1,.61,1.1,.28-.01,.52-.14,.73-.55,.37-.67,.67-1.54,.89-2.53-1.56,.1-2.23,.95-2.23,1.98Z"/></g><g id="_グループ_6420"><g class="cls-2"><g id="_グループ_6420-2"><path id="_パス_3597" class="cls-4" d="M51.38,22.43l9.36-2.86s.07-.04,.11-.07h.04l.04-.04h.04v-.04h.04v-.04h.04v-.03h.04v-.04h.04v-.04l.04-.04v-.04h.04v-.07h.04v-.11c.11-.38-.1-.79-.49-.9,0,0-.01,0-.02,0h-.07l-10.37-2.72h-.15v-.04h-.22l-.04,.04h-.11l-10.37,2.72h-.07c-.39,.1-.62,.5-.51,.89,0,0,0,.01,0,.02v.11h.04v.07h.04v.07h.03v.03h.04v.04c.09,.1,.2,.17,.33,.22l10.38,3.16-.04-.04c.06,.04,.12,.08,.18,.11h.15v.04h.15v-.04h.15c.07-.03,.13-.06,.18-.11l-.04,.04,1.02-.29Zm-2.14-6.13l-9.76,2.54,9.76,3.01v-5.55Zm1.52,0l9.76,2.54-9.76,3.01v-5.55Zm-12.23,2.61l-3.34-3.59c-.28-.31-.26-.78,.05-1.06,.09-.08,.2-.14,.32-.17l10.52-2.68c.28-.07,.58,.03,.76,.25l3.15,3.37,3.16-3.37c.18-.23,.48-.33,.76-.25l10.52,2.68c.4,.11,.64,.52,.54,.92-.03,.12-.09,.23-.17,.32l-3.34,3.59,2.97,4.46c.25,.3,.21,.74-.09,.99-.08,.07-.17,.11-.27,.14l-10.12,3.23c-.31,.15-.69,.04-.87-.25l-3.08-4.21-3.08,4.21c-.18,.29-.56,.4-.87,.25l-10.12-3.23c-.37-.15-.58-.55-.47-.94,.03-.07,.06-.13,.11-.18l2.97-4.46Zm11.21,17.12l-10.45-3.59c-.3-.09-.51-.37-.51-.69l-.04-5.59,7.04,2.29c.3,.1,.63,.11,.94,.04,.32-.1,.6-.31,.8-.58l1.7-2.36,.62-.83v11.32h-.11Zm.4-11.32l.62,.83,1.7,2.36c.19,.28,.47,.49,.8,.58,.31,.08,.64,.07,.94-.04l7-2.29v5.59c0,.32-.2,.6-.51,.69l-10.44,3.59h-.11v-11.32Z"/></g></g></g></g></svg>