<svg xmlns="http://www.w3.org/2000/svg" width="100" height="83" viewBox="0 0 100 83">
  <g id="グループ_7309" data-name="グループ 7309" transform="translate(339 -10015)">
    <rect id="長方形_5256" data-name="長方形 5256" width="100" height="83" transform="translate(-339 10015)" fill="none"/>
    <g id="グループ_7308" data-name="グループ 7308" transform="translate(0 0.225)">
      <text id="電話で_お問い合わせ" data-name="電話で
お問い合わせ" transform="translate(-289 10068.225)" fill="#fff" font-size="11" font-family="NotoSansCJKjp-Bold, Noto Sans CJK JP" font-weight="700"><tspan x="-16.5" y="0">電話</tspan><tspan y="0">で</tspan><tspan x="-33" y="16">お</tspan><tspan y="16">問</tspan><tspan y="16">い</tspan><tspan y="16">合</tspan><tspan y="16">わせ</tspan></text>
      <path id="パス_11720" data-name="パス 11720" d="M758.154-344.371c2.273,2.255,4.9,4.409,5.933,3.369,1.48-1.49,2.39-2.786,5.67-.169s.773,4.378-.657,5.821c-1.652,1.664-7.84.116-13.974-5.971s-7.729-12.265-6.074-13.929c1.431-1.444,3.174-3.961,5.813-.7s1.354,4.179-.123,5.667c-1.035,1.04,1.141,3.655,3.412,5.91Zm3.294-10.761a1.459,1.459,0,0,0-1.165.373,1.337,1.337,0,0,0,.006,1.867,1.507,1.507,0,0,0,.742.373,6.045,6.045,0,0,1,3.476,1.781,6.052,6.052,0,0,1,1.781,3.476,1.479,1.479,0,0,0,.373.742,1.334,1.334,0,0,0,1.865.006,1.468,1.468,0,0,0,.375-1.165,9.025,9.025,0,0,0-2.526-4.928,9.008,9.008,0,0,0-4.927-2.525Zm6.43,1.024c2.484,2.484,3.545,5.305,3.2,7.592a1.5,1.5,0,0,0,.353,1.2,1.327,1.327,0,0,0,1.873,0,1.663,1.663,0,0,0,.391-.841c.284-1.974-.075-5.949-3.946-9.822s-7.848-4.231-9.822-3.946a1.644,1.644,0,0,0-.841.391,1.328,1.328,0,0,0,0,1.873,1.5,1.5,0,0,0,1.2.353c2.286-.345,5.108.715,7.593,3.2Zm0,0" transform="translate(-1050.44 10385.775)" fill="#fff"/>
    </g>
  </g>
</svg>
