<?xml version="1.0" encoding="UTF-8"?><svg id="_レイヤー_2" xmlns="http://www.w3.org/2000/svg" viewBox="0 0 100 83"><defs><style>.cls-1{fill:none;}.cls-2{fill:#fff;}.cls-3{isolation:isolate;}</style></defs><g id="_フローティングバナー_PC_"><rect id="_長方形_2127" class="cls-1" width="100" height="83"/><g class="cls-3"><path class="cls-2" d="M30.76,55.47v-9.02h1.62v7.56h4.08v1.46h-5.7Z"/><path class="cls-2" d="M38.32,55.47v-9.02h1.63v9.02h-1.63Z"/><path class="cls-2" d="M42.75,55.47v-9.02h1.83l4.1,6.02v-6.02h1.55v9.02h-1.38l-4.56-6.67v6.67h-1.55Z"/><path class="cls-2" d="M52.86,55.47v-9.02h5.42v1.38h-3.83v2.25h3.3v1.36h-3.3v2.59h3.92v1.44h-5.52Z"/><path class="cls-2" d="M59.71,46.96c3.27-.26,6.76-.48,10.05-.55v1.4c-1.86,0-2.94,.42-4.09,1.21-1.07,.73-1.68,1.88-1.68,2.81,0,1.04,.47,1.74,1.47,2.16,.64,.26,1.7,.43,2.95,.43h.47l-.04,1.5h-.31c-1.66,0-3.06-.19-4.08-.68-1.19-.6-2.02-1.67-2.02-3.19,0-1.82,1.42-3.45,3.29-4.23-.85,.07-1.65,.16-2.19,.19-.68,.06-1.82,.16-3.74,.36l-.08-1.4Zm8.38,1.82c.41,.58,.76,1.2,1.12,1.94l-.82,.37c-.34-.77-.68-1.4-1.09-1.99l.79-.32Zm1.32-.52c.4,.54,.79,1.16,1.15,1.86l-.83,.37c-.34-.73-.68-1.31-1.08-1.92l.76-.31Z"/><path class="cls-2" d="M15.36,69.76c1-1.98,1.7-3.84,2.19-5.98-.64,.05-1.33,.12-2.05,.19l-.06-1.36c.8-.06,1.61-.12,2.39-.17,.14-.77,.26-1.58,.37-2.46l1.46,.17c-.12,.78-.25,1.52-.4,2.23,.41-.01,.8-.02,1.16-.02,1.48,0,2.23,.7,2.22,2.9,0,1.44-.16,2.84-.47,3.79-.35,1.01-1,1.28-1.75,1.28-.54,0-1.14-.05-1.75-.17-.02-.5-.08-.92-.17-1.44,.68,.2,1.18,.25,1.58,.25,.48,0,.71-.16,.88-.84,.18-.68,.29-1.63,.29-3.01,0-1.2-.35-1.49-1.2-1.49-.31,0-.67,.01-1.06,.04-.55,2.35-1.26,4.44-2.3,6.81l-1.34-.73Zm8.18-8.67c1.18,1.42,1.96,2.84,2.54,4.56l-1.28,.76c-.56-1.79-1.31-3.37-2.48-4.73l1.22-.59Z"/><path class="cls-2" d="M32.4,60.66c-.92,1.67-1.91,3.57-2.4,4.64,.54-.58,1.08-.76,1.52-.76,1.08,0,1.73,.71,1.74,1.94,.01,.79,.01,1.12,.02,1.54,.02,.68,.2,1.08,.84,1.08,1.46,0,1.9-1.66,2.28-3.93,.43,.31,.85,.58,1.28,.82-.47,2.87-1.44,4.53-3.53,4.53-1.49,0-2.28-.72-2.31-2.06-.02-.71-.04-1.13-.05-1.68-.01-.63-.18-.88-.53-.88-.66,0-1.28,.64-1.86,1.44-.5,.71-.97,1.81-1.38,3.05l-1.39-.58c1.46-3.62,2.76-6.52,4.31-9.69l1.45,.54Z"/><path class="cls-2" d="M38.43,69.83c1.08-2.12,1.98-4.32,2.53-6.5-.83,.04-1.62,.05-2.31,.05v-1.33h.61c.64,0,1.31-.01,1.99-.04,.13-.66,.22-1.32,.26-1.97l1.51,.12c-.08,.59-.18,1.18-.3,1.78,.88-.06,1.73-.13,2.48-.23l.02,1.31c-.92,.11-1.87,.19-2.81,.24-.6,2.43-1.51,4.89-2.58,7.18l-1.42-.61Zm6.24-2.87c-.31,.32-.53,.65-.53,.96,0,.6,.43,1.04,2.27,1.04,.95,0,1.83-.1,2.47-.25l.02,1.4c-.76,.13-1.61,.2-2.48,.2-2.83,0-3.66-.88-3.66-2.13,0-.76,.4-1.31,.74-1.69l1.16,.47Zm-.9-3.18c1.09-.2,2.37-.3,3.5-.3,.53,0,1.02,.02,1.45,.06l-.04,1.32c-.54-.06-1.15-.1-1.8-.1-1.01,0-2.09,.08-3.06,.26l-.06-1.25Z"/><path class="cls-2" d="M55.58,60.66c-.92,1.67-1.91,3.57-2.4,4.64,.54-.58,1.08-.76,1.52-.76,1.08,0,1.73,.71,1.74,1.94,.01,.79,.01,1.12,.02,1.54,.02,.68,.2,1.08,.84,1.08,1.46,0,1.89-1.66,2.28-3.93,.43,.31,.85,.58,1.28,.82-.47,2.87-1.44,4.53-3.53,4.53-1.49,0-2.28-.72-2.32-2.06-.02-.71-.04-1.13-.05-1.68-.01-.63-.18-.88-.53-.88-.66,0-1.28,.64-1.86,1.44-.5,.71-.97,1.81-1.38,3.05l-1.39-.58c1.46-3.62,2.76-6.52,4.31-9.69l1.45,.54Z"/><path class="cls-2" d="M63.07,65.04c-.52,0-.92,.02-1.31,.07v-1.17c.38,.05,.77,.07,1.31,.07h1.27c-.22-.38-.24-.42-.42-.61l.91-.29q-.61,.01-1.12,.01c-.11-.26-.23-.49-.43-.8v.58h-1.29c.04-.28,.06-.53,.06-.9v-.67c0-.38-.01-.61-.05-.89,.36,.04,.73,.05,1.32,.05h3.13c0-.37-.01-.55-.06-.79h1.45c-.05,.25-.06,.46-.06,.79h3.32c.58,0,.96-.01,1.33-.05-.04,.24-.05,.47-.05,.89v.67c0,.37,.01,.62,.05,.89h-1.29v-.28c-.61,.1-.9,.13-1.52,.19l.95,.34c-.41,.62-.43,.66-.59,.88h1.36c.56,0,.95-.02,1.32-.07v1.17c-.4-.05-.79-.07-1.32-.07h-2.09c1.13,.94,2.15,1.45,3.66,1.85-.26,.36-.41,.67-.56,1.2-.52-.2-.71-.29-1.18-.54v2c0,.53,.01,.89,.06,1.28h-1.31v-.44h-5.45v.43h-1.33c.05-.37,.07-.8,.07-1.28v-2c-.36,.19-.54,.28-1.02,.49-.18-.48-.35-.79-.64-1.13,1.57-.5,2.42-.96,3.5-1.86h-1.99Zm.22-2.87c.46,.01,.53,.01,.77,.01,2.71,0,4.86-.18,6.34-.54l.74,.82v-.88h-7.86v.59Zm1.19,5.71h2.06v-.64h-2.06v.64Zm0,1.54h2.06v-.65h-2.06v.65Zm2.08-6.38c-.52,.02-1.02,.05-1.49,.06,.24,.36,.34,.53,.54,.91h.95v-.97Zm-.05,2c-.35,.41-.82,.84-1.38,1.27h4.14c-.52-.4-.96-.78-1.43-1.27h-.06c0,.08,.01,.26,.01,.36v.17c0,.18,.01,.34,.05,.49h-1.33c.04-.17,.05-.31,.05-.5v-.17c0-.07,0-.24,.01-.35h-.06Zm1.26,2.84h2.16v-.64h-2.16v.64Zm0,1.54h2.16v-.65h-2.16v.65Zm.02-5.41h.96c.29-.36,.5-.72,.71-1.2-.23,.02-.42,.05-.53,.06q-.64,.06-1.14,.1v1.04Z"/><path class="cls-2" d="M78.47,60.72c0-.41-.01-.64-.07-.92h1.42c-.05,.26-.07,.49-.07,.92v.16h3.38c.55,0,1-.02,1.36-.07v1.3c-.41-.05-.83-.07-1.36-.07h-2.24c.98,1.01,2.36,1.75,3.99,2.17-.32,.46-.47,.71-.73,1.26-.74-.3-.94-.4-1.5-.72q-.01,.4-.01,.75v3.8h.66c.59,0,.96-.02,1.32-.07v1.31c-.37-.05-.82-.07-1.42-.07h-8c-.6,0-1.04,.02-1.43,.07v-1.31c.37,.05,.77,.07,1.34,.07h.61v-3.91c0-.35,0-.42-.01-.66-.42,.25-.54,.31-1.44,.71-.23-.47-.36-.67-.74-1.15,1.49-.47,2.88-1.29,3.8-2.25h-2.07c-.53,0-.95,.02-1.34,.07v-1.3c.34,.05,.82,.07,1.44,.07h3.12v-.16Zm0,2.24s0-.2,.01-.59c-.52,.68-1.17,1.31-2,1.87h5.35c-.97-.64-1.48-1.1-2.11-1.93,.01,.35,.02,.56,.02,.65v.26c0,.32,.01,.55,.06,.77h-1.39c.04-.2,.06-.44,.06-.78v-.25Zm-1.48,3.01h4.37v-.66h-4.37v.66Zm0,1.67h4.37v-.67h-4.37v.67Zm0,1.65h4.37v-.66h-4.37v.66Z"/></g><path class="cls-2" d="M65,21.58c0-6.71-6.73-12.17-15-12.17s-15,5.46-15,12.17c0,6.02,5.34,11.06,12.54,12.01,.49,.11,1.15,.32,1.32,.74,.12,.44,.13,.91,.05,1.36,0,0-.18,1.06-.21,1.28-.07,.38-.3,1.48,1.3,.81,1.6-.67,8.64-5.09,11.78-8.71,2.01-1.98,3.16-4.67,3.21-7.49h0Zm-20.51,3.38c0,.15-.12,.27-.27,.27h-3.98c-.15,0-.27-.12-.27-.27v-6.18h0c0-.15,.12-.27,.27-.27h1c.15,0,.27,.12,.27,.27v4.91h2.71c.15,0,.27,.12,.27,.27v1Zm2.69,0h0c0,.15-.12,.27-.27,.27h-1c-.15,0-.27-.12-.27-.27v-6.18c0-.15,.12-.27,.27-.27h1c.15,0,.27,.12,.27,.27v6.18Zm7.14,.02h0c0,.15-.12,.27-.27,.27h-1s-.05,0-.07,0h-.02s0,0,0,0h-.01s-.01-.01-.01-.01h-.02s-.05-.05-.07-.08l-2.83-3.83v3.67h0c0,.15-.12,.27-.27,.27h-1c-.15,0-.27-.12-.27-.27v-6.18c0-.15,.12-.27,.27-.27h1.09s0,0,0,0h.02s0,0,0,0h.02s0,.01,0,.01h.01s0,.02,0,.02h.02s0,.01,0,.01l.02,.02s.02,.02,.02,.03l2.83,3.82v-3.67c0-.15,.12-.27,.27-.27h1v.02c.15,0,.27,.12,.27,.27v6.18Zm5.91-5.2c0,.15-.12,.27-.27,.27h-2.7v1.04h2.7c.15,0,.27,.12,.27,.27v1c0,.15-.12,.27-.27,.27h-2.7v1.04h2.7c.15,0,.27,.12,.27,.27v1c0,.15-.12,.27-.27,.27h0s-3.98,0-3.98,0c-.15,0-.27-.12-.27-.27v-6.17h0c0-.16,.12-.28,.27-.28h3.98c.15,0,.27,.12,.27,.27v1Z"/></g></svg>