<svg xmlns="http://www.w3.org/2000/svg" xmlns:xlink="http://www.w3.org/1999/xlink" width="236.529" height="48.996" viewBox="0 0 236.529 48.996">
  <defs>
    <clipPath id="clip-path">
      <rect id="長方形_312" data-name="長方形 312" width="41.999" height="27.411" fill="#fff"/>
    </clipPath>
  </defs>
  <g id="グループ_7244" data-name="グループ 7244" transform="translate(-248 -4152)">
    <g id="グループ_111" data-name="グループ 111" transform="translate(248 4152)">
      <rect id="長方形_311" data-name="長方形 311" width="42" height="27.411" transform="translate(0 0)" fill="#5fc1aa"/>
      <g id="グループ_110" data-name="グループ 110" transform="translate(0 0)">
        <g id="グループ_109" data-name="グループ 109" clip-path="url(#clip-path)">
          <path id="パス_126" data-name="パス 126" d="M10.556,29.26a5.2,5.2,0,0,1-5.164-5.394c0-2.82,2.792-5.072,5.164-6.42,2.37,1.347,5.163,3.6,5.163,6.42a5.2,5.2,0,0,1-5.163,5.394M26.379,23.8c0-2.82,2.791-5.074,5.163-6.421,2.372,1.347,5.162,3.6,5.162,6.421a5.168,5.168,0,1,1-10.325,0M42,12.264a23.667,23.667,0,0,0-10.617,2.4A22.607,22.607,0,0,0,21,12.264a22.6,22.6,0,0,0-10.383,2.4A23.638,23.638,0,0,0,0,12.264v2.4a21.215,21.215,0,0,1,7.985,1.515c-2.595,1.735-5.162,4.365-5.162,7.684A7.85,7.85,0,0,0,10.614,31.6a7.7,7.7,0,0,0,7.605-7.738c0-3.319-2.385-5.949-4.98-7.684A20.075,20.075,0,0,1,21,14.664a20.071,20.071,0,0,1,7.757,1.515c-2.595,1.735-4.98,4.365-4.98,7.684a7.7,7.7,0,0,0,7.6,7.738,7.8,7.8,0,0,0,7.729-7.738c0-3.319-2.509-5.949-5.1-7.684A21.251,21.251,0,0,1,42,14.664Z" transform="translate(-0.003 -7.999)" fill="#fff"/>
        </g>
      </g>
    </g>
    <path id="パス_11660" data-name="パス 11660" d="M14.752-8.23a10.084,10.084,0,0,1-1.709,6.316,5.965,5.965,0,0,1-5,2.188A6.007,6.007,0,0,1,3.063-1.873,9.789,9.789,0,0,1,1.3-8.025v-3.664q0-4.17,1.729-6.33a6.01,6.01,0,0,1,4.983-2.16,6.016,6.016,0,0,1,4.977,2.14,9.759,9.759,0,0,1,1.764,6.146ZM10.8-12.25a7.276,7.276,0,0,0-.677-3.6A2.288,2.288,0,0,0,8.012-16.98a2.247,2.247,0,0,0-2.058,1.073,6.81,6.81,0,0,0-.7,3.356v4.84a7.638,7.638,0,0,0,.663,3.616A2.257,2.257,0,0,0,8.039-2.912a2.219,2.219,0,0,0,2.092-1.135A7.455,7.455,0,0,0,10.8-7.52ZM27.856,0H23.9V-15.23l-4.717,1.463V-16.98l8.244-2.953h.424ZM48.807,0H35.162V-2.707L41.6-9.57A15.886,15.886,0,0,0,43.564-12.1,4.064,4.064,0,0,0,44.2-14.15a3.041,3.041,0,0,0-.67-2.085,2.418,2.418,0,0,0-1.914-.759,2.608,2.608,0,0,0-2.112.923,3.656,3.656,0,0,0-.772,2.427H34.766a6.526,6.526,0,0,1,.868-3.322,6.119,6.119,0,0,1,2.454-2.358,7.459,7.459,0,0,1,3.6-.854A7.063,7.063,0,0,1,46.462-18.7a5.224,5.224,0,0,1,1.7,4.17,6.693,6.693,0,0,1-.766,3.008,16.715,16.715,0,0,1-2.625,3.568L40.248-3.186h8.559ZM65.465-8.23a10.084,10.084,0,0,1-1.709,6.316,5.965,5.965,0,0,1-5,2.188,6.007,6.007,0,0,1-4.977-2.146,9.789,9.789,0,0,1-1.764-6.152v-3.664q0-4.17,1.729-6.33a6.01,6.01,0,0,1,4.983-2.16A6.016,6.016,0,0,1,63.7-18.04a9.759,9.759,0,0,1,1.764,6.146Zm-3.951-4.02a7.276,7.276,0,0,0-.677-3.6,2.288,2.288,0,0,0-2.112-1.128,2.247,2.247,0,0,0-2.058,1.073,6.81,6.81,0,0,0-.7,3.356v4.84a7.638,7.638,0,0,0,.663,3.616,2.257,2.257,0,0,0,2.126,1.183,2.219,2.219,0,0,0,2.092-1.135,7.455,7.455,0,0,0,.67-3.473Zm15.3,5.318h-7.7v-3.186h7.7Zm17.246-1.3a10.084,10.084,0,0,1-1.709,6.316,5.965,5.965,0,0,1-5,2.188,6.007,6.007,0,0,1-4.977-2.146,9.789,9.789,0,0,1-1.764-6.152v-3.664q0-4.17,1.729-6.33a6.01,6.01,0,0,1,4.983-2.16A6.016,6.016,0,0,1,92.3-18.04a9.759,9.759,0,0,1,1.764,6.146Zm-3.951-4.02a7.276,7.276,0,0,0-.677-3.6,2.288,2.288,0,0,0-2.112-1.128,2.247,2.247,0,0,0-2.058,1.073,6.81,6.81,0,0,0-.7,3.356v4.84a7.638,7.638,0,0,0,.663,3.616,2.257,2.257,0,0,0,2.126,1.183,2.219,2.219,0,0,0,2.092-1.135,7.455,7.455,0,0,0,.67-3.473Zm11.477.547H103.7a2.967,2.967,0,0,0,2.229-.752,2.755,2.755,0,0,0,.725-2,2.436,2.436,0,0,0-.718-1.873,2.782,2.782,0,0,0-1.976-.67,2.916,2.916,0,0,0-1.9.622,1.989,1.989,0,0,0-.766,1.62H97.339a4.859,4.859,0,0,1,.841-2.8,5.6,5.6,0,0,1,2.352-1.935,7.848,7.848,0,0,1,3.329-.7,7.443,7.443,0,0,1,4.949,1.511,5.155,5.155,0,0,1,1.791,4.163,4.189,4.189,0,0,1-.834,2.516,5.418,5.418,0,0,1-2.187,1.764,4.946,4.946,0,0,1,2.509,1.8,4.9,4.9,0,0,1,.827,2.844,5.24,5.24,0,0,1-1.935,4.252,7.778,7.778,0,0,1-5.12,1.6A7.375,7.375,0,0,1,98.986-1.3a5.135,5.135,0,0,1-1.894-4.156h3.951a2.289,2.289,0,0,0,.841,1.832,3.1,3.1,0,0,0,2.071.711,3.113,3.113,0,0,0,2.208-.745,2.572,2.572,0,0,0,.8-1.976q0-2.98-3.281-2.98h-2.092Zm20.733,4.771h-7.7v-3.186h7.7Zm14.567-13.18v3.254h-.383a6.712,6.712,0,0,0-4.313,1.395,5.666,5.666,0,0,0-1.962,3.76,5.382,5.382,0,0,1,4.006-1.613,5.07,5.07,0,0,1,4.129,1.859A7.454,7.454,0,0,1,139.9-6.562a7.332,7.332,0,0,1-.841,3.514A6.03,6.03,0,0,1,136.678-.6,6.911,6.911,0,0,1,133.2.273a6.455,6.455,0,0,1-5.079-2.187,8.491,8.491,0,0,1-1.935-5.838V-9.174a12.779,12.779,0,0,1,1.224-5.722,8.972,8.972,0,0,1,3.514-3.842,10.3,10.3,0,0,1,5.312-1.374Zm-3.855,9.967a3.153,3.153,0,0,0-1.736.5,3,3,0,0,0-1.148,1.319v1.2a5.338,5.338,0,0,0,.779,3.1,2.517,2.517,0,0,0,2.188,1.114,2.489,2.489,0,0,0,2.058-1,4.1,4.1,0,0,0,.786-2.6,4.1,4.1,0,0,0-.793-2.625A2.583,2.583,0,0,0,133.034-10.145Zm23.44,1.914a10.084,10.084,0,0,1-1.709,6.316,5.965,5.965,0,0,1-5,2.188,6.007,6.007,0,0,1-4.977-2.146,9.789,9.789,0,0,1-1.764-6.152v-3.664q0-4.17,1.729-6.33a6.01,6.01,0,0,1,4.983-2.16,6.016,6.016,0,0,1,4.977,2.14,9.759,9.759,0,0,1,1.764,6.146Zm-3.951-4.02a7.276,7.276,0,0,0-.677-3.6,2.288,2.288,0,0,0-2.112-1.128,2.247,2.247,0,0,0-2.058,1.073,6.81,6.81,0,0,0-.7,3.356v4.84a7.638,7.638,0,0,0,.663,3.616,2.257,2.257,0,0,0,2.126,1.183,2.219,2.219,0,0,0,2.092-1.135,7.455,7.455,0,0,0,.67-3.473ZM173.625,0H159.98V-2.707L166.42-9.57a15.886,15.886,0,0,0,1.962-2.529,4.064,4.064,0,0,0,.636-2.051,3.041,3.041,0,0,0-.67-2.085,2.418,2.418,0,0,0-1.914-.759,2.608,2.608,0,0,0-2.112.923,3.656,3.656,0,0,0-.772,2.427h-3.965a6.526,6.526,0,0,1,.868-3.322,6.119,6.119,0,0,1,2.454-2.358,7.459,7.459,0,0,1,3.6-.854A7.063,7.063,0,0,1,171.28-18.7a5.224,5.224,0,0,1,1.7,4.17,6.693,6.693,0,0,1-.766,3.008,16.715,16.715,0,0,1-2.625,3.568l-4.525,4.771h8.559Zm16.9,0H176.885V-2.707l6.439-6.863a15.886,15.886,0,0,0,1.962-2.529,4.064,4.064,0,0,0,.636-2.051,3.041,3.041,0,0,0-.67-2.085,2.418,2.418,0,0,0-1.914-.759,2.608,2.608,0,0,0-2.112.923,3.656,3.656,0,0,0-.772,2.427h-3.965a6.526,6.526,0,0,1,.868-3.322,6.119,6.119,0,0,1,2.454-2.358,7.459,7.459,0,0,1,3.6-.854,7.063,7.063,0,0,1,4.778,1.477,5.224,5.224,0,0,1,1.7,4.17,6.693,6.693,0,0,1-.766,3.008A16.715,16.715,0,0,1,186.5-7.957L181.97-3.186h8.559Z" transform="translate(294 4175)" fill="#5fc1aa"/>
    <path id="パス_11661" data-name="パス 11661" d="M2.568-7.74c.156.012.192.012.408.036a21.409,21.409,0,0,0,2.532.156A11.632,11.632,0,0,0,7.3-7.68l-.228.12-.312.168c-.48.276-.7.408-1.476.924l.732.588A17.787,17.787,0,0,1,9.084-7.752l-.06-.96a14.008,14.008,0,0,1-3.156.24A14.06,14.06,0,0,1,2.652-8.76ZM9.72-1.632A11.712,11.712,0,0,1,6.1-1.164,8.485,8.485,0,0,1,3.924-1.38c-.648-.216-.984-.588-.984-1.1,0-.552.36-1.092,1.128-1.728l-.732-.552a3.22,3.22,0,0,0-1.428,2.4A1.938,1.938,0,0,0,3.324-.5,8.505,8.505,0,0,0,6.168-.12,20.7,20.7,0,0,0,9.4-.4a3.668,3.668,0,0,1,.432-.06ZM9.4-6.888a8.794,8.794,0,0,1,1.236,1.86l.7-.4a8.954,8.954,0,0,0-1.26-1.824ZM8-6.24a8.376,8.376,0,0,1,1.248,1.9l.708-.4A9.391,9.391,0,0,0,8.7-6.6Zm8.256-.672a7.75,7.75,0,0,1,.78.036v-.9a4.835,4.835,0,0,1-.78.048h-.828v-1.1a9.787,9.787,0,0,1,.06-1.236h-1.02a5.9,5.9,0,0,1,.072,1.236v1.1h-.912a5.294,5.294,0,0,1-.876-.048v.912a5.506,5.506,0,0,1,.864-.048h.792a10.4,10.4,0,0,1-2,4.116,3.338,3.338,0,0,1,.528.876,10.8,10.8,0,0,0,1.68-3.624c-.06,1.14-.072,1.464-.072,1.944V-.468A10.727,10.727,0,0,1,14.472.948H15.5a10.479,10.479,0,0,1-.072-1.416V-3.96c0-.372-.012-.816-.048-1.848A8.677,8.677,0,0,0,16.7-3.432a3.633,3.633,0,0,1,.492-.84A7.252,7.252,0,0,1,15.5-6.912ZM18.384.9V.072h3.6v.78h.96a13.812,13.812,0,0,1-.06-1.464V-8.3c0-.6.012-.924.036-1.2a8.449,8.449,0,0,1-.948.036H18.408c-.54,0-.672,0-.972-.024.036.552.048.888.048,1.284V-.6c0,.612-.024,1.068-.06,1.5Zm0-9.516h3.6v1.992h-3.6Zm0,2.832h3.6v2.04h-3.6Zm0,2.88h3.6V-.768h-3.6Zm6.7-5.868a6.451,6.451,0,0,1,.9-.048h1.476a6.451,6.451,0,0,1,.9.048v-.876a4.665,4.665,0,0,1-.9.06H25.98a4.517,4.517,0,0,1-.9-.06Zm-.528,1.7a7.525,7.525,0,0,1,.96-.048H27.84a5.777,5.777,0,0,1,.876.048v-.9a6.212,6.212,0,0,1-.96.048H25.512a5.128,5.128,0,0,1-.96-.06ZM25.068-5.4a4.692,4.692,0,0,1,.8-.048H27.54a4.559,4.559,0,0,1,.78.048v-.852a4.053,4.053,0,0,1-.78.048H25.872a4.6,4.6,0,0,1-.8-.048Zm0,1.656a4.625,4.625,0,0,1,.792-.048h1.668a4.45,4.45,0,0,1,.792.048v-.84a6.118,6.118,0,0,1-.78.036H25.872a6.836,6.836,0,0,1-.8-.036Zm.852,4.6V.168h1.6V.66h.828a7.252,7.252,0,0,1-.024-.792v-1.92a8.436,8.436,0,0,1,.036-.912,3.737,3.737,0,0,1-.732.036H25.812a4.3,4.3,0,0,1-.78-.048A8.1,8.1,0,0,1,25.08-2v1.68c0,.372-.024.828-.06,1.176ZM25.9-2.22h1.62V-.588H25.9ZM29.76-9.3a4.222,4.222,0,0,1-.888,2.052l.8.348a6.637,6.637,0,0,0,.936-2.2Zm4.632-.108a5.769,5.769,0,0,1-1.284,1.884,5.028,5.028,0,0,1,.708.456,9.118,9.118,0,0,0,1.416-1.968ZM29.664-4.2a4.182,4.182,0,0,1-.936,2.064l.816.36A6.537,6.537,0,0,0,30.5-3.96Zm4.7-.024A5.336,5.336,0,0,1,33.18-2.388a4.259,4.259,0,0,1,.708.468A9.787,9.787,0,0,0,35.2-3.852ZM31.5-9.888a3.861,3.861,0,0,1,.06.756,3.7,3.7,0,0,1-1.224,3.06,4.17,4.17,0,0,1-1.788.924,2.32,2.32,0,0,1,.54.78A5.1,5.1,0,0,0,31.32-5.976a3.755,3.755,0,0,0,.7-1.32,3.863,3.863,0,0,0,.7,1.212,5.873,5.873,0,0,0,2.244,1.716,3.628,3.628,0,0,1,.5-.84,4.9,4.9,0,0,1-1.2-.564,4.309,4.309,0,0,1-1.188-1.08,3.8,3.8,0,0,1-.636-2.3,5.463,5.463,0,0,1,.048-.732Zm-.024,4.752a5.426,5.426,0,0,1,.048.816,4.63,4.63,0,0,1-.756,2.832A4.3,4.3,0,0,1,28.392.18,2.732,2.732,0,0,1,28.92,1a5.283,5.283,0,0,0,2.172-1.56A4.088,4.088,0,0,0,32-2.352a4.682,4.682,0,0,0,.972,1.68A6.882,6.882,0,0,0,35.124.984a3.239,3.239,0,0,1,.528-.9A5.392,5.392,0,0,1,33.2-1.7a4.165,4.165,0,0,1-.792-2.688,4.746,4.746,0,0,1,.048-.744Zm10.536-.54A1.122,1.122,0,0,0,40.9-4.56a1.119,1.119,0,0,0,1.116,1.1,1.119,1.119,0,0,0,1.1-1.116A1.1,1.1,0,0,0,42.012-5.676Zm8.256-1.068A10.758,10.758,0,0,1,48.84-6.8a8.734,8.734,0,0,1,.048.936v.792a6.554,6.554,0,0,1-.06.876h.96V-5.892h8.46V-4.26h.96a5.194,5.194,0,0,1-.06-.792v-.8a7.371,7.371,0,0,1,.048-.936,12.565,12.565,0,0,1-1.344.048h-.96a16.373,16.373,0,0,0,.9-1.728l-.924-.312a10.357,10.357,0,0,1-.948,2.04H54.636a11.783,11.783,0,0,0-.6-1.74A31.776,31.776,0,0,0,58.08-9.12c.336-.084.336-.084.492-.12l-.612-.828a27.848,27.848,0,0,1-7.98.984,5.921,5.921,0,0,1-.792-.036,3.015,3.015,0,0,1,.324.888c.528,0,.684,0,1-.012a9.775,9.775,0,0,1,.6,1.5Zm1.764,0a13.476,13.476,0,0,0-.624-1.548c.828-.036.876-.036,1.74-.108a11.227,11.227,0,0,1,.6,1.656Zm4.992,2a5.9,5.9,0,0,1-1.056.06H51.54a8.185,8.185,0,0,1-1.212-.072v.936a5.36,5.36,0,0,1,.8-.06A8.51,8.51,0,0,0,53.22-1.428a12.87,12.87,0,0,1-4.56,1.4,2.811,2.811,0,0,1,.492.912A14.84,14.84,0,0,0,54-.864a10.239,10.239,0,0,0,1.68.876A13.659,13.659,0,0,0,58.98.9a4.127,4.127,0,0,1,.48-.948A12.812,12.812,0,0,1,54.84-1.4a10.739,10.739,0,0,0,2.328-2.208,5.4,5.4,0,0,1,.432-.456Zm-.792.852a8.644,8.644,0,0,1-2.208,1.98,6.717,6.717,0,0,1-1.872-1.98ZM69.708-6.36h.528c.4,0,.8.024,1.14.048v-.96a7.316,7.316,0,0,1-1.152.072h-.516V-8.484a9.983,9.983,0,0,1,.072-1.44H68.7A11.126,11.126,0,0,1,68.784-8.5v1.3h-3.66a9.293,9.293,0,0,1-1.284-.072v.984a10.32,10.32,0,0,1,1.308-.072h3.636V-.576c0,.252-.108.3-.636.3A9.285,9.285,0,0,1,66.54-.408a3.273,3.273,0,0,1,.276.96,11.808,11.808,0,0,0,1.44.072c1.176,0,1.452-.2,1.452-1.092Zm-6.492-.828c.4-.78.744-1.536.936-2.04a5.636,5.636,0,0,1,.24-.552l-1.008-.3a6.379,6.379,0,0,1-.528,1.524A11.449,11.449,0,0,1,60.5-4.992a2.706,2.706,0,0,1,.564.852,8.82,8.82,0,0,0,1.26-1.7c-.036.516-.036.84-.036,1.416V-.552A12.157,12.157,0,0,1,62.22.9h1.056a13.076,13.076,0,0,1-.06-1.428ZM64.56-4.872a12.261,12.261,0,0,1,1.92,2.82l.8-.588A14.858,14.858,0,0,0,65.3-5.376ZM76.464,0H75.2V-5.688q0-.456.012-.822t.036-.714a3.952,3.952,0,0,1-.324.312q-.168.144-.384.324l-.936.756-.648-.816,2.448-1.92h1.056Zm8.724-4.3A8.541,8.541,0,0,1,84.9-1.92a2.974,2.974,0,0,1-.93,1.512A2.569,2.569,0,0,1,82.284.12a2.361,2.361,0,0,1-2.178-1.17A6.319,6.319,0,0,1,79.4-4.3a8.713,8.713,0,0,1,.282-2.376A2.924,2.924,0,0,1,80.6-8.178a2.565,2.565,0,0,1,1.68-.522,2.4,2.4,0,0,1,2.184,1.158A6.15,6.15,0,0,1,85.188-4.3Zm-4.512,0a6.671,6.671,0,0,0,.36,2.514,1.265,1.265,0,0,0,1.248.834,1.279,1.279,0,0,0,1.248-.828A6.468,6.468,0,0,0,83.9-4.3a6.434,6.434,0,0,0-.372-2.5,1.279,1.279,0,0,0-1.248-.834,1.265,1.265,0,0,0-1.248.834A6.629,6.629,0,0,0,80.676-4.3Zm5.868-1.452a.833.833,0,0,1,.24-.684.893.893,0,0,1,.576-.192.918.918,0,0,1,.582.192.822.822,0,0,1,.246.684.811.811,0,0,1-.246.66.883.883,0,0,1-.582.2.86.86,0,0,1-.576-.2A.821.821,0,0,1,86.544-5.748Zm0,5.04a.8.8,0,0,1,.24-.66.893.893,0,0,1,.576-.192.918.918,0,0,1,.582.192.789.789,0,0,1,.246.66.827.827,0,0,1-.246.672.883.883,0,0,1-.582.2.86.86,0,0,1-.576-.2A.838.838,0,0,1,86.544-.708ZM95.328-4.3A8.541,8.541,0,0,1,95.04-1.92a2.974,2.974,0,0,1-.93,1.512A2.569,2.569,0,0,1,92.424.12a2.361,2.361,0,0,1-2.178-1.17,6.319,6.319,0,0,1-.7-3.246,8.713,8.713,0,0,1,.282-2.376,2.924,2.924,0,0,1,.918-1.506,2.565,2.565,0,0,1,1.68-.522,2.4,2.4,0,0,1,2.184,1.158A6.15,6.15,0,0,1,95.328-4.3Zm-4.512,0a6.671,6.671,0,0,0,.36,2.514,1.265,1.265,0,0,0,1.248.834,1.279,1.279,0,0,0,1.248-.828,6.468,6.468,0,0,0,.372-2.52,6.434,6.434,0,0,0-.372-2.5,1.279,1.279,0,0,0-1.248-.834,1.265,1.265,0,0,0-1.248.834A6.629,6.629,0,0,0,90.816-4.3Zm11.376,0A8.541,8.541,0,0,1,101.9-1.92a2.974,2.974,0,0,1-.93,1.512A2.569,2.569,0,0,1,99.288.12,2.361,2.361,0,0,1,97.11-1.05a6.319,6.319,0,0,1-.7-3.246,8.713,8.713,0,0,1,.282-2.376,2.924,2.924,0,0,1,.918-1.506,2.565,2.565,0,0,1,1.68-.522,2.4,2.4,0,0,1,2.184,1.158A6.15,6.15,0,0,1,102.192-4.3Zm-4.512,0a6.671,6.671,0,0,0,.36,2.514,1.265,1.265,0,0,0,1.248.834,1.279,1.279,0,0,0,1.248-.828,6.468,6.468,0,0,0,.372-2.52,6.434,6.434,0,0,0-.372-2.5,1.279,1.279,0,0,0-1.248-.834A1.265,1.265,0,0,0,98.04-6.8,6.629,6.629,0,0,0,97.68-4.3Zm6.324.36a2.826,2.826,0,0,1,2.2-1.14,3.264,3.264,0,0,1,2.136.876,5.647,5.647,0,0,0,1.656.948,3.36,3.36,0,0,0,1.116.192,3.367,3.367,0,0,0,1.632-.42,4.9,4.9,0,0,0,1.4-1.284l-.708-.66A3.322,3.322,0,0,1,112.1-4.272a2.2,2.2,0,0,1-.936.2,3.933,3.933,0,0,1-2.268-.948,6.2,6.2,0,0,0-1.116-.708,3.291,3.291,0,0,0-1.512-.348,3.216,3.216,0,0,0-1.764.5,4.585,4.585,0,0,0-1.2,1ZM119.2,0h-1.26V-5.688q0-.456.012-.822t.036-.714a3.952,3.952,0,0,1-.324.312q-.168.144-.384.324l-.936.756-.648-.816,2.448-1.92H119.2Zm5.82-8.688a3.613,3.613,0,0,1,1.344.234,2.085,2.085,0,0,1,.93.7,1.853,1.853,0,0,1,.342,1.134,1.754,1.754,0,0,1-.468,1.26,4.118,4.118,0,0,1-1.128.828,6.142,6.142,0,0,1,.93.57,2.619,2.619,0,0,1,.684.744,1.9,1.9,0,0,1,.258,1,2.133,2.133,0,0,1-.36,1.242,2.354,2.354,0,0,1-1,.81A3.652,3.652,0,0,1,125.04.12a3.358,3.358,0,0,1-2.148-.606,2.053,2.053,0,0,1-.756-1.7,2.076,2.076,0,0,1,.24-1.014,2.437,2.437,0,0,1,.636-.75,4.306,4.306,0,0,1,.864-.528,3.785,3.785,0,0,1-1.044-.87,1.962,1.962,0,0,1-.42-1.29,1.811,1.811,0,0,1,.348-1.122,2.125,2.125,0,0,1,.936-.7A3.543,3.543,0,0,1,125.016-8.688Zm-.012,1a1.573,1.573,0,0,0-.984.294.989.989,0,0,0-.384.834,1.121,1.121,0,0,0,.414.93,4.669,4.669,0,0,0,1,.594A3.593,3.593,0,0,0,126-5.628a1.183,1.183,0,0,0,.4-.936.989.989,0,0,0-.384-.834A1.614,1.614,0,0,0,125-7.692ZM123.36-2.208a1.264,1.264,0,0,0,.408.96,1.766,1.766,0,0,0,1.248.384,1.816,1.816,0,0,0,1.242-.378,1.247,1.247,0,0,0,.426-.978,1.2,1.2,0,0,0-.468-.972,4.857,4.857,0,0,0-1.164-.684l-.18-.072a3.3,3.3,0,0,0-1.122.726A1.424,1.424,0,0,0,123.36-2.208Zm5.916-3.54a.833.833,0,0,1,.24-.684.893.893,0,0,1,.576-.192.918.918,0,0,1,.582.192.822.822,0,0,1,.246.684.811.811,0,0,1-.246.66.883.883,0,0,1-.582.2.86.86,0,0,1-.576-.2A.821.821,0,0,1,129.276-5.748Zm0,5.04a.8.8,0,0,1,.24-.66.893.893,0,0,1,.576-.192.918.918,0,0,1,.582.192.789.789,0,0,1,.246.66.827.827,0,0,1-.246.672.883.883,0,0,1-.582.2.86.86,0,0,1-.576-.2A.838.838,0,0,1,129.276-.708ZM138.06-4.3a8.541,8.541,0,0,1-.288,2.376,2.974,2.974,0,0,1-.93,1.512,2.569,2.569,0,0,1-1.686.528,2.361,2.361,0,0,1-2.178-1.17,6.318,6.318,0,0,1-.7-3.246,8.712,8.712,0,0,1,.282-2.376,2.924,2.924,0,0,1,.918-1.506,2.565,2.565,0,0,1,1.68-.522,2.4,2.4,0,0,1,2.184,1.158A6.15,6.15,0,0,1,138.06-4.3Zm-4.512,0a6.671,6.671,0,0,0,.36,2.514,1.265,1.265,0,0,0,1.248.834,1.279,1.279,0,0,0,1.248-.828,6.468,6.468,0,0,0,.372-2.52,6.434,6.434,0,0,0-.372-2.5,1.279,1.279,0,0,0-1.248-.834,1.265,1.265,0,0,0-1.248.834A6.629,6.629,0,0,0,133.548-4.3Zm11.376,0a8.541,8.541,0,0,1-.288,2.376,2.974,2.974,0,0,1-.93,1.512A2.569,2.569,0,0,1,142.02.12a2.361,2.361,0,0,1-2.178-1.17,6.318,6.318,0,0,1-.7-3.246,8.712,8.712,0,0,1,.282-2.376,2.924,2.924,0,0,1,.918-1.506,2.565,2.565,0,0,1,1.68-.522A2.4,2.4,0,0,1,144.2-7.542,6.15,6.15,0,0,1,144.924-4.3Zm-4.512,0a6.671,6.671,0,0,0,.36,2.514,1.265,1.265,0,0,0,1.248.834,1.279,1.279,0,0,0,1.248-.828,6.468,6.468,0,0,0,.372-2.52,6.434,6.434,0,0,0-.372-2.5,1.279,1.279,0,0,0-1.248-.834,1.265,1.265,0,0,0-1.248.834A6.629,6.629,0,0,0,140.412-4.3ZM157.032,1a7.961,7.961,0,0,1-1.668-2.3,7.408,7.408,0,0,1-.708-3.252,7.408,7.408,0,0,1,.708-3.252,7.961,7.961,0,0,1,1.668-2.3h-1.224a8.454,8.454,0,0,0-1.392,2.1,7.986,7.986,0,0,0-.768,3.456,7.986,7.986,0,0,0,.768,3.456A8.454,8.454,0,0,0,155.808,1Zm2.46-1.56A10.327,10.327,0,0,1,159.42.768h1.044V0h6V.768h1.044a10.143,10.143,0,0,1-.072-1.344V-8.268a8.178,8.178,0,0,1,.06-1.14,8.975,8.975,0,0,1-1.26.06h-5.5a10.188,10.188,0,0,1-1.308-.06,11.844,11.844,0,0,1,.06,1.212Zm.972-7.9h6v3.192h-6Zm0,4.08h6V-.888h-6ZM176-4.92c-.048,1.884-.408,3.06-1.152,3.852a4.928,4.928,0,0,1-1.68,1.14,4.056,4.056,0,0,1,.66.768,4.861,4.861,0,0,0,2.5-2.676,8.13,8.13,0,0,0,.54-3.084h.936V-.18c0,.336.06.48.216.6.228.168.468.2,1.2.2,1.116,0,1.476-.12,1.656-.564a7.1,7.1,0,0,0,.24-1.968,2.568,2.568,0,0,1-.864-.384,7.011,7.011,0,0,1-.108,1.8c-.072.216-.228.264-.924.264-.288,0-.444-.036-.492-.108-.036-.048-.036-.06-.036-.708V-4.92h.588a8.054,8.054,0,0,1,.984.048,7.682,7.682,0,0,1-.048-.984v-2.6a8.007,8.007,0,0,1,.048-1,8.987,8.987,0,0,1-1.08.048h-3.42a9.707,9.707,0,0,1-1.14-.048,8.8,8.8,0,0,1,.048,1v2.544a8.348,8.348,0,0,1-.048,1.044,7.975,7.975,0,0,1,.972-.048Zm-.432-3.648h3.756v2.832h-3.756Zm-2.9,4.452a8.444,8.444,0,0,0,1.536,1.26,2.991,2.991,0,0,1,.444-.8,7.1,7.1,0,0,1-1.812-1.368,8.129,8.129,0,0,0,1.032-1.536,8.6,8.6,0,0,1,.5-.972l-.456-.5a5.4,5.4,0,0,1-.732.036h-.5V-9.132a5.258,5.258,0,0,1,.072-.948h-1.044a6.424,6.424,0,0,1,.072.948V-8h-.672a6.757,6.757,0,0,1-.948-.048v.9a7.805,7.805,0,0,1,.984-.048h2.076a8.1,8.1,0,0,1-1.452,2.172,8.86,8.86,0,0,1-2.088,1.752,3.376,3.376,0,0,1,.444.852A13.061,13.061,0,0,0,171.78-3.84V-.408a8.132,8.132,0,0,1-.072,1.26h1.032a8.026,8.026,0,0,1-.072-1.26ZM187.1-.768A3.577,3.577,0,0,1,184.968-2.7c.132-.456.3-1.056.324-1.224.108-.468.108-.468.156-.648l-.984-.192v.084a7.789,7.789,0,0,1-.756,2.748A6.556,6.556,0,0,1,182.124.156a2.442,2.442,0,0,1,.744.684,8.549,8.549,0,0,0,1.776-2.628c.876,1.6,2.52,2.28,5.46,2.28,1.14,0,1.428,0,2.328-.036a3.611,3.611,0,0,1,.288-.984c-1.056.084-1.884.12-2.784.12a12.949,12.949,0,0,1-1.944-.12v-2.5h2.292a8.023,8.023,0,0,1,1.164.06v-.948a7.276,7.276,0,0,1-1.164.072h-2.292V-5.688h1.944a7.9,7.9,0,0,1,1.2.072v-.96a8.007,8.007,0,0,1-1.2.072h-4.86a7.723,7.723,0,0,1-1.188-.072v.96a7.831,7.831,0,0,1,1.188-.072H187.1Zm-.192-7.9h-3.228c-.468,0-.84-.012-1.236-.048a7.916,7.916,0,0,1,.048.828v.8a4.838,4.838,0,0,1-.06.888h.948V-7.824h8.208v1.632h.924a6.306,6.306,0,0,1-.048-.876v-.816a5.81,5.81,0,0,1,.048-.828c-.408.036-.768.048-1.236.048h-3.432V-9.2a3.054,3.054,0,0,1,.072-.756h-1.092a3.318,3.318,0,0,1,.084.756ZM199.98-6.576a11.3,11.3,0,0,1-1.056,2.028,10.96,10.96,0,0,1-2.448,2.736,3.659,3.659,0,0,1,.672.792,10.449,10.449,0,0,0,1.908-2.16,11.027,11.027,0,0,0,1.236-2.436c-.012.4-.024.876-.024,1.332V-.36A10.575,10.575,0,0,1,200.184.9h1.056a10.121,10.121,0,0,1-.072-1.272v-4c0-.552-.012-.876-.048-1.32a11.252,11.252,0,0,0,1.836,3.168,10.637,10.637,0,0,0,1.464,1.5,5.628,5.628,0,0,1,.744-.792,11.561,11.561,0,0,1-3.708-4.764h2.208a9.336,9.336,0,0,1,1.248.072v-1.02a9.4,9.4,0,0,1-1.26.072h-2.484V-8.724a7.433,7.433,0,0,1,.084-1.176H200.2a9.666,9.666,0,0,1,.072,1.176v1.272h-2.052a9.021,9.021,0,0,1-1.236-.072V-6.5a9.4,9.4,0,0,1,1.236-.072ZM195.324-.54a12.144,12.144,0,0,1-.072,1.428h1.056c-.036-.42-.06-.888-.06-1.4V-7.032a14.139,14.139,0,0,0,.732-1.656c.216-.576.216-.576.456-1.164l-1.008-.312a8.093,8.093,0,0,1-.672,2.064,11.209,11.209,0,0,1-2.1,3.132,3.323,3.323,0,0,1,.5.912,9.452,9.452,0,0,0,1.2-1.692c-.024.54-.036.876-.036,1.428Zm12.168-.024A10.327,10.327,0,0,1,207.42.768h1.044V0h6V.768h1.044a10.143,10.143,0,0,1-.072-1.344V-8.268a8.178,8.178,0,0,1,.06-1.14,8.975,8.975,0,0,1-1.26.06h-5.5a10.188,10.188,0,0,1-1.308-.06,11.844,11.844,0,0,1,.06,1.212Zm.972-7.9h6v3.192h-6Zm0,4.08h6V-.888h-6ZM219.132,1a8.724,8.724,0,0,0,1.38-2.1,7.948,7.948,0,0,0,.768-3.456,7.948,7.948,0,0,0-.768-3.456,8.724,8.724,0,0,0-1.38-2.1H217.9a7.961,7.961,0,0,1,1.668,2.3,7.335,7.335,0,0,1,.708,3.252,7.335,7.335,0,0,1-.708,3.252A7.961,7.961,0,0,1,217.9,1Z" transform="translate(248 4200)"/>
  </g>
</svg>
