<svg id="ロゴ_ぶたあり_" data-name="ロゴ（ぶたあり）" xmlns="http://www.w3.org/2000/svg" xmlns:xlink="http://www.w3.org/1999/xlink" width="313" height="31.37" viewBox="0 0 313 31.37">
  <defs>
    <clipPath id="clip-path">
      <rect id="長方形_5052" data-name="長方形 5052" width="313" height="31.37" fill="none"/>
    </clipPath>
  </defs>
  <path id="パス_9534" data-name="パス 9534" d="M81.79,2.932l-9.022,11.74V2.932h-7.4V31.4h7.4V19.051L82.394,31.4h9.589L79.638,16.408,90.925,2.932Z" transform="translate(-16.546 -0.742)" fill="#63c1ab"/>
  <g id="グループ_6862" data-name="グループ 6862">
    <g id="グループ_6861" data-name="グループ 6861" clip-path="url(#clip-path)">
      <path id="パス_9535" data-name="パス 9535" d="M104.282,3.85a3.713,3.713,0,0,1,.3-1.491A3.917,3.917,0,0,1,106.641.3a3.835,3.835,0,0,1,2.982,0,3.915,3.915,0,0,1,2.058,2.058,3.725,3.725,0,0,1,.3,1.491,3.726,3.726,0,0,1-.3,1.492A3.917,3.917,0,0,1,109.624,7.4a3.827,3.827,0,0,1-2.982,0,3.919,3.919,0,0,1-2.057-2.057,3.713,3.713,0,0,1-.3-1.492m7.286,26.8h-6.832V11.288h6.832Z" transform="translate(-26.396 0)" fill="#63c1ab"/>
      <path id="パス_9536" data-name="パス 9536" d="M120.835,14.972h6.832v2.454a7.472,7.472,0,0,1,2.831-2.284,8.86,8.86,0,0,1,3.359-.586,8.393,8.393,0,0,1,3.492.661,6.956,6.956,0,0,1,2.473,1.869,5.375,5.375,0,0,1,1.132,2.189,11.427,11.427,0,0,1,.3,2.756V34.338h-6.832V24.561a10.542,10.542,0,0,0-.208-2.321,2.885,2.885,0,0,0-.736-1.416,2.592,2.592,0,0,0-1.02-.642,3.8,3.8,0,0,0-1.208-.188,3.378,3.378,0,0,0-2.661,1.037,4.312,4.312,0,0,0-.925,2.964V34.338h-6.832Z" transform="translate(-30.586 -3.685)" fill="#63c1ab"/>
      <path id="パス_9537" data-name="パス 9537" d="M154.886,14.972h6.832v2.454a7.472,7.472,0,0,1,2.831-2.284,8.86,8.86,0,0,1,3.359-.586,8.393,8.393,0,0,1,3.492.661,6.956,6.956,0,0,1,2.473,1.869,5.375,5.375,0,0,1,1.132,2.189,11.429,11.429,0,0,1,.3,2.756V34.338h-6.832V24.561a10.54,10.54,0,0,0-.208-2.321,2.884,2.884,0,0,0-.736-1.416,2.592,2.592,0,0,0-1.019-.642,3.805,3.805,0,0,0-1.208-.188,3.378,3.378,0,0,0-2.661,1.037,4.312,4.312,0,0,0-.925,2.964V34.338h-6.832Z" transform="translate(-39.205 -3.685)" fill="#63c1ab"/>
      <path id="パス_9538" data-name="パス 9538" d="M187.633,24.383a9.423,9.423,0,0,1,.868-4.02,9.871,9.871,0,0,1,2.416-3.247,11.479,11.479,0,0,1,3.681-2.17,13.279,13.279,0,0,1,4.663-.793,13.471,13.471,0,0,1,4.624.774,11.47,11.47,0,0,1,3.7,2.152,9.67,9.67,0,0,1,2.435,3.284,10.05,10.05,0,0,1,.868,4.209A9.851,9.851,0,0,1,210,28.78a9.987,9.987,0,0,1-2.435,3.285,10.9,10.9,0,0,1-3.718,2.132,14.216,14.216,0,0,1-4.7.755,13.6,13.6,0,0,1-4.605-.755,10.613,10.613,0,0,1-3.643-2.152,9.981,9.981,0,0,1-2.4-3.341,10.484,10.484,0,0,1-.868-4.322m7.21.075a4.389,4.389,0,0,0,.358,1.793,4.794,4.794,0,0,0,.944,1.415,4.155,4.155,0,0,0,1.4.944,4.51,4.51,0,0,0,3.435,0,4.155,4.155,0,0,0,1.4-.944,4.822,4.822,0,0,0,.944-1.415,4.3,4.3,0,0,0,.359-1.756,4.211,4.211,0,0,0-.359-1.718,4.832,4.832,0,0,0-.944-1.415,4.154,4.154,0,0,0-1.4-.943,4.51,4.51,0,0,0-3.435,0,4.153,4.153,0,0,0-1.4.943,4.876,4.876,0,0,0-.944,1.4,4.071,4.071,0,0,0-.358,1.7" transform="translate(-47.494 -3.583)" fill="#63c1ab"/>
      <path id="パス_9539" data-name="パス 9539" d="M224.879,2.931H235.9a8.481,8.481,0,0,1,5.964,1.888,7.041,7.041,0,0,1,2.039,5.436,7.381,7.381,0,0,1-.774,3.567,6.508,6.508,0,0,1-2.359,2.4,8.947,8.947,0,0,1,2.7.925,5.866,5.866,0,0,1,1.813,1.529,5.731,5.731,0,0,1,1,2.038,9.371,9.371,0,0,1,.3,2.416,8.539,8.539,0,0,1-.7,3.549,7.2,7.2,0,0,1-1.963,2.6,8.392,8.392,0,0,1-3.076,1.586,14.549,14.549,0,0,1-4.077.529H224.879Zm7.4,11.174h1.359q3.472,0,3.473-2.755t-3.473-2.756h-1.359Zm0,11.552H233.9a8.254,8.254,0,0,0,4-.717,2.477,2.477,0,0,0,1.208-2.3,2.478,2.478,0,0,0-1.208-2.3,8.254,8.254,0,0,0-4-.717h-1.624Z" transform="translate(-56.922 -0.742)" fill="#63c1ab"/>
      <path id="パス_9540" data-name="パス 9540" d="M267.193,15.113v10.91q0,3.587,3.473,3.586t3.473-3.586V15.113h6.832V27.344a6.927,6.927,0,0,1-2.586,5.889Q275.8,35.2,270.666,35.2t-7.72-1.964a6.921,6.921,0,0,1-2.586-5.889V15.113Z" transform="translate(-65.904 -3.826)" fill="#63c1ab"/>
      <path id="パス_9541" data-name="パス 9541" d="M303.019,18.843V32.509h-6.832V18.843h-2.265v-5.7h2.265V7.329h6.832v5.814h3.888v5.7Z" transform="translate(-74.399 -1.855)" fill="#63c1ab"/>
      <path id="パス_9542" data-name="パス 9542" d="M329.9,14.907h6.87V34.274H329.9V32.122a7.171,7.171,0,0,1-5.927,2.755,9.625,9.625,0,0,1-3.888-.774,9.354,9.354,0,0,1-3.1-2.17,10.012,10.012,0,0,1-2.058-3.285,11.223,11.223,0,0,1-.736-4.115,10.919,10.919,0,0,1,.717-3.945,10.139,10.139,0,0,1,2-3.265,9.441,9.441,0,0,1,3.058-2.209A9.329,9.329,0,0,1,323.9,14.3a7.89,7.89,0,0,1,6,2.529Zm-8.608,9.626a4.517,4.517,0,0,0,1.264,3.171,4.157,4.157,0,0,0,1.4.943,4.512,4.512,0,0,0,1.757.34,4.407,4.407,0,0,0,1.717-.34,4.157,4.157,0,0,0,1.4-.943,4.9,4.9,0,0,0,.944-1.4,4.082,4.082,0,0,0,.359-1.7,4.217,4.217,0,0,0-.359-1.718,4.824,4.824,0,0,0-.944-1.415,4.168,4.168,0,0,0-1.4-.943,4.394,4.394,0,0,0-1.717-.34,4.5,4.5,0,0,0-1.757.34,4.168,4.168,0,0,0-1.4.943,4.673,4.673,0,0,0-.925,1.378,4.122,4.122,0,0,0-.34,1.68" transform="translate(-79.531 -3.621)" fill="#63c1ab"/>
      <path id="パス_9543" data-name="パス 9543" d="M356.645,31.835c-.055-.128-.1-.255-.139-.373-.084-.244-.149-.446-.212-.627a24.86,24.86,0,0,1-3.583-.1l-.075-1.223a22.027,22.027,0,0,0,3.327.16c-.106-.341-.213-.68-.34-1.052l1.425-.16q.081.574.191,1.117a12.319,12.319,0,0,0,2.094-.457l.17,1.223a15.743,15.743,0,0,1-1.955.394c.052.17.106.34.158.5s.117.308.181.478a13.676,13.676,0,0,0,2.031-.425l.213,1.255a14.393,14.393,0,0,1-1.7.329,9.8,9.8,0,0,0,.552.946,3.266,3.266,0,0,0,.479.542l-.648.978c-.6-.117-1.744-.255-2.52-.341l.105-1.01c.447.043,1.022.1,1.34.128-.223-.373-.425-.745-.6-1.106a39.559,39.559,0,0,1-4.626-.01l-.074-1.255a27.261,27.261,0,0,0,4.2.085M354.018,35.4c0,.787.743,1.105,2.147,1.105a13.942,13.942,0,0,0,2.669-.234l-.074,1.351a16.4,16.4,0,0,1-2.584.2c-2.126,0-3.445-.627-3.466-2.148a3.523,3.523,0,0,1,.457-1.712l1.317.255a2,2,0,0,0-.467,1.18" transform="translate(-89.212 -7.205)" fill="#63c1ab"/>
      <path id="パス_9544" data-name="パス 9544" d="M369.269,29.811c-.521.766-1.265,2.126-1.8,3.062a2.473,2.473,0,0,1,1.223-.319,1.269,1.269,0,0,1,1.319,1.382c.021.479-.011,1.329.043,1.775a.617.617,0,0,0,.691.574c.925,0,1.489-1.191,1.8-2.509l1.149.935c-.553,1.819-1.542,3.031-3.169,3.031a1.577,1.577,0,0,1-1.775-1.478c-.043-.564-.032-1.435-.064-1.872a.583.583,0,0,0-.627-.6c-.723,0-1.319.744-1.7,1.605a22.02,22.02,0,0,0-.808,2.371l-1.5-.51a82.108,82.108,0,0,1,3.53-7.475c.139-.288.341-.638.521-1.084l1.51.606c-.107.149-.224.329-.341.5" transform="translate(-92.149 -7.266)" fill="#63c1ab"/>
      <path id="パス_9545" data-name="パス 9545" d="M383.685,37.921l-.8-1.265a8.115,8.115,0,0,0,.989-.17,2.886,2.886,0,0,0,2.424-2.849,2.629,2.629,0,0,0-2.233-2.808,21.424,21.424,0,0,1-.638,2.881c-.638,2.148-1.553,3.466-2.712,3.466-1.18,0-2.158-1.3-2.158-3.094a4.724,4.724,0,0,1,4.88-4.551,4.049,4.049,0,0,1,4.3,4.147c0,2.244-1.372,3.828-4.051,4.242m-2.924-2.382c.447,0,.861-.67,1.3-2.105a16.011,16.011,0,0,0,.564-2.573,3.347,3.347,0,0,0-2.7,3.084c0,1.074.425,1.595.84,1.595" transform="translate(-95.823 -7.476)" fill="#63c1ab"/>
      <path id="パス_9546" data-name="パス 9546" d="M392.689,37.248l-.808-1.137a12.559,12.559,0,0,0,2.712-2.084l.8,1.031a13.327,13.327,0,0,1-2.7,2.19m3.7-.733c.543,0,.915-.192.915-.691a3.976,3.976,0,0,0-1.212-2.085,11.65,11.65,0,0,0-.978-.839l1.043-.862c.308.308.584.574.86.862,1.138,1.137,1.765,2.094,1.765,3.073,0,1.424-1.01,1.85-2.116,1.85a9.8,9.8,0,0,1-1.722-.16l-.192-1.4a5.8,5.8,0,0,0,1.637.255m.84-5.646a12.086,12.086,0,0,0-2.126-1.042l.786-.978a17.564,17.564,0,0,1,2.743,1.265l.32.829c-.288.234-1.107.893-1.542,1.191l-.851-.777c.255-.17.521-.372.67-.489m1.734,2.712,1.149-.617a12.939,12.939,0,0,1,1.817,3.424l-1.286.692a10.523,10.523,0,0,0-1.68-3.5m1.913-2.105-.851.372a14.5,14.5,0,0,0-.84-1.489l.84-.34a14.633,14.633,0,0,1,.851,1.456m1.276-.489-.852.361a11.151,11.151,0,0,0-.85-1.467l.84-.341a15.191,15.191,0,0,1,.861,1.446" transform="translate(-99.195 -7.303)" fill="#63c1ab"/>
      <path id="パス_9547" data-name="パス 9547" d="M411.147,29.691c-.021.117-.053.255-.085.4.6-.085,1.191-.2,1.776-.34v1.329a19.5,19.5,0,0,1-2.074.351c-.1.457-.2.925-.319,1.361a33.032,33.032,0,0,1-1.69,4.923l-1.479-.5a22.961,22.961,0,0,0,1.84-4.785c.076-.287.16-.585.224-.893-.245.01-.479.022-.7.022-.51,0-.914-.022-1.286-.043l-.032-1.329a10.443,10.443,0,0,0,1.34.085c.308,0,.627-.01.957-.032q.064-.351.1-.606a5.49,5.49,0,0,0,.032-1.074l1.627.128c-.086.288-.181.766-.223,1m1.276,5.774c0,.468.32.819,1.456.819a12.488,12.488,0,0,0,2.212-.223l-.053,1.361a17.04,17.04,0,0,1-2.17.149c-1.786,0-2.754-.616-2.754-1.69a7.421,7.421,0,0,1,.192-1.425l1.264.128a3.667,3.667,0,0,0-.149.883m1.616-3.669a18.569,18.569,0,0,1,1.872.1l-.032,1.276a15.661,15.661,0,0,0-1.828-.127,18.207,18.207,0,0,0-2.052.106V31.9c.6-.053,1.361-.106,2.041-.106" transform="translate(-103.091 -7.231)" fill="#63c1ab"/>
      <path id="パス_9548" data-name="パス 9548" d="M41.121,8.584a.374.374,0,0,0-.453.273,2.03,2.03,0,0,1-1.791,1.358,2.9,2.9,0,0,0,.348-1.329c.052-1.882-.848-2.229-1.237-2.291a1.639,1.639,0,0,0-1.725,1.2,2.663,2.663,0,0,0,.45,2.385,2.141,2.141,0,0,0,.679.553,4.416,4.416,0,0,1-1.478.577c-.021-.04-.043-.091-.063-.129-.658-1.234-1.645-2.631-4.522-4.934s-7.812-2.8-11.1-2.878a23.892,23.892,0,0,0-7.318,1.4s-2.3-.247-4.852-.247a17.079,17.079,0,0,0-5.18.987,11.536,11.536,0,0,0,1.48,2.631C5.016,8.793,6.5,9.944,6.5,9.944s-.9,1.07-1.48,1.809S4.77,13.561,3.947,14.96,0,16.769,0,16.769a30.229,30.229,0,0,0,1.645,4.44c.329.575,3.536,1.645,3.536,1.645s1.233,1.562,1.973,2.466a11.847,11.847,0,0,0,3.207,1.974l-.576,4.029h4.687l1.48-2.8a26.933,26.933,0,0,0,4.276.493,16.976,16.976,0,0,0,3.7-.493l-.494,2.8h5.427S35.285,24.235,36.59,18.5A10.686,10.686,0,0,0,36.226,12a4.626,4.626,0,0,0,2.049-1.025,3.111,3.111,0,0,0,.527,0,2.772,2.772,0,0,0,2.591-1.937.373.373,0,0,0-.272-.453m-34.3,7.691a1.069,1.069,0,1,1,1.069-1.069,1.069,1.069,0,0,1-1.069,1.069m31.191-6.1a1.407,1.407,0,0,1-.724-.468A1.926,1.926,0,0,1,36.979,8a.937.937,0,0,1,.808-.68.51.51,0,0,1,.083.007c.406.064.633.638.608,1.534a2.147,2.147,0,0,1-.462,1.308" transform="translate(0 -0.851)" fill="#e86573"/>
    </g>
  </g>
</svg>
