<svg xmlns="http://www.w3.org/2000/svg" width="18.082" height="15.274" viewBox="0 0 18.082 15.274">
  <g id="無料のダウンロードのアイコン素材" transform="translate(0 -39.75)">
    <path id="パス_10548" data-name="パス 10548" d="M153.864,49.272a.525.525,0,0,0,.876,0L157.9,45.1a.348.348,0,0,0-.3-.609h-1.212a.6.6,0,0,1-.595-.595v-3.44a.708.708,0,0,0-.707-.707h-1.573a.708.708,0,0,0-.707.707V43.9a.6.6,0,0,1-.595.595H151a.349.349,0,0,0-.3.609Z" transform="translate(-145.261)" fill="#e86573"/>
    <path id="パス_10549" data-name="パス 10549" d="M15.724,294.16v3.931H2.359V294.16H0v5.391a.9.9,0,0,0,.9.9H17.184a.9.9,0,0,0,.9-.9V294.16Z" transform="translate(0 -245.425)" fill="#e86573"/>
  </g>
</svg>
