<svg xmlns="http://www.w3.org/2000/svg" xmlns:xlink="http://www.w3.org/1999/xlink" width="573.111" height="69.951" viewBox="0 0 573.111 69.951">
  <defs>
    <clipPath id="clip-path">
      <rect id="長方形_5092" data-name="長方形 5092" width="68.781" height="69.951" fill="none"/>
    </clipPath>
  </defs>
  <g id="グループ_7239" data-name="グループ 7239" transform="translate(-279.861 -596)">
    <path id="パス_11658" data-name="パス 11658" d="M10.351,0H.935V-2.492L3.455-3.653v-13.4L.935-18.21V-20.7h9.417v2.492L7.831-17.049v13.4l2.521,1.161ZM28.165,0H23.846V-9.247a4.441,4.441,0,0,0-.609-2.57,2.215,2.215,0,0,0-1.94-.857,2.917,2.917,0,0,0-2.62,1.211,7.509,7.509,0,0,0-.807,4.014V0H13.551V-15.831h3.3l.581,2.025h.241a4.564,4.564,0,0,1,1.99-1.735,6.775,6.775,0,0,1,2.882-.588,5.536,5.536,0,0,1,4.191,1.494,6,6,0,0,1,1.43,4.312ZM43.656-4.7a4.359,4.359,0,0,1-1.692,3.71A8.361,8.361,0,0,1,36.9.283,15.9,15.9,0,0,1,33.956.05a11.141,11.141,0,0,1-2.28-.687V-4.206a15.056,15.056,0,0,0,2.712.949,10.98,10.98,0,0,0,2.655.382q2.351,0,2.351-1.359a1.135,1.135,0,0,0-.312-.828,4.517,4.517,0,0,0-1.076-.722q-.765-.4-2.039-.942a12.809,12.809,0,0,1-2.683-1.416,3.986,3.986,0,0,1-1.246-1.494,4.931,4.931,0,0,1-.389-2.074,3.761,3.761,0,0,1,1.635-3.264,7.967,7.967,0,0,1,4.637-1.154,13.163,13.163,0,0,1,5.565,1.246l-1.3,3.115q-1.189-.51-2.223-.835a6.981,6.981,0,0,0-2.11-.326q-1.912,0-1.912,1.034a1.215,1.215,0,0,0,.616,1.005,16.751,16.751,0,0,0,2.7,1.26,12.532,12.532,0,0,1,2.719,1.4,4.146,4.146,0,0,1,1.274,1.5A4.612,4.612,0,0,1,43.656-4.7ZM53.7-3.158a9.362,9.362,0,0,0,2.719-.5V-.439a9.694,9.694,0,0,1-3.965.722,4.853,4.853,0,0,1-3.774-1.31,5.7,5.7,0,0,1-1.182-3.929v-7.632H45.426v-1.827L47.8-15.859,49.051-19.2h2.761v3.37h4.432v3.243H51.812v7.632A1.686,1.686,0,0,0,52.329-3.6,2.039,2.039,0,0,0,53.7-3.158ZM69.668,0l-.835-2.152h-.113a6.379,6.379,0,0,1-2.244,1.9,7.253,7.253,0,0,1-3.009.531,4.866,4.866,0,0,1-3.59-1.3,5,5,0,0,1-1.31-3.71,4.178,4.178,0,0,1,1.763-3.717,10.215,10.215,0,0,1,5.317-1.324l2.747-.085v-.694a2.153,2.153,0,0,0-2.464-2.407,11.228,11.228,0,0,0-4.46,1.147l-1.43-2.917a12.87,12.87,0,0,1,6.061-1.43,7.549,7.549,0,0,1,4.885,1.388,5.128,5.128,0,0,1,1.7,4.22V0ZM68.394-7.335l-1.671.057a5.351,5.351,0,0,0-2.8.68A2.135,2.135,0,0,0,63-4.7q0,1.827,2.1,1.827a3.319,3.319,0,0,0,2.4-.864,3.034,3.034,0,0,0,.9-2.294ZM83.687-3.1a2.918,2.918,0,0,0,2.492-1,5.455,5.455,0,0,0,.75-3.236v-.524a6.478,6.478,0,0,0-.786-3.646,2.879,2.879,0,0,0-2.528-1.112q-3.044,0-3.044,4.786a6.655,6.655,0,0,0,.758,3.554A2.6,2.6,0,0,0,83.687-3.1ZM90.965.028A6.552,6.552,0,0,1,88.975,5.2q-1.989,1.763-5.926,1.763a16.642,16.642,0,0,1-5.919-.935V2.577A15.662,15.662,0,0,0,83.3,3.795q3.328,0,3.328-3.6V-.113l.127-1.94h-.127A5,5,0,0,1,82.143.283a5.1,5.1,0,0,1-4.411-2.195,10.119,10.119,0,0,1-1.565-5.976,9.97,9.97,0,0,1,1.621-6.068,5.266,5.266,0,0,1,4.468-2.174,5.347,5.347,0,0,1,4.588,2.322h.113l.354-2.025h3.653Zm13.353-16.157a6.965,6.965,0,0,1,1.458.127l-.326,4.05a4.948,4.948,0,0,0-1.274-.142,4.58,4.58,0,0,0-3.221,1.062A3.839,3.839,0,0,0,99.8-8.057V0H95.482V-15.831h3.271l.637,2.662H99.6a5.951,5.951,0,0,1,1.99-2.145A4.906,4.906,0,0,1,104.318-16.128ZM118.421,0l-.835-2.152h-.113a6.379,6.379,0,0,1-2.244,1.9,7.253,7.253,0,0,1-3.009.531,4.866,4.866,0,0,1-3.59-1.3,5,5,0,0,1-1.31-3.71,4.178,4.178,0,0,1,1.763-3.717A10.215,10.215,0,0,1,114.4-9.771l2.747-.085v-.694a2.153,2.153,0,0,0-2.464-2.407,11.228,11.228,0,0,0-4.46,1.147l-1.43-2.917a12.87,12.87,0,0,1,6.061-1.43,7.549,7.549,0,0,1,4.885,1.388,5.128,5.128,0,0,1,1.7,4.22V0Zm-1.274-7.335-1.671.057a5.351,5.351,0,0,0-2.8.68,2.135,2.135,0,0,0-.92,1.9q0,1.827,2.1,1.827a3.319,3.319,0,0,0,2.4-.864,3.034,3.034,0,0,0,.9-2.294ZM140.058,0h-4.319V-9.247a4.658,4.658,0,0,0-.573-2.57,2.017,2.017,0,0,0-1.805-.857,2.615,2.615,0,0,0-2.407,1.218,7.988,7.988,0,0,0-.75,4.007V0h-4.319V-15.831h3.3l.581,2.025H130a4.388,4.388,0,0,1,1.841-1.706,5.977,5.977,0,0,1,2.761-.616q3.554,0,4.814,2.322h.382a4.277,4.277,0,0,1,1.876-1.713,6.257,6.257,0,0,1,2.8-.609,5.52,5.52,0,0,1,4.071,1.381,6.063,6.063,0,0,1,1.381,4.425V0h-4.333V-9.247a4.658,4.658,0,0,0-.573-2.57,2.017,2.017,0,0,0-1.805-.857,2.693,2.693,0,0,0-2.372,1.133,6.428,6.428,0,0,0-.786,3.6Zm38.6.522a74.38,74.38,0,0,0-7.1-10.817L168.711-8.7a43.258,43.258,0,0,1,3.683,5.162,89.684,89.684,0,0,1-10.5.957,91.471,91.471,0,0,0,5.423-11.165c.29-.7.406-.928.58-1.276l-3.828-.986a23.338,23.338,0,0,1-1.682,4.988,76.325,76.325,0,0,1-4.263,8.584c-.812.029-.986.029-1.653.029-.812,0-1.479-.029-2.117-.087l.58,3.712A21.642,21.642,0,0,1,158.329.9,150.966,150.966,0,0,0,174.018-.7c.522.986.783,1.479,1.508,3.045ZM161.49-23.722a10.9,10.9,0,0,1-1.537,3.6,23.1,23.1,0,0,1-7.163,7.482,13.5,13.5,0,0,1,2.2,3.016A30.269,30.269,0,0,0,159.46-13.8a33.763,33.763,0,0,0,4.814-7.105,4.473,4.473,0,0,1,.377-.754,2.548,2.548,0,0,0,.145-.29,4.242,4.242,0,0,1,.261-.435Zm6.612,1.334.232.464a5.1,5.1,0,0,1,.29.58c.145.319.261.522.319.667a30.055,30.055,0,0,0,2.668,4.379,30.978,30.978,0,0,0,6.7,6.7,14.628,14.628,0,0,1,2.146-3.19,28.283,28.283,0,0,1-2.755-1.972,24.026,24.026,0,0,1-3.19-3.277,18.738,18.738,0,0,1-3.219-5.713Zm36.4,3.045,2.349-1.334a25.713,25.713,0,0,0-2.871-3.277l-2.523,1.189a17.825,17.825,0,0,1,2.755,3.422h-3.422c-.029-.957-.029-1.8-.029-2.291a19.9,19.9,0,0,1,.116-2.349h-3.509a16.717,16.717,0,0,1,.174,2.262c0,.87,0,.87.087,2.378H186.14a26.663,26.663,0,0,1-3.393-.174v3.248a30.443,30.443,0,0,1,3.393-.174h11.6a45.486,45.486,0,0,0,.7,6.9,21.081,21.081,0,0,0,3.219,8.729C202.931.9,204.41,2,205.512,2a2.5,2.5,0,0,0,2-1.218c.725-1.044,1.218-2.668,1.653-5.452a13,13,0,0,1-2.755-1.624c-.377,3.016-.725,4.408-1.073,4.408a2.131,2.131,0,0,1-.667-.522,9.441,9.441,0,0,1-1.74-2.871c-1.131-2.668-1.769-6.119-2.03-11.165h4.234a25.432,25.432,0,0,1,3.393.174v-3.248a14.016,14.016,0,0,1-2.813.174Zm-15.863,9.28V-2.9a41.243,41.243,0,0,1-5.829.667l.522,3.277c.493-.087.812-.145,1.073-.2,3.886-.58,8.468-1.508,13.369-2.7V-4.814c-2.784.7-3.915.928-5.945,1.334v-6.583h2a28.02,28.02,0,0,1,2.9.145v-3.074a24.648,24.648,0,0,1-2.929.145h-7.018a25.768,25.768,0,0,1-2.987-.145v3.074a28.186,28.186,0,0,1,2.929-.145ZM235.3-22.185a7.983,7.983,0,0,1-2.813.261H217.344a23.12,23.12,0,0,1-4-.232v3.625a27.876,27.876,0,0,1,3.944-.174h15.225a12.026,12.026,0,0,1-2.755,3.683,13.448,13.448,0,0,1-4.234,2.668,9.8,9.8,0,0,1,2.61,2.639,18.139,18.139,0,0,0,3.48-2.407,18.4,18.4,0,0,0,4.466-5.829,8.06,8.06,0,0,1,1.16-2.03ZM221.52-16.327a7.344,7.344,0,0,1,.145,1.74c0,5.481-.928,7.975-3.886,10.324A13.371,13.371,0,0,1,212.7-1.8,10.237,10.237,0,0,1,215,1.508c3.625-1.508,5.742-2.987,7.482-5.22,1.972-2.523,2.755-5.307,2.871-10.266a13.316,13.316,0,0,1,.116-2.349Zm41.528-2.262a5.852,5.852,0,0,1-2.291.261l-6.438.029c.087-.928.087-1.189.116-1.827.058-1.508.058-1.508.116-2.117,0-.2.029-.377.029-.551a8.439,8.439,0,0,1,.116-.9l-3.886-.087a5.63,5.63,0,0,1,.087,1.131v.725c0,.841-.058,2.523-.145,3.625l-5.075.029a16.636,16.636,0,0,1-3.219-.232l.029,3.567a20.6,20.6,0,0,1,3.132-.145l4.814-.029c-.029.2-.087.493-.145.9a14.882,14.882,0,0,1-1.479,5.046,16.329,16.329,0,0,1-7.54,7.308,11.433,11.433,0,0,1,2.61,3.074,21.268,21.268,0,0,0,7.83-8.033,21.231,21.231,0,0,0,2.32-8.294l6.757-.029a65.1,65.1,0,0,1-.638,9.28c-.464,2.523-.9,3.161-2.146,3.161a15.036,15.036,0,0,1-3.828-.667,8.765,8.765,0,0,1,.667,3.712,22.118,22.118,0,0,0,3.6.319c3.48,0,4.5-1.189,5.249-6.206.29-1.914.609-6.38.7-9.657a4.531,4.531,0,0,1,.319-1.943Zm29.377-.783c-.7.232-.7.232-2.842.232h-5.22v-2.494a13.263,13.263,0,0,1,.145-2.088h-4.031a11.173,11.173,0,0,1,.145,2.117v2.494h-5.684a22.558,22.558,0,0,1-3.132-.145,23.775,23.775,0,0,1,.116,2.755v4.2a21.582,21.582,0,0,1-.145,2.436h3.886c-.058-.638-.087-1.421-.087-2.32v-3.741h14.152c-.551,5.336-2.755,9.019-6.96,11.629a19.072,19.072,0,0,1-6.177,2.407,10.628,10.628,0,0,1,2.32,3.451,26.293,26.293,0,0,0,5.771-2.61,16.98,16.98,0,0,0,7.163-8,24.341,24.341,0,0,0,1.827-7.018,4.616,4.616,0,0,1,.435-1.6Zm8.207.754a30.448,30.448,0,0,1,7.4,5.887l2.494-3.161a41.073,41.073,0,0,0-7.482-5.6ZM301.647.522a10.266,10.266,0,0,1,1.914-.493,31.324,31.324,0,0,0,11.049-4.35c3.973-2.639,6.728-6.061,9.193-11.368a12.505,12.505,0,0,1-3.074-2.842,24.215,24.215,0,0,1-2.958,5.8,19.376,19.376,0,0,1-8.613,7.1,27.633,27.633,0,0,1-8.584,2.146Zm36.1.783a31.889,31.889,0,0,1-.116-3.219V-9.57a14.992,14.992,0,0,0-.116-1.972,9.37,9.37,0,0,0,.986.493A68.612,68.612,0,0,1,348.772-5.51l2.03-3.422a85.2,85.2,0,0,0-13.166-6.119v-5.394a19.441,19.441,0,0,1,.116-3.045h-3.973a18.64,18.64,0,0,1,.174,2.958V-1.943a19.537,19.537,0,0,1-.174,3.248Zm27.724-15.892a.51.51,0,0,1,.174-.029,1.332,1.332,0,0,1,.29.029,4.318,4.318,0,0,1,.493.029c.145,0,.464.029.87.029,1.363.116,2.523.145,3.6.145.754,0,1.45-.029,2.61-.058.116,4.031.145,5.452.232,6.177a6.893,6.893,0,0,0-2.581-.406c-3.509,0-5.974,1.972-5.974,4.785,0,2.958,2.32,4.756,6.119,4.756,2.813,0,4.843-1.015,5.51-2.726a5.074,5.074,0,0,0,.232-1.624v-.406c.174.116.841.551,1.827,1.189a10.864,10.864,0,0,1,2.175,1.856l1.392-3.509a5.518,5.518,0,0,1-.812-.493,23.121,23.121,0,0,0-4.553-2.639c-.29-4.872-.29-4.93-.29-6.554v-.638c1.537-.174,3.045-.435,4.031-.638a5.011,5.011,0,0,1,.841-.145l-.116-3.277-.232.058c-.464.174-.464.174-.638.232a29.155,29.155,0,0,1-3.915.7v-1.334a28.374,28.374,0,0,1,.2-4.263l-3.625.087a8.111,8.111,0,0,1,.087,1.392c0,1.189.029,2.639.029,4.35-1.015.058-1.653.058-2.668.058a20.9,20.9,0,0,1-5.249-.464Zm8.323,9.28v.783a2.434,2.434,0,0,1-.377,1.566,2.851,2.851,0,0,1-2.349.9c-1.624,0-2.668-.725-2.668-1.8,0-1.189,1.16-1.914,3.016-1.914A6.07,6.07,0,0,1,373.8-5.307ZM362.46.87A5.683,5.683,0,0,1,362.4.087c0-1.914,1.16-5.51,2.871-8.874L362.866-9.86a5.531,5.531,0,0,1-.348.9c-.29.7-.29.7-.551,1.3-.145.464-.29.783-.348.986-.2.522-.2.522-.348.841h-.029a4.938,4.938,0,0,0,.029-.609V-6.9c0-.464,0-.464.029-1.508.029-5.046,1.131-12.035,2.32-14.558l-3.915-.406v.116a15.566,15.566,0,0,1-.319,2.146c-.638,3.277-.638,3.277-.783,4.147a51.833,51.833,0,0,0-.551,7.685,55,55,0,0,0,.783,9.222,10.581,10.581,0,0,1,.145,1.131Zm42.485-2.291V.348h3.886a19.13,19.13,0,0,1-.145-2.987V-18.56a17.592,17.592,0,0,1,.087-2.407c-1.015.058-1.015.058-2.523.058H392.3a19.493,19.493,0,0,1-3.741-.2v3.77a28.379,28.379,0,0,1,3.712-.145h12.7V-4.843h-13.2a18.644,18.644,0,0,1-3.625-.2v3.741a32.417,32.417,0,0,1,3.567-.116Zm30.189-22.127a15.251,15.251,0,0,1-3.509,1.363A50.061,50.061,0,0,1,419.213-20.5c-.435,0-.9,0-1.8-.058a12.171,12.171,0,0,1,1.073,3.132,64.893,64.893,0,0,0,8.033-.667c0,2.03,0,3.161-.058,4.379h-7.424a17.977,17.977,0,0,1-3.538-.2v3.48a26.5,26.5,0,0,1,3.48-.145h7.163a16.684,16.684,0,0,1-.319,1.943,9.255,9.255,0,0,1-3.335,4.93A13.373,13.373,0,0,1,418-1.276,9.4,9.4,0,0,1,420.518,1.8a18.083,18.083,0,0,0,2.7-1.45,15,15,0,0,0,4.727-4.611,15.2,15.2,0,0,0,1.943-6.322h6.409a26.5,26.5,0,0,1,3.48.145v-3.48a17.977,17.977,0,0,1-3.538.2h-6.148c.058-.986.058-.986.087-4.9a35.868,35.868,0,0,0,4.843-1.189c2.088-.7,2.088-.7,2.436-.783Zm12.818,4.321a22.3,22.3,0,0,1,3.335-.145h10.237a22.3,22.3,0,0,1,3.335.145v-3.567a16.5,16.5,0,0,1-3.393.2H451.345a16.5,16.5,0,0,1-3.393-.2Zm18.386,3.364a12.685,12.685,0,0,1-3.277.261h-13.8a20.584,20.584,0,0,1-3.77-.2v3.538a29.5,29.5,0,0,1,3.712-.145h14.123a15.089,15.089,0,0,1-4.669,6.786A18.833,18.833,0,0,1,450.591-1.8a10.1,10.1,0,0,1,2.262,3.364,25.806,25.806,0,0,0,7.6-3.944,20.506,20.506,0,0,0,6.728-9.8,13.073,13.073,0,0,1,.812-1.827ZM487.305-5.829a10.36,10.36,0,0,1-.058-1.218c0-.406,0-.406.058-2.088l.406-9.86c.058-1.247.174-2.755.261-3.538h-4.756c.116.812.2,2.262.261,3.538l.406,9.86c.087,1.74.087,1.74.087,2.059,0,.348-.029.638-.058,1.247Zm.406,6.351V-3.451h-4.205V.522Z" transform="translate(365 657.25)" fill="#fff"/>
    <g id="グループ_6992" data-name="グループ 6992" transform="translate(279.861 596)">
      <g id="グループ_6991" data-name="グループ 6991" clip-path="url(#clip-path)">
        <path id="パス_9688" data-name="パス 9688" d="M49.012,0H19.768A19.769,19.769,0,0,0,0,19.769V50.182A19.769,19.769,0,0,0,19.768,69.951H49.012A19.768,19.768,0,0,0,68.78,50.182V19.769A19.768,19.768,0,0,0,49.012,0M7.018,19.769a12.764,12.764,0,0,1,12.75-12.75H49.012a12.764,12.764,0,0,1,12.75,12.75V50.182a12.764,12.764,0,0,1-12.75,12.75H19.768a12.764,12.764,0,0,1-12.75-12.75Z" transform="translate(0.001)" fill="#fff"/>
        <path id="パス_9689" data-name="パス 9689" d="M77.947,98.1A18.014,18.014,0,1,0,59.933,80.087,18.034,18.034,0,0,0,77.947,98.1m0-30.414a12.4,12.4,0,1,1-12.4,12.4,12.413,12.413,0,0,1,12.4-12.4" transform="translate(-43.557 -45.112)" fill="#fff"/>
        <path id="パス_9690" data-name="パス 9690" d="M182.979,45.378a4.036,4.036,0,1,1-4.036,4.036,4.036,4.036,0,0,1,4.036-4.036" transform="translate(-130.048 -32.979)" fill="#fff"/>
      </g>
    </g>
    <path id="パス_11657" data-name="パス 11657" d="M7.847-5.814A12.161,12.161,0,0,1,11.5-6.441c2.033,0,3.363,1.064,3.363,2.7a1.952,1.952,0,0,1-1.919,2.109,1.314,1.314,0,0,1-1.2-.646,3.661,3.661,0,0,1-.266-1.672,6.588,6.588,0,0,1,.038-.836A8.015,8.015,0,0,1,9.4-3.952,6.348,6.348,0,0,0,9.728-1.52,3.067,3.067,0,0,0,12.844.589a4.221,4.221,0,0,0,4.313-4.332c0-2.7-2.261-4.636-5.434-4.636a13.175,13.175,0,0,0-3.876.532v-2.47c.722-.076,1.1-.133,1.729-.247,1.311-.228,1.672-.285,2.014-.342l-.076-2.128a21.19,21.19,0,0,1-3.667.722v-1.216A11.665,11.665,0,0,1,7.961-15.6H5.586A13.018,13.018,0,0,1,5.7-13.414v1.254c-.209,0-.3,0-.76.019-.266.019-.475.019-.665.019a11.653,11.653,0,0,1-2.3-.171l.019,2.128a3.562,3.562,0,0,1,.4-.019c.057,0,.228,0,.475.019.228,0,.76.019,1.045.019.475,0,.741,0,1.026-.019.627-.038.627-.038.779-.038l.019,2.926A10.165,10.165,0,0,0,2.964-5.662,4.055,4.055,0,0,0,1.33-2.85,2.791,2.791,0,0,0,2.375-.7,5.918,5.918,0,0,0,5.966.646a1.669,1.669,0,0,0,1.748-1.1,5.657,5.657,0,0,0,.152-1.615ZM5.719-2.356c0,.627-.095.8-.418.8a2.284,2.284,0,0,1-1.216-.418c-.437-.266-.627-.551-.627-.874,0-.684.836-1.52,2.261-2.28Zm12.274-8.018a16.115,16.115,0,0,0-3.762-3.895l-1.786,1.2a16.225,16.225,0,0,1,3.8,4.1Zm9.614,6.631-1.368.988A11.5,11.5,0,0,1,28.69.285l.988-.874a6.816,6.816,0,0,1,.456,1.881c.874.038,1.577.057,1.957.057,2.014,0,2.565-.38,2.565-1.767V-3.743h.551a11.688,11.688,0,0,1,1.805.1V-5.6a12.357,12.357,0,0,1-1.862.095h-.494v-.95h.418a15.788,15.788,0,0,1,1.805.076V-8.246a11.343,11.343,0,0,1-1.843.095H26.543a13.248,13.248,0,0,1-1.805-.076v1.843a15.428,15.428,0,0,1,1.786-.076h6.118v.95H26.315a11.688,11.688,0,0,1-1.8-.095v1.938A15.639,15.639,0,0,1,26.3-3.743Zm5.035,0v2.717c0,.38-.133.456-.7.456a18.7,18.7,0,0,1-2.071-.19l.475-.418a17.371,17.371,0,0,0-2.3-2.565ZM23.579-16.15a9.588,9.588,0,0,1-3.971,3.781,5.6,5.6,0,0,1,1.1,1.729,14.128,14.128,0,0,0,2.926-2.337,17.348,17.348,0,0,0,1.615-1.957ZM34.067-8.987c.646,0,1.311.019,1.748.057a16.46,16.46,0,0,1-.076-1.862v-2.736a17.342,17.342,0,0,1,.076-1.862,16.054,16.054,0,0,1-1.938.076H28.006a16.51,16.51,0,0,1-1.919-.076c.038.57.057.95.057,1.748v2.85c0,.855-.019,1.292-.057,1.862.361-.038,1.026-.057,1.767-.057ZM28.1-13.718h5.624v.836H28.1Zm0,2.318h5.624v.893H28.1ZM21.755-.494a13.794,13.794,0,0,1-.114,2.033h2.223a15.814,15.814,0,0,1-.1-2.147V-8.417A14.691,14.691,0,0,0,25-10.165c.152-.247.209-.323.38-.57l-1.71-1.2a8.684,8.684,0,0,1-.855,1.558,12.588,12.588,0,0,1-3.4,3.4,8.771,8.771,0,0,1,.893,2.014,8.825,8.825,0,0,0,1.482-1.425c-.038.8-.038,1.273-.038,2.033Zm22.04-15.257a19.41,19.41,0,0,1-.57,3.306c-.418.019-.741.019-.969.019a13.192,13.192,0,0,1-2.565-.171v2.166l1.007.019c.4.019.513.019.76.019.228,0,.342,0,1.2-.019a29.23,29.23,0,0,1-1.786,4.484,17.3,17.3,0,0,1-1.843,3.04l2.185,1.216c.114-.228.114-.228.361-.684.722-1.33.893-1.672,1.33-2.6a36.47,36.47,0,0,0,2.09-5.51c1.178-.1,2.337-.228,3.021-.342a3.7,3.7,0,0,1,.608-.1l-.057-2.185a16.3,16.3,0,0,1-3.04.532c.209-.836.3-1.216.4-1.672a9.511,9.511,0,0,1,.3-1.273Zm12.16,4.94A29.993,29.993,0,0,0,50.6-13.357l-1.14,1.843a23.254,23.254,0,0,1,5.472,2.66Zm-.076,8.569a3.4,3.4,0,0,1-.285-.266,7.006,7.006,0,0,0-.665-.513,11.871,11.871,0,0,0-3-1.748,20.173,20.173,0,0,1-.171-2.6,6.333,6.333,0,0,1,.228-1.919L49.78-9.4a10.078,10.078,0,0,0-.152,1.919c0,.57.038,1.311.1,2.185a9.437,9.437,0,0,0-1.767-.171c-2.413,0-4.1,1.349-4.1,3.268,0,1.938,1.634,3.192,4.142,3.192A4.387,4.387,0,0,0,51.148-.076a3.036,3.036,0,0,0,.817-2.014c0-.076-.019-.209-.038-.38A11.491,11.491,0,0,1,54.834-.114ZM49.8-3.287s.038.456.038.646c0,1.064-.627,1.6-1.919,1.6-1.178,0-1.862-.456-1.862-1.235,0-.8.8-1.311,2.033-1.311A4.789,4.789,0,0,1,49.8-3.287Zm12.179-8.55a14.385,14.385,0,0,1,.665,2.109l.589-.266v1.672a10.175,10.175,0,0,1,1.919-.114h8.094a13.3,13.3,0,0,1,1.881.114v-1.862a12.028,12.028,0,0,1-1.881.095H69.92v-.76h2.641a11.83,11.83,0,0,1,1.615.076v-1.691a10.873,10.873,0,0,1-1.577.076H69.92v-.7h2.945A13.173,13.173,0,0,1,74.8-13V-14.82a10.254,10.254,0,0,1-1.976.114H69.92A5.267,5.267,0,0,1,70.034-16H67.849a5.267,5.267,0,0,1,.114,1.292H65.607a10.373,10.373,0,0,1-1.976-.114V-13a11.3,11.3,0,0,1,1.881-.1h2.451v.7H65.816a12.19,12.19,0,0,1-1.615-.076v1.691a12.618,12.618,0,0,1,1.6-.076h2.166v.76H65.151c-.741,0-1.121-.019-1.6-.057l.513-.228a12.6,12.6,0,0,0-.969-2.47l-1.121.437v-1.577a12.777,12.777,0,0,1,.114-2.033H59.869A13.03,13.03,0,0,1,60-13.984V-.836a17.684,17.684,0,0,1-.133,2.413h2.223a20.531,20.531,0,0,1-.114-2.356ZM66.1-1.425h5.814v.646c0,.38-.114.456-.722.456a13.4,13.4,0,0,1-1.862-.171,7.333,7.333,0,0,1,.437,1.824c.931.057,1.292.076,1.71.076,1.919,0,2.432-.38,2.432-1.824V-5.776a16.419,16.419,0,0,1,.076-1.957,12.345,12.345,0,0,1-1.71.076H65.588c-.665,0-1.064-.019-1.52-.057.038.532.057.893.057,1.615V-.627a15.785,15.785,0,0,1-.1,2.166h2.185A16.3,16.3,0,0,1,66.1-.627Zm0-1.558v-.779h5.814v.779Zm0-2.318V-6.08h5.814V-5.3ZM58.995-6.669a23.371,23.371,0,0,0,.608-5.3l-1.5-.342A16.608,16.608,0,0,1,57.475-7.3ZM92.986-9.386a13.248,13.248,0,0,1-1.805.076H87.609v-4.161h4.142c-.076,1.406-.171,1.6-.76,1.6a13.747,13.747,0,0,1-1.957-.228,6.869,6.869,0,0,1,.418,1.786,16.8,16.8,0,0,0,1.71.095c2.09,0,2.356-.4,2.584-3.895.019-.456.038-.684.1-1.235a11.617,11.617,0,0,1-1.767.1H87.4a12.666,12.666,0,0,1-1.786-.1,19.149,19.149,0,0,1,.1,1.938V-.7a13.657,13.657,0,0,1-.133,2.261h2.166a16.349,16.349,0,0,1-.133-1.786,12.283,12.283,0,0,1,1.064,1.653,12.918,12.918,0,0,0,2.261-2.451,16.041,16.041,0,0,0,2.584,2.47A11.548,11.548,0,0,1,94.62-.57,9.1,9.1,0,0,1,92-2.774a21.341,21.341,0,0,0,1.615-4.712,4.033,4.033,0,0,1,.228-.836ZM87.609-7.505h.3A14.892,14.892,0,0,0,89.718-2.7a9.646,9.646,0,0,1-2.109,2.2Zm4.1,0a13.3,13.3,0,0,1-.931,3.021,10.78,10.78,0,0,1-1.14-3.021Zm-9.576-3.42v-1.463h1.121a12.682,12.682,0,0,1,1.577.076v-1.976a11.387,11.387,0,0,1-1.577.076H82.137v-.342A10.507,10.507,0,0,1,82.213-16H80.161a7.121,7.121,0,0,1,.114,1.444v.342H78.983a11.387,11.387,0,0,1-1.577-.076v1.976a12.682,12.682,0,0,1,1.577-.076h1.292v1.463h-1.71a9.9,9.9,0,0,1-1.653-.095v2.014a9.193,9.193,0,0,1,1.368-.076,11.977,11.977,0,0,1,.494,2.109h-.209a8.977,8.977,0,0,1-1.653-.1v2.014a13.812,13.812,0,0,1,1.653-.076h1.691v1.52H78.888a11.924,11.924,0,0,1-1.577-.076v2a12.488,12.488,0,0,1,1.577-.076h1.368V-.38a15.2,15.2,0,0,1-.114,1.938h2.09c-.057-.608-.1-1.311-.1-1.938V-1.767h1.292a12.3,12.3,0,0,1,1.577.076v-2a11.924,11.924,0,0,1-1.577.076H82.137V-5.13h1.482a13.412,13.412,0,0,1,1.653.076V-7.068a7.579,7.579,0,0,1-1.463.1h-.228a12.347,12.347,0,0,0,.627-2.109,8.464,8.464,0,0,1,1.064.076V-11.02a9.767,9.767,0,0,1-1.653.095ZM80.56-6.973a13.783,13.783,0,0,0-.475-2.109h2.28a12.114,12.114,0,0,1-.57,2.109Zm21.052-4.408c-.171-.627-.247-.874-.4-1.349a12.554,12.554,0,0,1-.665-2.242l-2.356.665a20.776,20.776,0,0,1,1.292,3.534c-.912.285-1.064.323-1.843.589a10.834,10.834,0,0,1-1.729.494l.741,2.223A21.984,21.984,0,0,1,99.1-8.436a8.89,8.89,0,0,0,.95-.342A71.507,71.507,0,0,1,102.372,1.33L104.88.76a5.077,5.077,0,0,1-.285-.912c-1.14-4.75-1.235-5.111-2.413-9.234,3.211-.95,4.351-1.178,5.7-1.178,1.6,0,2.527.7,2.527,1.9a1.964,1.964,0,0,1-.779,1.615,3.81,3.81,0,0,1-2.147.627,7.18,7.18,0,0,1-3.04-.741,8.375,8.375,0,0,1,.342,2.337,9.291,9.291,0,0,0,2.945.532,5.341,5.341,0,0,0,3.515-1.121,4.311,4.311,0,0,0,1.539-3.306c0-2.337-1.767-3.876-4.446-3.876-.38,0-.646.019-1.1.057a21.184,21.184,0,0,1,.1-3.04h-2.394a11.153,11.153,0,0,1,.114,2.28c.019.665.019.665.019,1.045-.76.152-1.083.228-1.615.361Zm18.183,9.8A12.727,12.727,0,0,1,114.589.076,4.69,4.69,0,0,1,115.748,1.8a15.052,15.052,0,0,0,3.458-.988,10.061,10.061,0,0,0,2.6-1.463l-1.178-.931h5.32l-1.14.931A13.549,13.549,0,0,0,127.623.8a15.123,15.123,0,0,0,3.724.95,6.917,6.917,0,0,1,1.026-1.843,14.43,14.43,0,0,1-5.434-1.482h1.406c.817,0,1.387.019,2.014.076a18.925,18.925,0,0,1-.076-2.166V-8.094a21.668,21.668,0,0,1,.076-2.166c-.532.038-.988.057-2.09.057h-9.633c-1.007,0-1.406-.019-2-.057a20.53,20.53,0,0,1,.1,2.147v4.37a20.477,20.477,0,0,1-.1,2.242c.665-.057,1.235-.076,2.052-.076Zm-1.007-7.03h9.443v.836h-9.443Zm0,2.28h9.443v.8h-9.443Zm0,2.242h9.443v.912h-9.443Zm12.654-9.785a12.427,12.427,0,0,1,.076-1.6,19.622,19.622,0,0,1-2.147.076h-11.8a19.846,19.846,0,0,1-2.147-.076,9.862,9.862,0,0,1,.095,1.6v1.482a8.729,8.729,0,0,1-.095,1.539c.418-.038,1.026-.057,1.976-.057h12.122c1.045,0,1.539.019,2,.057a10.952,10.952,0,0,1-.076-1.539Zm-11.324,1.33h-2.641v-1.216h2.641Zm4.541,0h-2.622v-1.216h2.622Zm1.919,0v-1.216h2.831v1.216ZM141.892-.722a8.1,8.1,0,0,1,1.159,2.109,14.885,14.885,0,0,0,3.819-3.61,14,14,0,0,0,3.762,3.591,10.683,10.683,0,0,1,1.14-2.128A11.387,11.387,0,0,1,148.1-4.1a22.372,22.372,0,0,0,2.717-9.025c.057-.57.095-.95.133-1.2a13.66,13.66,0,0,1-1.539.1h-4.978c-.475,0-.874-.019-1.216-.038v-1.178a11.369,11.369,0,0,1-1.729.1H135.7a15.437,15.437,0,0,1-1.71-.1v2.052c.418-.038.627-.057,1.273-.076V-3.1a9.038,9.038,0,0,1-1.463.19l.532,2.166a10.638,10.638,0,0,1,1.52-.4c.855-.171,2.147-.513,4.047-1.083V-.456a16.668,16.668,0,0,1-.114,2.052h2.223a13.05,13.05,0,0,1-.114-2.052Zm0-12.749a6.575,6.575,0,0,1,.722.019v1.216c.3-.038.437-.057.8-.076a23.937,23.937,0,0,0,.874,4.807,17.881,17.881,0,0,0,1.406,3.4,11.684,11.684,0,0,1-3.8,3.344Zm6.821,1.14A19.416,19.416,0,0,1,146.927-6.1a17.9,17.9,0,0,1-1.577-6.232Zm-11.457-1.14H139.9v2.09h-2.641Zm0,3.781H139.9v2.033h-2.641Zm0,3.762H139.9v1.843a26.461,26.461,0,0,1-2.641.608Zm23.1-3.363c0,.513,0,.513-.019,1.045H157a12,12,0,0,1-1.71-.076v1.8A12.522,12.522,0,0,1,157-6.593h3.211c-.057.456-.1.665-.171,1.026h-4.978a12.278,12.278,0,0,1-1.919-.095v2a17.487,17.487,0,0,1,2.033-.114h4.2a5.606,5.606,0,0,1-2.413,2.223A11.573,11.573,0,0,1,152.836-.4a6.261,6.261,0,0,1,1.007,1.976,12.328,12.328,0,0,0,4.636-1.71,7.469,7.469,0,0,0,2.774-2.983,10.051,10.051,0,0,0,4.5,3.61,18.608,18.608,0,0,0,3.553,1.1A7.6,7.6,0,0,1,170.3-.456c-1.045-.19-1.634-.3-2.109-.437a12.044,12.044,0,0,1-3.344-1.292,6.468,6.468,0,0,1-1.767-1.6h4.845a16.666,16.666,0,0,1,2.052.114v-2a12.99,12.99,0,0,1-1.957.095h-5.928c.076-.4.1-.551.152-1.026h3.667a12.381,12.381,0,0,1,1.691.076v-1.8a11.685,11.685,0,0,1-1.691.076h-3.553c.019-.437.019-.437.038-1.045h3.819a10.82,10.82,0,0,1,1.8.095V-10.2h1.748a10.455,10.455,0,0,1-.076-1.406v-1.444a10.911,10.911,0,0,1,.076-1.387c-.646.057-1.14.076-2.109.076H162.45V-14.8a5.769,5.769,0,0,1,.1-1.2h-2.337a5.956,5.956,0,0,1,.114,1.2v.437h-4.94a20.713,20.713,0,0,1-2.09-.076,11.729,11.729,0,0,1,.076,1.425v1.406a7.413,7.413,0,0,1-.1,1.406h1.748V-9.2a10.425,10.425,0,0,1,1.786-.095Zm-3.553-1.672a13.28,13.28,0,0,1-1.463-.057v-1.558h12.369v1.558c-.475.038-.779.057-1.5.057h-3.781a6.237,6.237,0,0,1,.076-1.216h-2.2a9.077,9.077,0,0,1,.076,1.216ZM171.912-6a9.649,9.649,0,0,1,1.273-.133c.133,0,.133,0,1.349-.1V-.57A16.1,16.1,0,0,1,174.42,1.6h2.052a16.1,16.1,0,0,1-.114-2.166V-6.384c.437-.057.589-.076,1.007-.133.076.3.114.494.209.95L179-6.1a20.237,20.237,0,0,0-1.425-3.819L176.32-9.4a10.383,10.383,0,0,1,.532,1.216c-.76.1-.969.114-1.71.152.684-.893,1.976-2.831,2.584-3.876a11.981,11.981,0,0,1,.779-1.235l-1.729-.874a18.928,18.928,0,0,1-1.672,3.154,10.692,10.692,0,0,0-.684-.874,20.3,20.3,0,0,0,1.634-2.964c.19-.361.247-.475.38-.7l-1.767-.76a12.286,12.286,0,0,1-1.368,3.135q-.342-.371-.627-.684l-.95,1.615a19.176,19.176,0,0,1,2.356,2.85c-.418.627-.418.627-.912,1.292-.418.019-.437.019-.57.019a5.3,5.3,0,0,1-.893-.076Zm10.773-7.3v.646h-1.919a12.374,12.374,0,0,1-1.615-.076v1.539c.494-.038.836-.057,1.634-.057h1.9v.7h-2.622a11.512,11.512,0,0,1-1.824-.1v1.729a14.674,14.674,0,0,1,1.843-.076h7.467a12.224,12.224,0,0,1,1.767.095V-10.64a11.6,11.6,0,0,1-1.767.1h-2.926v-.7h2.128c.779,0,1.1.019,1.577.057V-12.73a12.056,12.056,0,0,1-1.6.076h-2.109V-13.3h2.546a12.311,12.311,0,0,1,1.729.076v-1.691a12.146,12.146,0,0,1-1.8.1h-2.47A4.814,4.814,0,0,1,184.737-16H182.59a6.538,6.538,0,0,1,.1,1.178h-2.2a11.872,11.872,0,0,1-1.786-.1v1.691a11.856,11.856,0,0,1,1.691-.076ZM181.6-1.368a9.812,9.812,0,0,1-4.294,1.6,4.843,4.843,0,0,1,.988,1.52,10.3,10.3,0,0,0,4.712-2.166l-1.216-.95h3.5L184.205-.361a12.249,12.249,0,0,0,4.427,2.109A8.039,8.039,0,0,1,189.658.095a9.021,9.021,0,0,1-4.009-1.463h1.083c.589,0,.931.019,1.577.057a17.722,17.722,0,0,1-.076-1.881V-6.574a15.852,15.852,0,0,1,.076-1.786,12.17,12.17,0,0,1-1.634.057H180.8c-.8,0-1.1,0-1.577-.038.038.456.057.817.057,1.6V-3.1c0,.684-.019,1.33-.057,1.786a16.025,16.025,0,0,1,1.615-.057Zm-.456-5.624h5.206v.627h-5.206Zm0,1.8h5.206v.627h-5.206Zm0,1.786h5.206v.684h-5.206Zm-8.74-1.957a18.1,18.1,0,0,1-.779,5.187L173.28.7a28.655,28.655,0,0,0,.741-5.7ZM176.738-5a24.623,24.623,0,0,1,.532,4.2l1.482-.285a29.44,29.44,0,0,0-.627-4.2Zm15.352-6.5a2.1,2.1,0,0,1,.3-.019c.171,0,.171,0,.532.019.418,0,2.09.038,2.394.038,0,0,.247-.019.323-.019a.93.93,0,0,0-.152.247,25.166,25.166,0,0,1-2.28,3.249,11.64,11.64,0,0,1-1.71,1.691l1.729,1.71a8.543,8.543,0,0,1,1.653-1.729,6.423,6.423,0,0,1,3.9-1.957,1.043,1.043,0,0,1,1.159,1.026,9.294,9.294,0,0,0-4.085,2.679,3.028,3.028,0,0,0-.836,2.109A2.755,2.755,0,0,0,196.4,0a8.16,8.16,0,0,0,4.237.8A34.461,34.461,0,0,0,205.5.456a5.6,5.6,0,0,1,.874-.076l-.19-2.451a16.508,16.508,0,0,1-5.586.8c-2.3,0-3.211-.4-3.211-1.387a2,2,0,0,1,.988-1.558,11.548,11.548,0,0,1,1.824-.988v.456a15.041,15.041,0,0,1-.114,2.2l2.2-.057a7.8,7.8,0,0,1-.057-1.007c0-.133,0-.3.019-.627V-5c0-.266,0-.266-.019-.76v-.209q2.451-.855,2.85-.969a16.771,16.771,0,0,1,2.109-.513L206.3-9.633a5.936,5.936,0,0,1-1.406.57q-.712.228-2.907,1.026a2.5,2.5,0,0,0-2.717-2.014,4.593,4.593,0,0,0-2.679.855c-.247.19-.247.19-.38.285l-.019-.038a9.832,9.832,0,0,0,1.748-2.527c1.919-.057,4.332-.209,5.719-.38.969-.114.969-.114,1.5-.152l-.133-2.166a25.668,25.668,0,0,1-4.978.646c-1.045.057-1.045.057-1.2.076.038-.076.076-.133.171-.342a14.518,14.518,0,0,1,.76-1.71L197.3-15.77a7.525,7.525,0,0,1-.76,2.356,22.96,22.96,0,0,1-4.408-.247ZM216.657-1.349c0,1.216.456,1.406,3.23,1.406.665,0,1.083-.019,1.615-.057a8.06,8.06,0,0,1,.247,1.368c.779.057,1.349.076,1.938.076,1.558,0,2.109-.285,2.47-1.292a20.883,20.883,0,0,0,.627-5.339c.1-1.976.114-2.28.152-2.546a12.19,12.19,0,0,1-1.615.076h-5.662c.228-.38.3-.513.513-.931H224.1c.8,0,1.368.019,1.9.057a16.088,16.088,0,0,1-.076-1.729v-3.287a17.309,17.309,0,0,1,.076-1.767,11.839,11.839,0,0,1-1.805.1h-5.871a13.026,13.026,0,0,1-1.843-.1c.038.551.057,1.007.057,1.691V-10.3c0,.7-.019,1.2-.057,1.748.456-.019.836-.038,1.6-.038a8.613,8.613,0,0,1-3.781,3.61v-.988c.608-.228.8-.3,1.463-.589V-8.417c-.722.285-.969.38-1.463.57v-2.66h.646a7.967,7.967,0,0,1,.95.057v-1.957a7.734,7.734,0,0,1-.95.057H214.3v-1.577a13.047,13.047,0,0,1,.1-1.919h-2.242a10.647,10.647,0,0,1,.114,1.938v1.558h-.779a7.6,7.6,0,0,1-1.368-.1v2.014a10.506,10.506,0,0,1,1.349-.076h.8V-7.2a13.517,13.517,0,0,1-2.337.551L210.2-4.6a7.464,7.464,0,0,1,.779-.266c.855-.266.95-.3,1.292-.418V-.969c0,.475-.114.589-.627.589a12.864,12.864,0,0,1-1.615-.114,6.065,6.065,0,0,1,.437,1.938c.589.038.874.057,1.311.057,2.033,0,2.527-.361,2.527-1.862v-4.5a7.807,7.807,0,0,1,1.007,1.615,11.847,11.847,0,0,0,1.349-.988v2.888Zm1.178-3.971c.247-.247.38-.38.608-.646h6.327a34.278,34.278,0,0,1-.285,4.294C224.314-.589,224.162-.4,223.44-.4c-.19,0-.266,0-.627-.019.475-.4.627-.855.779-2.3a6.576,6.576,0,0,1-1.729-.57,3.7,3.7,0,0,1-.171,1.254c-.133.342-.513.456-1.653.456-1.425,0-1.6-.057-1.6-.513v-.722a23.587,23.587,0,0,0,5.073-1.368l-.988-1.5a13.41,13.41,0,0,1-4.085,1.292,5.573,5.573,0,0,1,.057-.931Zm.627-8.189h5.529v.912h-5.529Zm0,2.47h5.529v.874h-5.529Zm19.7,10.754c-.285.19-.456.323-.893.589a6.126,6.126,0,0,1,1.539,1.406,18.008,18.008,0,0,0,3.04-2.869c.912,1.786,1.805,2.7,2.66,2.7.988,0,1.634-1.2,2.014-3.743a4.87,4.87,0,0,1-1.6-1.121c-.209,1.767-.361,2.546-.513,2.546a5.849,5.849,0,0,1-1.273-2.147,21.346,21.346,0,0,0,2.166-4.427c.076-.209.133-.361.152-.4.057-.19.114-.323.114-.342.133-.361.133-.361.209-.551l-1.9-.665a13.688,13.688,0,0,1-1.463,4.085,39.412,39.412,0,0,1-.475-5.358h2.2a11,11,0,0,1,1.957.114v-1.862a17.128,17.128,0,0,1-1.957.095h-2.223v-1.539c-.019-.361-.019-.665-.019-.665a6.408,6.408,0,0,1,.114-1.387h-2.185a14.036,14.036,0,0,1,.1,1.767c.019.475.019.7.057,1.824h-4.636v-.817h1.824a10.52,10.52,0,0,1,1.71.1v-1.748a10.1,10.1,0,0,1-1.71.095h-1.824a4.9,4.9,0,0,1,.114-1.33H233.32a5.3,5.3,0,0,1,.095,1.235v.095h-1.767a10.353,10.353,0,0,1-1.729-.095v1.748a10.777,10.777,0,0,1,1.729-.1h1.767v.817h-2.584a13.591,13.591,0,0,1-1.976-.095v1.862a13.639,13.639,0,0,1,1.976-.114h2.7v.817H231.04a10.52,10.52,0,0,1-1.71-.1v1.615a14.433,14.433,0,0,1,1.71-.076h2.489v.76h-1.938c-.836,0-1.33-.019-1.71-.057a10.02,10.02,0,0,1,.076,1.33v2.47a10.02,10.02,0,0,1-.076,1.33c.38-.038.969-.057,1.71-.057h1.938v.779h-2.907a10.126,10.126,0,0,1-1.691-.095V-.209a10.407,10.407,0,0,1,1.691-.1h2.907V.247a7.478,7.478,0,0,1-.1,1.368h1.976a9.637,9.637,0,0,1-.076-1.387V-.3H237.9Zm1.007-1.558a12.973,12.973,0,0,1-1.672.076h-2.166v-.779H237.4c.817,0,1.216.019,1.691.057a8.6,8.6,0,0,1-.057-1.33v-2.47a8.6,8.6,0,0,1,.057-1.33c-.361.038-.931.057-1.672.057h-2.09v-.76h2.47a13.162,13.162,0,0,1,1.672.076V-9.861a9.343,9.343,0,0,1-1.672.1h-2.47v-.817h4.712a27.8,27.8,0,0,0,1.007,7.429,14.553,14.553,0,0,1-1.881,2.033Zm-3.838-3.8v-.646h2.09v.646Zm-1.8,0h-1.9v-.646h1.9Zm1.8,1.843v-.7h2.09v.7Zm-1.8,0h-1.9v-.7h1.9Zm12.122-9.424a11.575,11.575,0,0,0-1.957-2.375l-1.349.855a10.12,10.12,0,0,1,1.881,2.451Zm5.225-1.957a9.451,9.451,0,0,1,.076,1.292c0,.266,0,.665-.019,1.235-.114,4.769-.152,6.669-.152,7.657,0,2.546.551,4.009,1.862,4.883a6.194,6.194,0,0,0,3.325.836,7.191,7.191,0,0,0,5.7-2.413c.931-1.045,1.5-2.28,2.261-4.845A8.205,8.205,0,0,1,261.63-8a12.738,12.738,0,0,1-.874,3.192,4.889,4.889,0,0,1-4.6,3.249,3.008,3.008,0,0,1-2.546-.988c-.38-.57-.494-1.254-.494-3.059,0-1.349.114-5.206.19-6.973a17.369,17.369,0,0,1,.228-2.565Zm15.808,4.446a27.58,27.58,0,0,1,3.154-.38c4.123-.3,4.864-.361,6.4-.589A8.374,8.374,0,0,0,273.6-9.8a6.7,6.7,0,0,0-1.8,4.484,5.084,5.084,0,0,0,2.717,4.579A11.431,11.431,0,0,0,278.958.513a4.036,4.036,0,0,1,.646.114l.342-2.584c-.19.019-.361.019-.38.019a11.53,11.53,0,0,1-2.831-.494,3.19,3.19,0,0,1-2.527-3.1c0-1.919,1.425-3.819,3.838-5.073a8.5,8.5,0,0,1,3.762-1.026,2.942,2.942,0,0,1,.4.019l-.133-2.432a10.727,10.727,0,0,1-2.185.19c-5.263.247-8.417.418-9.481.475-2.793.19-2.793.19-3.135.19-.1,0-.3,0-.722-.019Zm19.4-3.23a9.079,9.079,0,0,1,.076,1.216c.076,5.263.418,8.018,1.2,9.918.76,1.824,1.786,2.755,3.059,2.755,1.615,0,2.717-1.539,3.705-5.244a9.378,9.378,0,0,1-1.9-1.729,14.008,14.008,0,0,1-1.007,3.439c-.228.532-.494.817-.779.817-.608,0-1.216-1.216-1.539-3.192a35.554,35.554,0,0,1-.361-5.092,22.089,22.089,0,0,1,.152-2.888Zm9.6,1.805a16.584,16.584,0,0,1,2.7,4.674,19.26,19.26,0,0,1,1.216,5.491l2.356-.893a18.943,18.943,0,0,0-4.275-10.222ZM320.131-2.014c-.266-.152-.361-.228-.684-.437a17,17,0,0,0-5.206-2.679c-.019-.456-.019-.456-.076-2.3.741-.038,1.026-.057,1.292-.076,1.425-.133,2.28-.228,2.565-.266.437-.057.912-.114,1.235-.133l-.057-2.09a14.061,14.061,0,0,1-2.356.418c-1.748.19-1.748.19-2.7.247-.019-1.178-.019-1.406-.038-1.881,1.672-.1,2.413-.152,4.085-.38a11.885,11.885,0,0,1,1.5-.171l-.1-2.109a25.705,25.705,0,0,1-5.472.722,11.781,11.781,0,0,1,.133-2.318h-2.413a13.559,13.559,0,0,1,.1,2.394c-.475.019-1.121.038-1.425.038a24.984,24.984,0,0,1-5.111-.4l-.019,2.109h.3c.057,0,.209,0,.418.019,1.273.1,3.724.19,4.655.19.285,0,.589,0,1.2-.019.019,1.083.019,1.729.019,1.9-.532.019-1.178.038-1.558.038a24.5,24.5,0,0,1-4.427-.323l-.038,2.052c.285,0,.475,0,.722.019,1.577.114,2.28.133,3.439.133.4,0,.988-.019,1.9-.038.019.76.019.76.038,1.026v.418a3.665,3.665,0,0,1,.019.456,9.926,9.926,0,0,0-1.273-.076c-3.192,0-5.073,1.216-5.073,3.287,0,1.881,1.6,2.964,4.37,2.964a5.058,5.058,0,0,0,3.135-.817A2.964,2.964,0,0,0,314.3-2.66v-.209a8.453,8.453,0,0,1,1.026.475,12.82,12.82,0,0,1,3.515,2.6Zm-8.018-1.463v.456a2.408,2.408,0,0,1-.228,1.216,1.973,1.973,0,0,1-1.653.608c-1.349,0-2.166-.437-2.166-1.14,0-.817.931-1.311,2.47-1.311A6.668,6.668,0,0,1,312.113-3.477ZM334.3-10.108v-1.235c1.5-.038,1.843-.038,2.3-.038,1.577,0,2.489.038,3.192.1l-.019-2.185c-.7.076-2.185.114-5.491.133a14.941,14.941,0,0,1,.1-2.261l-2.394.019a10.308,10.308,0,0,1,.114,2.3c-.988.038-.988.038-1.615.057-1.558.038-1.748.038-2.983.076-2.451.1-2.755.1-3.23.1a8.274,8.274,0,0,1-.931-.038l.076,2.261c.513-.076.513-.076,3.382-.285.836-.057,2.622-.114,5.339-.19,0,.513,0,1.577.019,1.615a.782.782,0,0,0,.019.228,3.175,3.175,0,0,0-1.976-.57,3.5,3.5,0,0,0-3.781,3.458,2.969,2.969,0,0,0,1.311,2.565,3.5,3.5,0,0,0,2.2.684,3.13,3.13,0,0,0,2.793-1.349,4,4,0,0,1-2.2,2.774,8.967,8.967,0,0,1-3.23,1.1,6.235,6.235,0,0,1,1.349,2.147,13.283,13.283,0,0,0,3.439-1.558,6.1,6.1,0,0,0,2.831-5.13,5.782,5.782,0,0,0-.608-2.679c0-.228-.019-.38-.019-.456ZM332.12-6.973a1.731,1.731,0,0,1-1.862,1.71,1.5,1.5,0,0,1-1.615-1.5,1.664,1.664,0,0,1,1.767-1.52C331.455-8.284,332.12-7.771,332.12-6.973Z" transform="translate(441.5 615.75)" fill="#fff"/>
    <g id="グループ_7018" data-name="グループ 7018" transform="translate(418.998 597.86)">
      <rect id="長方形_5106" data-name="長方形 5106" width="1.054" height="24.454" transform="translate(0.002 0.655) rotate(-38.541)" fill="#fff"/>
      <rect id="長方形_5107" data-name="長方形 5107" width="1.054" height="14.17" transform="translate(9.901 4.939) rotate(-30.563)" fill="#fff"/>
    </g>
    <g id="グループ_7019" data-name="グループ 7019" transform="translate(790.988 597.858)">
      <rect id="長方形_5106-2" data-name="長方形 5106" width="1.054" height="24.454" transform="translate(2.776 19.784) rotate(-141.459)" fill="#fff"/>
      <rect id="長方形_5107-2" data-name="長方形 5107" width="1.054" height="14.171" transform="translate(0.908 17.142) rotate(-149.437)" fill="#fff"/>
    </g>
  </g>
</svg>
