<svg xmlns="http://www.w3.org/2000/svg" xmlns:xlink="http://www.w3.org/1999/xlink" width="230" height="120" viewBox="0 0 230 120">
  <defs>
    <clipPath id="clip-path">
      <rect id="長方形_5055" data-name="長方形 5055" width="80" height="38.85" fill="#fff"/>
    </clipPath>
  </defs>
  <g id="グループ_7246" data-name="グループ 7246" transform="translate(349 -760)">
    <g id="グループ_7245" data-name="グループ 7245">
      <path id="パス_11666" data-name="パス 11666" d="M10,0H220a10,10,0,0,1,10,10V110a10,10,0,0,1-10,10H10A10,10,0,0,1,0,110V10A10,10,0,0,1,10,0Z" transform="translate(-349 760)" fill="#5fc1aa"/>
      <path id="長方形_3940_-_アウトライン" data-name="長方形 3940 - アウトライン" d="M10,3a7.008,7.008,0,0,0-7,7V110a7.008,7.008,0,0,0,7,7H220a7.008,7.008,0,0,0,7-7V10a7.008,7.008,0,0,0-7-7H10m0-3H220a10,10,0,0,1,10,10V110a10,10,0,0,1-10,10H10A10,10,0,0,1,0,110V10A10,10,0,0,1,10,0Z" transform="translate(-349 760)" fill="#fff" opacity="0.3"/>
      <path id="パス_11662" data-name="パス 11662" d="M-73.856-5.376l-3.632.4c-.432.032-1.12.08-1.44.08h-.32l.176,1.808a12.334,12.334,0,0,1,1.744-.288l3.472-.384V-.784c0,1.552.56,1.808,3.936,1.808A14.666,14.666,0,0,0-66.672.832,1.793,1.793,0,0,0-65.248-.352a5.7,5.7,0,0,0,.368-2.064,5.164,5.164,0,0,1-1.76-.64c-.064,1.536-.144,1.936-.416,2.144a5.933,5.933,0,0,1-2.624.3,15.3,15.3,0,0,1-1.952-.1C-72-.8-72.08-.9-72.08-1.3V-3.952l5.616-.608c.432-.048,1.184-.1,1.472-.1a2.052,2.052,0,0,1,.288.016l-.176-1.824a11.455,11.455,0,0,1-1.728.3l-5.472.592v-1.68c1.072-.224,1.968-.464,3.824-1.024a11.336,11.336,0,0,1,1.232-.336l-1.488-1.44a11.815,11.815,0,0,1-3.44,1.168,42.938,42.938,0,0,1-6.544.912,7.678,7.678,0,0,1,.736,1.616c1.952-.256,1.952-.256,3.9-.576ZM-73.04-12h-4.1a17.442,17.442,0,0,1-1.76-.064,8.356,8.356,0,0,1,.064,1.184v1.2a7.1,7.1,0,0,1-.08,1.248h1.76v-1.936H-66.8v1.936h1.744a9.407,9.407,0,0,1-.064-1.232V-10.88a7.536,7.536,0,0,1,.064-1.184c-.544.048-.96.064-1.776.064h-4.416v-.512a4.451,4.451,0,0,1,.08-.928h-1.968a4.454,4.454,0,0,1,.1.928Zm12.224.576v1.312h-.336a13.864,13.864,0,0,1-1.632-.064c.048.56.064,1.1.064,1.92V-.848a20.036,20.036,0,0,1-.1,2.176h1.6v-.9h3.792V1.04h1.536c-.048-.48-.064-1.008-.064-1.776v-7.68c0-.672.016-1.264.048-1.76a14.176,14.176,0,0,1-1.648.064h-.224v-1.312h.5c.576,0,1.2.032,1.632.064v-1.7a14.764,14.764,0,0,1-1.792.1h-3.92a14.211,14.211,0,0,1-1.76-.1v1.712a17.067,17.067,0,0,1,1.744-.08Zm1.3,0h.448v1.312h-.448Zm-1.7,6.384a3.969,3.969,0,0,1,.672,1.184,5.32,5.32,0,0,0,.7-1.712,14.7,14.7,0,0,0,.32-3.008v-.192h.448v3.12c0,.624.16.72,1.2.72h.448V-3.68h-3.792Zm0-3.728h.624a7.483,7.483,0,0,1-.624,3.552Zm3.2,0h.592v2.512c-.576-.016-.592-.032-.592-.288Zm-3.2,6.464h3.792v1.248h-3.792Zm11.968-9.1a15.383,15.383,0,0,1,.064-1.616,15.462,15.462,0,0,1-1.648.064h-2.64a14.04,14.04,0,0,1-1.792-.1v1.792a13.224,13.224,0,0,1,1.776-.08h2.528l.016,3.36H-53.52a15.057,15.057,0,0,1-1.6-.064,13.861,13.861,0,0,1,.064,1.568V-.624c0,1.456.368,1.664,2.864,1.664,1.856,0,2.624-.176,3.04-.688.32-.416.464-1.2.56-3.12a5.587,5.587,0,0,1-1.68-.656,9.98,9.98,0,0,1-.176,2.352c-.144.4-.464.5-1.648.5A3.239,3.239,0,0,1-53.232-.7c-.1-.064-.128-.144-.128-.432V-6.368h2.576a15.057,15.057,0,0,1,1.6.064,14.6,14.6,0,0,1-.064-1.568Zm6.128,10.08A10.717,10.717,0,0,1-47.5.064a3.95,3.95,0,0,1,.976,1.456A12.675,12.675,0,0,0-43.616.688,8.472,8.472,0,0,0-41.424-.544l-.992-.784h4.48l-.96.784A11.41,11.41,0,0,0-36.528.672a12.735,12.735,0,0,0,3.136.8A5.824,5.824,0,0,1-32.528-.08,12.151,12.151,0,0,1-37.1-1.328h1.184c.688,0,1.168.016,1.7.064a15.934,15.934,0,0,1-.064-1.824V-6.816a18.244,18.244,0,0,1,.064-1.824c-.448.032-.832.048-1.76.048H-44.1c-.848,0-1.184-.016-1.68-.048a17.288,17.288,0,0,1,.08,1.808v3.68a17.243,17.243,0,0,1-.08,1.888c.56-.048,1.04-.064,1.728-.064Zm-.848-5.92h7.952v.7h-7.952Zm0,1.92h7.952v.672h-7.952Zm0,1.888h7.952v.768h-7.952Zm10.656-8.24a10.466,10.466,0,0,1,.064-1.344,16.523,16.523,0,0,1-1.808.064h-9.936a16.712,16.712,0,0,1-1.808-.064,8.3,8.3,0,0,1,.08,1.344v1.248a7.351,7.351,0,0,1-.08,1.3c.352-.032.864-.048,1.664-.048h10.208c.88,0,1.3.016,1.68.048a9.224,9.224,0,0,1-.064-1.3Zm-9.536,1.12h-2.224v-1.024h2.224Zm3.824,0h-2.208v-1.024h2.208Zm1.616,0v-1.024h2.384v1.024Zm12.9,9.952a6.818,6.818,0,0,1,.976,1.776,12.535,12.535,0,0,0,3.216-3.04,11.79,11.79,0,0,0,3.168,3.024,9,9,0,0,1,.96-1.792A9.589,9.589,0,0,1-19.28-3.456a18.839,18.839,0,0,0,2.288-7.6c.048-.48.08-.8.112-1.008a11.5,11.5,0,0,1-1.3.08h-4.192c-.4,0-.736-.016-1.024-.032v-.992a9.574,9.574,0,0,1-1.456.08h-4.88a13,13,0,0,1-1.44-.08v1.728c.352-.032.528-.048,1.072-.064v8.736a7.611,7.611,0,0,1-1.232.16l.448,1.824A8.958,8.958,0,0,1-29.6-.96c.72-.144,1.808-.432,3.408-.912V-.384a14.034,14.034,0,0,1-.1,1.728h1.872a10.99,10.99,0,0,1-.1-1.728Zm0-10.736a5.537,5.537,0,0,1,.608.016V-10.3c.256-.032.368-.048.672-.064A20.158,20.158,0,0,0-22.5-6.32a15.057,15.057,0,0,0,1.184,2.864,9.839,9.839,0,0,1-3.2,2.816Zm5.744.96a16.35,16.35,0,0,1-1.5,5.248A15.077,15.077,0,0,1-21.6-10.384Zm-9.648-.96h2.224v1.76h-2.224Zm0,3.184h2.224v1.712h-2.224Zm0,3.168h2.224V-3.44a22.283,22.283,0,0,1-2.224.512Zm21.664-5.264a3.5,3.5,0,0,1,1.616.48A3.964,3.964,0,0,1-3.168-6.224a4.48,4.48,0,0,1-2.224,4,8.5,8.5,0,0,1-3.184.88A5.1,5.1,0,0,1-7.6.528,10.46,10.46,0,0,0-5.088-.144,6.164,6.164,0,0,0-1.2-6.112c0-3.6-2.5-5.936-6.336-5.936a7.182,7.182,0,0,0-5.5,2.24A6.873,6.873,0,0,0-14.8-5.152c0,2.576,1.312,4.432,3.136,4.432,1.312,0,2.336-.944,3.248-3.008A23.147,23.147,0,0,0-6.752-10.256ZM-8.7-10.24a21.087,21.087,0,0,1-1.328,5.408c-.576,1.376-1.12,2.048-1.648,2.048-.7,0-1.264-1.04-1.264-2.352a5.357,5.357,0,0,1,2.176-4.32A4.073,4.073,0,0,1-8.7-10.24ZM6.96-11.1H2.848a14.243,14.243,0,0,1-2-.112V-9.28a17.4,17.4,0,0,1,2-.1H5.472c-.08,3.264-.624,5.12-2,6.768A10.344,10.344,0,0,1,.608-.24,4.461,4.461,0,0,1,1.9,1.28,10.482,10.482,0,0,0,7.04-5.968h4.416A23.422,23.422,0,0,1,11.1-1.952c-.208,1.1-.368,1.28-1.072,1.28a15.208,15.208,0,0,1-2.4-.208A5.192,5.192,0,0,1,8.1.976c1.232.1,1.6.112,2.16.112,1.6,0,2.128-.4,2.5-1.92A31.626,31.626,0,0,0,13.3-6.448c.032-.688.032-.88.064-1.12a.4.4,0,0,0,.016-.16,10.058,10.058,0,0,1-1.648.08H7.3c.048-.48.048-.528.128-1.728H13.28a14.241,14.241,0,0,1,1.952.1v-1.936a13.463,13.463,0,0,1-2.016.112h-4.4v-.976a7.171,7.171,0,0,1,.1-1.328H6.848A6.427,6.427,0,0,1,6.96-12.08ZM21.728-8.048a.282.282,0,0,1,.1-.016.735.735,0,0,1,.16.016,2.382,2.382,0,0,1,.272.016c.08,0,.256.016.48.016.752.064,1.392.08,1.984.08.416,0,.8-.016,1.44-.032.064,2.224.08,3.008.128,3.408a3.8,3.8,0,0,0-1.424-.224c-1.936,0-3.3,1.088-3.3,2.64,0,1.632,1.28,2.624,3.376,2.624,1.552,0,2.672-.56,3.04-1.5a2.8,2.8,0,0,0,.128-.9v-.224c.1.064.464.3,1.008.656a5.994,5.994,0,0,1,1.2,1.024L31.088-2.4a3.044,3.044,0,0,1-.448-.272,12.757,12.757,0,0,0-2.512-1.456c-.16-2.688-.16-2.72-.16-3.616V-8.1c.848-.1,1.68-.24,2.224-.352a2.765,2.765,0,0,1,.464-.08l-.064-1.808-.128.032c-.256.1-.256.1-.352.128a16.085,16.085,0,0,1-2.16.384v-.736a15.654,15.654,0,0,1,.112-2.352l-2,.048a4.476,4.476,0,0,1,.048.768c0,.656.016,1.456.016,2.4-.56.032-.912.032-1.472.032a11.531,11.531,0,0,1-2.9-.256Zm4.592,5.12V-2.5a1.343,1.343,0,0,1-.208.864,1.573,1.573,0,0,1-1.3.5c-.9,0-1.472-.4-1.472-.992,0-.656.64-1.056,1.664-1.056A3.349,3.349,0,0,1,26.32-2.928ZM20.064.48a3.135,3.135,0,0,1-.032-.432,13.35,13.35,0,0,1,1.584-4.9L20.288-5.44a3.049,3.049,0,0,1-.192.5c-.16.384-.16.384-.3.72-.08.256-.16.432-.192.544-.112.288-.112.288-.192.464h-.016a2.723,2.723,0,0,0,.016-.336v-.256c0-.256,0-.256.016-.832a25.715,25.715,0,0,1,1.28-8.032l-2.16-.224v.064a8.589,8.589,0,0,1-.176,1.184c-.352,1.808-.352,1.808-.432,2.288a28.6,28.6,0,0,0-.3,4.24,30.342,30.342,0,0,0,.432,5.088,5.839,5.839,0,0,1,.08.624ZM35.408-10.16a4.8,4.8,0,0,1,.592.048,25.228,25.228,0,0,0,2.928.192,17.055,17.055,0,0,0,2.4-.128c-.736.416-1.52.9-2.352,1.424l1.392,1.1a29.416,29.416,0,0,1,4.272-2.656l-.064-1.792a19.842,19.842,0,0,1-4.224.3,20.985,20.985,0,0,1-4.8-.4Zm1.184,3.616c-1.44,1.2-2.064,2.256-2.064,3.472A2.749,2.749,0,0,0,36.576-.4a11.445,11.445,0,0,0,4,.528A27.376,27.376,0,0,0,44.9-.224a6.361,6.361,0,0,1,.7-.064L45.424-2.48a17.064,17.064,0,0,1-5.024.672c-2.7,0-3.872-.448-3.872-1.488,0-.688.448-1.36,1.456-2.192Zm13.04-2.448h.128c.128,0,.288,0,.512.016.848.064,1.568.1,2.416.112a36.227,36.227,0,0,1-1.344,3.552,10.757,10.757,0,0,1-.752,1.44l1.936.672A2.713,2.713,0,0,1,53.7-4.128a8.089,8.089,0,0,1,3.44-.784c1.728,0,2.688.544,2.688,1.536,0,1.28-1.5,2.1-3.824,2.1a12.175,12.175,0,0,1-4.128-.768,9.107,9.107,0,0,1,.16,2.032,14.617,14.617,0,0,0,4.08.56c3.5,0,5.792-1.536,5.792-3.9,0-2.032-1.68-3.248-4.5-3.248a7.442,7.442,0,0,0-4.032,1.04V-5.6A21.275,21.275,0,0,0,54.64-8.848c2-.048,3.408-.16,5.728-.416.416-.048.56-.064.928-.08l-.1-1.936a10.915,10.915,0,0,1-2.048.368c-1.056.128-2.864.256-4.08.288.1-.3.1-.3.384-1.5a8.942,8.942,0,0,1,.256-.928l-2.144-.176a13.727,13.727,0,0,1-.448,2.64,14.717,14.717,0,0,1-3.456-.272Zm18.96-2.448a28.96,28.96,0,0,0,6.24,2l.656-1.84a24,24,0,0,1-5.968-1.776Zm-1.28,1.408a6.53,6.53,0,0,1-.1.928c-.288,1.888-.544,3.664-.672,4.656-.08.608-.08.672-.128.96l2.016.064a3.483,3.483,0,0,1,.72-.688A7.282,7.282,0,0,1,73.136-5.28c1.7,0,2.7.64,2.7,1.712,0,1.36-1.568,2.3-3.824,2.3a12.917,12.917,0,0,1-4.3-.8A7.1,7.1,0,0,1,67.952,0a14.712,14.712,0,0,0,4.08.56A6.912,6.912,0,0,0,76.256-.528,3.9,3.9,0,0,0,77.9-3.616c0-2.048-1.792-3.392-4.512-3.392a7.583,7.583,0,0,0-4.848,1.52l-.032-.032c.048-.24.048-.24.08-.464a33.857,33.857,0,0,1,.72-3.936Z" transform="translate(-234 845)" fill="#fff"/>
      <g id="グループ_6868" data-name="グループ 6868" transform="translate(-274 781.814)">
        <g id="グループ_6867" data-name="グループ 6867" transform="translate(0 0)" clip-path="url(#clip-path)">
          <path id="パス_9571" data-name="パス 9571" d="M55.419,32.151H38.965a.742.742,0,0,1-.719-.557,6.142,6.142,0,0,0-11.9,0,.742.742,0,0,1-.718.557H20.776a.742.742,0,0,1,0-1.485h4.3a7.626,7.626,0,0,1,14.438,0h15.16V1.485h-33.9a.742.742,0,0,1,0-1.485H55.419a.742.742,0,0,1,.742.743V31.41a.742.742,0,0,1-.742.742" transform="translate(1.475 0)" fill="#fff"/>
          <path id="パス_9572" data-name="パス 9572" d="M75.246,31.814H72.259a.743.743,0,0,1-.718-.557,6.14,6.14,0,0,0-11.892,0,.743.743,0,0,1-.719.557h-3.7a.742.742,0,0,1-.742-.743V5.331a.742.742,0,0,1,.742-.743H67.008a.741.741,0,0,1,.609.319l8.24,11.838a.746.746,0,0,1,.133.424v13.9a.743.743,0,0,1-.743.743m-2.435-1.485H74.5V17.4L66.62,6.073H55.97V30.329h2.407a7.624,7.624,0,0,1,14.435,0M71.664,19.034h-.005l-12.853-.091a.743.743,0,0,1-.738-.742V8.914a.742.742,0,0,1,.743-.742h6.324a.746.746,0,0,1,.61.318l6.53,9.379a.742.742,0,0,1-.61,1.166M59.552,17.464l10.683.076L64.747,9.657H59.552Z" transform="translate(4.011 0.338)" fill="#fff"/>
          <path id="パス_9573" data-name="パス 9573" d="M31.849,36.971a5.724,5.724,0,1,1,5.724-5.724,5.731,5.731,0,0,1-5.724,5.724m0-9.964a4.24,4.24,0,1,0,4.24,4.24,4.244,4.244,0,0,0-4.24-4.24" transform="translate(1.923 1.879)" fill="#fff"/>
          <path id="パス_9574" data-name="パス 9574" d="M65.225,36.971a5.724,5.724,0,1,1,5.724-5.724,5.731,5.731,0,0,1-5.724,5.724m0-9.964a4.24,4.24,0,1,0,4.24,4.24,4.244,4.244,0,0,0-4.24-4.24" transform="translate(4.38 1.879)" fill="#fff"/>
          <path id="パス_9575" data-name="パス 9575" d="M24.584,30.049h-9.4a.742.742,0,0,1,0-1.485h9.4a.742.742,0,0,1,0,1.485" transform="translate(1.063 2.103)" fill="#fff"/>
          <path id="パス_9576" data-name="パス 9576" d="M22.251,1.485H.742A.742.742,0,0,1,.742,0H22.251a.742.742,0,0,1,0,1.485" transform="translate(0 0)" fill="#fff"/>
          <path id="パス_9577" data-name="パス 9577" d="M22.075,6.246H3.148a.742.742,0,0,1,0-1.485H22.075a.742.742,0,0,1,0,1.485" transform="translate(0.177 0.35)" fill="#fff"/>
          <path id="パス_9578" data-name="パス 9578" d="M21.9,11.006H5.553a.742.742,0,0,1,0-1.485H21.9a.742.742,0,0,1,0,1.485" transform="translate(0.354 0.701)" fill="#fff"/>
          <path id="パス_9579" data-name="パス 9579" d="M21.72,15.766H7.962a.742.742,0,1,1,0-1.485H21.72a.742.742,0,0,1,0,1.485" transform="translate(0.531 1.051)" fill="#fff"/>
          <path id="パス_9580" data-name="パス 9580" d="M21.543,20.526H10.367a.742.742,0,1,1,0-1.485H21.543a.742.742,0,0,1,0,1.485" transform="translate(0.708 1.402)" fill="#fff"/>
          <path id="パス_9581" data-name="パス 9581" d="M21.366,25.29H12.775a.742.742,0,0,1,0-1.485h8.591a.742.742,0,0,1,0,1.485" transform="translate(0.886 1.752)" fill="#fff"/>
          <path id="パス_9582" data-name="パス 9582" d="M21.189,30.05H15.18a.742.742,0,1,1,0-1.485h6.009a.742.742,0,0,1,0,1.485" transform="translate(1.063 2.103)" fill="#fff"/>
        </g>
      </g>
      <path id="パス_11663" data-name="パス 11663" d="M-55.92-6.95V0h-1.14V-3.04h-3.27V0h-1.14V-6.95h1.14v2.98h3.27V-6.95ZM-50.75.07a3.6,3.6,0,0,1-1.785-.455,3.371,3.371,0,0,1-1.29-1.27A3.576,3.576,0,0,1-54.3-3.49a3.55,3.55,0,0,1,.475-1.83,3.382,3.382,0,0,1,1.29-1.265A3.6,3.6,0,0,1-50.75-7.04a3.62,3.62,0,0,1,1.8.455A3.346,3.346,0,0,1-47.67-5.32a3.579,3.579,0,0,1,.47,1.83,3.606,3.606,0,0,1-.47,1.835,3.336,3.336,0,0,1-1.285,1.27A3.62,3.62,0,0,1-50.75.07Zm0-.99a2.4,2.4,0,0,0,1.23-.315,2.184,2.184,0,0,0,.845-.9A2.89,2.89,0,0,0-48.37-3.49a2.86,2.86,0,0,0-.305-1.35,2.158,2.158,0,0,0-.845-.89,2.426,2.426,0,0,0-1.23-.31,2.426,2.426,0,0,0-1.23.31,2.158,2.158,0,0,0-.845.89,2.86,2.86,0,0,0-.305,1.35,2.89,2.89,0,0,0,.305,1.355,2.184,2.184,0,0,0,.845.9A2.4,2.4,0,0,0-50.75-.92Zm12.49-6.03V0H-39.4V-4.76L-41.52,0h-.79l-2.13-4.76V0h-1.14V-6.95h1.23l2.44,5.45,2.43-5.45Zm3.14.92v2.04h2.4v.93h-2.4V-.93h2.7V0h-3.84V-6.96h3.84v.93Zm9.97-.92a4.233,4.233,0,0,1,1.945.425,3.041,3.041,0,0,1,1.29,1.22A3.67,3.67,0,0,1-21.46-3.45a3.587,3.587,0,0,1-.455,1.84,3,3,0,0,1-1.29,1.2A4.318,4.318,0,0,1-25.15,0h-2.27V-6.95Zm0,6.02a2.508,2.508,0,0,0,1.87-.66,2.538,2.538,0,0,0,.65-1.86,2.624,2.624,0,0,0-.65-1.89,2.466,2.466,0,0,0-1.87-.68h-1.13V-.93Zm6.46-5.1v2.04h2.4v.93h-2.4V-.93h2.7V0h-3.84V-6.96h3.84v.93Zm5.74,5.11h2.35V0h-3.49V-6.95h1.14Zm4.94-6.03V0H-9.15V-6.95Zm7.99,0L-2.63,0H-3.95L-6.57-6.95h1.22l2.06,5.78,2.07-5.78Zm2.59.92v2.04h2.4v.93H2.57V-.93h2.7V0H1.43V-6.96H5.27v.93ZM10.78,0,9.18-2.78H8.31V0H7.17V-6.95h2.4a2.984,2.984,0,0,1,1.355.28,1.942,1.942,0,0,1,.83.75,2.04,2.04,0,0,1,.275,1.05,2.081,2.081,0,0,1-.395,1.235,2,2,0,0,1-1.215.755L12.14,0ZM8.31-3.69H9.57a1.322,1.322,0,0,0,.965-.32,1.152,1.152,0,0,0,.325-.86,1.112,1.112,0,0,0-.32-.845,1.36,1.36,0,0,0-.97-.3H8.31ZM19.14-6.95l-2.3,4.43V0H15.7V-2.52L13.39-6.95h1.27l1.61,3.41,1.61-3.41Zm8.22,3.38a1.537,1.537,0,0,1,.95.59,1.735,1.735,0,0,1,.39,1.11,1.72,1.72,0,0,1-.275.955,1.864,1.864,0,0,1-.8.67A2.811,2.811,0,0,1,26.42,0H23.64V-6.95h2.65a2.844,2.844,0,0,1,1.22.24,1.79,1.79,0,0,1,.77.645,1.64,1.64,0,0,1,.26.905,1.55,1.55,0,0,1-.32,1A1.863,1.863,0,0,1,27.36-3.57Zm-2.58-.46h1.41a1.354,1.354,0,0,0,.875-.255.891.891,0,0,0,.315-.735.908.908,0,0,0-.315-.735,1.319,1.319,0,0,0-.875-.265H24.78Zm1.54,3.1a1.363,1.363,0,0,0,.91-.28.968.968,0,0,0,.33-.78,1.012,1.012,0,0,0-.35-.81,1.38,1.38,0,0,0-.93-.3h-1.5V-.93Zm5.25-6.02v4.43a1.58,1.58,0,0,0,.415,1.19,1.6,1.6,0,0,0,1.155.4,1.61,1.61,0,0,0,1.165-.4,1.58,1.58,0,0,0,.415-1.19V-6.95h1.14v4.41a2.658,2.658,0,0,1-.37,1.44,2.3,2.3,0,0,1-.99.88,3.194,3.194,0,0,1-1.37.29,3.16,3.16,0,0,1-1.365-.29,2.241,2.241,0,0,1-.975-.88,2.715,2.715,0,0,1-.36-1.44V-6.95Zm11.42,0-2.3,4.43V0H39.55V-2.52L37.24-6.95h1.27l1.61,3.41,1.61-3.41Zm2.54,0V0H44.39V-6.95ZM53.24,0H52.1L48.67-5.19V0H47.53V-6.96h1.14L52.1-1.78V-6.96h1.14Zm7.03-4.95a1.837,1.837,0,0,0-.75-.785A2.259,2.259,0,0,0,58.41-6a2.426,2.426,0,0,0-1.23.31,2.172,2.172,0,0,0-.845.88,2.756,2.756,0,0,0-.305,1.32,2.785,2.785,0,0,0,.305,1.325,2.165,2.165,0,0,0,.845.885,2.426,2.426,0,0,0,1.23.31,2.176,2.176,0,0,0,1.51-.52,2.26,2.26,0,0,0,.71-1.41H58.02v-.91h3.83v.89a3.421,3.421,0,0,1-.575,1.49,3.421,3.421,0,0,1-1.21,1.085A3.408,3.408,0,0,1,58.41.06,3.592,3.592,0,0,1,56.62-.4,3.392,3.392,0,0,1,55.335-1.66a3.55,3.55,0,0,1-.475-1.83,3.55,3.55,0,0,1,.475-1.83,3.382,3.382,0,0,1,1.29-1.265A3.6,3.6,0,0,1,58.41-7.04a3.626,3.626,0,0,1,1.975.545A3.1,3.1,0,0,1,61.64-4.95Z" transform="translate(-234 862)" fill="#fff" opacity="0.5"/>
    </g>
  </g>
</svg>
