<svg id="グループ_6870" data-name="グループ 6870" xmlns="http://www.w3.org/2000/svg" xmlns:xlink="http://www.w3.org/1999/xlink" width="45.865" height="40" viewBox="0 0 45.865 40">
  <defs>
    <clipPath id="clip-path">
      <rect id="長方形_5056" data-name="長方形 5056" width="45.865" height="40" transform="translate(0 0)" fill="#fff"/>
    </clipPath>
  </defs>
  <g id="グループ_6869" data-name="グループ 6869" clip-path="url(#clip-path)">
    <path id="パス_9583" data-name="パス 9583" d="M43.5,51.331H6.807a.45.45,0,0,1-.45-.45V32.453h.9V50.431H43.048V32.453h.9V50.881a.45.45,0,0,1-.45.45" transform="translate(-2.22 -11.332)" fill="#fff"/>
    <path id="パス_9584" data-name="パス 9584" d="M5.31,29.838H4.58C2.055,29.838,0,27.275,0,24.125a.45.45,0,0,1,.45-.45H9.44a.45.45,0,0,1,.45.45c0,3.15-2.055,5.713-4.58,5.713M.916,24.575c.174,2.444,1.751,4.363,3.664,4.363h.73c1.913,0,3.49-1.919,3.664-4.363Z" transform="translate(0 -8.267)" fill="#fff"/>
    <path id="パス_9585" data-name="パス 9585" d="M19.124,29.838H18.4c-2.527,0-4.583-2.563-4.583-5.713a.45.45,0,0,1,.45-.45h8.994a.45.45,0,0,1,.45.45c0,3.15-2.056,5.713-4.583,5.713M14.73,24.575c.174,2.444,1.753,4.363,3.667,4.363h.727c1.915,0,3.494-1.919,3.667-4.363Z" transform="translate(-4.823 -8.267)" fill="#fff"/>
    <path id="パス_9586" data-name="パス 9586" d="M32.943,29.838h-.727c-2.527,0-4.583-2.563-4.583-5.713a.45.45,0,0,1,.45-.45h8.994a.45.45,0,0,1,.45.45c0,3.15-2.056,5.713-4.583,5.713m-4.394-5.263c.174,2.444,1.752,4.363,3.667,4.363h.727c1.915,0,3.493-1.919,3.667-4.363Z" transform="translate(-9.649 -8.267)" fill="#fff"/>
    <path id="パス_9587" data-name="パス 9587" d="M46.761,29.838h-.727c-2.527,0-4.583-2.563-4.583-5.713a.45.45,0,0,1,.45-.45h8.994a.45.45,0,0,1,.45.45c0,3.15-2.056,5.713-4.583,5.713m-4.394-5.263c.174,2.444,1.753,4.363,3.667,4.363h.727c1.915,0,3.494-1.919,3.667-4.363Z" transform="translate(-14.473 -8.267)" fill="#fff"/>
    <path id="パス_9588" data-name="パス 9588" d="M60.58,29.838h-.727c-2.527,0-4.583-2.563-4.583-5.713a.45.45,0,0,1,.45-.45h8.994a.45.45,0,0,1,.45.45c0,3.15-2.056,5.713-4.583,5.713m-4.394-5.263c.174,2.444,1.753,4.363,3.667,4.363h.727c1.915,0,3.494-1.919,3.667-4.363Z" transform="translate(-19.299 -8.267)" fill="#fff"/>
    <path id="パス_9589" data-name="パス 9589" d="M9.44,16.308H.45a.45.45,0,0,1-.436-.56L3.9.34A.45.45,0,0,1,4.331,0H11.77a.45.45,0,0,1,.445.517L9.885,15.926a.45.45,0,0,1-.445.383m-8.413-.9H9.053L11.246.9H4.682Z" transform="translate(0 0)" fill="#fff"/>
    <path id="パス_9590" data-name="パス 9590" d="M23.258,16.308H14.264a.45.45,0,0,1-.445-.517L16.149.383A.45.45,0,0,1,16.593,0h7.441a.451.451,0,0,1,.449.473l-.776,15.408a.451.451,0,0,1-.45.428m-8.471-.9H22.83L23.561.9H16.98Z" transform="translate(-4.824 0)" fill="#fff"/>
    <path id="パス_9591" data-name="パス 9591" d="M37.076,16.308H28.083a.45.45,0,0,1-.449-.473L28.409.428A.451.451,0,0,1,28.859,0H36.3a.45.45,0,0,1,.449.428l.776,15.408a.452.452,0,0,1-.45.473m-8.52-.9H36.6L35.873.9H29.287Z" transform="translate(-9.649 0)" fill="#fff"/>
    <path id="パス_9592" data-name="パス 9592" d="M50.478,16.308H41.484a.451.451,0,0,1-.45-.428L40.259.473A.451.451,0,0,1,40.708,0h7.441a.45.45,0,0,1,.445.383l2.329,15.408a.45.45,0,0,1-.445.517m-8.566-.9h8.043L47.762.9H41.181Z" transform="translate(-14.057 0)" fill="#fff"/>
    <path id="パス_9593" data-name="パス 9593" d="M63.464,16.308H54.47a.45.45,0,0,1-.445-.383L51.7.517A.45.45,0,0,1,52.142,0h7.441a.451.451,0,0,1,.437.34L63.9,15.748a.45.45,0,0,1-.437.56m-8.607-.9h8.029L59.233.9H52.665Z" transform="translate(-18.049 0)" fill="#fff"/>
    <path id="パス_9594" data-name="パス 9594" d="M30.813,53.208H22.981a.45.45,0,0,1-.45-.45V38.276a.45.45,0,0,1,.45-.45h7.832a.45.45,0,0,1,.45.45V52.758a.45.45,0,0,1-.45.45m-7.382-.9h6.932V38.726H23.431Z" transform="translate(-7.867 -13.208)" fill="#fff"/>
    <path id="パス_9595" data-name="パス 9595" d="M42.806,53.208H34.974a.45.45,0,0,1-.45-.45V38.276a.451.451,0,0,1,.45-.45h7.832a.45.45,0,0,1,.45.45V52.758a.45.45,0,0,1-.45.45m-7.382-.9h6.932V38.726H35.424Z" transform="translate(-12.055 -13.208)" fill="#fff"/>
  </g>
</svg>
