<svg xmlns="http://www.w3.org/2000/svg" width="230" height="120" viewBox="0 0 230 120">
  <g id="グループ_7251" data-name="グループ 7251" transform="translate(349 -2594)">
    <g id="長方形_3892" data-name="長方形 3892" transform="translate(-349 2594)" fill="#5fc1aa" stroke="rgba(255,255,255,0.3)" stroke-width="3">
      <rect width="230" height="120" rx="10" stroke="none"/>
      <rect x="1.5" y="1.5" width="227" height="117" rx="8.5" fill="none"/>
    </g>
    <path id="パス_11672" data-name="パス 11672" d="M7.434-5.508A11.521,11.521,0,0,1,10.89-6.1c1.926,0,3.186,1.008,3.186,2.556a1.85,1.85,0,0,1-1.818,2,1.245,1.245,0,0,1-1.134-.612,3.468,3.468,0,0,1-.252-1.584,6.241,6.241,0,0,1,.036-.792,7.593,7.593,0,0,1-2,.792,6.013,6.013,0,0,0,.306,2.3,2.906,2.906,0,0,0,2.952,2,4,4,0,0,0,4.086-4.1c0-2.556-2.142-4.392-5.148-4.392a12.482,12.482,0,0,0-3.672.5v-2.34c.684-.072,1.044-.126,1.638-.234,1.242-.216,1.584-.27,1.908-.324l-.072-2.016a20.075,20.075,0,0,1-3.474.684v-1.152a11.051,11.051,0,0,1,.108-1.962H5.292a12.333,12.333,0,0,1,.108,2.07v1.188c-.2,0-.288,0-.72.018-.252.018-.45.018-.63.018a11.039,11.039,0,0,1-2.178-.162L1.89-9.63a3.375,3.375,0,0,1,.378-.018c.054,0,.216,0,.45.018.216,0,.72.018.99.018.45,0,.7,0,.972-.018.594-.036.594-.036.738-.036l.018,2.772a9.63,9.63,0,0,0-2.628,1.53A3.842,3.842,0,0,0,1.26-2.7,2.644,2.644,0,0,0,2.25-.666,5.607,5.607,0,0,0,5.652.612,1.582,1.582,0,0,0,7.308-.432a5.36,5.36,0,0,0,.144-1.53ZM5.418-2.232c0,.594-.09.756-.4.756a2.164,2.164,0,0,1-1.152-.4c-.414-.252-.594-.522-.594-.828,0-.648.792-1.44,2.142-2.16Zm11.628-7.6a15.267,15.267,0,0,0-3.564-3.69L11.79-12.384A15.371,15.371,0,0,1,15.39-8.5ZM22-.252c0,.558-.036,1.08-.09,1.656h1.98V.756h7.4v.666h2a10.6,10.6,0,0,1-.09-1.656v-2.5c0-.486,0-.54.018-1.008.846.2,1.1.252,1.962.414A6.98,6.98,0,0,1,36-5.346a20.988,20.988,0,0,1-6.66-1.53A20.21,20.21,0,0,0,32.382-9.5c.324-.36.324-.36.486-.522l-1.242-.99a10.377,10.377,0,0,1-1.458.072H26.784c.36-.414.54-.63.558-.648l-1.674-.468h7.74v2.412H35.37A7.228,7.228,0,0,1,35.28-11v-1.494a9.083,9.083,0,0,1,.072-1.332,17.239,17.239,0,0,1-2.106.09H28.44V-14a5.169,5.169,0,0,1,.108-1.17H26.316a5.531,5.531,0,0,1,.09,1.188v.252H21.762a17.005,17.005,0,0,1-2.052-.09,9.733,9.733,0,0,1,.072,1.332v1.458a7.711,7.711,0,0,1-.09,1.35h1.944V-12.06h3.78a4.843,4.843,0,0,1-1.008,1.26,14.622,14.622,0,0,1-4.572,3.006,5.32,5.32,0,0,1,1.1,1.4,14.244,14.244,0,0,0,3.132-1.926,12.827,12.827,0,0,0,1.746,1.44A24.213,24.213,0,0,1,23.13-5.814,27.622,27.622,0,0,1,19.1-4.9a5.443,5.443,0,0,1,.846,1.746c.99-.216,1.332-.306,2.034-.486.018.342.018.522.018.882Zm3.4-9.18H29.79a15.45,15.45,0,0,1-2.25,1.656A15.132,15.132,0,0,1,25.326-9.36Zm-1.53,5.2A19.666,19.666,0,0,0,27.594-5.8,18.88,18.88,0,0,0,31.428-4.23Zm.018,1.638h7.4v1.71h-7.4ZM47.538-6.156v1.98A23.113,23.113,0,0,1,44.046-2.07a8.687,8.687,0,0,1-1.476.594L43.308.45c.27-.18.63-.432.774-.522a25,25,0,0,0,3.456-2.286V-.666c0,.324-.108.414-.486.414a8.078,8.078,0,0,1-1.71-.162A4.806,4.806,0,0,1,45.828,1.4c.522.036,1.026.054,1.3.054,1.674,0,2.25-.36,2.25-1.386v-2.5c0-.342,0-.486-.054-1.3A9.437,9.437,0,0,0,51.246-.792a10.4,10.4,0,0,0,2.16,1.71A8.094,8.094,0,0,1,54.594-.864,9.313,9.313,0,0,1,51.732-2.79a15.076,15.076,0,0,0,2.052-2.2L52.308-6.03a8.994,8.994,0,0,1-1.656,1.98,7.114,7.114,0,0,1-1.134-2.106h2.79a15.637,15.637,0,0,1,1.872.108V-7.866a14,14,0,0,1-1.872.108H49.392v-.99h2.214a11.372,11.372,0,0,1,1.8.09v-1.728a11.655,11.655,0,0,1-1.8.09H49.392v-.936h2.754a12.421,12.421,0,0,1,1.782.09v-1.8a12.7,12.7,0,0,1-1.8.108h-.882a17.682,17.682,0,0,0,1.044-1.8l-1.926-.522a9.193,9.193,0,0,1-1.08,2.322h-1.6a12.339,12.339,0,0,0-1.188-2.322L44.8-14.58a8.057,8.057,0,0,1,1.026,1.746h-.252a11.655,11.655,0,0,1-1.71-.09v1.782a10.932,10.932,0,0,1,1.71-.09h1.962v.936H45.846a13.192,13.192,0,0,1-1.656-.072v1.692a13.11,13.11,0,0,1,1.692-.072h1.656v.99H45.36a12.782,12.782,0,0,1-1.836-.09v.162a7.121,7.121,0,0,1-1.494-2.43h.4a9.167,9.167,0,0,1,1.044.054v-1.854a5.348,5.348,0,0,1-1.026.072h-.486v-1.44a10.407,10.407,0,0,1,.108-1.872H40.032a11.321,11.321,0,0,1,.108,1.872v1.44h-.972a6.775,6.775,0,0,1-1.206-.072v1.872a7.173,7.173,0,0,1,1.206-.072h.72A12.45,12.45,0,0,1,39.2-7.884a10.9,10.9,0,0,1-1.71,3.06,9.423,9.423,0,0,1,.918,2.214,14.111,14.111,0,0,0,1.836-4.266c-.036.306-.072,1.152-.108,2.5V-.648a18.145,18.145,0,0,1-.108,2.2h2.034a17.537,17.537,0,0,1-.108-2.2V-5.22c0-.522-.018-1.4-.054-2.5a9.255,9.255,0,0,0,.918,2,7.339,7.339,0,0,1,.7-1.584v1.242a11.171,11.171,0,0,1,1.656-.09ZM43.506-5.022A11.627,11.627,0,0,1,45.234-2.97l1.332-1.008a10.741,10.741,0,0,0-1.8-2.034Zm22.518-6.516a3.934,3.934,0,0,1,1.818.54,4.459,4.459,0,0,1,2.214,4,5.04,5.04,0,0,1-2.5,4.5,9.566,9.566,0,0,1-3.582.99A5.742,5.742,0,0,1,65.07.594,11.768,11.768,0,0,0,67.9-.162,6.934,6.934,0,0,0,72.27-6.876c0-4.05-2.808-6.678-7.128-6.678a8.08,8.08,0,0,0-6.192,2.52A7.732,7.732,0,0,0,56.97-5.8C56.97-2.9,58.446-.81,60.5-.81c1.476,0,2.628-1.062,3.654-3.384A26.04,26.04,0,0,0,66.024-11.538Zm-2.2.018a23.723,23.723,0,0,1-1.494,6.084c-.648,1.548-1.26,2.3-1.854,2.3-.792,0-1.422-1.17-1.422-2.646a6.027,6.027,0,0,1,2.448-4.86A4.582,4.582,0,0,1,63.828-11.52Zm18.216-2.106H77.508a15.541,15.541,0,0,1-2.178-.108v1.908c.576-.054,1.206-.09,2.124-.09h4.59V-10.8H78.192a11.835,11.835,0,0,1-1.89-.09v1.836a14.432,14.432,0,0,1,1.89-.09H88.254a14.982,14.982,0,0,1,1.944.09V-10.89a11.958,11.958,0,0,1-1.908.09H84.1v-1.116h5.076c.918,0,1.494.036,2.106.09v-1.908a15.419,15.419,0,0,1-2.16.108H84.1v-.126a7.253,7.253,0,0,1,.09-1.422h-2.25a7.614,7.614,0,0,1,.108,1.422ZM87.714-3.1v.954H89.82A13.212,13.212,0,0,1,89.73-4V-6.624a12.557,12.557,0,0,1,.072-1.62,15.057,15.057,0,0,1-1.818.072h-9.45a15.49,15.49,0,0,1-1.8-.072,12.919,12.919,0,0,1,.072,1.62c0,3.546-.648,5.508-2.25,6.84a7.68,7.68,0,0,1,1.818,1.422A8.159,8.159,0,0,0,78.588-3.1ZM78.732-4.77A16.865,16.865,0,0,0,78.8-6.534h3.384V-4.77Zm5.4,0V-6.534h3.6V-4.77Z" transform="translate(-280 2679.882)" fill="#fff"/>
    <g id="グループ_6809" data-name="グループ 6809" transform="translate(-256.628 2613.14)">
      <g id="グループ_6810" data-name="グループ 6810" transform="translate(0.128 0.12)">
        <path id="パス_9525" data-name="パス 9525" d="M66.87,72.971a16.5,16.5,0,0,0,2.412,3.908c.151.171.282.382.141.6a.483.483,0,0,1-.565.211c-.406-.132-.819-.247-1.226-.378a53.185,53.185,0,0,1-5.841-2.156c-8.183,2.33-19.183-2.014-19.675-9.367,9.115,1.359,19.677-2.253,23.9-9.026,7.086,3.83,7.638,11.865.854,16.208" transform="translate(-26.141 -35.233)" fill="rgba(255,255,255,0.5)"/>
        <path id="パス_9526" data-name="パス 9526" d="M5.1,31.663a1.03,1.03,0,0,1-.809-.371.981.981,0,0,1-.222-1.023,2.141,2.141,0,0,1,.411-.64,2.657,2.657,0,0,0,.173-.222l.017-.025a27.778,27.778,0,0,0,2.395-3.646A17.136,17.136,0,0,1,1.685,20.9,11.534,11.534,0,0,1-.5,14.22v-.025A13.633,13.633,0,0,1,6.224,3.133,25.707,25.707,0,0,1,19.924-.5a25.719,25.719,0,0,1,13.7,3.634,13.629,13.629,0,0,1,6.725,11.06v.045a12.672,12.672,0,0,1-2.026,6.443,15.551,15.551,0,0,1-4.784,4.631,22.988,22.988,0,0,1-6.5,2.784,28.428,28.428,0,0,1-7.267.934h0a26.778,26.778,0,0,1-5.408-.538,82.834,82.834,0,0,1-8.392,2.968l-.012,0c-.052.014-.111.034-.174.054A2.221,2.221,0,0,1,5.1,31.663Zm-.032-1a.106.106,0,0,0,.032,0,1.549,1.549,0,0,0,.382-.093c.068-.022.138-.045.209-.065a81.144,81.144,0,0,0,8.427-2.991l.146-.063.156.033a25.7,25.7,0,0,0,5.356.549,25.209,25.209,0,0,0,13.234-3.562,12.726,12.726,0,0,0,6.348-10.249A12.668,12.668,0,0,0,33.089,3.977,24.714,24.714,0,0,0,19.924.5,24.7,24.7,0,0,0,6.763,3.976,12.671,12.671,0,0,0,.5,14.232C.505,18.489,3.225,22.45,7.963,25.1l.41.229-.2.423a26.179,26.179,0,0,1-2.692,4.212,3.532,3.532,0,0,1-.234.3,1.7,1.7,0,0,0-.236.327.264.264,0,0,0,.021.025l.019.021a.079.079,0,0,0,.017.017ZM22.189,19.909H12.327a1.638,1.638,0,1,1,0-3.276h9.862a1.638,1.638,0,0,1,0,3.276Zm-9.862-2.276a.638.638,0,1,0,0,1.276h9.862a.638.638,0,0,0,0-1.276ZM27.5,13.081H12.327a1.638,1.638,0,1,1,0-3.276H27.5a1.638,1.638,0,1,1,0,3.276ZM12.327,10.805a.638.638,0,1,0,0,1.276H27.5a.638.638,0,1,0,0-1.276Z" transform="translate(0 0)" fill="#fff"/>
        <rect id="長方形_5058" data-name="長方形 5058" width="12" height="3" rx="1.5" transform="translate(11.259 16.741)" fill="#fff"/>
        <rect id="長方形_5059" data-name="長方形 5059" width="17" height="3" rx="1.5" transform="translate(11.259 9.741)" fill="#fff"/>
      </g>
    </g>
    <path id="パス_11673" data-name="パス 11673" d="M-51.02-3.49a3.55,3.55,0,0,1,.475-1.83,3.382,3.382,0,0,1,1.29-1.265A3.6,3.6,0,0,1-47.47-7.04a3.626,3.626,0,0,1,1.975.545A3.1,3.1,0,0,1-44.24-4.95h-1.37a1.837,1.837,0,0,0-.75-.82,2.226,2.226,0,0,0-1.11-.27,2.426,2.426,0,0,0-1.23.31,2.158,2.158,0,0,0-.845.89,2.86,2.86,0,0,0-.305,1.35,2.86,2.86,0,0,0,.305,1.35,2.191,2.191,0,0,0,.845.9,2.4,2.4,0,0,0,1.23.315,2.226,2.226,0,0,0,1.11-.27,1.837,1.837,0,0,0,.75-.82h1.37A3.077,3.077,0,0,1-45.495-.48,3.651,3.651,0,0,1-47.47.06,3.592,3.592,0,0,1-49.26-.4,3.392,3.392,0,0,1-50.545-1.66,3.55,3.55,0,0,1-51.02-3.49Zm9.74-3.46v4.43a1.58,1.58,0,0,0,.415,1.19,1.6,1.6,0,0,0,1.155.4,1.61,1.61,0,0,0,1.165-.4,1.58,1.58,0,0,0,.415-1.19V-6.95h1.14v4.41a2.658,2.658,0,0,1-.37,1.44,2.3,2.3,0,0,1-.99.88,3.194,3.194,0,0,1-1.37.29,3.16,3.16,0,0,1-1.365-.29,2.241,2.241,0,0,1-.975-.88,2.715,2.715,0,0,1-.36-1.44V-6.95ZM-32.72.07a3.113,3.113,0,0,1-1.26-.245,2.068,2.068,0,0,1-.88-.7,1.765,1.765,0,0,1-.32-1.05h1.22a1.1,1.1,0,0,0,.355.74,1.258,1.258,0,0,0,.885.29,1.363,1.363,0,0,0,.92-.285.926.926,0,0,0,.33-.735.8.8,0,0,0-.205-.57,1.371,1.371,0,0,0-.51-.34,7.691,7.691,0,0,0-.845-.26,7.917,7.917,0,0,1-1.1-.365,1.826,1.826,0,0,1-.725-.575,1.662,1.662,0,0,1-.3-1.04,1.848,1.848,0,0,1,.3-1.05,1.916,1.916,0,0,1,.84-.69,3.052,3.052,0,0,1,1.25-.24,2.6,2.6,0,0,1,1.655.5A1.863,1.863,0,0,1-30.4-5.15h-1.26a.913.913,0,0,0-.36-.65,1.331,1.331,0,0,0-.87-.27,1.234,1.234,0,0,0-.8.25A.871.871,0,0,0-34-5.1a.731.731,0,0,0,.2.525,1.377,1.377,0,0,0,.495.325,7.685,7.685,0,0,0,.82.26,8.561,8.561,0,0,1,1.125.38,1.873,1.873,0,0,1,.74.585A1.681,1.681,0,0,1-30.32-1.97a1.9,1.9,0,0,1-.285,1,2.056,2.056,0,0,1-.83.755A2.737,2.737,0,0,1-32.72.07Zm8.74-7.02v.93h-1.85V0h-1.14V-6.02h-1.86v-.93ZM-19.16.07a3.6,3.6,0,0,1-1.785-.455,3.372,3.372,0,0,1-1.29-1.27A3.576,3.576,0,0,1-22.71-3.49a3.55,3.55,0,0,1,.475-1.83,3.382,3.382,0,0,1,1.29-1.265A3.6,3.6,0,0,1-19.16-7.04a3.62,3.62,0,0,1,1.8.455A3.346,3.346,0,0,1-16.08-5.32a3.579,3.579,0,0,1,.47,1.83,3.606,3.606,0,0,1-.47,1.835,3.336,3.336,0,0,1-1.285,1.27A3.62,3.62,0,0,1-19.16.07Zm0-.99a2.4,2.4,0,0,0,1.23-.315,2.184,2.184,0,0,0,.845-.9A2.89,2.89,0,0,0-16.78-3.49a2.86,2.86,0,0,0-.305-1.35,2.158,2.158,0,0,0-.845-.89,2.426,2.426,0,0,0-1.23-.31,2.426,2.426,0,0,0-1.23.31,2.158,2.158,0,0,0-.845.89,2.86,2.86,0,0,0-.305,1.35,2.89,2.89,0,0,0,.305,1.355,2.184,2.184,0,0,0,.845.9A2.4,2.4,0,0,0-19.16-.92ZM-6.67-6.95V0H-7.81V-4.76L-9.93,0h-.79l-2.13-4.76V0h-1.14V-6.95h1.23l2.44,5.45,2.43-5.45Zm3.14.92v2.04h2.4v.93h-2.4V-.93h2.7V0H-4.67V-6.96H-.83v.93ZM4.68,0,3.08-2.78H2.21V0H1.07V-6.95h2.4a2.984,2.984,0,0,1,1.355.28,1.942,1.942,0,0,1,.83.75A2.041,2.041,0,0,1,5.93-4.87a2.081,2.081,0,0,1-.395,1.235A2,2,0,0,1,4.32-2.88L6.04,0ZM2.21-3.69H3.47a1.322,1.322,0,0,0,.965-.32,1.152,1.152,0,0,0,.325-.86,1.112,1.112,0,0,0-.32-.845,1.36,1.36,0,0,0-.97-.3H2.21Zm6.3-4.28L8.39-5.92H7.61L7.48-7.97ZM12.4.07a3.113,3.113,0,0,1-1.26-.245,2.068,2.068,0,0,1-.88-.7,1.765,1.765,0,0,1-.32-1.05h1.22a1.1,1.1,0,0,0,.355.74,1.258,1.258,0,0,0,.885.29,1.363,1.363,0,0,0,.92-.285.926.926,0,0,0,.33-.735.8.8,0,0,0-.2-.57,1.371,1.371,0,0,0-.51-.34,7.691,7.691,0,0,0-.845-.26,7.917,7.917,0,0,1-1.1-.365,1.826,1.826,0,0,1-.725-.575,1.662,1.662,0,0,1-.3-1.04,1.848,1.848,0,0,1,.3-1.05,1.916,1.916,0,0,1,.84-.69,3.052,3.052,0,0,1,1.25-.24,2.6,2.6,0,0,1,1.655.5A1.863,1.863,0,0,1,14.72-5.15H13.46a.913.913,0,0,0-.36-.65,1.331,1.331,0,0,0-.87-.27,1.234,1.234,0,0,0-.8.25.871.871,0,0,0-.31.72.731.731,0,0,0,.195.525,1.377,1.377,0,0,0,.495.325,7.685,7.685,0,0,0,.82.26,8.56,8.56,0,0,1,1.125.38,1.873,1.873,0,0,1,.74.585A1.681,1.681,0,0,1,14.8-1.97a1.9,1.9,0,0,1-.285,1,2.056,2.056,0,0,1-.83.755A2.737,2.737,0,0,1,12.4.07ZM25.74-6.95,23.13,0H21.81L19.19-6.95h1.22l2.06,5.78,2.07-5.78ZM30.36.07a3.6,3.6,0,0,1-1.785-.455,3.372,3.372,0,0,1-1.29-1.27A3.576,3.576,0,0,1,26.81-3.49a3.55,3.55,0,0,1,.475-1.83,3.382,3.382,0,0,1,1.29-1.265A3.6,3.6,0,0,1,30.36-7.04a3.62,3.62,0,0,1,1.8.455A3.346,3.346,0,0,1,33.44-5.32a3.579,3.579,0,0,1,.47,1.83,3.606,3.606,0,0,1-.47,1.835,3.336,3.336,0,0,1-1.285,1.27A3.62,3.62,0,0,1,30.36.07Zm0-.99a2.4,2.4,0,0,0,1.23-.315,2.184,2.184,0,0,0,.845-.9A2.89,2.89,0,0,0,32.74-3.49a2.86,2.86,0,0,0-.305-1.35,2.158,2.158,0,0,0-.845-.89,2.426,2.426,0,0,0-1.23-.31,2.426,2.426,0,0,0-1.23.31,2.158,2.158,0,0,0-.845.89,2.86,2.86,0,0,0-.3,1.35,2.89,2.89,0,0,0,.3,1.355,2.184,2.184,0,0,0,.845.9A2.4,2.4,0,0,0,30.36-.92Zm6.31-6.03V0H35.53V-6.95Zm1.62,3.46a3.55,3.55,0,0,1,.475-1.83,3.382,3.382,0,0,1,1.29-1.265A3.6,3.6,0,0,1,41.84-7.04a3.626,3.626,0,0,1,1.975.545A3.1,3.1,0,0,1,45.07-4.95H43.7a1.837,1.837,0,0,0-.75-.82,2.226,2.226,0,0,0-1.11-.27,2.426,2.426,0,0,0-1.23.31,2.158,2.158,0,0,0-.845.89,2.86,2.86,0,0,0-.305,1.35,2.86,2.86,0,0,0,.305,1.35,2.191,2.191,0,0,0,.845.9,2.4,2.4,0,0,0,1.23.315,2.226,2.226,0,0,0,1.11-.27,1.837,1.837,0,0,0,.75-.82h1.37A3.077,3.077,0,0,1,43.815-.48,3.651,3.651,0,0,1,41.84.06,3.592,3.592,0,0,1,40.05-.4,3.392,3.392,0,0,1,38.765-1.66,3.55,3.55,0,0,1,38.29-3.49Zm9.75-2.54v2.04h2.4v.93h-2.4V-.93h2.7V0H46.9V-6.96h3.84v.93Z" transform="translate(-234 2697)" fill="#fff" opacity="0.5"/>
  </g>
</svg>
