<svg xmlns="http://www.w3.org/2000/svg" xmlns:xlink="http://www.w3.org/1999/xlink" width="230" height="120" viewBox="0 0 230 120">
  <defs>
    <clipPath id="clip-path">
      <rect id="長方形_3887" data-name="長方形 3887" width="35" height="52" transform="translate(-0.108 -0.135)" fill="none"/>
    </clipPath>
    <clipPath id="clip-path-2">
      <path id="パス_9497" data-name="パス 9497" d="M52.614,41.7,41.257,51.227,29.9,41.7A2.983,2.983,0,0,0,25,43.983v24a7.458,7.458,0,0,0,1.745,4.794l12.8,15.253a2.237,2.237,0,0,0,3.428,0l12.8-15.253a7.458,7.458,0,0,0,1.745-4.794v-24a2.983,2.983,0,0,0-4.9-2.285" transform="translate(-25 -41)" fill="none"/>
    </clipPath>
    <clipPath id="clip-path-3">
      <rect id="長方形_3889" data-name="長方形 3889" width="35" height="52" transform="translate(-0.108 -0.135)" fill="#fff"/>
    </clipPath>
    <clipPath id="clip-path-4">
      <rect id="長方形_5155" data-name="長方形 5155" width="48.372" height="46.109" fill="none"/>
    </clipPath>
    <clipPath id="clip-path-5">
      <rect id="長方形_5154" data-name="長方形 5154" width="48.372" height="46.109" transform="translate(0 0)" fill="none"/>
    </clipPath>
    <clipPath id="clip-path-6">
      <rect id="長方形_5153" data-name="長方形 5153" width="46.372" height="44.109" transform="translate(2 2)" fill="none"/>
    </clipPath>
  </defs>
  <g id="グループ_7249" data-name="グループ 7249" transform="translate(349 -2314)">
    <g id="長方形_3958" data-name="長方形 3958" transform="translate(-349 2314)" fill="#5fc1aa" stroke="rgba(255,255,255,0.3)" stroke-width="3">
      <rect width="230" height="120" rx="10" stroke="none"/>
      <rect x="1.5" y="1.5" width="227" height="117" rx="8.5" fill="none"/>
    </g>
    <path id="パス_11668" data-name="パス 11668" d="M-83.556-9.054a.317.317,0,0,1,.108-.018.827.827,0,0,1,.18.018,2.68,2.68,0,0,1,.306.018c.09,0,.288.018.54.018.846.072,1.566.09,2.232.09.468,0,.9-.018,1.62-.036.072,2.5.09,3.384.144,3.834a4.278,4.278,0,0,0-1.6-.252c-2.178,0-3.708,1.224-3.708,2.97,0,1.836,1.44,2.952,3.8,2.952,1.746,0,3.006-.63,3.42-1.692a3.149,3.149,0,0,0,.144-1.008v-.252c.108.072.522.342,1.134.738A6.744,6.744,0,0,1-73.89-.522l.864-2.178a3.424,3.424,0,0,1-.5-.306,14.351,14.351,0,0,0-2.826-1.638c-.18-3.024-.18-3.06-.18-4.068v-.4c.954-.108,1.89-.27,2.5-.4a3.11,3.11,0,0,1,.522-.09l-.072-2.034-.144.036c-.288.108-.288.108-.4.144a18.1,18.1,0,0,1-2.43.432v-.828a17.611,17.611,0,0,1,.126-2.646l-2.25.054a5.035,5.035,0,0,1,.054.864c0,.738.018,1.638.018,2.7-.63.036-1.026.036-1.656.036a12.972,12.972,0,0,1-3.258-.288Zm5.166,5.76v.486a1.511,1.511,0,0,1-.234.972,1.769,1.769,0,0,1-1.458.558c-1.008,0-1.656-.45-1.656-1.116,0-.738.72-1.188,1.872-1.188A3.768,3.768,0,0,1-78.39-3.294ZM-85.428.54a3.527,3.527,0,0,1-.036-.486,15.018,15.018,0,0,1,1.782-5.508l-1.494-.666a3.43,3.43,0,0,1-.216.558c-.18.432-.18.432-.342.81-.09.288-.18.486-.216.612-.126.324-.126.324-.216.522h-.018A3.064,3.064,0,0,0-86.166-4v-.288c0-.288,0-.288.018-.936.018-3.132.7-7.47,1.44-9.036l-2.43-.252v.072a9.662,9.662,0,0,1-.2,1.332c-.4,2.034-.4,2.034-.486,2.574a32.173,32.173,0,0,0-.342,4.77,34.135,34.135,0,0,0,.486,5.724,6.571,6.571,0,0,1,.09.7Zm17.082-14.85a8.952,8.952,0,0,1,.072,1.224c0,.252,0,.63-.018,1.17-.108,4.5-.144,6.318-.144,7.254,0,2.412.522,3.8,1.764,4.626a5.868,5.868,0,0,0,3.15.792,6.813,6.813,0,0,0,5.4-2.286c.882-.99,1.422-2.16,2.142-4.59a8.317,8.317,0,0,1-2.178-1.386,12.067,12.067,0,0,1-.828,3.024A4.631,4.631,0,0,1-63.342-1.4a2.85,2.85,0,0,1-2.412-.936c-.36-.54-.468-1.188-.468-2.9,0-1.278.108-4.932.18-6.606a16.455,16.455,0,0,1,.216-2.43Zm6.39,1.458a13.472,13.472,0,0,1,1.89,2.682l1.26-.666a12.9,12.9,0,0,0-1.89-2.646Zm5.292.846a10.9,10.9,0,0,0-1.872-2.538l-1.206.63a14.965,14.965,0,0,1,1.836,2.61Zm6.1-1.728a2.3,2.3,0,0,1,.18.612c.2,1.008.522,2.574.612,2.844a6.742,6.742,0,0,0-2.88,5.526c0,2.43,1.242,4.05,3.1,4.05a3.012,3.012,0,0,0,1.674-.486,8.076,8.076,0,0,0,2.142-1.98,21.623,21.623,0,0,0,3.276-6.714,4.247,4.247,0,0,1,1.62.774,3.3,3.3,0,0,1,1.314,2.79A4.313,4.313,0,0,1-40.14-4.1a5.242,5.242,0,0,1-2.52,1.926,8.173,8.173,0,0,1-2.934.7A5.226,5.226,0,0,1-44.478.63a13.2,13.2,0,0,0,2.934-.864,6.318,6.318,0,0,0,4.212-5.922,5.309,5.309,0,0,0-2.2-4.464A6.219,6.219,0,0,0-41.94-11.7c.072-.252.306-1.134.558-2.106a1.911,1.911,0,0,1,.18-.5l-2.268-.45a13.813,13.813,0,0,1-.522,2.79h-.486a8.713,8.713,0,0,0-3.474.72,17.689,17.689,0,0,1-.432-2.9Zm1.332,5.6A19.337,19.337,0,0,0-47.754-4c-.612.774-1.188,1.17-1.692,1.17-.72,0-1.224-.81-1.224-1.98A4.551,4.551,0,0,1-49.23-8.136ZM-46.4-5.76a1.542,1.542,0,0,0-.09-.27,20.911,20.911,0,0,1-1.08-3.4,5.97,5.97,0,0,1,3.1-.72,19.806,19.806,0,0,1-1.8,4.158,1.457,1.457,0,0,0-.108.234Zm11.952-4.41a26.129,26.129,0,0,1,2.988-.36c3.906-.288,4.608-.342,6.066-.558a7.933,7.933,0,0,0-2.5,1.8A6.346,6.346,0,0,0-29.61-5.04,4.816,4.816,0,0,0-27.036-.7,10.829,10.829,0,0,0-22.824.486a3.823,3.823,0,0,1,.612.108l.324-2.448c-.18.018-.342.018-.36.018A10.923,10.923,0,0,1-24.93-2.3a3.022,3.022,0,0,1-2.394-2.934c0-1.818,1.35-3.618,3.636-4.806a8.05,8.05,0,0,1,3.564-.972,2.787,2.787,0,0,1,.378.018l-.126-2.3a10.163,10.163,0,0,1-2.07.18c-4.986.234-7.974.4-8.982.45-2.646.18-2.646.18-2.97.18-.09,0-.288,0-.684-.018ZM-7.6-11.538A3.934,3.934,0,0,1-5.778-11,4.459,4.459,0,0,1-3.564-7a5.04,5.04,0,0,1-2.5,4.5,9.566,9.566,0,0,1-3.582.99A5.742,5.742,0,0,1-8.55.594,11.768,11.768,0,0,0-5.724-.162,6.934,6.934,0,0,0-1.35-6.876c0-4.05-2.808-6.678-7.128-6.678a8.08,8.08,0,0,0-6.192,2.52A7.732,7.732,0,0,0-16.65-5.8c0,2.9,1.476,4.986,3.528,4.986,1.476,0,2.628-1.062,3.654-3.384A26.04,26.04,0,0,0-7.6-11.538Zm-2.2.018a23.723,23.723,0,0,1-1.494,6.084c-.648,1.548-1.26,2.3-1.854,2.3-.792,0-1.422-1.17-1.422-2.646a6.027,6.027,0,0,1,2.448-4.86A4.582,4.582,0,0,1-9.792-11.52ZM7.83-12.492H3.2a16.024,16.024,0,0,1-2.25-.126v2.178a19.57,19.57,0,0,1,2.25-.108H6.156c-.09,3.672-.7,5.76-2.25,7.614A11.636,11.636,0,0,1,.684-.27,5.019,5.019,0,0,1,2.142,1.44C5.544-.792,7.164-3.1,7.92-6.714h4.968a26.35,26.35,0,0,1-.4,4.518c-.234,1.242-.414,1.44-1.206,1.44a17.109,17.109,0,0,1-2.7-.234A5.841,5.841,0,0,1,9.108,1.1c1.386.108,1.8.126,2.43.126,1.8,0,2.394-.45,2.808-2.16a35.579,35.579,0,0,0,.612-6.318c.036-.774.036-.99.072-1.26a.452.452,0,0,0,.018-.18,11.315,11.315,0,0,1-1.854.09H8.208c.054-.54.054-.594.144-1.944H14.94a16.022,16.022,0,0,1,2.2.108v-2.178a15.146,15.146,0,0,1-2.268.126H9.918v-1.1a8.068,8.068,0,0,1,.108-1.494H7.7A7.231,7.231,0,0,1,7.83-13.59ZM24.444-9.054a.317.317,0,0,1,.108-.018.827.827,0,0,1,.18.018,2.68,2.68,0,0,1,.306.018c.09,0,.288.018.54.018.846.072,1.566.09,2.232.09.468,0,.9-.018,1.62-.036.072,2.5.09,3.384.144,3.834a4.278,4.278,0,0,0-1.6-.252c-2.178,0-3.708,1.224-3.708,2.97,0,1.836,1.44,2.952,3.8,2.952,1.746,0,3.006-.63,3.42-1.692a3.149,3.149,0,0,0,.144-1.008v-.252c.108.072.522.342,1.134.738A6.744,6.744,0,0,1,34.11-.522L34.974-2.7a3.424,3.424,0,0,1-.5-.306,14.351,14.351,0,0,0-2.826-1.638c-.18-3.024-.18-3.06-.18-4.068v-.4c.954-.108,1.89-.27,2.5-.4a3.11,3.11,0,0,1,.522-.09l-.072-2.034-.144.036c-.288.108-.288.108-.4.144a18.1,18.1,0,0,1-2.43.432v-.828a17.611,17.611,0,0,1,.126-2.646l-2.25.054a5.035,5.035,0,0,1,.054.864c0,.738.018,1.638.018,2.7-.63.036-1.026.036-1.656.036a12.972,12.972,0,0,1-3.258-.288Zm5.166,5.76v.486a1.511,1.511,0,0,1-.234.972,1.769,1.769,0,0,1-1.458.558c-1.008,0-1.656-.45-1.656-1.116,0-.738.72-1.188,1.872-1.188A3.768,3.768,0,0,1,29.61-3.294ZM22.572.54a3.527,3.527,0,0,1-.036-.486,15.018,15.018,0,0,1,1.782-5.508L22.824-6.12a3.43,3.43,0,0,1-.216.558c-.18.432-.18.432-.342.81-.09.288-.18.486-.216.612-.126.324-.126.324-.216.522h-.018A3.064,3.064,0,0,0,21.834-4v-.288c0-.288,0-.288.018-.936.018-3.132.7-7.47,1.44-9.036l-2.43-.252v.072a9.662,9.662,0,0,1-.2,1.332c-.4,2.034-.4,2.034-.486,2.574a32.174,32.174,0,0,0-.342,4.77,34.135,34.135,0,0,0,.486,5.724,6.569,6.569,0,0,1,.09.7ZM39.834-11.43a5.4,5.4,0,0,1,.666.054,28.382,28.382,0,0,0,3.294.216,19.187,19.187,0,0,0,2.7-.144c-.828.468-1.71,1.008-2.646,1.6L45.414-8.46a33.093,33.093,0,0,1,4.806-2.988l-.072-2.016a22.323,22.323,0,0,1-4.752.342,23.608,23.608,0,0,1-5.4-.45Zm1.332,4.068c-1.62,1.35-2.322,2.538-2.322,3.906a3.093,3.093,0,0,0,2.3,3.006,12.876,12.876,0,0,0,4.5.594,30.8,30.8,0,0,0,4.86-.4A7.157,7.157,0,0,1,51.3-.324L51.1-2.79a19.2,19.2,0,0,1-5.652.756c-3.042,0-4.356-.5-4.356-1.674,0-.774.5-1.53,1.638-2.466Zm14.67-2.754h.144c.144,0,.324,0,.576.018.954.072,1.764.108,2.718.126a40.757,40.757,0,0,1-1.512,4,12.1,12.1,0,0,1-.846,1.62l2.178.756a3.052,3.052,0,0,1,1.314-1.044,9.1,9.1,0,0,1,3.87-.882c1.944,0,3.024.612,3.024,1.728,0,1.44-1.692,2.358-4.3,2.358A13.7,13.7,0,0,1,58.356-2.3a10.245,10.245,0,0,1,.18,2.286,16.444,16.444,0,0,0,4.59.63c3.942,0,6.516-1.728,6.516-4.392,0-2.286-1.89-3.654-5.058-3.654a8.372,8.372,0,0,0-4.536,1.17V-6.3A23.935,23.935,0,0,0,61.47-9.954c2.25-.054,3.834-.18,6.444-.468.468-.054.63-.072,1.044-.09L68.85-12.69a12.279,12.279,0,0,1-2.3.414c-1.188.144-3.222.288-4.59.324.108-.342.108-.342.432-1.692a10.06,10.06,0,0,1,.288-1.044l-2.412-.2a15.443,15.443,0,0,1-.5,2.97,16.557,16.557,0,0,1-3.888-.306Zm21.33-2.754a32.58,32.58,0,0,0,7.02,2.25l.738-2.07a27,27,0,0,1-6.714-2Zm-1.44,1.584a7.344,7.344,0,0,1-.108,1.044C75.294-8.118,75.006-6.12,74.862-5c-.09.684-.09.756-.144,1.08l2.268.072a3.918,3.918,0,0,1,.81-.774A8.192,8.192,0,0,1,82.278-5.94c1.908,0,3.042.72,3.042,1.926,0,1.53-1.764,2.592-4.3,2.592a14.531,14.531,0,0,1-4.842-.9A7.988,7.988,0,0,1,76.446,0a16.551,16.551,0,0,0,4.59.63A7.776,7.776,0,0,0,85.788-.594a4.383,4.383,0,0,0,1.854-3.474c0-2.3-2.016-3.816-5.076-3.816a8.531,8.531,0,0,0-5.454,1.71l-.036-.036c.054-.27.054-.27.09-.522a38.089,38.089,0,0,1,.81-4.428Z" transform="translate(-235 2403)" fill="#fff"/>
    <g id="グループ_6808" data-name="グループ 6808" transform="matrix(0.985, -0.174, 0.174, 0.985, -256.363, 2331.813)">
      <g id="グループ_6764" data-name="グループ 6764" transform="translate(0.287 -0.219)">
        <g id="グループ_6763" data-name="グループ 6763" clip-path="url(#clip-path)">
          <path id="パス_9496" data-name="パス 9496" d="M41.257,88.831a2.237,2.237,0,0,0,1.714-.8l12.8-15.253a7.458,7.458,0,0,0,1.745-4.794v-24a2.983,2.983,0,0,0-4.9-2.285L41.257,51.228,29.9,41.7A2.983,2.983,0,0,0,25,43.983v24a7.458,7.458,0,0,0,1.745,4.794l12.8,15.253a2.237,2.237,0,0,0,1.714.8" transform="translate(-24.187 -39.051)" fill="#f9dd00" fill-rule="evenodd"/>
        </g>
      </g>
      <g id="グループ_6766" data-name="グループ 6766" transform="translate(1.101 1.73)">
        <g id="グループ_6765" data-name="グループ 6765" clip-path="url(#clip-path-2)">
          <rect id="長方形_3888" data-name="長方形 3888" width="18" height="52" transform="translate(16.078 -2.085)" fill="#5fc1aa"/>
        </g>
      </g>
      <g id="グループ_6768" data-name="グループ 6768" transform="translate(0.287 -0.219)">
        <g id="グループ_6767" data-name="グループ 6767" clip-path="url(#clip-path-3)">
          <path id="パス_9498" data-name="パス 9498" d="M17.327,66.022a3.3,3.3,0,0,1-2.533-1.181L1.995,49.588A8.541,8.541,0,0,1,0,44.107v-24A4.053,4.053,0,0,1,6.657,17l10.669,8.953L28,17a4.053,4.053,0,0,1,6.657,3.1v24a8.541,8.541,0,0,1-1.995,5.481L19.86,64.841a3.3,3.3,0,0,1-2.533,1.181M4.05,18.193a1.91,1.91,0,0,0-1.911,1.912v24a6.4,6.4,0,0,0,1.494,4.106l12.8,15.253a1.168,1.168,0,0,0,1.789,0l12.8-15.253a6.4,6.4,0,0,0,1.494-4.106v-24a1.913,1.913,0,0,0-3.143-1.466L18.014,28.169a1.07,1.07,0,0,1-1.375,0L5.282,18.64a1.918,1.918,0,0,0-1.232-.447" transform="translate(-0.256 -15.173)" fill="#fff"/>
        </g>
      </g>
    </g>
    <path id="パス_11669" data-name="パス 11669" d="M-41.515.07a3.113,3.113,0,0,1-1.26-.245,2.068,2.068,0,0,1-.88-.7,1.765,1.765,0,0,1-.32-1.05h1.22a1.1,1.1,0,0,0,.355.74,1.258,1.258,0,0,0,.885.29,1.363,1.363,0,0,0,.92-.285.926.926,0,0,0,.33-.735.8.8,0,0,0-.205-.57,1.371,1.371,0,0,0-.51-.34,7.691,7.691,0,0,0-.845-.26,7.917,7.917,0,0,1-1.1-.365,1.826,1.826,0,0,1-.725-.575,1.662,1.662,0,0,1-.3-1.04,1.848,1.848,0,0,1,.3-1.05,1.916,1.916,0,0,1,.84-.69,3.052,3.052,0,0,1,1.25-.24,2.6,2.6,0,0,1,1.655.5,1.863,1.863,0,0,1,.715,1.385h-1.26a.913.913,0,0,0-.36-.65,1.331,1.331,0,0,0-.87-.27,1.234,1.234,0,0,0-.8.25.871.871,0,0,0-.31.72.731.731,0,0,0,.2.525,1.377,1.377,0,0,0,.495.325,7.685,7.685,0,0,0,.82.26,8.561,8.561,0,0,1,1.125.38,1.873,1.873,0,0,1,.74.585,1.681,1.681,0,0,1,.305,1.055,1.9,1.9,0,0,1-.285,1,2.056,2.056,0,0,1-.83.755A2.737,2.737,0,0,1-41.515.07Zm9.8-7.02V0h-1.14V-3.04h-3.27V0h-1.14V-6.95h1.14v2.98h3.27V-6.95Zm5.17,7.02A3.6,3.6,0,0,1-28.33-.385a3.372,3.372,0,0,1-1.29-1.27,3.576,3.576,0,0,1-.475-1.835,3.55,3.55,0,0,1,.475-1.83,3.382,3.382,0,0,1,1.29-1.265,3.6,3.6,0,0,1,1.785-.455,3.62,3.62,0,0,1,1.8.455A3.346,3.346,0,0,1-23.465-5.32,3.579,3.579,0,0,1-23-3.49a3.606,3.606,0,0,1-.47,1.835A3.336,3.336,0,0,1-24.75-.385,3.62,3.62,0,0,1-26.545.07Zm0-.99a2.4,2.4,0,0,0,1.23-.315,2.184,2.184,0,0,0,.845-.9,2.89,2.89,0,0,0,.305-1.355,2.86,2.86,0,0,0-.305-1.35,2.158,2.158,0,0,0-.845-.89,2.426,2.426,0,0,0-1.23-.31,2.426,2.426,0,0,0-1.23.31,2.158,2.158,0,0,0-.845.89,2.86,2.86,0,0,0-.3,1.35,2.89,2.89,0,0,0,.3,1.355,2.184,2.184,0,0,0,.845.9A2.4,2.4,0,0,0-26.545-.92Zm10.03-3.96a2.1,2.1,0,0,1-.25,1,1.874,1.874,0,0,1-.8.765,2.969,2.969,0,0,1-1.41.3h-1.26V0h-1.14V-6.95h2.4a3.03,3.03,0,0,1,1.355.275,1.912,1.912,0,0,1,.83.745A2.04,2.04,0,0,1-16.515-4.88Zm-2.46,1.13a1.39,1.39,0,0,0,.97-.3,1.079,1.079,0,0,0,.32-.835q0-1.14-1.29-1.14h-1.26v2.27Zm8.91-1.13a2.1,2.1,0,0,1-.25,1,1.874,1.874,0,0,1-.8.765,2.969,2.969,0,0,1-1.41.3h-1.26V0h-1.14V-6.95h2.4a3.03,3.03,0,0,1,1.355.275,1.912,1.912,0,0,1,.83.745A2.04,2.04,0,0,1-10.065-4.88Zm-2.46,1.13a1.39,1.39,0,0,0,.97-.3,1.079,1.079,0,0,0,.32-.835q0-1.14-1.29-1.14h-1.26v2.27Zm5.19-3.2V0h-1.14V-6.95ZM.375,0H-.765l-3.43-5.19V0h-1.14V-6.96h1.14l3.43,5.18V-6.96H.375Zm7.03-4.95a1.837,1.837,0,0,0-.75-.785A2.259,2.259,0,0,0,5.545-6a2.426,2.426,0,0,0-1.23.31,2.172,2.172,0,0,0-.845.88,2.756,2.756,0,0,0-.3,1.32,2.785,2.785,0,0,0,.3,1.325,2.165,2.165,0,0,0,.845.885,2.426,2.426,0,0,0,1.23.31,2.176,2.176,0,0,0,1.51-.52,2.26,2.26,0,0,0,.71-1.41H5.155v-.91h3.83v.89A3.421,3.421,0,0,1,8.41-1.43,3.421,3.421,0,0,1,7.2-.345,3.408,3.408,0,0,1,5.545.06,3.592,3.592,0,0,1,3.755-.4,3.392,3.392,0,0,1,2.47-1.66,3.55,3.55,0,0,1,2-3.49,3.55,3.55,0,0,1,2.47-5.32,3.382,3.382,0,0,1,3.76-6.585,3.6,3.6,0,0,1,5.545-7.04a3.626,3.626,0,0,1,1.975.545A3.1,3.1,0,0,1,8.775-4.95Zm11.33,0a1.837,1.837,0,0,0-.75-.785A2.259,2.259,0,0,0,16.875-6a2.426,2.426,0,0,0-1.23.31,2.172,2.172,0,0,0-.845.88,2.756,2.756,0,0,0-.305,1.32A2.785,2.785,0,0,0,14.8-2.165a2.165,2.165,0,0,0,.845.885,2.426,2.426,0,0,0,1.23.31,2.176,2.176,0,0,0,1.51-.52,2.26,2.26,0,0,0,.71-1.41h-2.61v-.91h3.83v.89a3.421,3.421,0,0,1-.575,1.49A3.421,3.421,0,0,1,18.53-.345,3.408,3.408,0,0,1,16.875.06,3.592,3.592,0,0,1,15.085-.4,3.392,3.392,0,0,1,13.8-1.66a3.55,3.55,0,0,1-.475-1.83A3.55,3.55,0,0,1,13.8-5.32a3.382,3.382,0,0,1,1.29-1.265,3.6,3.6,0,0,1,1.785-.455,3.626,3.626,0,0,1,1.975.545A3.1,3.1,0,0,1,20.1-4.95Zm4.33-2v4.43a1.58,1.58,0,0,0,.415,1.19,1.6,1.6,0,0,0,1.155.4,1.61,1.61,0,0,0,1.165-.4,1.58,1.58,0,0,0,.415-1.19V-6.95h1.14v4.41a2.658,2.658,0,0,1-.37,1.44,2.3,2.3,0,0,1-.99.88,3.193,3.193,0,0,1-1.37.29A3.16,3.16,0,0,1,23.26-.22a2.241,2.241,0,0,1-.975-.88,2.715,2.715,0,0,1-.36-1.44V-6.95Zm7.41,0V0h-1.14V-6.95Zm4.27,0a4.233,4.233,0,0,1,1.945.425A3.041,3.041,0,0,1,37.98-5.3a3.67,3.67,0,0,1,.455,1.855,3.587,3.587,0,0,1-.455,1.84,3,3,0,0,1-1.29,1.2A4.318,4.318,0,0,1,34.745,0h-2.27V-6.95Zm0,6.02a2.508,2.508,0,0,0,1.87-.66,2.538,2.538,0,0,0,.65-1.86,2.624,2.624,0,0,0-.65-1.89,2.466,2.466,0,0,0-1.87-.68h-1.13V-.93Zm6.46-5.1v2.04h2.4v.93h-2.4V-.93h2.7V0h-3.84V-6.96h3.84v.93Z" transform="translate(-234 2418)" fill="#fff" opacity="0.3"/>
    <g id="グループ_7108" data-name="グループ 7108" transform="translate(-183 2330.946)">
      <g id="グループ_7107" data-name="グループ 7107" clip-path="url(#clip-path-4)">
        <g id="グループ_7106" data-name="グループ 7106">
          <g id="グループ_7105" data-name="グループ 7105" clip-path="url(#clip-path-5)">
            <g id="グループ_7104" data-name="グループ 7104" opacity="0.2" style="mix-blend-mode: multiply;isolation: isolate">
              <g id="グループ_7103" data-name="グループ 7103">
                <g id="グループ_7102" data-name="グループ 7102" clip-path="url(#clip-path-6)">
                  <path id="パス_10598" data-name="パス 10598" d="M26.993,2.1C14.227,1,3.07,9.541,2.072,21.172a20.611,20.611,0,0,0,8.25,17.994L4.654,46.109l9.265-4.632a25.009,25.009,0,0,0,9.46,2.738C36.144,45.311,47.3,36.77,48.3,25.139S39.759,3.19,26.993,2.1"/>
                </g>
              </g>
            </g>
            <path id="パス_10599" data-name="パス 10599" d="M24.993.095C12.227-1,1.07,7.541.072,19.172a20.611,20.611,0,0,0,8.25,17.994L2.654,44.109l9.265-4.632a25.009,25.009,0,0,0,9.46,2.738C34.144,43.311,45.3,34.77,46.3,23.139S37.759,1.19,24.993.095" fill="#fff"/>
            <path id="パス_10600" data-name="パス 10600" d="M13.877,13.876l.171-1.182.484.071c.184.026,1.351.087,1.473-.756.117-.8-.745-.928-1.036-.97-.745-.107-1.284-.067-1.425.773l-1.811-.262c.476-1.789,1.845-2.234,3.519-1.991,1.811.261,2.727,1.243,2.547,2.482a1.646,1.646,0,0,1-1.419,1.476,1.825,1.825,0,0,1,1.112,2.018c-.249,1.723-1.894,2.3-3.636,2.043-1.665-.24-2.937-1.215-2.786-3.219l1.82.263a1.234,1.234,0,0,0,1.195,1.507c.184.026,1.437.179,1.589-.877.09-.619-.277-1.156-1.226-1.294Z" fill="#5fc1aa"/>
            <path id="パス_10601" data-name="パス 10601" d="M20.477,14.7l.13-.9a8.137,8.137,0,0,1-1.4.893,2.743,2.743,0,0,0-.941-1.282,8.047,8.047,0,0,0,3.454-2.97l1.156,1.027a.182.182,0,0,1,.074.168c-.011.078-.15.078-.266.071a11.919,11.919,0,0,1-1.564,1.651l4.181.605a6.292,6.292,0,0,1-.794-1.884l-1.23-.178.195-1.345,2.43.351a4.332,4.332,0,0,0,2.06,3.728,3.14,3.14,0,0,0-1.083,1.127,4.553,4.553,0,0,1-.923-.924c-.738,4.421-1.053,4.819-3.28,4.5a2.841,2.841,0,0,1-.315-.066,3.441,3.441,0,0,0-.189-1.568,7.364,7.364,0,0,0,.907.221c.339.048.552.079.712-.2a8.347,8.347,0,0,0,.591-2.455l-1.355-.2a4.984,4.984,0,0,1-4.029,3.806,3.129,3.129,0,0,0-.826-1.4c2.594-.376,3.147-1.541,3.422-2.618Z" fill="#5fc1aa"/>
            <path id="パス_10602" data-name="パス 10602" d="M37.281,14.254c-2.385-.384-4.768,1.465-4.994,3.034-.163,1.123,1.181,1.881,2.493,2.1a13.263,13.263,0,0,0-.98,1.656c-.754-.326-3.42-1.5-3.086-3.815a4.448,4.448,0,0,1,2.264-3.073,26.78,26.78,0,0,0-4.1.03l.041-1.851a31.848,31.848,0,0,0,4.34.4,23.38,23.38,0,0,0,3.983-.145Zm-1.8,1.143a6.094,6.094,0,0,1,.751,1.166c-.3.154-.451.241-.83.473a7.8,7.8,0,0,0-.7-1.218Zm1.116-.54A6.158,6.158,0,0,1,37.306,16c-.268.149-.454.27-.794.5a7.235,7.235,0,0,0-.7-1.219Z" fill="#5fc1aa"/>
            <path id="パス_10603" data-name="パス 10603" d="M12.986,23.213a1.9,1.9,0,0,0-.4.427,3.614,3.614,0,0,1,2.027-.281,2.676,2.676,0,0,1,2.341,3.225c-.434,3-3.469,3.007-4.151,3.007a4.128,4.128,0,0,0-.561-1.514c1.064.084,2.961.023,3.2-1.623A1.433,1.433,0,0,0,14.2,24.742a4.109,4.109,0,0,0-2.523.713l-.6,4.162L9.477,29.5c.281-1.194.48-2.362.533-2.66-.338.356-.943.99-1.023,1.057l-.946-1.244a13.653,13.653,0,0,0,2.341-2.25l.041-.281a11.109,11.109,0,0,1-1.547.3l-.017-1.653a10.105,10.105,0,0,0,1.815-.044c.044-.31.193-1.672.233-1.953l1.458.3c.183.036.288.062.27.188-.015.106-.1.1-.233.1-.151.573-.2.813-.239,1.043.062-.02.094-.035.217-.067Z" fill="#5fc1aa"/>
            <path id="パス_10604" data-name="パス 10604" d="M23.216,23.061c.1.045.186.086.173.173-.02.136-.226.126-.283.117-.241.638-.335.881-.44,1.123.833.12,2.213.35,1.874,2.693a6.546,6.546,0,0,1-1.486,3.44,1.677,1.677,0,0,1-1.531.472,5.358,5.358,0,0,1-1.01-.255,3.094,3.094,0,0,0,.081-.355,7.4,7.4,0,0,0,.042-1.318,1.627,1.627,0,0,0,.812.335.739.739,0,0,0,.6-.1A4.291,4.291,0,0,0,23.057,26.9c.144-1-.562-1.039-.982-1.07a14.8,14.8,0,0,1-3.2,4.755,6.889,6.889,0,0,0-1.312-.97,11.729,11.729,0,0,0,2.889-3.723,10.206,10.206,0,0,0-1.61.271l-.307-1.636c.408-.02,2.184-.129,2.55-.135a15.1,15.1,0,0,0,.607-2.077Zm2.541.882a6.885,6.885,0,0,1,1.227,3.824,1,1,0,0,1-.836.926,3.816,3.816,0,0,1-1.012.16,7.77,7.77,0,0,0-.374-1.378c.27-.02.641-.046.685-.356a3.908,3.908,0,0,0-.312-1.4,7.354,7.354,0,0,0-.668-1.194Z" fill="#5fc1aa"/>
            <path id="パス_10605" data-name="パス 10605" d="M35.042,25.413a24.151,24.151,0,0,0-2.684,1.816,5.284,5.284,0,0,1,1.183.023,2.537,2.537,0,0,1,2.3,2.932c-.307,2.129-2.464,2.767-4.139,2.525-1.249-.181-2.388-.85-2.218-2.021a1.723,1.723,0,0,1,2.121-1.274,2.094,2.094,0,0,1,1.876,1.723,1.29,1.29,0,0,0,.8-1.05,1.407,1.407,0,0,0-1.373-1.641c-1.637-.237-2.7.587-4.253,1.8l-1-1.3a25.863,25.863,0,0,0,4.464-3.2A20.5,20.5,0,0,1,29.5,25.71l-.012-1.554a15.676,15.676,0,0,0,4.928.09Zm-3.726,5.193c-.328-.047-.434.125-.458.29-.053.368.469.592.8.639a1.638,1.638,0,0,0,.5-.007.963.963,0,0,0-.836-.922" fill="#5fc1aa"/>
          </g>
        </g>
      </g>
    </g>
  </g>
</svg>
