<svg id="グループ_6868" data-name="グループ 6868" xmlns="http://www.w3.org/2000/svg" xmlns:xlink="http://www.w3.org/1999/xlink" width="82.369" height="40" viewBox="0 0 82.369 40">
  <defs>
    <clipPath id="clip-path">
      <rect id="長方形_5055" data-name="長方形 5055" width="82.369" height="40" fill="#fff"/>
    </clipPath>
  </defs>
  <g id="グループ_6867" data-name="グループ 6867" transform="translate(0 0)" clip-path="url(#clip-path)">
    <path id="パス_9571" data-name="パス 9571" d="M56.467,33.1H39.526a.764.764,0,0,1-.741-.574,6.324,6.324,0,0,0-12.248,0,.764.764,0,0,1-.74.574h-5a.764.764,0,0,1,0-1.529h4.43a7.852,7.852,0,0,1,14.865,0H55.7V1.529H20.8A.764.764,0,0,1,20.8,0H56.467a.764.764,0,0,1,.764.765V32.34a.764.764,0,0,1-.764.764" transform="translate(2.112 0)" fill="#fff"/>
    <path id="パス_9572" data-name="パス 9572" d="M75.861,32.62H72.785a.765.765,0,0,1-.74-.574,6.322,6.322,0,0,0-12.245,0,.765.765,0,0,1-.741.574H55.249a.764.764,0,0,1-.764-.765V5.353a.764.764,0,0,1,.764-.765h12.13a.763.763,0,0,1,.627.328L76.489,17.1a.768.768,0,0,1,.137.437V31.855a.765.765,0,0,1-.765.765m-2.507-1.529H75.1V17.78L66.979,6.117H56.014V31.091h2.478a7.85,7.85,0,0,1,14.862,0M72.173,19.462h-.006l-13.234-.094a.765.765,0,0,1-.759-.764V9.042a.764.764,0,0,1,.765-.764h6.511a.768.768,0,0,1,.628.327L72.8,18.262a.764.764,0,0,1-.628,1.2M59.7,17.845l11,.078L65.05,9.807H59.7Z" transform="translate(5.743 0.484)" fill="#fff"/>
    <path id="パス_9573" data-name="パス 9573" d="M32.019,37.31a5.894,5.894,0,1,1,5.894-5.894,5.9,5.9,0,0,1-5.894,5.894m0-10.259a4.365,4.365,0,1,0,4.365,4.365,4.369,4.369,0,0,0-4.365-4.365" transform="translate(2.754 2.69)" fill="#fff"/>
    <path id="パス_9574" data-name="パス 9574" d="M65.395,37.31a5.894,5.894,0,1,1,5.894-5.894,5.9,5.9,0,0,1-5.894,5.894m0-10.259a4.365,4.365,0,1,0,4.365,4.365,4.369,4.369,0,0,0-4.365-4.365" transform="translate(6.271 2.69)" fill="#fff"/>
    <path id="パス_9575" data-name="パス 9575" d="M24.884,30.093H15.2a.764.764,0,0,1,0-1.529h9.683a.764.764,0,0,1,0,1.529" transform="translate(1.522 3.011)" fill="#fff"/>
    <path id="パス_9576" data-name="パス 9576" d="M22.909,1.529H.764A.764.764,0,0,1,.764,0H22.909a.764.764,0,0,1,0,1.529" transform="translate(0 0)" fill="#fff"/>
    <path id="パス_9577" data-name="パス 9577" d="M22.657,6.29H3.17a.764.764,0,0,1,0-1.529H22.657a.764.764,0,0,1,0,1.529" transform="translate(0.254 0.502)" fill="#fff"/>
    <path id="パス_9578" data-name="パス 9578" d="M22.4,11.05H5.575a.764.764,0,0,1,0-1.529H22.4a.764.764,0,0,1,0,1.529" transform="translate(0.507 1.004)" fill="#fff"/>
    <path id="パス_9579" data-name="パス 9579" d="M22.15,15.81H7.984a.764.764,0,1,1,0-1.529H22.15a.764.764,0,0,1,0,1.529" transform="translate(0.761 1.505)" fill="#fff"/>
    <path id="パス_9580" data-name="パス 9580" d="M21.9,20.57H10.389a.764.764,0,1,1,0-1.529H21.9a.764.764,0,0,1,0,1.529" transform="translate(1.014 2.007)" fill="#fff"/>
    <path id="パス_9581" data-name="パス 9581" d="M21.642,25.334H12.8a.764.764,0,0,1,0-1.529h8.845a.764.764,0,0,1,0,1.529" transform="translate(1.268 2.509)" fill="#fff"/>
    <path id="パス_9582" data-name="パス 9582" d="M21.389,30.094H15.2a.764.764,0,1,1,0-1.529h6.187a.764.764,0,0,1,0,1.529" transform="translate(1.522 3.011)" fill="#fff"/>
  </g>
</svg>
