<svg xmlns="http://www.w3.org/2000/svg" xmlns:xlink="http://www.w3.org/1999/xlink" width="230" height="120" viewBox="0 0 230 120">
  <defs>
    <clipPath id="clip-path">
      <rect id="長方形_5057" data-name="長方形 5057" width="50.774" height="40" fill="#fff"/>
    </clipPath>
  </defs>
  <g id="グループ_7250" data-name="グループ 7250" transform="translate(349 -2454)">
    <g id="長方形_3890" data-name="長方形 3890" transform="translate(-349 2454)" fill="#5fc1aa" stroke="rgba(255,255,255,0.3)" stroke-width="3">
      <rect width="230" height="120" rx="10" stroke="none"/>
      <rect x="1.5" y="1.5" width="227" height="117" rx="8.5" fill="none"/>
    </g>
    <path id="パス_11670" data-name="パス 11670" d="M7.434-5.508A11.521,11.521,0,0,1,10.89-6.1c1.926,0,3.186,1.008,3.186,2.556a1.85,1.85,0,0,1-1.818,2,1.245,1.245,0,0,1-1.134-.612,3.468,3.468,0,0,1-.252-1.584,6.241,6.241,0,0,1,.036-.792,7.593,7.593,0,0,1-2,.792,6.013,6.013,0,0,0,.306,2.3,2.906,2.906,0,0,0,2.952,2,4,4,0,0,0,4.086-4.1c0-2.556-2.142-4.392-5.148-4.392a12.482,12.482,0,0,0-3.672.5v-2.34c.684-.072,1.044-.126,1.638-.234,1.242-.216,1.584-.27,1.908-.324l-.072-2.016a20.075,20.075,0,0,1-3.474.684v-1.152a11.051,11.051,0,0,1,.108-1.962H5.292a12.333,12.333,0,0,1,.108,2.07v1.188c-.2,0-.288,0-.72.018-.252.018-.45.018-.63.018a11.039,11.039,0,0,1-2.178-.162L1.89-9.63a3.375,3.375,0,0,1,.378-.018c.054,0,.216,0,.45.018.216,0,.72.018.99.018.45,0,.7,0,.972-.018.594-.036.594-.036.738-.036l.018,2.772a9.63,9.63,0,0,0-2.628,1.53A3.842,3.842,0,0,0,1.26-2.7,2.644,2.644,0,0,0,2.25-.666,5.607,5.607,0,0,0,5.652.612,1.582,1.582,0,0,0,7.308-.432a5.36,5.36,0,0,0,.144-1.53ZM5.418-2.232c0,.594-.09.756-.4.756a2.164,2.164,0,0,1-1.152-.4c-.414-.252-.594-.522-.594-.828,0-.648.792-1.44,2.142-2.16Zm11.628-7.6a15.267,15.267,0,0,0-3.564-3.69L11.79-12.384A15.371,15.371,0,0,1,15.39-8.5Zm13.41-2.952v2.826c0,1.08.4,1.3,2.43,1.3,1.512,0,2.232-.2,2.52-.684a6.262,6.262,0,0,0,.45-2.5,6.278,6.278,0,0,1-1.764-.666c-.054,2.034-.072,2.106-1.026,2.106-.54,0-.666-.072-.666-.36V-13.32a10.811,10.811,0,0,1,.054-1.278,12.35,12.35,0,0,1-1.332.054H27.63c-.666,0-.954-.018-1.4-.054a6.331,6.331,0,0,1,.054.81,4.542,4.542,0,0,1-1.44,3.852l-1.566-1.17a6.633,6.633,0,0,1-.792,1.314,13.5,13.5,0,0,1-3.51,3.564,5.636,5.636,0,0,1,.846,1.98,8.2,8.2,0,0,0,1.44-1.35v.468c-.018.252-.018.45-.018.5V-.792a18.231,18.231,0,0,1-.108,2.268h2.16a16.648,16.648,0,0,1-.126-2.268V-7.506a3.813,3.813,0,0,1,.432-.576c.2-.252.468-.612.81-1.116a5.275,5.275,0,0,1,1.17,1.35A5.966,5.966,0,0,0,27.234-9.5a5.993,5.993,0,0,0,.954-3.276Zm3.132,5.094a5.053,5.053,0,0,1-1.26.09h-6.66a8.367,8.367,0,0,1-1.476-.09v1.944a9.527,9.527,0,0,1,1.242-.072A13.484,13.484,0,0,0,27.864-2.2,14.392,14.392,0,0,1,23.508-.468,5.484,5.484,0,0,1,24.48,1.44a16.756,16.756,0,0,0,5-2.3,14.935,14.935,0,0,0,5.472,2.322A7.308,7.308,0,0,1,35.8-.612,14.183,14.183,0,0,1,31.14-2.16a16.676,16.676,0,0,0,2.592-3.132,14.826,14.826,0,0,1,.846-1.26ZM31.734-5.814a10.992,10.992,0,0,1-2.25,2.484,8.978,8.978,0,0,1-2.052-2.484Zm-8.55-9.414a4.088,4.088,0,0,1-.7.918,11.516,11.516,0,0,1-3.258,2.556A5.219,5.219,0,0,1,20.34-10.08a15.412,15.412,0,0,0,4-3.438l.486-.54Zm21.744,2.79h-4.1a14.833,14.833,0,0,1-2.268-.126v2.16a19.475,19.475,0,0,1,2.268-.108H51.282A20.284,20.284,0,0,1,53.6-10.4v-2.16a15.794,15.794,0,0,1-2.322.126H46.944v-1.224a6.725,6.725,0,0,1,.126-1.386H44.8a7.276,7.276,0,0,1,.126,1.4Zm-4.68,11.07a20.63,20.63,0,0,1-2.34-.108V.684a16.564,16.564,0,0,1,2.34-.126H51.984A16.068,16.068,0,0,1,54.27.684v-2.16a20.034,20.034,0,0,1-2.286.108h-3.24a54.42,54.42,0,0,0,2.3-6.228,9.6,9.6,0,0,1,.612-1.728L49.338-9.99a37.92,37.92,0,0,1-2.7,8.622Zm.414-7.776a36.179,36.179,0,0,1,1.98,7.038l2.016-.72a55.583,55.583,0,0,0-2.052-7Zm16.794-.972H57.6c.144,0,.324,0,.576.018.954.072,1.764.108,2.718.126a40.756,40.756,0,0,1-1.512,4,12.1,12.1,0,0,1-.846,1.62l2.178.756a3.053,3.053,0,0,1,1.314-1.044,9.1,9.1,0,0,1,3.87-.882c1.944,0,3.024.612,3.024,1.728,0,1.44-1.692,2.358-4.3,2.358A13.7,13.7,0,0,1,59.976-2.3a10.245,10.245,0,0,1,.18,2.286,16.444,16.444,0,0,0,4.59.63c3.942,0,6.516-1.728,6.516-4.392,0-2.286-1.89-3.654-5.058-3.654a8.372,8.372,0,0,0-4.536,1.17V-6.3A23.935,23.935,0,0,0,63.09-9.954c2.25-.054,3.834-.18,6.444-.468.468-.054.63-.072,1.044-.09L70.47-12.69a12.28,12.28,0,0,1-2.3.414c-1.188.144-3.222.288-4.59.324.108-.342.108-.342.432-1.692a10.058,10.058,0,0,1,.288-1.044l-2.412-.2a15.443,15.443,0,0,1-.5,2.97,16.557,16.557,0,0,1-3.888-.306ZM87.1-.882v1.1h2.412a11.872,11.872,0,0,1-.09-1.854V-11.52a10.92,10.92,0,0,1,.054-1.494c-.63.036-.63.036-1.566.036H79.254a12.1,12.1,0,0,1-2.322-.126v2.34a17.614,17.614,0,0,1,2.3-.09H87.12v7.848H78.93a11.572,11.572,0,0,1-2.25-.126V-.81a20.121,20.121,0,0,1,2.214-.072Zm9.234-11.052a13.842,13.842,0,0,1,2.07-.09h6.354a13.842,13.842,0,0,1,2.07.09v-2.214a10.242,10.242,0,0,1-2.106.126H98.442a10.242,10.242,0,0,1-2.106-.126Zm11.412,2.088a7.873,7.873,0,0,1-2.034.162H97.146a12.776,12.776,0,0,1-2.34-.126v2.2a18.311,18.311,0,0,1,2.3-.09h8.766a9.365,9.365,0,0,1-2.9,4.212,11.689,11.689,0,0,1-5,2.376,6.272,6.272,0,0,1,1.4,2.088,16.018,16.018,0,0,0,4.716-2.448A12.728,12.728,0,0,0,108.27-7.56a8.115,8.115,0,0,1,.5-1.134Zm9.63-4.752a28.468,28.468,0,0,1-1.314,4.986c-.936,2.952-1.656,4.986-2.61,7.254-.756.036-1.188.054-1.548.054h-.468l.324,2.43A9.846,9.846,0,0,1,113.4-.09c5.382-.522,8.37-.9,10.188-1.278.414-.09.414-.09.648-.144A18.432,18.432,0,0,1,125.1.72l2.178-1.134a42.1,42.1,0,0,0-4.356-8.334l-2.034.792a22.348,22.348,0,0,1,1.71,2.862c.432.81.648,1.206.846,1.638a71.138,71.138,0,0,1-7.488.918A106.908,106.908,0,0,0,119.52-12.8a5.509,5.509,0,0,1,.468-1.3Z" transform="translate(-298 2538)" fill="#fff"/>
    <g id="グループ_6872" data-name="グループ 6872" transform="translate(-259 2472.859)">
      <g id="グループ_6871" data-name="グループ 6871" transform="translate(0 0)" clip-path="url(#clip-path)">
        <path id="パス_9596" data-name="パス 9596" d="M30.375,34.778A3.169,3.169,0,0,1,29,34.461a10.112,10.112,0,0,1-2.93-2.5,10.98,10.98,0,0,0-4.647-3.468A51.122,51.122,0,0,0,9.529,26.3C6.923,26.115,0,25.632,0,17.389S6.923,8.662,9.529,8.48a51.184,51.184,0,0,0,11.894-2.2A10.976,10.976,0,0,0,26.07,2.817,10.1,10.1,0,0,1,29,.316a3.162,3.162,0,0,1,4.535,2.848V31.613a3.167,3.167,0,0,1-3.16,3.165M29.432,1.214h0a9.259,9.259,0,0,0-2.627,2.275,11.945,11.945,0,0,1-5.058,3.738A52.27,52.27,0,0,1,9.6,9.474c-4,.28-8.6,1.431-8.6,7.915s4.6,7.635,8.6,7.915a52.205,52.205,0,0,1,12.149,2.247A11.942,11.942,0,0,1,26.8,31.288a9.263,9.263,0,0,0,2.628,2.276,2.166,2.166,0,0,0,3.106-1.952V3.165a2.166,2.166,0,0,0-3.106-1.951" transform="translate(0 0)" fill="#fff"/>
        <path id="パス_9597" data-name="パス 9597" d="M17.331,49.51h-5.01a.5.5,0,0,1-.379-.176c-1.661-1.952-4.45-8.323-5.15-14.733a.5.5,0,1,1,.99-.108c.678,6.215,3.348,12.161,4.777,14.02h3.965c-1.45-3.148-2.593-8.747-3.072-12.914a.5.5,0,0,1,.99-.114c.612,5.322,2.011,10.908,3.327,13.285a.5.5,0,0,1-.436.739" transform="translate(-1.896 -9.51)" fill="#fff"/>
        <path id="パス_9598" data-name="パス 9598" d="M64.979,24.434H53.139a.5.5,0,0,1,0-1h11.84a.5.5,0,0,1,0,1" transform="translate(-14.703 -6.546)" fill="#fff"/>
        <path id="パス_9599" data-name="パス 9599" d="M53.139,13.626a.5.5,0,0,1-.25-.93l10.253-5.92a.5.5,0,1,1,.5.863l-10.254,5.92a.5.5,0,0,1-.248.067" transform="translate(-14.703 -1.874)" fill="#fff"/>
        <path id="パス_9600" data-name="パス 9600" d="M63.392,38.865a.494.494,0,0,1-.249-.067l-10.254-5.92a.5.5,0,1,1,.5-.863l10.253,5.92a.5.5,0,0,1-.249.93" transform="translate(-14.703 -8.923)" fill="#fff"/>
        <path id="パス_9601" data-name="パス 9601" d="M29.758,30.945a.5.5,0,0,1-.5-.5V9.181a.5.5,0,1,1,1,0V30.447a.5.5,0,0,1-.5.5" transform="translate(-8.172 -2.425)" fill="#fff"/>
      </g>
    </g>
    <path id="パス_11671" data-name="パス 11671" d="M-22.35-3.49a3.55,3.55,0,0,1,.475-1.83,3.382,3.382,0,0,1,1.29-1.265A3.6,3.6,0,0,1-18.8-7.04a3.626,3.626,0,0,1,1.975.545A3.1,3.1,0,0,1-15.57-4.95h-1.37a1.837,1.837,0,0,0-.75-.82,2.226,2.226,0,0,0-1.11-.27,2.426,2.426,0,0,0-1.23.31,2.158,2.158,0,0,0-.845.89,2.86,2.86,0,0,0-.305,1.35,2.86,2.86,0,0,0,.305,1.35,2.191,2.191,0,0,0,.845.9A2.4,2.4,0,0,0-18.8-.93a2.226,2.226,0,0,0,1.11-.27,1.837,1.837,0,0,0,.75-.82h1.37A3.077,3.077,0,0,1-16.825-.48,3.651,3.651,0,0,1-18.8.06,3.592,3.592,0,0,1-20.59-.4,3.392,3.392,0,0,1-21.875-1.66,3.55,3.55,0,0,1-22.35-3.49ZM-10.57.07a3.6,3.6,0,0,1-1.785-.455,3.371,3.371,0,0,1-1.29-1.27A3.576,3.576,0,0,1-14.12-3.49a3.55,3.55,0,0,1,.475-1.83,3.382,3.382,0,0,1,1.29-1.265A3.6,3.6,0,0,1-10.57-7.04a3.62,3.62,0,0,1,1.8.455A3.346,3.346,0,0,1-7.49-5.32a3.579,3.579,0,0,1,.47,1.83,3.606,3.606,0,0,1-.47,1.835A3.336,3.336,0,0,1-8.775-.385,3.62,3.62,0,0,1-10.57.07Zm0-.99a2.4,2.4,0,0,0,1.23-.315,2.184,2.184,0,0,0,.845-.9A2.89,2.89,0,0,0-8.19-3.49a2.86,2.86,0,0,0-.305-1.35,2.158,2.158,0,0,0-.845-.89,2.426,2.426,0,0,0-1.23-.31,2.426,2.426,0,0,0-1.23.31,2.158,2.158,0,0,0-.845.89,2.86,2.86,0,0,0-.305,1.35,2.89,2.89,0,0,0,.305,1.355,2.184,2.184,0,0,0,.845.9A2.4,2.4,0,0,0-10.57-.92Zm6.31,0h2.35V0H-5.4V-6.95h1.14ZM.67-6.95v4.43a1.58,1.58,0,0,0,.415,1.19,1.6,1.6,0,0,0,1.155.4,1.61,1.61,0,0,0,1.165-.4A1.58,1.58,0,0,0,3.82-2.52V-6.95H4.96v4.41A2.658,2.658,0,0,1,4.59-1.1a2.3,2.3,0,0,1-.99.88A3.193,3.193,0,0,1,2.23.07,3.16,3.16,0,0,1,.865-.22,2.241,2.241,0,0,1-.11-1.1,2.715,2.715,0,0,1-.47-2.54V-6.95Zm13.59,0V0H13.12V-4.76L11,0h-.79L8.08-4.76V0H6.94V-6.95H8.17L10.61-1.5l2.43-5.45ZM21.97,0H20.83L17.4-5.19V0H16.26V-6.96H17.4l3.43,5.18V-6.96h1.14Z" transform="translate(-234 2554)" fill="#fff" opacity="0.5"/>
  </g>
</svg>
