<svg xmlns="http://www.w3.org/2000/svg" xmlns:xlink="http://www.w3.org/1999/xlink" width="230" height="120" viewBox="0 0 230 120">
  <defs>
    <clipPath id="clip-path">
      <rect id="長方形_5056" data-name="長方形 5056" width="45.865" height="40" transform="translate(0 0)" fill="#fff"/>
    </clipPath>
  </defs>
  <g id="グループ_7248" data-name="グループ 7248" transform="translate(349 -900)">
    <g id="パス_11667" data-name="パス 11667" transform="translate(-349 900)" fill="#e86573">
      <path d="M10,0H220a10,10,0,0,1,10,10V110a10,10,0,0,1-10,10H10A10,10,0,0,1,0,110V10A10,10,0,0,1,10,0Z" stroke="none"/>
      <path d="M 10 3 C 6.140182495117188 3 3 6.140190124511719 3 10 L 3 110 C 3 113.8598098754883 6.140182495117188 117 10 117 L 220 117 C 223.8598175048828 117 227 113.8598098754883 227 110 L 227 10 C 227 6.140190124511719 223.8598175048828 3 220 3 L 10 3 M 10 0 L 220 0 C 225.5228424072266 0 230 4.477157592773438 230 10 L 230 110 C 230 115.5228424072266 225.5228424072266 120 220 120 L 10 120 C 4.477157592773438 120 0 115.5228424072266 0 110 L 0 10 C 0 4.477157592773438 4.477157592773438 0 10 0 Z" stroke="none" fill="rgba(255,255,255,0.3)"/>
    </g>
    <path id="パス_11664" data-name="パス 11664" d="M-71.936-4.944h-2.048a11.043,11.043,0,0,1-1.424-.064A11.747,11.747,0,0,1-75.344-3.6V-.688a14.841,14.841,0,0,1-.1,1.968h1.808V.608h5.92V1.3h1.824a13.766,13.766,0,0,1-.1-2.08V-3.392a15.779,15.779,0,0,1,.064-1.616,10.612,10.612,0,0,1-1.408.064h-2.928v-1.68h3.424a12.108,12.108,0,0,1,1.632.1v-1.76a10.386,10.386,0,0,1-1.7.1h-3.36v-.192a11.512,11.512,0,0,1,.064-1.584h-1.824a9.05,9.05,0,0,1,.08,1.584Zm-1.7,1.6h5.92V-.976h-5.92Zm1.088-8.624H-76.16c-.72,0-1.328-.032-1.888-.08.048.56.064,1.072.064,2.432a36.824,36.824,0,0,1-.336,6.224,8.084,8.084,0,0,1-1.2,3.248A6.893,6.893,0,0,1-78.1,1.232c1.472-2.4,1.856-4.816,1.84-11.6h9.472c.784,0,1.5.032,1.984.08v-1.776a14.85,14.85,0,0,1-2.016.1h-3.968v-.576a4.022,4.022,0,0,1,.08-.992h-1.92a5.314,5.314,0,0,1,.08.976ZM-54.752-1.824a4.96,4.96,0,0,1-.64.592A9.058,9.058,0,0,1-57.952.16a11.034,11.034,0,0,1,1.264,1.312A10.81,10.81,0,0,0-53.344-.912l-1.216-.912h3.152l-1.216.848a12.613,12.613,0,0,0,3.1,2.48A12.008,12.008,0,0,1-48.24.112a9.716,9.716,0,0,1-2.928-1.936h.416c.464,0,.96.016,1.392.048-.048-.528-.064-1.04-.064-1.6v-5.36c0-.576.016-.96.048-1.408-.352.032-.72.048-1.568.048H-52.4c.16-.368.336-.8.48-1.184H-50.5a12.053,12.053,0,0,1,1.712.08v-1.728a12.923,12.923,0,0,1-1.872.1H-54.5a13.442,13.442,0,0,1-1.9-.1V-11.2a11.94,11.94,0,0,1,1.7-.08h1.056a7.752,7.752,0,0,1-.464,1.184h-.736a10.109,10.109,0,0,1-1.36-.048c.032.448.048.88.048,1.5v5.248c0,.368-.032,1.072-.048,1.6.544-.032.768-.032,1.264-.032Zm.176-6.816h3.552v.832h-3.552Zm0,2.192h3.552V-5.6h-3.552Zm0,2.224h3.552v.912h-3.552Zm-8.4,5.136c.272-.08.4-.112.944-.24A39.9,39.9,0,0,0-56.736-.8V-2.352c-.72.24-.928.3-1.488.48a15.8,15.8,0,0,0,.608-1.52c.24-.656.24-.656.384-1.024l-1.7-.432A17.2,17.2,0,0,1-60-1.424a19.485,19.485,0,0,1-3.376.544ZM-63.2-11.232a12.76,12.76,0,0,1,1.712-.08h2.88a16.868,16.868,0,0,1,1.7.064V-12.96a13.525,13.525,0,0,1-1.792.1h-2.672a13.892,13.892,0,0,1-1.824-.1Zm.544,4.384A16.454,16.454,0,0,1-62.72-5.2c.5-.048.976-.064,1.584-.064H-58.7c.528,0,.992.016,1.536.048a11.256,11.256,0,0,1-.064-1.552V-8.576a13.081,13.081,0,0,1,.064-1.6,13.486,13.486,0,0,1-1.648.064H-61.04a15.74,15.74,0,0,1-1.68-.064,15.715,15.715,0,0,1,.064,1.632Zm1.6-1.888h2.24v2.08h-2.24Zm.992,6.608A14.525,14.525,0,0,0-61.12-4.944l-1.5.576a13.116,13.116,0,0,1,1.008,2.832Zm16.944.8A10.717,10.717,0,0,1-47.5.064a3.95,3.95,0,0,1,.976,1.456A12.675,12.675,0,0,0-43.616.688,8.472,8.472,0,0,0-41.424-.544l-.992-.784h4.48l-.96.784A11.41,11.41,0,0,0-36.528.672a12.735,12.735,0,0,0,3.136.8A5.824,5.824,0,0,1-32.528-.08,12.151,12.151,0,0,1-37.1-1.328h1.184c.688,0,1.168.016,1.7.064a15.934,15.934,0,0,1-.064-1.824V-6.816a18.244,18.244,0,0,1,.064-1.824c-.448.032-.832.048-1.76.048H-44.1c-.848,0-1.184-.016-1.68-.048a17.288,17.288,0,0,1,.08,1.808v3.68a17.243,17.243,0,0,1-.08,1.888c.56-.048,1.04-.064,1.728-.064Zm-.848-5.92h7.952v.7h-7.952Zm0,1.92h7.952v.672h-7.952Zm0,1.888h7.952v.768h-7.952Zm10.656-8.24a10.466,10.466,0,0,1,.064-1.344,16.523,16.523,0,0,1-1.808.064h-9.936a16.712,16.712,0,0,1-1.808-.064,8.3,8.3,0,0,1,.08,1.344v1.248a7.351,7.351,0,0,1-.08,1.3c.352-.032.864-.048,1.664-.048h10.208c.88,0,1.3.016,1.68.048a9.224,9.224,0,0,1-.064-1.3Zm-9.536,1.12h-2.224v-1.024h2.224Zm3.824,0h-2.208v-1.024h2.208Zm1.616,0v-1.024h2.384v1.024Zm12.9,9.952a6.818,6.818,0,0,1,.976,1.776,12.535,12.535,0,0,0,3.216-3.04,11.79,11.79,0,0,0,3.168,3.024,9,9,0,0,1,.96-1.792A9.589,9.589,0,0,1-19.28-3.456a18.839,18.839,0,0,0,2.288-7.6c.048-.48.08-.8.112-1.008a11.5,11.5,0,0,1-1.3.08h-4.192c-.4,0-.736-.016-1.024-.032v-.992a9.574,9.574,0,0,1-1.456.08h-4.88a13,13,0,0,1-1.44-.08v1.728c.352-.032.528-.048,1.072-.064v8.736a7.611,7.611,0,0,1-1.232.16l.448,1.824A8.958,8.958,0,0,1-29.6-.96c.72-.144,1.808-.432,3.408-.912V-.384a14.034,14.034,0,0,1-.1,1.728h1.872a10.99,10.99,0,0,1-.1-1.728Zm0-10.736a5.537,5.537,0,0,1,.608.016V-10.3c.256-.032.368-.048.672-.064A20.158,20.158,0,0,0-22.5-6.32a15.057,15.057,0,0,0,1.184,2.864,9.839,9.839,0,0,1-3.2,2.816Zm5.744.96a16.35,16.35,0,0,1-1.5,5.248A15.077,15.077,0,0,1-21.6-10.384Zm-9.648-.96h2.224v1.76h-2.224Zm0,3.184h2.224v1.712h-2.224Zm0,3.168h2.224V-3.44a22.283,22.283,0,0,1-2.224.512Zm21.664-5.264a3.5,3.5,0,0,1,1.616.48A3.964,3.964,0,0,1-3.168-6.224a4.48,4.48,0,0,1-2.224,4,8.5,8.5,0,0,1-3.184.88A5.1,5.1,0,0,1-7.6.528,10.46,10.46,0,0,0-5.088-.144,6.164,6.164,0,0,0-1.2-6.112c0-3.6-2.5-5.936-6.336-5.936a7.182,7.182,0,0,0-5.5,2.24A6.873,6.873,0,0,0-14.8-5.152c0,2.576,1.312,4.432,3.136,4.432,1.312,0,2.336-.944,3.248-3.008A23.147,23.147,0,0,0-6.752-10.256ZM-8.7-10.24a21.087,21.087,0,0,1-1.328,5.408c-.576,1.376-1.12,2.048-1.648,2.048-.7,0-1.264-1.04-1.264-2.352a5.357,5.357,0,0,1,2.176-4.32A4.073,4.073,0,0,1-8.7-10.24ZM6.96-11.1H2.848a14.243,14.243,0,0,1-2-.112V-9.28a17.4,17.4,0,0,1,2-.1H5.472c-.08,3.264-.624,5.12-2,6.768A10.344,10.344,0,0,1,.608-.24,4.461,4.461,0,0,1,1.9,1.28,10.482,10.482,0,0,0,7.04-5.968h4.416A23.422,23.422,0,0,1,11.1-1.952c-.208,1.1-.368,1.28-1.072,1.28a15.208,15.208,0,0,1-2.4-.208A5.192,5.192,0,0,1,8.1.976c1.232.1,1.6.112,2.16.112,1.6,0,2.128-.4,2.5-1.92A31.626,31.626,0,0,0,13.3-6.448c.032-.688.032-.88.064-1.12a.4.4,0,0,0,.016-.16,10.058,10.058,0,0,1-1.648.08H7.3c.048-.48.048-.528.128-1.728H13.28a14.241,14.241,0,0,1,1.952.1v-1.936a13.463,13.463,0,0,1-2.016.112h-4.4v-.976a7.171,7.171,0,0,1,.1-1.328H6.848A6.427,6.427,0,0,1,6.96-12.08ZM21.728-8.048a.282.282,0,0,1,.1-.016.735.735,0,0,1,.16.016,2.382,2.382,0,0,1,.272.016c.08,0,.256.016.48.016.752.064,1.392.08,1.984.08.416,0,.8-.016,1.44-.032.064,2.224.08,3.008.128,3.408a3.8,3.8,0,0,0-1.424-.224c-1.936,0-3.3,1.088-3.3,2.64,0,1.632,1.28,2.624,3.376,2.624,1.552,0,2.672-.56,3.04-1.5a2.8,2.8,0,0,0,.128-.9v-.224c.1.064.464.3,1.008.656a5.994,5.994,0,0,1,1.2,1.024L31.088-2.4a3.044,3.044,0,0,1-.448-.272,12.757,12.757,0,0,0-2.512-1.456c-.16-2.688-.16-2.72-.16-3.616V-8.1c.848-.1,1.68-.24,2.224-.352a2.765,2.765,0,0,1,.464-.08l-.064-1.808-.128.032c-.256.1-.256.1-.352.128a16.085,16.085,0,0,1-2.16.384v-.736a15.654,15.654,0,0,1,.112-2.352l-2,.048a4.476,4.476,0,0,1,.048.768c0,.656.016,1.456.016,2.4-.56.032-.912.032-1.472.032a11.531,11.531,0,0,1-2.9-.256Zm4.592,5.12V-2.5a1.343,1.343,0,0,1-.208.864,1.573,1.573,0,0,1-1.3.5c-.9,0-1.472-.4-1.472-.992,0-.656.64-1.056,1.664-1.056A3.349,3.349,0,0,1,26.32-2.928ZM20.064.48a3.135,3.135,0,0,1-.032-.432,13.35,13.35,0,0,1,1.584-4.9L20.288-5.44a3.049,3.049,0,0,1-.192.5c-.16.384-.16.384-.3.72-.08.256-.16.432-.192.544-.112.288-.112.288-.192.464h-.016a2.723,2.723,0,0,0,.016-.336v-.256c0-.256,0-.256.016-.832a25.715,25.715,0,0,1,1.28-8.032l-2.16-.224v.064a8.589,8.589,0,0,1-.176,1.184c-.352,1.808-.352,1.808-.432,2.288a28.6,28.6,0,0,0-.3,4.24,30.342,30.342,0,0,0,.432,5.088,5.839,5.839,0,0,1,.08.624ZM35.408-10.16a4.8,4.8,0,0,1,.592.048,25.228,25.228,0,0,0,2.928.192,17.055,17.055,0,0,0,2.4-.128c-.736.416-1.52.9-2.352,1.424l1.392,1.1a29.416,29.416,0,0,1,4.272-2.656l-.064-1.792a19.842,19.842,0,0,1-4.224.3,20.985,20.985,0,0,1-4.8-.4Zm1.184,3.616c-1.44,1.2-2.064,2.256-2.064,3.472A2.749,2.749,0,0,0,36.576-.4a11.445,11.445,0,0,0,4,.528A27.376,27.376,0,0,0,44.9-.224a6.361,6.361,0,0,1,.7-.064L45.424-2.48a17.064,17.064,0,0,1-5.024.672c-2.7,0-3.872-.448-3.872-1.488,0-.688.448-1.36,1.456-2.192Zm13.04-2.448h.128c.128,0,.288,0,.512.016.848.064,1.568.1,2.416.112a36.227,36.227,0,0,1-1.344,3.552,10.757,10.757,0,0,1-.752,1.44l1.936.672A2.713,2.713,0,0,1,53.7-4.128a8.089,8.089,0,0,1,3.44-.784c1.728,0,2.688.544,2.688,1.536,0,1.28-1.5,2.1-3.824,2.1a12.175,12.175,0,0,1-4.128-.768,9.107,9.107,0,0,1,.16,2.032,14.617,14.617,0,0,0,4.08.56c3.5,0,5.792-1.536,5.792-3.9,0-2.032-1.68-3.248-4.5-3.248a7.442,7.442,0,0,0-4.032,1.04V-5.6A21.275,21.275,0,0,0,54.64-8.848c2-.048,3.408-.16,5.728-.416.416-.048.56-.064.928-.08l-.1-1.936a10.915,10.915,0,0,1-2.048.368c-1.056.128-2.864.256-4.08.288.1-.3.1-.3.384-1.5a8.942,8.942,0,0,1,.256-.928l-2.144-.176a13.727,13.727,0,0,1-.448,2.64,14.717,14.717,0,0,1-3.456-.272Zm18.96-2.448a28.96,28.96,0,0,0,6.24,2l.656-1.84a24,24,0,0,1-5.968-1.776Zm-1.28,1.408a6.53,6.53,0,0,1-.1.928c-.288,1.888-.544,3.664-.672,4.656-.08.608-.08.672-.128.96l2.016.064a3.483,3.483,0,0,1,.72-.688A7.282,7.282,0,0,1,73.136-5.28c1.7,0,2.7.64,2.7,1.712,0,1.36-1.568,2.3-3.824,2.3a12.917,12.917,0,0,1-4.3-.8A7.1,7.1,0,0,1,67.952,0a14.712,14.712,0,0,0,4.08.56A6.912,6.912,0,0,0,76.256-.528,3.9,3.9,0,0,0,77.9-3.616c0-2.048-1.792-3.392-4.512-3.392a7.583,7.583,0,0,0-4.848,1.52l-.032-.032c.048-.24.048-.24.08-.464a33.857,33.857,0,0,1,.72-3.936Z" transform="translate(-234 983)" fill="#fff"/>
    <path id="パス_11665" data-name="パス 11665" d="M-43.09-6.95V0h-1.14V-6.95ZM-35.38,0h-1.14l-3.43-5.19V0h-1.14V-6.96h1.14l3.43,5.18V-6.96h1.14Zm7.39.07a3.113,3.113,0,0,1-1.26-.245,2.068,2.068,0,0,1-.88-.7,1.765,1.765,0,0,1-.32-1.05h1.22a1.1,1.1,0,0,0,.355.74,1.258,1.258,0,0,0,.885.29,1.363,1.363,0,0,0,.92-.285.926.926,0,0,0,.33-.735.8.8,0,0,0-.205-.57,1.371,1.371,0,0,0-.51-.34,7.691,7.691,0,0,0-.845-.26,7.917,7.917,0,0,1-1.1-.365,1.826,1.826,0,0,1-.725-.575,1.662,1.662,0,0,1-.3-1.04,1.848,1.848,0,0,1,.3-1.05,1.916,1.916,0,0,1,.84-.69,3.052,3.052,0,0,1,1.25-.24,2.6,2.6,0,0,1,1.655.5A1.863,1.863,0,0,1-25.67-5.15h-1.26a.913.913,0,0,0-.36-.65,1.331,1.331,0,0,0-.87-.27,1.234,1.234,0,0,0-.8.25.871.871,0,0,0-.31.72.731.731,0,0,0,.195.525,1.377,1.377,0,0,0,.5.325,7.685,7.685,0,0,0,.82.26,8.561,8.561,0,0,1,1.125.38,1.873,1.873,0,0,1,.74.585A1.681,1.681,0,0,1-25.59-1.97a1.9,1.9,0,0,1-.285,1,2.056,2.056,0,0,1-.83.755A2.737,2.737,0,0,1-27.99.07Zm8.74-7.02v.93H-21.1V0h-1.14V-6.02H-24.1v-.93ZM-14.43.07a3.6,3.6,0,0,1-1.785-.455,3.372,3.372,0,0,1-1.29-1.27A3.576,3.576,0,0,1-17.98-3.49a3.55,3.55,0,0,1,.475-1.83,3.382,3.382,0,0,1,1.29-1.265A3.6,3.6,0,0,1-14.43-7.04a3.62,3.62,0,0,1,1.8.455A3.346,3.346,0,0,1-11.35-5.32a3.579,3.579,0,0,1,.47,1.83,3.606,3.606,0,0,1-.47,1.835,3.336,3.336,0,0,1-1.285,1.27A3.62,3.62,0,0,1-14.43.07Zm0-.99a2.4,2.4,0,0,0,1.23-.315,2.184,2.184,0,0,0,.845-.9A2.89,2.89,0,0,0-12.05-3.49a2.86,2.86,0,0,0-.305-1.35,2.158,2.158,0,0,0-.845-.89,2.426,2.426,0,0,0-1.23-.31,2.426,2.426,0,0,0-1.23.31,2.158,2.158,0,0,0-.845.89,2.86,2.86,0,0,0-.305,1.35,2.89,2.89,0,0,0,.305,1.355,2.184,2.184,0,0,0,.845.9A2.4,2.4,0,0,0-14.43-.92ZM-5.65,0l-1.6-2.78h-.87V0H-9.26V-6.95h2.4a2.984,2.984,0,0,1,1.355.28,1.942,1.942,0,0,1,.83.75A2.041,2.041,0,0,1-4.4-4.87,2.081,2.081,0,0,1-4.8-3.635,2,2,0,0,1-6.01-2.88L-4.29,0ZM-8.12-3.69h1.26A1.322,1.322,0,0,0-5.9-4.01a1.152,1.152,0,0,0,.325-.86,1.112,1.112,0,0,0-.32-.845,1.36,1.36,0,0,0-.97-.3H-8.12ZM-1.3-6.03v2.04H1.1v.93H-1.3V-.93H1.4V0H-2.44V-6.96H1.4v.93ZM10.12-3.57a1.537,1.537,0,0,1,.95.59,1.735,1.735,0,0,1,.39,1.11,1.72,1.72,0,0,1-.275.955,1.864,1.864,0,0,1-.8.67A2.811,2.811,0,0,1,9.18,0H6.4V-6.95H9.05a2.844,2.844,0,0,1,1.22.24,1.79,1.79,0,0,1,.77.645,1.64,1.64,0,0,1,.26.905,1.55,1.55,0,0,1-.32,1A1.863,1.863,0,0,1,10.12-3.57ZM7.54-4.03H8.95a1.354,1.354,0,0,0,.875-.255.891.891,0,0,0,.315-.735.908.908,0,0,0-.315-.735A1.319,1.319,0,0,0,8.95-6.02H7.54ZM9.08-.93a1.363,1.363,0,0,0,.91-.28.968.968,0,0,0,.33-.78,1.012,1.012,0,0,0-.35-.81,1.38,1.38,0,0,0-.93-.3H7.54V-.93Zm5.25-6.02v4.43a1.58,1.58,0,0,0,.415,1.19,1.6,1.6,0,0,0,1.155.4,1.61,1.61,0,0,0,1.165-.4,1.58,1.58,0,0,0,.415-1.19V-6.95h1.14v4.41a2.658,2.658,0,0,1-.37,1.44,2.3,2.3,0,0,1-.99.88,3.193,3.193,0,0,1-1.37.29,3.16,3.16,0,0,1-1.365-.29,2.241,2.241,0,0,1-.975-.88,2.715,2.715,0,0,1-.36-1.44V-6.95Zm11.42,0-2.3,4.43V0H22.31V-2.52L20-6.95h1.27l1.61,3.41,1.61-3.41Zm2.54,0V0H27.15V-6.95ZM36,0H34.86L31.43-5.19V0H30.29V-6.96h1.14l3.43,5.18V-6.96H36Zm7.03-4.95a1.837,1.837,0,0,0-.75-.785A2.259,2.259,0,0,0,41.17-6a2.426,2.426,0,0,0-1.23.31,2.172,2.172,0,0,0-.845.88,2.756,2.756,0,0,0-.305,1.32A2.785,2.785,0,0,0,39.1-2.165a2.165,2.165,0,0,0,.845.885,2.426,2.426,0,0,0,1.23.31,2.176,2.176,0,0,0,1.51-.52,2.26,2.26,0,0,0,.71-1.41H40.78v-.91h3.83v.89a3.421,3.421,0,0,1-.575,1.49,3.421,3.421,0,0,1-1.21,1.085A3.408,3.408,0,0,1,41.17.06,3.592,3.592,0,0,1,39.38-.4,3.392,3.392,0,0,1,38.1-1.66a3.55,3.55,0,0,1-.475-1.83A3.55,3.55,0,0,1,38.1-5.32a3.382,3.382,0,0,1,1.29-1.265A3.6,3.6,0,0,1,41.17-7.04a3.626,3.626,0,0,1,1.975.545A3.1,3.1,0,0,1,44.4-4.95Z" transform="translate(-234 1000)" fill="#fff" opacity="0.5"/>
    <g id="グループ_6870" data-name="グループ 6870" transform="translate(-256.932 920)">
      <g id="グループ_6869" data-name="グループ 6869" clip-path="url(#clip-path)">
        <path id="パス_9583" data-name="パス 9583" d="M43.5,51.331H6.807a.45.45,0,0,1-.45-.45V32.453h.9V50.431H43.048V32.453h.9V50.881a.45.45,0,0,1-.45.45" transform="translate(-2.22 -11.332)" fill="#fff"/>
        <path id="パス_9584" data-name="パス 9584" d="M5.31,29.838H4.58C2.055,29.838,0,27.275,0,24.125a.45.45,0,0,1,.45-.45H9.44a.45.45,0,0,1,.45.45c0,3.15-2.055,5.713-4.58,5.713M.916,24.575c.174,2.444,1.751,4.363,3.664,4.363h.73c1.913,0,3.49-1.919,3.664-4.363Z" transform="translate(0 -8.267)" fill="#fff"/>
        <path id="パス_9585" data-name="パス 9585" d="M19.124,29.838H18.4c-2.527,0-4.583-2.563-4.583-5.713a.45.45,0,0,1,.45-.45h8.994a.45.45,0,0,1,.45.45c0,3.15-2.056,5.713-4.583,5.713M14.73,24.575c.174,2.444,1.753,4.363,3.667,4.363h.727c1.915,0,3.494-1.919,3.667-4.363Z" transform="translate(-4.823 -8.267)" fill="#fff"/>
        <path id="パス_9586" data-name="パス 9586" d="M32.943,29.838h-.727c-2.527,0-4.583-2.563-4.583-5.713a.45.45,0,0,1,.45-.45h8.994a.45.45,0,0,1,.45.45c0,3.15-2.056,5.713-4.583,5.713m-4.394-5.263c.174,2.444,1.752,4.363,3.667,4.363h.727c1.915,0,3.493-1.919,3.667-4.363Z" transform="translate(-9.649 -8.267)" fill="#fff"/>
        <path id="パス_9587" data-name="パス 9587" d="M46.761,29.838h-.727c-2.527,0-4.583-2.563-4.583-5.713a.45.45,0,0,1,.45-.45h8.994a.45.45,0,0,1,.45.45c0,3.15-2.056,5.713-4.583,5.713m-4.394-5.263c.174,2.444,1.753,4.363,3.667,4.363h.727c1.915,0,3.494-1.919,3.667-4.363Z" transform="translate(-14.473 -8.267)" fill="#fff"/>
        <path id="パス_9588" data-name="パス 9588" d="M60.58,29.838h-.727c-2.527,0-4.583-2.563-4.583-5.713a.45.45,0,0,1,.45-.45h8.994a.45.45,0,0,1,.45.45c0,3.15-2.056,5.713-4.583,5.713m-4.394-5.263c.174,2.444,1.753,4.363,3.667,4.363h.727c1.915,0,3.494-1.919,3.667-4.363Z" transform="translate(-19.299 -8.267)" fill="#fff"/>
        <path id="パス_9589" data-name="パス 9589" d="M9.44,16.308H.45a.45.45,0,0,1-.436-.56L3.9.34A.45.45,0,0,1,4.331,0H11.77a.45.45,0,0,1,.445.517L9.885,15.926a.45.45,0,0,1-.445.383m-8.413-.9H9.053L11.246.9H4.682Z" transform="translate(0 0)" fill="#fff"/>
        <path id="パス_9590" data-name="パス 9590" d="M23.258,16.308H14.264a.45.45,0,0,1-.445-.517L16.149.383A.45.45,0,0,1,16.593,0h7.441a.451.451,0,0,1,.449.473l-.776,15.408a.451.451,0,0,1-.45.428m-8.471-.9H22.83L23.561.9H16.98Z" transform="translate(-4.824 0)" fill="#fff"/>
        <path id="パス_9591" data-name="パス 9591" d="M37.076,16.308H28.083a.45.45,0,0,1-.449-.473L28.409.428A.451.451,0,0,1,28.859,0H36.3a.45.45,0,0,1,.449.428l.776,15.408a.452.452,0,0,1-.45.473m-8.52-.9H36.6L35.873.9H29.287Z" transform="translate(-9.649 0)" fill="#fff"/>
        <path id="パス_9592" data-name="パス 9592" d="M50.478,16.308H41.484a.451.451,0,0,1-.45-.428L40.259.473A.451.451,0,0,1,40.708,0h7.441a.45.45,0,0,1,.445.383l2.329,15.408a.45.45,0,0,1-.445.517m-8.566-.9h8.043L47.762.9H41.181Z" transform="translate(-14.057 0)" fill="#fff"/>
        <path id="パス_9593" data-name="パス 9593" d="M63.464,16.308H54.47a.45.45,0,0,1-.445-.383L51.7.517A.45.45,0,0,1,52.142,0h7.441a.451.451,0,0,1,.437.34L63.9,15.748a.45.45,0,0,1-.437.56m-8.607-.9h8.029L59.233.9H52.665Z" transform="translate(-18.049 0)" fill="#fff"/>
        <path id="パス_9594" data-name="パス 9594" d="M30.813,53.208H22.981a.45.45,0,0,1-.45-.45V38.276a.45.45,0,0,1,.45-.45h7.832a.45.45,0,0,1,.45.45V52.758a.45.45,0,0,1-.45.45m-7.382-.9h6.932V38.726H23.431Z" transform="translate(-7.867 -13.208)" fill="#fff"/>
        <path id="パス_9595" data-name="パス 9595" d="M42.806,53.208H34.974a.45.45,0,0,1-.45-.45V38.276a.451.451,0,0,1,.45-.45h7.832a.45.45,0,0,1,.45.45V52.758a.45.45,0,0,1-.45.45m-7.382-.9h6.932V38.726H35.424Z" transform="translate(-12.055 -13.208)" fill="#fff"/>
      </g>
    </g>
  </g>
</svg>
