<svg xmlns="http://www.w3.org/2000/svg" xmlns:xlink="http://www.w3.org/1999/xlink" width="30" height="24.653" viewBox="0 0 30 24.653">
  <defs>
    <clipPath id="clip-path">
      <rect id="長方形_2128" data-name="長方形 2128" width="30" height="24.653" fill="#fff"/>
    </clipPath>
  </defs>
  <g id="グループ_6420" data-name="グループ 6420" transform="translate(0 0)">
    <g id="グループ_6420-2" data-name="グループ 6420" transform="translate(0 0)" clip-path="url(#clip-path)">
      <path id="パス_3597" data-name="パス 3597" d="M16.379,11.049l9.359-2.865c.037-.037.073-.037.109-.073h.036l.036-.037h.037V8.039h.036V8h.037V7.966h.036V7.93H26.1V7.893l.036-.036V7.821h.037V7.748h.036V7.64a.725.725,0,0,0-.508-.907h-.073L15.254,4.012h-.145V3.976h-.217l-.037.037h-.109L4.373,6.733H4.3a.725.725,0,0,0-.508.907v.109h.037v.073h.036v.073H3.9V7.93h.036v.036a.871.871,0,0,0,.326.218l10.375,3.156L14.6,11.3a.828.828,0,0,0,.181.109h.145v.036h.145v-.036h.145A.81.81,0,0,0,15.4,11.3l-.036.036Zm-2.14-6.13L4.481,7.458l9.758,3.01Zm1.524,0L25.52,7.458l-9.757,3.01ZM3.538,7.53.2,3.94A.751.751,0,0,1,.563,2.706L11.083.022a.752.752,0,0,1,.762.254L15,3.649,18.157.276a.727.727,0,0,1,.761-.254L29.437,2.706A.751.751,0,0,1,29.8,3.94L26.463,7.53l2.974,4.462a.7.7,0,0,1-.362,1.124L18.954,16.345a.682.682,0,0,1-.87-.254L15,11.884l-3.083,4.207a.684.684,0,0,1-.871.254L.927,13.117a.792.792,0,0,1-.472-.943.789.789,0,0,1,.109-.182ZM14.747,24.652,4.3,21.061a.707.707,0,0,1-.508-.689l-.036-5.586,7.037,2.286a1.672,1.672,0,0,0,.943.036,1.575,1.575,0,0,0,.8-.58l1.705-2.358.616-.834V24.652h-.109Zm.4-11.317.617.834,1.7,2.358a1.442,1.442,0,0,0,.8.58,1.675,1.675,0,0,0,.943-.036l7-2.286v5.586a.707.707,0,0,1-.508.689L15.254,24.652h-.109Z" transform="translate(0 0)" fill="#fff" fill-rule="evenodd"/>
    </g>
  </g>
</svg>
