<svg xmlns="http://www.w3.org/2000/svg" width="30" height="28.585" viewBox="0 0 30 28.585">
  <g id="グループ_6419" data-name="グループ 6419" transform="translate(-61.094 -66.829)">
    <g id="グループ_4" data-name="グループ 4" transform="translate(61.094 66.829)">
      <path id="パス_7" data-name="パス 7" d="M83.279,70.518c0-6.712-6.729-12.173-15-12.173s-15,5.461-15,12.173c0,6.017,5.336,11.057,12.545,12.009.488.106,1.153.322,1.321.74a3.08,3.08,0,0,1,.049,1.356s-.176,1.058-.214,1.284c-.065.379-.3,1.483,1.3.809s8.638-5.087,11.785-8.709h0a10.831,10.831,0,0,0,3.215-7.49" transform="translate(-53.279 -58.345)" fill="#fff"/>
      <path id="パス_8" data-name="パス 8" d="M203.4,128.58h-3.981a.271.271,0,0,1-.271-.271v0h0v-6.172h0v-.006a.271.271,0,0,1,.271-.271H203.4a.271.271,0,0,1,.271.271v1a.271.271,0,0,1-.271.271H200.7v1.043H203.4a.271.271,0,0,1,.271.271v1a.271.271,0,0,1-.271.271H200.7v1.043H203.4a.271.271,0,0,1,.271.271v1a.271.271,0,0,1-.271.271" transform="translate(-178.427 -112.762)" fill="#06c755"/>
      <path id="パス_9" data-name="パス 9" d="M92.529,128.58a.271.271,0,0,0,.271-.271v-1a.271.271,0,0,0-.271-.271H89.824v-4.908a.271.271,0,0,0-.271-.271h-1a.271.271,0,0,0-.271.271v6.179h0v0a.271.271,0,0,0,.271.271h3.981Z" transform="translate(-83.305 -112.762)" fill="#06c755"/>
      <path id="パス_10" data-name="パス 10" d="M130.005,121.855h-1a.271.271,0,0,0-.271.271v6.184a.271.271,0,0,0,.271.27h1a.27.27,0,0,0,.271-.27v-6.184a.271.271,0,0,0-.271-.271" transform="translate(-118.088 -112.762)" fill="#06c755"/>
      <path id="パス_11" data-name="パス 11" d="M153.25,121.855h-1a.271.271,0,0,0-.271.271V125.8l-2.829-3.821a.3.3,0,0,0-.022-.028l0,0-.016-.017-.005,0-.015-.012-.007-.005-.014-.01-.008-.005-.015-.008-.008,0-.016-.007-.009,0-.016-.005-.01,0-.016,0-.011,0-.015,0h-1.023a.271.271,0,0,0-.271.271v6.184a.27.27,0,0,0,.271.27h1a.27.27,0,0,0,.271-.27v-3.672l2.833,3.826a.274.274,0,0,0,.07.068l0,0,.017.01.008,0,.013.006.013.006.008,0,.019.006h0a.276.276,0,0,0,.071.009h1a.27.27,0,0,0,.271-.27v-6.184a.271.271,0,0,0-.271-.271" transform="translate(-134.186 -112.762)" fill="#06c755"/>
    </g>
  </g>
</svg>
