<svg xmlns="http://www.w3.org/2000/svg" width="29.997" height="20.998" viewBox="0 0 29.997 20.998">
  <g id="グループ_6789" data-name="グループ 6789" transform="translate(-187.5 -520.25)">
    <path id="パス_2663" data-name="パス 2663" d="M217.5,521.75v3.465l-14.623,8.428a.742.742,0,0,1-.75,0L187.5,525.215V521.75a1.5,1.5,0,0,1,1.5-1.5h27A1.5,1.5,0,0,1,217.5,521.75Z" fill="#fff"/>
    <path id="パス_2664" data-name="パス 2664" d="M203.624,533.826l13.873-7.995v12.8a1.5,1.5,0,0,1-1.5,1.5H189a1.5,1.5,0,0,1-1.5-1.5v-12.8l13.874,7.995a2.259,2.259,0,0,0,2.25,0Z" transform="translate(0 1.115)" fill="#fff"/>
  </g>
</svg>
