<svg xmlns="http://www.w3.org/2000/svg" xmlns:xlink="http://www.w3.org/1999/xlink" width="399.5" height="144.214" viewBox="0 0 399.5 144.214">
  <defs>
    <clipPath id="clip-path">
      <rect id="長方形_312" data-name="長方形 312" width="54.089" height="35.302" fill="#fff"/>
    </clipPath>
    <clipPath id="clip-path-2">
      <rect id="長方形_5166" data-name="長方形 5166" width="70" height="50.699" fill="none"/>
    </clipPath>
    <clipPath id="clip-path-4">
      <rect id="長方形_5164" data-name="長方形 5164" width="67.106" height="48.5" fill="none"/>
    </clipPath>
  </defs>
  <g id="グループ_7275" data-name="グループ 7275" transform="translate(-10100 514.699)">
    <g id="グループ_7274" data-name="グループ 7274" transform="translate(10025 -8151)">
      <g id="グループ_111" data-name="グループ 111" transform="translate(100 7710.864)">
        <rect id="長方形_311" data-name="長方形 311" width="54.091" height="35.302" transform="translate(0 0)" fill="#5fc1aa"/>
        <g id="グループ_110" data-name="グループ 110" transform="translate(0 0)">
          <g id="グループ_109" data-name="グループ 109" clip-path="url(#clip-path)">
            <path id="パス_126" data-name="パス 126" d="M13.594,34.152a6.7,6.7,0,0,1-6.651-6.947c0-3.631,3.6-6.532,6.651-8.268,3.053,1.735,6.649,4.636,6.649,8.268a6.7,6.7,0,0,1-6.649,6.947m20.379-7.025c0-3.632,3.6-6.534,6.649-8.269,3.055,1.734,6.649,4.637,6.649,8.269a6.655,6.655,0,1,1-13.3,0M54.084,12.264A30.48,30.48,0,0,0,40.41,15.353,29.115,29.115,0,0,0,27.04,12.264a29.11,29.11,0,0,0-13.371,3.089A30.443,30.443,0,0,0,0,12.264v3.091a27.323,27.323,0,0,1,10.284,1.952C6.946,19.541,3.64,22.928,3.64,27.2a10.109,10.109,0,0,0,10.029,9.966A9.911,9.911,0,0,0,23.463,27.2c0-4.275-3.071-7.661-6.414-9.9a25.854,25.854,0,0,1,9.991-1.952,25.849,25.849,0,0,1,9.99,1.952c-3.342,2.235-6.414,5.622-6.414,9.9a9.911,9.911,0,0,0,9.794,9.966A10.046,10.046,0,0,0,50.365,27.2c0-4.275-3.231-7.661-6.574-9.9a27.369,27.369,0,0,1,10.294-1.952Z" transform="translate(-0.002 -6.771)" fill="#fff"/>
          </g>
        </g>
      </g>
      <text id="_0120-03-6022" data-name="0120-03-6022" transform="translate(163.242 7743.015)" fill="#5fc1aa" font-size="42" font-family="Roboto-Bold, Roboto" font-weight="700" letter-spacing="0.03em"><tspan x="0" y="0">0120-03-6022</tspan></text>
    </g>
    <text id="ご相談_受付10:00_18:00_日祝定休日_" data-name="ご相談・受付10:00〜18:00（日祝定休日）" transform="translate(10147 -375.485)" font-size="16" font-family="HiraginoSans-W3, Hiragino Sans"><tspan x="0" y="0">ご相談・受付</tspan><tspan y="0" font-family="NotoSans, Noto Sans">10:00</tspan><tspan y="0">〜</tspan><tspan y="0" font-family="NotoSans, Noto Sans">18:00</tspan><tspan y="0">（日祝定休日）</tspan></text>
    <g id="グループ_7273" data-name="グループ 7273" transform="translate(9504.5 -1139)">
      <text id="お電話での買取_相談" data-name="お電話での買取・相談" transform="translate(835 665.5)" fill="#5fc1aa" font-size="32" font-family="HiraginoSans-W6, Hiragino Sans"><tspan x="-160" y="0">お電話での買取・相談</tspan></text>
      <path id="線_458" data-name="線 458" d="M318,1.5H0v-3H318Z" transform="translate(675.5 675)" fill="#5fc1aa"/>
      <g id="グループ_7125" data-name="グループ 7125" transform="translate(595.5 624.301)">
        <g id="グループ_7124" data-name="グループ 7124" clip-path="url(#clip-path-2)">
          <g id="グループ_7123" data-name="グループ 7123" transform="translate(0 0)">
            <g id="グループ_7122" data-name="グループ 7122" clip-path="url(#clip-path-2)">
              <g id="グループ_7121" data-name="グループ 7121" transform="translate(0 2.199)" opacity="0.2" style="mix-blend-mode: multiply;isolation: isolate">
                <g id="グループ_7120" data-name="グループ 7120">
                  <g id="グループ_7119" data-name="グループ 7119" clip-path="url(#clip-path-4)">
                    <path id="パス_10615" data-name="パス 10615" d="M30.938,2.511C49.412,1.306,65.558,10.7,67,23.487c.88,7.787-3.9,15.032-11.939,19.786l8.2,7.634L49.857,45.813a45.117,45.117,0,0,1-13.689,3.012C17.695,50.029,1.547,40.637.1,27.849S12.464,3.716,30.938,2.511" transform="translate(0 -2.407)"/>
                  </g>
                </g>
              </g>
              <path id="パス_10616" data-name="パス 10616" d="M34.107.1C52.581-1.1,68.727,8.291,70.171,21.08c.88,7.787-3.9,15.032-11.939,19.786l8.2,7.634L53.026,43.406a45.117,45.117,0,0,1-13.689,3.012C20.864,47.622,4.716,38.23,3.272,25.442S15.633,1.309,34.107.1" transform="translate(-0.274 0)" fill="#5fc1aa"/>
              <path id="パス_10617" data-name="パス 10617" d="M14.036,19.515c.111,0,.181.012.19.089.011.092-.079.129-.126.153,0,.257.022.554.047.9a6.179,6.179,0,0,0,1.277-.58c.029.313.067.7.09.9a3.651,3.651,0,0,0,.071.454,6.3,6.3,0,0,1-1.343.546c.011.092.043.5.052.576A4.281,4.281,0,0,1,15.7,22.13a2.258,2.258,0,0,1,2.615,2.012,1.973,1.973,0,0,1-1.754,2.344,1.316,1.316,0,0,1-1.5-1.33c.17-.08.9-.426,1.006-.48.021.169.068.565.466.519.321-.039.494-.385.443-.808a1.069,1.069,0,0,0-1.257-.981,3.987,3.987,0,0,0-1.275.45,25.208,25.208,0,0,0,.412,2.533l-1.1.662a11.42,11.42,0,0,0-1.623-1.032c-.185.252-.271.383-.374.541l-.781-1.383c.364-.257,1.764-1.607,2.076-1.859-.035-.3-.043-.363-.129-1.013-.5.084-1.087.164-1.568.221L11.2,21.181a3.6,3.6,0,0,0,.675-.028c.329-.039.8-.13.9-.142-.076-.634-.1-.726-.222-1.569ZM12.79,25.194a.912.912,0,0,0,.407.174c.127-.014.083-.31.037-.629-.091.1-.254.245-.444.455M16.67,20.17a7.334,7.334,0,0,1,2,1.133,6.022,6.022,0,0,0-.7,1.123,4.939,4.939,0,0,0-1.951-1.114Z" transform="translate(-0.951 -1.683)" fill="#fff"/>
              <path id="パス_10618" data-name="パス 10618" d="M27.187,19.572l.4,3.323-.558.067A6.827,6.827,0,0,1,28.408,24.5a4.3,4.3,0,0,0-.89.809,5.5,5.5,0,0,0-1.409-1.676l.906-.674-2.207.263c.3.23.485.406.744.64a5.531,5.531,0,0,0-.775.762,5.315,5.315,0,0,0-.863-.841.421.421,0,0,1-.153.164l.079.66c.03.253.084.271.353.239l1-.119c.212-.025.322-.038.309-.792a3.31,3.31,0,0,0,1.117.305c-.038.828-.129,1.37-1.008,1.475l-1.946.231c-.448.053-.911.057-.993-.636l-.131-1.092a.626.626,0,0,1-.156.052,5.039,5.039,0,0,1-.947,1.837,2.345,2.345,0,0,0-1.071-.5,4.2,4.2,0,0,0,1.061-1.962l1.09.367-.041-.346,1.244-.062c.078,0,.112,0,.151.043l.454-.373-3.281.391-.113-.947,5.243-.624-.036-.3-4.87.58-.1-.828,4.87-.58-.036-.305-5.15.612-.007-.059a1.727,1.727,0,0,1-.207.129,1.8,1.8,0,0,0-1-.756,4.9,4.9,0,0,0,2.4-2.379l1.24.1c.069.009.155.015.165.1.013.109-.119.152-.243.191a.912.912,0,0,1-.042.082l2.622-.312.589.266a9.748,9.748,0,0,1-.81,1.117Zm-3.162.376c.065-.1.214-.369.262-.461L22.52,19.7c-.068.084-.164.207-.416.479Z" transform="translate(-1.701 -1.578)" fill="#fff"/>
              <path id="パス_10619" data-name="パス 10619" d="M32.584,17.073c.079.23.135.412.325.929a5.55,5.55,0,0,0,1.072-.65,3.265,3.265,0,0,0,.686,1.008,5.828,5.828,0,0,1-1.262.708c.109.2.153.273.206.37a5.81,5.81,0,0,0,1.332-.844,3.649,3.649,0,0,0,.758.964,8.347,8.347,0,0,1-1.44.867,10.09,10.09,0,0,0,1.34,1.461l-.675.887a4.762,4.762,0,0,0-2.417-.347c-.177.021-.989.118-.922.685.079.668,1.347.517,1.627.482a5.771,5.771,0,0,0,2.106-.67c.008.136.013.315.041.56.036.3.079.523.143.841a10.544,10.544,0,0,1-2.122.476,3.382,3.382,0,0,1-2.267-.246,1.524,1.524,0,0,1-.845-1.193c-.14-1.176.939-1.829,2.048-1.96a3.743,3.743,0,0,1,1.2.047c-.183-.235-.275-.362-.408-.543a12.527,12.527,0,0,1-2.6.6,5.525,5.525,0,0,1-.69.039l-.248-1.222a6.058,6.058,0,0,0,1.074-.05,9.911,9.911,0,0,0,1.807-.386c-.1-.185-.153-.274-.2-.38a8.823,8.823,0,0,1-1.45.283c-.339.041-.576.061-.772.075l-.334-1.15c.214-.009.606-.022,1.038-.073a5.592,5.592,0,0,0,.973-.185c-.307-.633-.342-.706-.459-.975Zm2.5.105a7.024,7.024,0,0,1,.812.915c-.077.078-.4.406-.57.617a10.552,10.552,0,0,0-.824-.941Zm.63-.685a3.5,3.5,0,0,1,.877.815,5.931,5.931,0,0,0-.581.591,4.252,4.252,0,0,0-.8-.83Z" transform="translate(-2.56 -1.428)" fill="#fff"/>
              <path id="パス_10620" data-name="パス 10620" d="M42.473,22.328a2.724,2.724,0,0,0,2.063-2.922,2.02,2.02,0,0,0-2.2-1.839c.107,3.126-.9,5.587-1.792,5.693-.66.079-2.019-.892-2.205-2.456a4.179,4.179,0,0,1,3.675-4.434,3.309,3.309,0,0,1,3.857,2.868,3.972,3.972,0,0,1-.687,2.733,4.741,4.741,0,0,1-1.689,1.445,5.464,5.464,0,0,0-1.021-1.089m-2.9-1.775c.078.653.5,1.1.677,1.078.2-.024.319-.423.385-.655a7.449,7.449,0,0,0,.305-2.987,2.9,2.9,0,0,0-1.367,2.564" transform="translate(-3.317 -1.415)" fill="#fff"/>
              <path id="パス_10621" data-name="パス 10621" d="M54.839,15.6l.143,1.209-3.645.434c.029.314.029.537.033.708l2.672-.317c.34,2.857.273,3.654-.257,4.326a2.606,2.606,0,0,1-1.611.663,2.17,2.17,0,0,0-.783-1.254c.232.007.818.033.9.022a.63.63,0,0,0,.619-.57,5.9,5.9,0,0,0,.016-1.871l-1.649.2a5.746,5.746,0,0,1-2.622,3.912,2.294,2.294,0,0,0-1.147-.789,4.325,4.325,0,0,0,2.541-4.873l-2.8.332-.143-1.209,3.18-.379-.139-1.167,1.362-.083c.051-.005.155.006.166.1.008.067-.078.138-.134.171l.1.818Z" transform="translate(-4.079 -1.289)" fill="#fff"/>
              <path id="パス_10622" data-name="パス 10622" d="M58.543,14.68c.07.016.117.046.124.1.012.1-.146.138-.222.156a11.774,11.774,0,0,0-.12,3.316,5.958,5.958,0,0,0,.16.839c.09-.174.237-.466.326-.648a3.562,3.562,0,0,0,.709.765,3.769,3.769,0,0,0-.456,2.154l-1.108.347a12.048,12.048,0,0,1-.862-3.354,15.356,15.356,0,0,1,.047-3.934Zm3.994-.665c.044,0,.112,0,.121.08.012.1-.1.141-.178.159a9.3,9.3,0,0,0,.036,1.024,7.86,7.86,0,0,0,1.215-.461l.152,1.277c-.188.075-.566.214-1.253.424A13.82,13.82,0,0,0,63,18.447a4.745,4.745,0,0,1,1.711.68c-.106.261-.3.84-.433,1.26a2.984,2.984,0,0,0-.982-.533c.1,1.086-.972,1.342-1.5,1.406-1.269.15-1.985-.469-2.079-1.255-.12-1.007.833-1.506,1.935-1.61-.182-.956-.2-1.065-.279-1.554-.477.1-.824.141-.967.159a6.184,6.184,0,0,1-.629.048l-.158-1.328a8.884,8.884,0,0,0,1.6-.13c-.042-.355-.131-1.1-.187-1.651Zm-1.126,5.452c-.186.021-.585.129-.554.391.026.221.316.28.587.248.068-.007.575-.068.525-.483a.232.232,0,0,0-.03-.107,1.2,1.2,0,0,0-.529-.048" transform="translate(-4.934 -1.207)" fill="#fff"/>
              <path id="パス_10623" data-name="パス 10623" d="M23.056,30.968c.112,0,.181.014.191.09.011.093-.079.13-.128.153,0,.256.023.555.047.9a6.179,6.179,0,0,0,1.277-.58c.029.313.068.7.09.9a3.641,3.641,0,0,0,.071.455,6.308,6.308,0,0,1-1.342.546c.011.092.043.5.051.575a4.311,4.311,0,0,1,1.408-.424A2.259,2.259,0,0,1,27.338,35.6a1.972,1.972,0,0,1-1.754,2.344,1.316,1.316,0,0,1-1.5-1.33c.171-.08.9-.426,1.007-.48.02.169.068.565.465.519.322-.039.494-.385.443-.808a1.069,1.069,0,0,0-1.256-.983,4.012,4.012,0,0,0-1.276.452,25.093,25.093,0,0,0,.413,2.533l-1.1.662a11.5,11.5,0,0,0-1.623-1.034c-.185.254-.271.385-.373.542L20,36.632c.364-.257,1.764-1.607,2.077-1.859-.036-.3-.043-.364-.13-1.013-.5.084-1.087.163-1.568.22l-.161-1.345a3.607,3.607,0,0,0,.675-.028c.33-.039.8-.13.9-.142-.076-.634-.095-.726-.221-1.569Zm-1.245,5.681a.917.917,0,0,0,.406.174c.127-.016.083-.31.037-.631-.091.1-.254.247-.443.457m3.878-5.024a7.246,7.246,0,0,1,2,1.134A5.918,5.918,0,0,0,27,33.88a4.945,4.945,0,0,0-1.952-1.115Z" transform="translate(-1.732 -2.675)" fill="#fff"/>
              <path id="パス_10624" data-name="パス 10624" d="M33.315,30.712l3.273-.389.224,1.885-1.158.137-.13-1.09-2.115.251.182,1.531L32.4,33.18l-.182-1.531-2.123.252.13,1.091-1.183.142-.225-1.886,3.307-.393-.033-.27-2.664.316-.1-.838,6.545-.778.1.838-2.688.32Zm.779,6.555c-.634.076-1.192.142-1.305-.814l-.033-.271-1.319.157.068.567-1.167.139-.4-3.408,6.08-.723.33,2.774a2.862,2.862,0,0,0,.055-.548,2.171,2.171,0,0,0,1.075.31c-.039,1.257-.6,1.487-1.348,1.576Zm-2.082-5.388.064.533-1.666.2-.064-.533Zm.088.736.062.516-1.667.2-.061-.516Zm.407,1.479-1.319.155.04.34,1.319-.157Zm.117.981-1.319.156.041.346,1.319-.156Zm2.695-3.589.063.533-1.657.2-.063-.533Zm-1.578,2.8,1.234-.147-.04-.338-1.234.147Zm1.666-2.066.061.515-1.657.2-.062-.515Zm-1.549,3.055,1.235-.147-.041-.346-1.234.147Zm2,.928c.355-.041.414-.195.47-.449l-2.376.282c.042.355.079.385.469.338Z" transform="translate(-2.495 -2.536)" fill="#fff"/>
              <path id="パス_10625" data-name="パス 10625" d="M43.153,30.589l-.095-.8a9.092,9.092,0,0,1-1.369.248,1.82,1.82,0,0,0-.437-1A8.661,8.661,0,0,0,44.809,28l.959.855a.122.122,0,0,1,.043.073c.008.066-.038.106-.107.114A.368.368,0,0,1,45.511,29a9.2,9.2,0,0,1-1.256.476l.116.972,1.709-.2.125,1.058-1.708.2.108.905,1.42-.17L46.45,35.8l-1.218.145-.056-.464-1.539.182.057.475-1.218.144-.426-3.577,1.336-.159-.108-.9-1.734.206-.115-.965-3.323.4L38,30.353l3.56-.423.1.837Zm-2.267-1.754.11.913-2.546.3-.109-.913Zm.354,2.324.108.913-2.621.312-.109-.913Zm.368,2.306.326,2.739-1.057.126L40.839,36l-.609.073.055.457-1.218.145-.341-2.867Zm-.23-1.148.107.906-2.621.312-.108-.906ZM40.054,34.6l.064.532.609-.072-.064-.532Zm3.456,0,1.54-.184-.119-1-1.54.184Z" transform="translate(-3.29 -2.424)" fill="#fff"/>
              <path id="パス_10626" data-name="パス 10626" d="M55.062,28.49c-2.093.215-3.678,2.307-3.515,3.677.117.979,1.416,1.314,2.569,1.2a11.6,11.6,0,0,0-.451,1.615c-.706-.105-3.214-.492-3.455-2.514a3.867,3.867,0,0,1,1.21-3.094,23.15,23.15,0,0,0-3.438.949L47.6,28.759a27.744,27.744,0,0,0,3.74-.641,20.5,20.5,0,0,0,3.318-1.02ZM53.8,29.856a5.266,5.266,0,0,1,.894.812c-.216.2-.324.3-.591.586a6.866,6.866,0,0,0-.866-.867Zm.817-.705a5.273,5.273,0,0,1,.858.8c-.192.185-.321.33-.554.6a6.362,6.362,0,0,0-.866-.867Z" transform="translate(-4.121 -2.346)" fill="#fff"/>
              <path id="パス_10627" data-name="パス 10627" d="M58.254,27.079l.234,1.969-.008,2.523-.812.1-.609-2.448-.234-1.97Zm-.8,5.4,1.421-.17.17,1.43-1.42.169Z" transform="translate(-4.92 -2.345)" fill="#fff"/>
            </g>
          </g>
        </g>
      </g>
    </g>
  </g>
</svg>
