<svg xmlns="http://www.w3.org/2000/svg" xmlns:xlink="http://www.w3.org/1999/xlink" width="398.796" height="140.51" viewBox="0 0 398.796 140.51"><defs><clipPath id="a"><rect width="54.089" height="35.302" fill="#fff"/></clipPath><clipPath id="b"><rect width="70" height="50.699" fill="none"/></clipPath><clipPath id="d"><rect width="67.106" height="48.5" fill="none"/></clipPath></defs><g transform="translate(-10100 514.699)"><g transform="translate(10025 -8151)"><g transform="translate(100 7710.864)"><rect width="54.091" height="35.302" fill="#5fc1aa"/><g clip-path="url(#a)"><path d="M13.594,34.152a6.7,6.7,0,0,1-6.651-6.947c0-3.631,3.6-6.532,6.651-8.268,3.053,1.735,6.649,4.636,6.649,8.268a6.7,6.7,0,0,1-6.649,6.947m20.379-7.025c0-3.632,3.6-6.534,6.649-8.269,3.055,1.734,6.649,4.637,6.649,8.269a6.655,6.655,0,1,1-13.3,0M54.084,12.264A30.48,30.48,0,0,0,40.41,15.353a29.115,29.115,0,0,0-13.37-3.089,29.11,29.11,0,0,0-13.371,3.089A30.443,30.443,0,0,0,0,12.264v3.091a27.323,27.323,0,0,1,10.284,1.952C6.946,19.541,3.64,22.928,3.64,27.2a10.109,10.109,0,0,0,10.029,9.966A9.911,9.911,0,0,0,23.463,27.2c0-4.275-3.071-7.661-6.414-9.9a26.542,26.542,0,0,1,19.981,0c-3.342,2.235-6.414,5.622-6.414,9.9a9.911,9.911,0,0,0,9.794,9.966A10.046,10.046,0,0,0,50.365,27.2c0-4.275-3.231-7.661-6.574-9.9a27.369,27.369,0,0,1,10.294-1.952Z" transform="translate(-0.002 -6.771)" fill="#fff"/></g></g><path d="M22.128-12.346q0,6.193-2.563,9.475T12.059.41A9.011,9.011,0,0,1,4.594-2.81Q2.01-6.029,1.948-12.038v-5.5q0-6.255,2.594-9.5a9.015,9.015,0,0,1,7.475-3.24,9.023,9.023,0,0,1,7.465,3.209q2.584,3.209,2.646,9.218ZM16.2-18.375a10.914,10.914,0,0,0-1.015-5.4,3.431,3.431,0,0,0-3.168-1.692,3.371,3.371,0,0,0-3.086,1.61,10.215,10.215,0,0,0-1.056,5.035v7.26A11.457,11.457,0,0,0,8.87-6.142a3.386,3.386,0,0,0,3.189,1.774A3.329,3.329,0,0,0,15.2-6.07a11.183,11.183,0,0,0,1-5.209ZM41.783,0H35.857V-22.846l-7.075,2.194v-4.819L41.148-29.9h.636ZM73.21,0H52.744V-4.061L62.4-14.355a23.829,23.829,0,0,0,2.943-3.794,6.1,6.1,0,0,0,.954-3.076,4.561,4.561,0,0,0-1-3.127,3.627,3.627,0,0,0-2.871-1.138,3.912,3.912,0,0,0-3.168,1.384,5.483,5.483,0,0,0-1.159,3.64H52.149a9.789,9.789,0,0,1,1.3-4.983,9.178,9.178,0,0,1,3.681-3.538,11.189,11.189,0,0,1,5.394-1.282q4.614,0,7.167,2.215A7.836,7.836,0,0,1,72.247-21.8,10.04,10.04,0,0,1,71.1-17.288a25.072,25.072,0,0,1-3.937,5.353L60.373-4.778H73.21ZM98.2-12.346q0,6.193-2.563,9.475T88.129.41a9.011,9.011,0,0,1-7.465-3.22q-2.584-3.22-2.646-9.229v-5.5q0-6.255,2.594-9.5a9.015,9.015,0,0,1,7.475-3.24,9.023,9.023,0,0,1,7.465,3.209q2.584,3.209,2.646,9.218Zm-5.927-6.029a10.914,10.914,0,0,0-1.015-5.4,3.431,3.431,0,0,0-3.168-1.692A3.371,3.371,0,0,0,85-23.861a10.215,10.215,0,0,0-1.056,5.035v7.26a11.457,11.457,0,0,0,.995,5.424,3.386,3.386,0,0,0,3.189,1.774,3.329,3.329,0,0,0,3.138-1.7,11.183,11.183,0,0,0,1-5.209ZM115.228-10.4H103.683v-4.778h11.546ZM141.1-12.346q0,6.193-2.563,9.475T131.029.41a9.011,9.011,0,0,1-7.465-3.22q-2.584-3.22-2.646-9.229v-5.5q0-6.255,2.594-9.5a9.015,9.015,0,0,1,7.475-3.24,9.023,9.023,0,0,1,7.465,3.209q2.584,3.209,2.646,9.218Zm-5.927-6.029a10.914,10.914,0,0,0-1.015-5.4,3.431,3.431,0,0,0-3.168-1.692,3.371,3.371,0,0,0-3.086,1.61,10.215,10.215,0,0,0-1.056,5.035v7.26a11.457,11.457,0,0,0,.995,5.424,3.386,3.386,0,0,0,3.189,1.774,3.329,3.329,0,0,0,3.138-1.7,11.183,11.183,0,0,0,1-5.209Zm17.215.82h3.158a4.45,4.45,0,0,0,3.343-1.128,4.133,4.133,0,0,0,1.087-2.994,3.655,3.655,0,0,0-1.077-2.81,4.173,4.173,0,0,0-2.963-1,4.374,4.374,0,0,0-2.851.933,2.984,2.984,0,0,0-1.148,2.43h-5.927a7.289,7.289,0,0,1,1.261-4.194,8.4,8.4,0,0,1,3.527-2.9,11.772,11.772,0,0,1,4.994-1.046A11.165,11.165,0,0,1,163.214-28a7.732,7.732,0,0,1,2.687,6.245,6.283,6.283,0,0,1-1.251,3.773,8.127,8.127,0,0,1-3.281,2.646,7.419,7.419,0,0,1,3.763,2.707,7.343,7.343,0,0,1,1.241,4.266,7.86,7.86,0,0,1-2.9,6.378,11.668,11.668,0,0,1-7.68,2.4,11.063,11.063,0,0,1-7.311-2.358,7.7,7.7,0,0,1-2.84-6.234h5.927a3.434,3.434,0,0,0,1.261,2.748,4.648,4.648,0,0,0,3.107,1.066,4.669,4.669,0,0,0,3.312-1.118,3.858,3.858,0,0,0,1.2-2.963q0-4.471-4.922-4.471h-3.138Zm31.1,7.157H171.939v-4.778h11.546Zm21.85-19.77v4.881h-.574a10.069,10.069,0,0,0-6.47,2.092,8.5,8.5,0,0,0-2.943,5.64,8.072,8.072,0,0,1,6.009-2.42,7.606,7.606,0,0,1,6.193,2.789,11.18,11.18,0,0,1,2.3,7.342,11,11,0,0,1-1.261,5.271A9.045,9.045,0,0,1,205.017-.9,10.367,10.367,0,0,1,199.8.41a9.682,9.682,0,0,1-7.619-3.281,12.737,12.737,0,0,1-2.9-8.757v-2.133a19.168,19.168,0,0,1,1.835-8.583,13.458,13.458,0,0,1,5.271-5.763,15.444,15.444,0,0,1,7.967-2.061Zm-5.783,14.95a4.729,4.729,0,0,0-2.6.749,4.507,4.507,0,0,0-1.723,1.979v1.8a8.006,8.006,0,0,0,1.169,4.645,3.775,3.775,0,0,0,3.281,1.671,3.733,3.733,0,0,0,3.086-1.507,6.156,6.156,0,0,0,1.179-3.907,6.144,6.144,0,0,0-1.189-3.937A3.874,3.874,0,0,0,199.552-15.217Zm35.159,2.871q0,6.193-2.563,9.475T224.642.41a9.011,9.011,0,0,1-7.465-3.22q-2.584-3.22-2.646-9.229v-5.5q0-6.255,2.594-9.5a9.015,9.015,0,0,1,7.475-3.24,9.023,9.023,0,0,1,7.465,3.209q2.584,3.209,2.646,9.218Zm-5.927-6.029a10.914,10.914,0,0,0-1.015-5.4,3.431,3.431,0,0,0-3.168-1.692,3.371,3.371,0,0,0-3.086,1.61,10.215,10.215,0,0,0-1.056,5.035v7.26a11.457,11.457,0,0,0,.995,5.424,3.386,3.386,0,0,0,3.189,1.774,3.329,3.329,0,0,0,3.138-1.7,11.183,11.183,0,0,0,1-5.209ZM260.437,0H239.97V-4.061l9.659-10.295a23.829,23.829,0,0,0,2.943-3.794,6.1,6.1,0,0,0,.954-3.076,4.561,4.561,0,0,0-1-3.127,3.627,3.627,0,0,0-2.871-1.138,3.912,3.912,0,0,0-3.168,1.384,5.483,5.483,0,0,0-1.159,3.64h-5.947a9.789,9.789,0,0,1,1.3-4.983,9.178,9.178,0,0,1,3.681-3.538,11.189,11.189,0,0,1,5.394-1.282q4.614,0,7.167,2.215a7.836,7.836,0,0,1,2.553,6.255,10.04,10.04,0,0,1-1.148,4.512,25.072,25.072,0,0,1-3.938,5.353L247.6-4.778h12.838Zm25.357,0H265.327V-4.061l9.659-10.295a23.829,23.829,0,0,0,2.943-3.794,6.1,6.1,0,0,0,.954-3.076,4.561,4.561,0,0,0-1-3.127,3.627,3.627,0,0,0-2.871-1.138,3.912,3.912,0,0,0-3.168,1.384,5.483,5.483,0,0,0-1.159,3.64h-5.947a9.789,9.789,0,0,1,1.3-4.983,9.178,9.178,0,0,1,3.681-3.538,11.189,11.189,0,0,1,5.394-1.282q4.614,0,7.167,2.215A7.836,7.836,0,0,1,284.83-21.8a10.04,10.04,0,0,1-1.148,4.512,25.072,25.072,0,0,1-3.937,5.353l-6.788,7.157h12.838Z" transform="translate(163.242 7743.015)" fill="#5fc1aa"/></g><path d="M4.48-6.272A4.2,4.2,0,0,0,2.64-3.184,2.549,2.549,0,0,0,4.464-.768a11.288,11.288,0,0,0,3.68.5,26.1,26.1,0,0,0,4.32-.368,4.972,4.972,0,0,1,.544-.08l-.144-1.312a15.178,15.178,0,0,1-4.8.608,10.189,10.189,0,0,1-2.928-.32c-.9-.3-1.36-.832-1.36-1.568,0-.752.48-1.488,1.52-2.352Zm-.96-4.1c.224.016.224.016.528.048a31.3,31.3,0,0,0,3.52.208,12.647,12.647,0,0,0,2.416-.208,24.883,24.883,0,0,0-2.832,1.7l.816.656A24.4,24.4,0,0,1,12-10.4l-.08-1.056a17.5,17.5,0,0,1-4.048.336A18.293,18.293,0,0,1,3.616-11.5ZM10.8-8.32a12.477,12.477,0,0,1,1.632,2.544l.8-.48A12.754,12.754,0,0,0,11.6-8.736Zm1.776-.928a13.419,13.419,0,0,1,1.632,2.512l.8-.448a12.336,12.336,0,0,0-1.664-2.5Zm9.072-.064c.368,0,.688.016,1.04.048v-.992a6.409,6.409,0,0,1-1.056.064H20.464v-1.552a10.554,10.554,0,0,1,.08-1.648H19.376a9.567,9.567,0,0,1,.08,1.664v1.536h-1.3a7.086,7.086,0,0,1-1.152-.064v1.008a7.472,7.472,0,0,1,1.152-.064h1.152a14.245,14.245,0,0,1-2.752,5.7,2.957,2.957,0,0,1,.624.928A14.3,14.3,0,0,0,19.552-7.76c-.08,1.584-.1,1.936-.1,2.608V-.624a13.44,13.44,0,0,1-.1,1.856h1.2a12.971,12.971,0,0,1-.1-1.856V-5.488c0-.528-.016-1.12-.064-2.592a11.491,11.491,0,0,0,1.856,3.36,3.693,3.693,0,0,1,.576-.9,10.2,10.2,0,0,1-2.288-3.7ZM24.336,1.152V0h5.072V1.088H30.48a18.416,18.416,0,0,1-.064-1.9v-10.16c0-.88.016-1.248.048-1.6a7.513,7.513,0,0,1-1.216.048H24.512a12.112,12.112,0,0,1-1.248-.032c.048.784.064,1.168.064,1.728V-.8c0,.832-.032,1.408-.08,1.952Zm0-12.752h5.072v2.864H24.336Zm0,3.776h5.072v2.848H24.336Zm0,3.76h5.072V-.912H24.336ZM33.5-11.776a8.021,8.021,0,0,1,1.152-.064h1.952a8.463,8.463,0,0,1,1.152.064v-1.008a5.692,5.692,0,0,1-1.152.08H34.656a5.691,5.691,0,0,1-1.152-.08ZM32.768-9.52a10.033,10.033,0,0,1,1.28-.064H37.1a7.7,7.7,0,0,1,1.168.064v-1.04a6.334,6.334,0,0,1-1.28.08H34.048a6.837,6.837,0,0,1-1.28-.08Zm.72,2.192a6.968,6.968,0,0,1,1.088-.064H36.64a6.661,6.661,0,0,1,1.056.064V-8.3a5.933,5.933,0,0,1-1.056.064H34.576A6.346,6.346,0,0,1,33.488-8.3Zm0,2.208a6.375,6.375,0,0,1,1.072-.064h2.064A6.5,6.5,0,0,1,37.7-5.12V-6.1a6.022,6.022,0,0,1-1.072.064H34.576A6.346,6.346,0,0,1,33.488-6.1Zm.96,6.176V.112h2.608a1.211,1.211,0,0,0,.24.016,1.76,1.76,0,0,1,.432.032A9.823,9.823,0,0,1,37.7-.9V-2.7a12.368,12.368,0,0,1,.048-1.248,6.73,6.73,0,0,1-.976.048H34.48a5.319,5.319,0,0,1-1.024-.064,11.082,11.082,0,0,1,.064,1.312V-.5c0,.5-.032,1.072-.08,1.552ZM34.432-3.1H36.8V-.736H34.432Zm5.344-9.216A5.66,5.66,0,0,1,38.512-9.5l.912.384A8.4,8.4,0,0,0,40.736-12.1Zm6.16-.128a7.352,7.352,0,0,1-1.76,2.512,5.694,5.694,0,0,1,.768.512A11.828,11.828,0,0,0,46.9-12Zm-6.3,6.864a5.653,5.653,0,0,1-1.3,2.8l.912.416a8.817,8.817,0,0,0,1.344-2.96Zm6.272.032A7.644,7.644,0,0,1,44.272-3.12a4.949,4.949,0,0,1,.768.528A13.1,13.1,0,0,0,46.848-5.1ZM42.08-13.136a7.012,7.012,0,0,1,.064,1.072,4.965,4.965,0,0,1-1.632,4.032,5.8,5.8,0,0,1-2.432,1.28,2.736,2.736,0,0,1,.624.88,6.79,6.79,0,0,0,3.1-2.272,4.985,4.985,0,0,0,.848-1.728A5.031,5.031,0,0,0,43.5-8.288a7.846,7.846,0,0,0,3.1,2.416A3.935,3.935,0,0,1,47.2-6.8a7.352,7.352,0,0,1-1.664-.8,5.823,5.823,0,0,1-1.568-1.488,5.006,5.006,0,0,1-.848-3.024,8.191,8.191,0,0,1,.08-1.024Zm-.048,6.32A8.072,8.072,0,0,1,42.1-5.68,6.247,6.247,0,0,1,41.04-1.856,5.865,5.865,0,0,1,37.792.384a2.581,2.581,0,0,1,.688.9A7.107,7.107,0,0,0,41.52-.96a5.739,5.739,0,0,0,1.12-2.4,6.193,6.193,0,0,0,1.232,2.288A9.222,9.222,0,0,0,46.88,1.264a3.441,3.441,0,0,1,.608-.992,7.226,7.226,0,0,1-3.36-2.5,5.636,5.636,0,0,1-1.04-3.52,5.723,5.723,0,0,1,.08-1.072ZM56-7.392A1.318,1.318,0,0,0,54.688-6.08,1.318,1.318,0,0,0,56-4.768,1.318,1.318,0,0,0,57.312-6.08,1.318,1.318,0,0,0,56-7.392ZM67.12-8.928a15,15,0,0,1-1.968-.08c.032.432.064.784.064,1.2V-6.8a8.07,8.07,0,0,1-.08,1.136h1.088v-2.32H77.808v2.24H78.9a4.7,4.7,0,0,1-.08-.992v-1.04a9.469,9.469,0,0,1,.064-1.216,17.055,17.055,0,0,1-1.824.064H75.7a27.1,27.1,0,0,0,1.3-2.48l-1.04-.368a13.424,13.424,0,0,1-1.344,2.848H72.752a15.792,15.792,0,0,0-.848-2.448,45.113,45.113,0,0,0,5.472-.912,4.612,4.612,0,0,1,.64-.144l-.7-.944a16.59,16.59,0,0,1-4.192.928,51.357,51.357,0,0,1-7.488.464A2.805,2.805,0,0,1,66-11.04c.832-.016,1.088-.016,1.424-.032a13.572,13.572,0,0,1,.848,2.144Zm2.176,0a15.272,15.272,0,0,0-.9-2.192c1.168-.048,1.712-.1,2.512-.16a14.688,14.688,0,0,1,.848,2.352Zm6.752,2.64a7.651,7.651,0,0,1-1.408.08H68.688a10.385,10.385,0,0,1-1.6-.1v1.072a11.074,11.074,0,0,1,1.184-.1A10.582,10.582,0,0,0,71.136-1.92,17.28,17.28,0,0,1,64.912.1,3.992,3.992,0,0,1,65.488,1.1,19.312,19.312,0,0,0,72-1.3a16.216,16.216,0,0,0,6.672,2.432A4.9,4.9,0,0,1,79.248.1a16.809,16.809,0,0,1-6.32-1.984A14.569,14.569,0,0,0,76.176-4.96a4.7,4.7,0,0,1,.544-.576Zm-.848.96a12.568,12.568,0,0,1-3.168,2.88,8.715,8.715,0,0,1-2.672-2.88ZM92.832-8.544h.784c.512,0,1.024.016,1.52.064V-9.568a9.813,9.813,0,0,1-1.52.1h-.784v-1.84a15.245,15.245,0,0,1,.1-1.872H91.7a11.943,11.943,0,0,1,.112,1.872v1.84H86.736a11.8,11.8,0,0,1-1.664-.1v1.12a12.39,12.39,0,0,1,1.712-.1h5.024v7.9c0,.336-.144.416-.8.416a13.1,13.1,0,0,1-2.192-.192,3.544,3.544,0,0,1,.3,1.088c.7.064,1.312.1,1.936.1,1.44,0,1.776-.256,1.776-1.312Zm-8.656-.992c.48-.912.992-2.016,1.216-2.576a6.56,6.56,0,0,1,.4-.912l-1.152-.368a8.808,8.808,0,0,1-.7,2.048,15.791,15.791,0,0,1-3.216,4.88,2.462,2.462,0,0,1,.592.7l.112.176a13.383,13.383,0,0,0,1.792-2.464c-.048.736-.064,1.232-.064,1.936V-.768a16.208,16.208,0,0,1-.1,1.936h1.2c-.048-.56-.08-1.168-.08-1.9Zm1.952,2.992a16.353,16.353,0,0,1,2.64,3.728l.9-.688a20.291,20.291,0,0,0-2.7-3.616Zm11.4-1.378V-9a5.729,5.729,0,0,0,2.125-.5,2.445,2.445,0,0,0,.9-1.645h1.109V0h-1.5V-7.922Zm11.7-3.266A3.306,3.306,0,0,1,112.367-9.4a8,8,0,0,1,.75,3.789,9.124,9.124,0,0,1-.68,3.773A3.328,3.328,0,0,1,109.219.3a3.223,3.223,0,0,1-3-1.75,8.013,8.013,0,0,1-.82-3.922,9.69,9.69,0,0,1,.492-3.273A3.368,3.368,0,0,1,109.227-11.187ZM109.211-.977a2,2,0,0,0,1.742-.969,7.014,7.014,0,0,0,.648-3.609,8.918,8.918,0,0,0-.469-3.137,1.784,1.784,0,0,0-1.82-1.23A1.9,1.9,0,0,0,107.5-8.754a8.065,8.065,0,0,0-.574,3.441,8.451,8.451,0,0,0,.367,2.75A2,2,0,0,0,109.211-.977Zm6.359-7.281H117.2v1.7H115.57Zm0,6.555H117.2V0H115.57Zm7-9.484A3.306,3.306,0,0,1,125.711-9.4a8,8,0,0,1,.75,3.789,9.124,9.124,0,0,1-.68,3.773A3.328,3.328,0,0,1,122.563.3a3.223,3.223,0,0,1-3-1.75,8.013,8.013,0,0,1-.82-3.922,9.69,9.69,0,0,1,.492-3.273A3.368,3.368,0,0,1,122.57-11.187ZM122.555-.977a2,2,0,0,0,1.742-.969,7.014,7.014,0,0,0,.648-3.609,8.918,8.918,0,0,0-.469-3.137,1.784,1.784,0,0,0-1.82-1.23,1.9,1.9,0,0,0-1.816,1.168,8.065,8.065,0,0,0-.574,3.441,8.451,8.451,0,0,0,.367,2.75A2,2,0,0,0,122.555-.977Zm8.914-10.211A3.306,3.306,0,0,1,134.609-9.4a8,8,0,0,1,.75,3.789,9.124,9.124,0,0,1-.68,3.773A3.328,3.328,0,0,1,131.461.3a3.223,3.223,0,0,1-3-1.75,8.013,8.013,0,0,1-.82-3.922,9.69,9.69,0,0,1,.492-3.273A3.368,3.368,0,0,1,131.469-11.187ZM131.453-.977a2,2,0,0,0,1.742-.969,7.014,7.014,0,0,0,.648-3.609,8.918,8.918,0,0,0-.469-3.137,1.784,1.784,0,0,0-1.82-1.23,1.9,1.9,0,0,0-1.816,1.168,8.065,8.065,0,0,0-.574,3.441,8.451,8.451,0,0,0,.367,2.75A2,2,0,0,0,131.453-.977Zm6.2-4.431A5.64,5.64,0,0,1,139-6.528a3.279,3.279,0,0,1,1.648-.416,4.349,4.349,0,0,1,2.88,1.216,7.97,7.97,0,0,0,2.224,1.3,5.048,5.048,0,0,0,1.52.256,4.322,4.322,0,0,0,2.112-.544,6.543,6.543,0,0,0,1.84-1.648l-.832-.72a4.266,4.266,0,0,1-1.824,1.552,3.112,3.112,0,0,1-1.28.272,5.2,5.2,0,0,1-3.072-1.312,9.825,9.825,0,0,0-1.5-.96,4.322,4.322,0,0,0-2-.464c-1.44,0-2.432.5-3.856,1.888ZM153.57-7.922V-9a5.729,5.729,0,0,0,2.125-.5,2.445,2.445,0,0,0,.9-1.645H157.7V0h-1.5V-7.922ZM165.289-6.5a1.973,1.973,0,0,0,1.453-.52,1.684,1.684,0,0,0,.523-1.238,1.632,1.632,0,0,0-.5-1.148,2.016,2.016,0,0,0-1.523-.523,1.847,1.847,0,0,0-1.469.523,1.815,1.815,0,0,0-.453,1.227,1.463,1.463,0,0,0,.586,1.234A2.22,2.22,0,0,0,165.289-6.5Zm.086,5.539A2.476,2.476,0,0,0,167-1.488a1.915,1.915,0,0,0,.645-1.574,2.04,2.04,0,0,0-.664-1.648,2.544,2.544,0,0,0-1.7-.562,2.362,2.362,0,0,0-1.645.574,2.032,2.032,0,0,0-.637,1.59,2.165,2.165,0,0,0,.582,1.512A2.325,2.325,0,0,0,165.375-.961Zm-2-5a2.8,2.8,0,0,1-.914-.586,2.213,2.213,0,0,1-.617-1.625,2.919,2.919,0,0,1,.906-2.148,3.494,3.494,0,0,1,2.57-.9,3.568,3.568,0,0,1,2.523.848,2.622,2.622,0,0,1,.914,1.98,2.59,2.59,0,0,1-.531,1.7,3.183,3.183,0,0,1-.922.719,3.578,3.578,0,0,1,1.094.734,2.828,2.828,0,0,1,.742,2.031,3.47,3.47,0,0,1-.992,2.5,3.718,3.718,0,0,1-2.8,1.027,4.333,4.333,0,0,1-2.762-.887,3.077,3.077,0,0,1-1.129-2.574,3.007,3.007,0,0,1,.484-1.715A3.025,3.025,0,0,1,163.375-5.961Zm8.234-2.3h1.633v1.7h-1.633Zm0,6.555h1.633V0h-1.633Zm7-9.484A3.306,3.306,0,0,1,181.75-9.4a8,8,0,0,1,.75,3.789,9.124,9.124,0,0,1-.68,3.773A3.328,3.328,0,0,1,178.6.3a3.223,3.223,0,0,1-3-1.75,8.013,8.013,0,0,1-.82-3.922,9.69,9.69,0,0,1,.492-3.273A3.368,3.368,0,0,1,178.609-11.187ZM178.594-.977a2,2,0,0,0,1.742-.969,7.014,7.014,0,0,0,.648-3.609,8.918,8.918,0,0,0-.469-3.137,1.784,1.784,0,0,0-1.82-1.23,1.9,1.9,0,0,0-1.816,1.168,8.065,8.065,0,0,0-.574,3.441,8.451,8.451,0,0,0,.367,2.75A2,2,0,0,0,178.594-.977Zm8.914-10.211A3.306,3.306,0,0,1,190.648-9.4a8,8,0,0,1,.75,3.789,9.124,9.124,0,0,1-.68,3.773A3.328,3.328,0,0,1,187.5.3a3.223,3.223,0,0,1-3-1.75,8.013,8.013,0,0,1-.82-3.922,9.69,9.69,0,0,1,.492-3.273A3.368,3.368,0,0,1,187.508-11.187ZM187.492-.977a2,2,0,0,0,1.742-.969,7.014,7.014,0,0,0,.648-3.609,8.918,8.918,0,0,0-.469-3.137,1.784,1.784,0,0,0-1.82-1.23,1.9,1.9,0,0,0-1.816,1.168,8.065,8.065,0,0,0-.574,3.441,8.451,8.451,0,0,0,.367,2.75A2,2,0,0,0,187.492-.977ZM207.47,1.3a10.117,10.117,0,0,1-2.432-3.312,9.7,9.7,0,0,1-.864-4.064,9.7,9.7,0,0,1,.864-4.064,10.117,10.117,0,0,1,2.432-3.312h-1.424a10.769,10.769,0,0,0-2.224,3.44,10.034,10.034,0,0,0-.768,3.936,10.034,10.034,0,0,0,.768,3.936,10.769,10.769,0,0,0,2.224,3.44ZM210.878-.72a12.3,12.3,0,0,1-.1,1.7h1.168V-.064h8.256V.976h1.168a12.229,12.229,0,0,1-.1-1.712V-10.992a10.063,10.063,0,0,1,.08-1.472,11.607,11.607,0,0,1-1.648.08h-7.2a13.054,13.054,0,0,1-1.712-.08,11.212,11.212,0,0,1,.08,1.568Zm1.072-10.688h8.256v4.48H211.95Zm0,5.456h8.256V-1.04H211.95Zm20.928-.688c-.064,2.544-.512,4.016-1.584,5.264A5.445,5.445,0,0,1,229.038.192a4.43,4.43,0,0,1,.768.864A6.8,6.8,0,0,0,231.6-.16a6.3,6.3,0,0,0,1.552-2.368,10.777,10.777,0,0,0,.72-4.112h1.424v6.4c0,.416.08.608.3.752.288.192.624.24,1.536.24a3.689,3.689,0,0,0,1.76-.24c.448-.256.528-.672.688-2.992a2.953,2.953,0,0,1-.96-.448c-.016,1.728-.1,2.336-.3,2.56-.112.128-.48.176-1.3.176-.48,0-.688-.064-.72-.224-.016-.064-.016-.064-.016-6.224h.848a10.465,10.465,0,0,1,1.3.064,9.978,9.978,0,0,1-.064-1.3v-3.344a10.245,10.245,0,0,1,.064-1.312,12.154,12.154,0,0,1-1.44.064h-4.5a13.3,13.3,0,0,1-1.52-.064,11.187,11.187,0,0,1,.064,1.328v3.216a11.245,11.245,0,0,1-.064,1.408,10.361,10.361,0,0,1,1.28-.064Zm-.848-4.9h5.344v4H232.03ZM228.254-5.68a12.312,12.312,0,0,0,2.16,1.776,3.4,3.4,0,0,1,.512-.9,9,9,0,0,1-2.48-1.888A12.358,12.358,0,0,0,229.9-8.8c.528-1.04.528-1.04.656-1.264l-.528-.576a7.476,7.476,0,0,1-.992.048h-.752v-1.536a6.838,6.838,0,0,1,.1-1.28h-1.2a8.459,8.459,0,0,1,.1,1.28v1.536h-.96a8.866,8.866,0,0,1-1.264-.064v1.024a9.823,9.823,0,0,1,1.3-.064h2.928a11.432,11.432,0,0,1-2.016,3.04,13.289,13.289,0,0,1-2.88,2.384,4.476,4.476,0,0,1,.544.88,14.9,14.9,0,0,0,2.336-2.016V-.576a10.332,10.332,0,0,1-.1,1.664h1.2a8.441,8.441,0,0,1-.112-1.664Zm19.408,4.8a5.377,5.377,0,0,1-1.728-.976,4.893,4.893,0,0,1-1.264-1.76c.112-.384.352-1.312.432-1.7l.192-.832-1.12-.224v.16A10.119,10.119,0,0,1,243.2-2.56a8.516,8.516,0,0,1-2.16,2.848,2.969,2.969,0,0,1,.832.752A10.823,10.823,0,0,0,244.3-2.592c.848,1.7,2.416,2.656,4.912,3.008a21.687,21.687,0,0,0,3.5.128c.432,0,.544,0,1.936-.032a2.964,2.964,0,0,1,.352-1.12c-1.344.112-2.448.16-3.744.16a14.342,14.342,0,0,1-2.608-.176V-4.176h3.088a8.545,8.545,0,0,1,1.536.1V-5.168a9.616,9.616,0,0,1-1.536.1h-3.088V-7.68h2.8a10.442,10.442,0,0,1,1.584.1v-1.1a10.3,10.3,0,0,1-1.584.1H244.83a10.3,10.3,0,0,1-1.584-.1v1.1a10.891,10.891,0,0,1,1.584-.1h2.832Zm-.24-10.56h-4.336c-.64,0-1.1-.016-1.616-.064a7.235,7.235,0,0,1,.064,1.088v1.008a7.646,7.646,0,0,1-.064,1.136h1.056v-2.24h11.168v2.24h1.04a7.646,7.646,0,0,1-.064-1.136v-1.008a7.235,7.235,0,0,1,.064-1.088c-.512.048-.976.064-1.6.064h-4.672v-.784a4.194,4.194,0,0,1,.112-.992h-1.248a5.506,5.506,0,0,1,.1,1.008ZM264.91-8.832a17.22,17.22,0,0,1-1.52,2.816,14.8,14.8,0,0,1-3.344,3.68,3.232,3.232,0,0,1,.768.832,14.3,14.3,0,0,0,2.752-3.072,14.534,14.534,0,0,0,1.68-3.344c-.032.544-.032,1.168-.032,1.808V-.5a11.086,11.086,0,0,1-.128,1.648h1.248A10.4,10.4,0,0,1,266.222-.5v-5.68c0-.7-.016-1.184-.048-1.808a15.673,15.673,0,0,0,2.56,4.432,14.84,14.84,0,0,0,2.064,2.08,3.946,3.946,0,0,1,.864-.848,16.3,16.3,0,0,1-5.12-6.512h3.1a11.942,11.942,0,0,1,1.632.1V-9.888a11.867,11.867,0,0,1-1.648.1h-3.392v-1.776a12.5,12.5,0,0,1,.1-1.568H265.1a12.25,12.25,0,0,1,.112,1.568v1.776H262.3a11.287,11.287,0,0,1-1.6-.1v1.152a11.609,11.609,0,0,1,1.6-.1ZM258.638-.768a16.481,16.481,0,0,1-.1,1.92h1.2a16.485,16.485,0,0,1-.08-1.872V-9.376a21.685,21.685,0,0,0,.992-2.224c.176-.48.384-.992.592-1.536l-1.136-.352a11.515,11.515,0,0,1-.88,2.7A15.468,15.468,0,0,1,256.3-6.448a3.082,3.082,0,0,1,.656.912,11.853,11.853,0,0,0,1.728-2.432c-.048.752-.048,1.216-.048,1.952Zm16.24.048a12.3,12.3,0,0,1-.1,1.7h1.168V-.064h8.256V.976h1.168a12.232,12.232,0,0,1-.1-1.712V-10.992a10.063,10.063,0,0,1,.08-1.472,11.607,11.607,0,0,1-1.648.08h-7.2a13.054,13.054,0,0,1-1.712-.08,11.212,11.212,0,0,1,.08,1.568Zm1.072-10.688h8.256v4.48H275.95Zm0,5.456h8.256V-1.04H275.95ZM290.11,1.3a10.77,10.77,0,0,0,2.224-3.44A10.034,10.034,0,0,0,293.1-6.08a10.034,10.034,0,0,0-.768-3.936,10.77,10.77,0,0,0-2.224-3.44h-1.424a9.956,9.956,0,0,1,2.432,3.312,9.7,9.7,0,0,1,.864,4.064,9.7,9.7,0,0,1-.864,4.064A9.956,9.956,0,0,1,288.686,1.3Z" transform="translate(10147 -375.485)"/><g transform="translate(9504.5 -1139)"><path d="M13.216-9.792a20.482,20.482,0,0,1,6.144-1.056c3.424,0,5.664,1.792,5.664,4.544a3.288,3.288,0,0,1-3.232,3.552A2.213,2.213,0,0,1,19.776-3.84a6.166,6.166,0,0,1-.448-2.816,11.1,11.1,0,0,1,.064-1.408A13.5,13.5,0,0,1,15.84-6.656a10.691,10.691,0,0,0,.544,4.1A5.166,5.166,0,0,0,21.632.992,7.109,7.109,0,0,0,28.9-6.3c0-4.544-3.808-7.808-9.152-7.808a22.19,22.19,0,0,0-6.528.9v-4.16c1.216-.128,1.856-.224,2.912-.416,2.208-.384,2.816-.48,3.392-.576l-.128-3.584a35.688,35.688,0,0,1-6.176,1.216v-2.048a19.646,19.646,0,0,1,.192-3.488h-4a21.926,21.926,0,0,1,.192,3.68v2.112c-.352,0-.512,0-1.28.032-.448.032-.8.032-1.12.032A19.626,19.626,0,0,1,3.328-20.7L3.36-17.12a6,6,0,0,1,.672-.032c.1,0,.384,0,.8.032.384,0,1.28.032,1.76.032.8,0,1.248,0,1.728-.032,1.056-.064,1.056-.064,1.312-.064l.032,4.928a17.119,17.119,0,0,0-4.672,2.72C3.232-8,2.24-6.3,2.24-4.8A4.7,4.7,0,0,0,4-1.184a9.968,9.968,0,0,0,6.048,2.272A2.812,2.812,0,0,0,12.992-.768a9.528,9.528,0,0,0,.256-2.72ZM9.632-3.968c0,1.056-.16,1.344-.7,1.344a3.847,3.847,0,0,1-2.048-.7C6.144-3.776,5.824-4.256,5.824-4.8c0-1.152,1.408-2.56,3.808-3.84ZM30.3-17.472a27.141,27.141,0,0,0-6.336-6.56L20.96-22.016a27.326,27.326,0,0,1,6.4,6.912Zm15.68-5.952v1.216H37.856a35.77,35.77,0,0,1-3.936-.128,20.492,20.492,0,0,1,.128,2.624V-17.7a14.785,14.785,0,0,1-.192,2.528h3.328V-19.68h8.8v3.168a25.807,25.807,0,0,1-.16,3.008H49.5a18.812,18.812,0,0,1-.128-3.008V-19.68h9.28v4.512h3.3a14.809,14.809,0,0,1-.16-2.528v-2.016a15.349,15.349,0,0,1,.128-2.624,36.861,36.861,0,0,1-3.968.128H49.376v-1.216H56.7A32.5,32.5,0,0,1,60-23.3v-3.1a29.713,29.713,0,0,1-3.616.192h-16.9a31.652,31.652,0,0,1-3.616-.192v3.1c1.056-.1,1.952-.128,3.36-.128Zm13.344,13.7a26.4,26.4,0,0,1,.128-3.1,27.626,27.626,0,0,1-3.168.128h-16.9a25.886,25.886,0,0,1-3.04-.128,28.8,28.8,0,0,1,.16,3.072v5.888A24.424,24.424,0,0,1,36.32-.7h3.552V-2.336h6.112V-.16c0,2.144.928,2.464,7.2,2.464,5.472,0,7.3-.224,8.224-1.024.832-.7,1.184-2.048,1.28-4.832a11.239,11.239,0,0,1-3.36-1.28ZM49.312-2.336H59.2c-.1,1.088-.224,1.376-.608,1.568a15.139,15.139,0,0,1-4.544.416A15.275,15.275,0,0,1,49.536-.7c-.16-.064-.224-.224-.224-.48Zm-3.328-7.9v1.472H39.872V-10.24Zm3.328,0h6.656v1.472H49.312ZM45.984-6.5v1.6H39.872V-6.5Zm3.328,0h6.656v1.6H49.312ZM38.528-16.7a11.64,11.64,0,0,1,1.664-.1h2.816a11.153,11.153,0,0,1,1.632.1v-2.144a10.855,10.855,0,0,1-1.632.1H40.192a7.647,7.647,0,0,1-1.664-.1Zm0,3.008a11.64,11.64,0,0,1,1.664-.1h2.816a10.284,10.284,0,0,1,1.632.1V-15.84a10.565,10.565,0,0,1-1.632.1H40.192a7.647,7.647,0,0,1-1.664-.1ZM50.816-16.7a11.334,11.334,0,0,1,1.664-.1h3.264a11.461,11.461,0,0,1,1.632.1v-2.144a10.855,10.855,0,0,1-1.632.1H52.48a7.491,7.491,0,0,1-1.664-.1Zm0,3.008a11.64,11.64,0,0,1,1.664-.1h3.264a10.565,10.565,0,0,1,1.632.1V-15.84a10.565,10.565,0,0,1-1.632.1H52.48a7.491,7.491,0,0,1-1.664-.1Zm33.152-4H81.216a27.783,27.783,0,0,1-3.648-.192V-14.4a27.585,27.585,0,0,1,3.616-.192h2.784V-10.4H80.736a17.112,17.112,0,0,1-2.336-.128c.064.864.1,1.44.1,2.56v7.2a21.661,21.661,0,0,1-.16,3.264H81.92V1.056h7.84V2.5h3.616a31.89,31.89,0,0,1-.16-3.36v-6.88a21.615,21.615,0,0,1,.128-2.784,16.07,16.07,0,0,1-2.4.128h-3.52v-4.192h3.488A28.08,28.08,0,0,1,94.5-14.4v-3.488a26.916,26.916,0,0,1-3.616.192H87.424v-4.64c1.536-.32,3.2-.736,5.088-1.28,1.12-.32,1.12-.32,1.536-.416L92.064-27.1c-2.528,1.408-9.12,2.688-14.88,2.88a12.166,12.166,0,0,1,1.184,3.136c3.36-.352,3.68-.384,5.6-.64ZM81.92-7.328h7.84v5.312H81.92ZM66.592-22.88a20.71,20.71,0,0,1,2.656-.128H73.92a20.394,20.394,0,0,1,2.656.128v-3.136a19.776,19.776,0,0,1-2.656.128H69.248a19.776,19.776,0,0,1-2.656-.128ZM65.568-18.4a19.339,19.339,0,0,1,2.592-.128h6.688a20.543,20.543,0,0,1,2.432.1V-21.6a17.319,17.319,0,0,1-2.592.128H68.16a14.483,14.483,0,0,1-2.592-.16Zm1.152,4.448a18.373,18.373,0,0,1,2.112-.1h5.7a13.316,13.316,0,0,1,2.048.1v-3.04a16.433,16.433,0,0,1-2.048.1h-5.7a18.373,18.373,0,0,1-2.112-.1Zm0,4.48a17.76,17.76,0,0,1,2.08-.1h5.664a13.344,13.344,0,0,1,2.112.1v-3.04a11.893,11.893,0,0,1-2.048.1h-5.7a18.373,18.373,0,0,1-2.112-.1Zm3.264,10.56h3.552V2.176H76.7a18.1,18.1,0,0,1-.128-2.5V-5.7a20.239,20.239,0,0,1,.1-2.3,11.359,11.359,0,0,1-2.144.1H69.152a18.617,18.617,0,0,1-2.432-.128A20.858,20.858,0,0,1,66.848-5.5V-.416a21.332,21.332,0,0,1-.16,3.008h3.3ZM69.92-5.088h3.616V-1.76H69.92ZM98.592-18.144a40.161,40.161,0,0,1,5.312-.64c6.208-.448,8.192-.64,10.784-1.024a14.151,14.151,0,0,0-4.448,3.232,11.143,11.143,0,0,0-3.04,7.52,8.562,8.562,0,0,0,4.576,7.712A19.252,19.252,0,0,0,119.264.768c.608.1.672.1,1.088.192l.576-4.352c-.32.032-.608.032-.64.032a19.419,19.419,0,0,1-4.768-.832c-2.688-.8-4.256-2.72-4.256-5.216,0-3.232,2.4-6.432,6.464-8.544a14.311,14.311,0,0,1,6.336-1.728,4.955,4.955,0,0,1,.672.032l-.224-4.064a17.241,17.241,0,0,1-3.3.256c-8.544.416-14.016.7-16.352.832-4.7.32-4.7.32-5.28.32-.16,0-.512,0-1.216-.032Zm19.584,3.072a21.6,21.6,0,0,1,3.36,4.768l2.24-1.184a20.738,20.738,0,0,0-3.36-4.7Zm9.408,1.5a18.506,18.506,0,0,0-3.328-4.512l-2.144,1.12a23.577,23.577,0,0,1,3.264,4.64ZM146.5-20.512a6.994,6.994,0,0,1,3.232.96,7.928,7.928,0,0,1,3.936,7.1,8.959,8.959,0,0,1-4.448,8,17.006,17.006,0,0,1-6.368,1.76A10.208,10.208,0,0,1,144.8,1.056a20.921,20.921,0,0,0,5.024-1.344A12.328,12.328,0,0,0,157.6-12.224c0-7.2-4.992-11.872-12.672-11.872a14.365,14.365,0,0,0-11.008,4.48A13.746,13.746,0,0,0,130.4-10.3c0,5.152,2.624,8.864,6.272,8.864,2.624,0,4.672-1.888,6.5-6.016A46.294,46.294,0,0,0,146.5-20.512Zm-3.9.032a42.173,42.173,0,0,1-2.656,10.816c-1.152,2.752-2.24,4.1-3.3,4.1-1.408,0-2.528-2.08-2.528-4.7a10.714,10.714,0,0,1,4.352-8.64A8.146,8.146,0,0,1,142.592-20.48ZM169.76-2.656c-1.792,1.248-4.7,2.176-8.768,2.784a7.9,7.9,0,0,1,1.952,2.912,25.35,25.35,0,0,0,5.824-1.664,16.945,16.945,0,0,0,4.384-2.464l-1.984-1.568h8.96l-1.92,1.568a22.819,22.819,0,0,0,4.736,2.432,25.471,25.471,0,0,0,6.272,1.6,11.649,11.649,0,0,1,1.728-3.1,24.3,24.3,0,0,1-9.152-2.5h2.368c1.376,0,2.336.032,3.392.128a31.866,31.866,0,0,1-.128-3.648v-7.456a36.485,36.485,0,0,1,.128-3.648c-.9.064-1.664.1-3.52.1H167.808c-1.7,0-2.368-.032-3.36-.1a34.575,34.575,0,0,1,.16,3.616V-6.3a34.485,34.485,0,0,1-.16,3.776c1.12-.1,2.08-.128,3.456-.128Zm-1.7-11.84h15.9v1.408h-15.9Zm0,3.84h15.9v1.344h-15.9Zm0,3.776h15.9v1.536h-15.9Zm21.312-16.48a20.933,20.933,0,0,1,.128-2.688,33.047,33.047,0,0,1-3.616.128H166.016a33.425,33.425,0,0,1-3.616-.128,16.607,16.607,0,0,1,.16,2.688v2.5a14.7,14.7,0,0,1-.16,2.592c.7-.064,1.728-.1,3.328-.1h20.416c1.76,0,2.592.032,3.36.1a18.448,18.448,0,0,1-.128-2.592ZM170.3-21.12h-4.448v-2.048H170.3Zm7.648,0h-4.416v-2.048h4.416Zm3.232,0v-2.048h4.768v2.048Zm25.792,19.9a13.636,13.636,0,0,1,1.952,3.552,25.07,25.07,0,0,0,6.432-6.08A23.58,23.58,0,0,0,221.7,2.3a17.993,17.993,0,0,1,1.92-3.584,19.177,19.177,0,0,1-6.176-5.632,37.679,37.679,0,0,0,4.576-15.2c.1-.96.16-1.6.224-2.016a23.006,23.006,0,0,1-2.592.16h-8.384c-.8,0-1.472-.032-2.048-.064v-1.984a19.148,19.148,0,0,1-2.912.16h-9.76a26,26,0,0,1-2.88-.16v3.456c.7-.064,1.056-.1,2.144-.128V-5.216a15.223,15.223,0,0,1-2.464.32l.9,3.648a17.915,17.915,0,0,1,2.56-.672c1.44-.288,3.616-.864,6.816-1.824V-.768a28.067,28.067,0,0,1-.192,3.456h3.744a21.979,21.979,0,0,1-.192-3.456Zm0-21.472a11.074,11.074,0,0,1,1.216.032v2.048c.512-.064.736-.1,1.344-.128a40.316,40.316,0,0,0,1.472,8.1,30.115,30.115,0,0,0,2.368,5.728,19.679,19.679,0,0,1-6.4,5.632Zm11.488,1.92c-.736,4.736-1.536,7.584-3.008,10.5-1.44-3.136-2.016-5.28-2.656-10.5Zm-19.3-1.92h4.448v3.52h-4.448Zm0,6.368h4.448V-12.9h-4.448Zm0,6.336h4.448v3.1a44.566,44.566,0,0,1-4.448,1.024ZM240-15.968a3.8,3.8,0,0,0-3.808,3.808A3.8,3.8,0,0,0,240-8.352a3.8,3.8,0,0,0,3.808-3.808A3.8,3.8,0,0,0,240-15.968Zm27.36-1.984c.736,0,1.28.032,2.016.1v-3.392a9.485,9.485,0,0,1-2.048.16H265.5v-2.624a21.6,21.6,0,0,1,.192-3.3H261.92a20.666,20.666,0,0,1,.192,3.328v2.592h-1.984a11.315,11.315,0,0,1-2.368-.16v3.424a15.675,15.675,0,0,1,2.336-.128h1.568a26.741,26.741,0,0,1-4.9,9.984,12.255,12.255,0,0,1,1.76,3.488,18.889,18.889,0,0,0,1.888-3.264,26.547,26.547,0,0,0,1.92-4.864c-.128,1.12-.224,3.392-.224,4.8v6.592a32.474,32.474,0,0,1-.192,3.936H265.7a32.1,32.1,0,0,1-.192-3.936V-9.44c0-1.76-.032-2.528-.128-4.384a20.931,20.931,0,0,0,3.04,5.376,9.781,9.781,0,0,1,1.28-2.72c.1-.128.224-.352.384-.608a16.88,16.88,0,0,1-4.288-6.176Zm6.432,20.544V.7h8.032V2.528h3.648c-.1-.992-.16-2.368-.16-4.064V-22.624c0-1.472.032-2.336.1-3.264a18.986,18.986,0,0,1-2.752.128h-9.6c-1.376,0-1.984-.032-2.848-.1.1,1.536.128,2.3.128,3.392V-1.5c0,1.568-.064,2.912-.16,4.1Zm0-25.088h8.032v4.544h-8.032Zm0,7.584h8.032V-10.4h-8.032Zm0,7.552h8.032V-2.5h-8.032Zm33.76-6.464a16.715,16.715,0,0,1,.1,1.984c0,3.744-.7,6.24-2.368,8.16a11.32,11.32,0,0,1-5.44,3.424V-5.632a19.109,19.109,0,0,1,.1-2.3,9.772,9.772,0,0,1-1.92.1h-5.5a13,13,0,0,1-2.144-.128,20.666,20.666,0,0,1,.128,2.5v4.9c0,1.024-.064,2.144-.16,3.136h3.3V.9H296.8V2.208H300c-.064-.7-.1-1.056-.128-2.208a14.5,14.5,0,0,1,1.536,2.912c4.416-1.824,6.752-4.16,8.1-8a16.153,16.153,0,0,0,7.968,7.936A12.582,12.582,0,0,1,319.3-.544a14.176,14.176,0,0,1-6.08-4.192c-1.5-1.824-2.208-4.128-2.208-7.3a10.494,10.494,0,0,1,.128-1.792ZM293.536-5.248h3.328v3.392h-3.328Zm-3.008-17.76c.768-.064,1.44-.1,2.592-.1h4.1c1.152,0,1.728.032,2.592.1V-26.08a13.845,13.845,0,0,1-2.592.16h-4.1a13.638,13.638,0,0,1-2.592-.16Zm-1.248,4.736a19.125,19.125,0,0,1,2.56-.128h6.4a14.71,14.71,0,0,1,2.432.128v-3.3a17.38,17.38,0,0,1-2.56.128H291.84a14.1,14.1,0,0,1-2.56-.16Zm1.248,4.448a16.2,16.2,0,0,1,2.016-.1h5.248a15.984,15.984,0,0,1,1.984.1V-16.8a14.625,14.625,0,0,1-1.984.1h-5.248a16.2,16.2,0,0,1-2.016-.1Zm0,4.448a16.206,16.206,0,0,1,2.016-.1h5.216a15.855,15.855,0,0,1,2.016.1v-2.976a14.624,14.624,0,0,1-1.984.1h-5.248a16.2,16.2,0,0,1-2.016-.1Zm12.288-15.808a11.743,11.743,0,0,1-1.952,5.088l3.008,1.216a18.491,18.491,0,0,0,2.112-5.536Zm12.448-.384A16.044,16.044,0,0,1,312.1-20.48a9.61,9.61,0,0,1,2.72,1.632,25.5,25.5,0,0,0,3.552-5.5ZM302.656-11.3a12.362,12.362,0,0,1-2.144,5.248L303.488-4.7a19.215,19.215,0,0,0,2.272-5.632Zm12.576-.32a16.4,16.4,0,0,1-2.912,4.992,10.184,10.184,0,0,1,2.688,1.664,23.568,23.568,0,0,0,3.3-5.408Zm-7.616-15.04a16.37,16.37,0,0,1,.1,1.792A11.068,11.068,0,0,1,306.3-18.72c-1.312,2.112-3.1,3.36-6.208,4.384a10.382,10.382,0,0,1,1.856,2.88,14.281,14.281,0,0,0,5.312-3.616,12.028,12.028,0,0,0,2.208-3.712,12.174,12.174,0,0,0,2.24,3.424,16.066,16.066,0,0,0,5.44,3.9,12.978,12.978,0,0,1,1.76-3.168,13.309,13.309,0,0,1-4.064-1.984,9.085,9.085,0,0,1-3.008-3.616,12.407,12.407,0,0,1-.8-4.608,11.93,11.93,0,0,1,.128-1.824Z" transform="translate(675 665.5)" fill="#5fc1aa"/><path d="M318,1.5H0v-3H318Z" transform="translate(675.5 675)" fill="#5fc1aa"/><g transform="translate(595.5 624.301)"><g clip-path="url(#b)"><g clip-path="url(#b)"><g transform="translate(0 2.199)" opacity="0.2" style="mix-blend-mode:multiply;isolation:isolate"><g clip-path="url(#d)"><path d="M30.938,2.511C49.412,1.306,65.558,10.7,67,23.487c.88,7.787-3.9,15.032-11.939,19.786l8.2,7.634-13.4-5.094a45.117,45.117,0,0,1-13.689,3.012C17.695,50.029,1.547,40.637.1,27.849S12.464,3.716,30.938,2.511" transform="translate(0 -2.407)"/></g></g><path d="M34.107.1c18.474-1.2,34.62,8.191,36.064,20.98.88,7.787-3.9,15.032-11.939,19.786l8.2,7.634L53.026,43.406a45.117,45.117,0,0,1-13.689,3.012C20.864,47.622,4.716,38.23,3.272,25.442S15.633,1.309,34.107.1" transform="translate(-0.274)" fill="#5fc1aa"/><path d="M14.036,19.515c.111,0,.181.012.19.089s-.079.129-.126.153c0,.257.022.554.047.9a6.179,6.179,0,0,0,1.277-.58c.029.313.067.7.09.9a3.651,3.651,0,0,0,.071.454,6.3,6.3,0,0,1-1.343.546c.011.092.043.5.052.576A4.281,4.281,0,0,1,15.7,22.13a2.258,2.258,0,0,1,2.615,2.012,1.973,1.973,0,0,1-1.754,2.344,1.316,1.316,0,0,1-1.5-1.33c.17-.08.9-.426,1.006-.48.021.169.068.565.466.519.321-.039.494-.385.443-.808a1.069,1.069,0,0,0-1.257-.981,3.987,3.987,0,0,0-1.275.45,25.208,25.208,0,0,0,.412,2.533l-1.1.662a11.42,11.42,0,0,0-1.623-1.032c-.185.252-.271.383-.374.541l-.781-1.383c.364-.257,1.764-1.607,2.076-1.859-.035-.3-.043-.363-.129-1.013-.5.084-1.087.164-1.568.221L11.2,21.181a3.6,3.6,0,0,0,.675-.028c.329-.039.8-.13.9-.142-.076-.634-.1-.726-.222-1.569ZM12.79,25.194a.912.912,0,0,0,.407.174c.127-.014.083-.31.037-.629-.091.1-.254.245-.444.455m3.88-5.024a7.334,7.334,0,0,1,2,1.133,6.022,6.022,0,0,0-.7,1.123,4.939,4.939,0,0,0-1.951-1.114Z" transform="translate(-0.951 -1.683)" fill="#fff"/><path d="M27.187,19.572l.4,3.323-.558.067A6.827,6.827,0,0,1,28.408,24.5a4.3,4.3,0,0,0-.89.809,5.5,5.5,0,0,0-1.409-1.676l.906-.674-2.207.263c.3.23.485.406.744.64a5.531,5.531,0,0,0-.775.762,5.315,5.315,0,0,0-.863-.841.421.421,0,0,1-.153.164l.079.66c.03.253.084.271.353.239l1-.119c.212-.025.322-.038.309-.792a3.31,3.31,0,0,0,1.117.305c-.038.828-.129,1.37-1.008,1.475l-1.946.231c-.448.053-.911.057-.993-.636l-.131-1.092a.626.626,0,0,1-.156.052,5.039,5.039,0,0,1-.947,1.837,2.345,2.345,0,0,0-1.071-.5,4.2,4.2,0,0,0,1.061-1.962l1.09.367-.041-.346,1.244-.062c.078,0,.112,0,.151.043l.454-.373-3.281.391-.113-.947,5.243-.624-.036-.3-4.87.58-.1-.828,4.87-.58L26,20.661l-5.15.612-.007-.059a1.727,1.727,0,0,1-.207.129,1.8,1.8,0,0,0-1-.756,4.9,4.9,0,0,0,2.4-2.379l1.24.1c.069.009.155.015.165.1.013.109-.119.152-.243.191a.913.913,0,0,1-.042.082l2.622-.312.589.266a9.748,9.748,0,0,1-.81,1.117Zm-3.162.376c.065-.1.214-.369.262-.461L22.52,19.7c-.068.084-.164.207-.416.479Z" transform="translate(-1.701 -1.578)" fill="#fff"/><path d="M32.584,17.073c.079.23.135.412.325.929a5.55,5.55,0,0,0,1.072-.65,3.265,3.265,0,0,0,.686,1.008,5.828,5.828,0,0,1-1.262.708c.109.2.153.273.206.37a5.81,5.81,0,0,0,1.332-.844,3.649,3.649,0,0,0,.758.964,8.347,8.347,0,0,1-1.44.867,10.09,10.09,0,0,0,1.34,1.461l-.675.887a4.762,4.762,0,0,0-2.417-.347c-.177.021-.989.118-.922.685.079.668,1.347.517,1.627.482a5.771,5.771,0,0,0,2.106-.67c.008.136.013.315.041.56.036.3.079.523.143.841a10.544,10.544,0,0,1-2.122.476,3.382,3.382,0,0,1-2.267-.246,1.524,1.524,0,0,1-.845-1.193c-.14-1.176.939-1.829,2.048-1.96a3.743,3.743,0,0,1,1.2.047c-.183-.235-.275-.362-.408-.543a12.527,12.527,0,0,1-2.6.6,5.524,5.524,0,0,1-.69.039l-.248-1.222a6.058,6.058,0,0,0,1.074-.05,9.911,9.911,0,0,0,1.807-.386c-.1-.185-.153-.274-.2-.38a8.823,8.823,0,0,1-1.45.283c-.339.041-.576.061-.772.075l-.334-1.15c.214-.009.606-.022,1.038-.073a5.592,5.592,0,0,0,.973-.185c-.307-.633-.342-.706-.459-.975Zm2.5.1a7.024,7.024,0,0,1,.812.915c-.077.078-.4.406-.57.617a10.553,10.553,0,0,0-.824-.941Zm.63-.685a3.5,3.5,0,0,1,.877.815,5.931,5.931,0,0,0-.581.591,4.252,4.252,0,0,0-.8-.83Z" transform="translate(-2.56 -1.428)" fill="#fff"/><path d="M42.473,22.328a2.724,2.724,0,0,0,2.063-2.922,2.02,2.02,0,0,0-2.2-1.839c.107,3.126-.9,5.587-1.792,5.693-.66.079-2.019-.892-2.205-2.456a4.179,4.179,0,0,1,3.675-4.434,3.309,3.309,0,0,1,3.857,2.868,3.972,3.972,0,0,1-.687,2.733,4.741,4.741,0,0,1-1.689,1.445,5.464,5.464,0,0,0-1.021-1.089m-2.9-1.775c.078.653.5,1.1.677,1.078.2-.024.319-.423.385-.655a7.449,7.449,0,0,0,.305-2.987,2.9,2.9,0,0,0-1.367,2.564" transform="translate(-3.317 -1.415)" fill="#fff"/><path d="M54.839,15.6l.143,1.209-3.645.434c.029.314.029.537.033.708l2.672-.317c.34,2.857.273,3.654-.257,4.326a2.606,2.606,0,0,1-1.611.663,2.17,2.17,0,0,0-.783-1.254c.232.007.818.033.9.022a.63.63,0,0,0,.619-.57,5.9,5.9,0,0,0,.016-1.871l-1.649.2a5.746,5.746,0,0,1-2.622,3.912,2.294,2.294,0,0,0-1.147-.789A4.325,4.325,0,0,0,50.049,17.4l-2.8.332-.143-1.209,3.18-.379-.139-1.167,1.362-.083c.051-.005.155.006.166.1.008.067-.078.138-.134.171l.1.818Z" transform="translate(-4.079 -1.289)" fill="#fff"/><path d="M58.543,14.68c.07.016.117.046.124.1.012.1-.146.138-.222.156a11.774,11.774,0,0,0-.12,3.316,5.958,5.958,0,0,0,.16.839c.09-.174.237-.466.326-.648a3.562,3.562,0,0,0,.709.765,3.769,3.769,0,0,0-.456,2.154l-1.108.347a12.048,12.048,0,0,1-.862-3.354,15.356,15.356,0,0,1,.047-3.934Zm3.994-.665c.044,0,.112,0,.121.08.012.1-.1.141-.178.159a9.3,9.3,0,0,0,.036,1.024,7.86,7.86,0,0,0,1.215-.461l.152,1.277c-.188.075-.566.214-1.253.424A13.819,13.819,0,0,0,63,18.447a4.745,4.745,0,0,1,1.711.68c-.106.261-.3.84-.433,1.26a2.984,2.984,0,0,0-.982-.533c.1,1.086-.972,1.342-1.5,1.406-1.269.15-1.985-.469-2.079-1.255C59.6,19,60.55,18.5,61.652,18.4c-.182-.956-.2-1.065-.279-1.554-.477.1-.824.141-.967.159a6.184,6.184,0,0,1-.629.048l-.158-1.328a8.884,8.884,0,0,0,1.6-.13c-.042-.355-.131-1.1-.187-1.651Zm-1.126,5.452c-.186.021-.585.129-.554.391.026.221.316.28.587.248.068-.007.575-.068.525-.483a.232.232,0,0,0-.03-.107,1.2,1.2,0,0,0-.529-.048" transform="translate(-4.934 -1.207)" fill="#fff"/><path d="M23.056,30.968c.112,0,.181.014.191.09.011.093-.079.13-.128.153,0,.256.023.555.047.9a6.179,6.179,0,0,0,1.277-.58c.029.313.068.7.09.9a3.641,3.641,0,0,0,.071.455,6.308,6.308,0,0,1-1.342.546c.011.092.043.5.051.575a4.311,4.311,0,0,1,1.408-.424A2.259,2.259,0,0,1,27.338,35.6a1.972,1.972,0,0,1-1.754,2.344,1.316,1.316,0,0,1-1.5-1.33c.171-.08.9-.426,1.007-.48.02.169.068.565.465.519.322-.039.494-.385.443-.808a1.069,1.069,0,0,0-1.256-.983,4.012,4.012,0,0,0-1.276.452,25.093,25.093,0,0,0,.413,2.533l-1.1.662a11.5,11.5,0,0,0-1.623-1.034c-.185.254-.271.385-.373.542L20,36.632c.364-.257,1.764-1.607,2.077-1.859-.036-.3-.043-.364-.13-1.013-.5.084-1.087.163-1.568.22l-.161-1.345a3.607,3.607,0,0,0,.675-.028c.33-.039.8-.13.9-.142-.076-.634-.095-.726-.221-1.569Zm-1.245,5.681a.917.917,0,0,0,.406.174c.127-.016.083-.31.037-.631-.091.1-.254.247-.443.457m3.878-5.024a7.246,7.246,0,0,1,2,1.134A5.918,5.918,0,0,0,27,33.88a4.945,4.945,0,0,0-1.952-1.115Z" transform="translate(-1.732 -2.675)" fill="#fff"/><path d="M33.315,30.712l3.273-.389.224,1.885-1.158.137-.13-1.09-2.115.251.182,1.531L32.4,33.18l-.182-1.531L30.1,31.9l.13,1.091-1.183.142-.225-1.886,3.307-.393-.033-.27-2.664.316-.1-.838,6.545-.778.1.838-2.688.32Zm.779,6.555c-.634.076-1.192.142-1.305-.814l-.033-.271-1.319.157.068.567-1.167.139-.4-3.408,6.08-.723.33,2.774a2.862,2.862,0,0,0,.055-.548,2.171,2.171,0,0,0,1.075.31c-.039,1.257-.6,1.487-1.348,1.576Zm-2.082-5.388.064.533-1.666.2-.064-.533Zm.088.736.062.516-1.667.2-.061-.516Zm.407,1.479-1.319.155.04.34,1.319-.157Zm.117.981-1.319.156.041.346,1.319-.156Zm2.695-3.589.063.533-1.657.2-.063-.533Zm-1.578,2.8,1.234-.147-.04-.338-1.234.147Zm1.666-2.066.061.515-1.657.2-.062-.515Zm-1.549,3.055,1.235-.147-.041-.346-1.234.147Zm2,.928c.355-.041.414-.195.47-.449l-2.376.282c.042.355.079.385.469.338Z" transform="translate(-2.495 -2.536)" fill="#fff"/><path d="M43.153,30.589l-.1-.8a9.092,9.092,0,0,1-1.369.248,1.82,1.82,0,0,0-.437-1A8.661,8.661,0,0,0,44.809,28l.959.855a.122.122,0,0,1,.043.073c.008.066-.038.106-.107.114A.368.368,0,0,1,45.511,29a9.2,9.2,0,0,1-1.256.476l.116.972,1.709-.2.125,1.058-1.708.2.108.9,1.42-.17L46.45,35.8l-1.218.145-.056-.464-1.539.182.057.475-1.218.144L42.05,32.7l1.336-.159-.108-.9-1.734.206-.115-.965-3.323.4L38,30.353l3.56-.423.1.837Zm-2.267-1.754.11.913-2.546.3-.109-.913Zm.354,2.324.108.913-2.621.312-.109-.913Zm.368,2.306.326,2.739-1.057.126L40.839,36l-.609.073.055.457-1.218.145-.341-2.867Zm-.23-1.148.107.906-2.621.312-.108-.906ZM40.054,34.6l.064.532.609-.072-.064-.532Zm3.456,0,1.54-.184-.119-1-1.54.184Z" transform="translate(-3.29 -2.424)" fill="#fff"/><path d="M55.062,28.49c-2.093.215-3.678,2.307-3.515,3.677.117.979,1.416,1.314,2.569,1.2a11.6,11.6,0,0,0-.451,1.615c-.706-.1-3.214-.492-3.455-2.514a3.867,3.867,0,0,1,1.21-3.094,23.149,23.149,0,0,0-3.438.949L47.6,28.759a27.744,27.744,0,0,0,3.74-.641,20.5,20.5,0,0,0,3.318-1.02ZM53.8,29.856a5.266,5.266,0,0,1,.894.812c-.216.2-.324.3-.591.586a6.866,6.866,0,0,0-.866-.867Zm.817-.7a5.273,5.273,0,0,1,.858.8,8.022,8.022,0,0,0-.554.6,6.362,6.362,0,0,0-.866-.867Z" transform="translate(-4.121 -2.346)" fill="#fff"/><path d="M58.254,27.079l.234,1.969-.008,2.523-.812.1-.609-2.448-.234-1.97Zm-.8,5.4,1.421-.17.17,1.43-1.42.169Z" transform="translate(-4.92 -2.345)" fill="#fff"/></g></g></g></g></g></svg>