<svg xmlns="http://www.w3.org/2000/svg" xmlns:xlink="http://www.w3.org/1999/xlink" width="61.777" height="30" viewBox="0 0 61.777 30">
  <defs>
    <clipPath id="clip-path">
      <rect id="長方形_5076" data-name="長方形 5076" width="61.777" height="30" fill="#fff"/>
    </clipPath>
  </defs>
  <g id="グループ_6913" data-name="グループ 6913" clip-path="url(#clip-path)">
    <path id="パス_9620" data-name="パス 9620" d="M47.359,24.828H34.653a.573.573,0,0,1-.555-.43,4.743,4.743,0,0,0-9.186,0,.573.573,0,0,1-.555.43h-3.75a.573.573,0,0,1,0-1.147H23.93a5.889,5.889,0,0,1,11.149,0H46.786V1.147H20.607a.573.573,0,0,1,0-1.147H47.359a.573.573,0,0,1,.573.574V24.255a.573.573,0,0,1-.573.573" transform="translate(-3.425 0)" fill="#fff"/>
    <path id="パス_9621" data-name="パス 9621" d="M70.517,25.612H68.21a.574.574,0,0,1-.555-.43,4.741,4.741,0,0,0-9.183,0,.574.574,0,0,1-.555.43H55.058a.573.573,0,0,1-.573-.574V5.162a.573.573,0,0,1,.573-.574h9.1a.572.572,0,0,1,.47.246l6.363,9.141a.576.576,0,0,1,.1.327V25.038a.574.574,0,0,1-.574.574m-1.88-1.147h1.307V14.482L63.856,5.735H55.632V24.465H57.49a5.887,5.887,0,0,1,11.147,0m-.886-8.722h0l-9.925-.07a.574.574,0,0,1-.57-.573V7.928a.573.573,0,0,1,.574-.573h4.883a.576.576,0,0,1,.471.245l5.042,7.243a.573.573,0,0,1-.471.9M58.4,14.531l8.25.059L62.409,8.5H58.4Z" transform="translate(-9.314 -0.784)" fill="#fff"/>
    <path id="パス_9622" data-name="パス 9622" d="M30.545,34.363a4.42,4.42,0,1,1,4.42-4.42,4.426,4.426,0,0,1-4.42,4.42m0-7.694a3.274,3.274,0,1,0,3.274,3.274,3.277,3.277,0,0,0-3.274-3.274" transform="translate(-4.466 -4.363)" fill="#fff"/>
    <path id="パス_9623" data-name="パス 9623" d="M63.921,34.363a4.42,4.42,0,1,1,4.42-4.42,4.426,4.426,0,0,1-4.42,4.42m0-7.694A3.274,3.274,0,1,0,67.2,29.942a3.277,3.277,0,0,0-3.274-3.274" transform="translate(-10.172 -4.363)" fill="#fff"/>
    <path id="パス_9624" data-name="パス 9624" d="M22.272,29.711H15.01a.573.573,0,0,1,0-1.147h7.262a.573.573,0,0,1,0,1.147" transform="translate(-2.468 -4.883)" fill="#fff"/>
    <path id="パス_9625" data-name="パス 9625" d="M17.182,1.147H.573A.573.573,0,0,1,.573,0H17.182a.573.573,0,0,1,0,1.147" transform="translate(0 0)" fill="#fff"/>
    <path id="パス_9626" data-name="パス 9626" d="M17.594,5.908H2.979a.573.573,0,0,1,0-1.147H17.594a.573.573,0,0,1,0,1.147" transform="translate(-0.411 -0.814)" fill="#fff"/>
    <path id="パス_9627" data-name="パス 9627" d="M18.005,10.668H5.384a.573.573,0,0,1,0-1.147H18.005a.573.573,0,0,1,0,1.147" transform="translate(-0.822 -1.628)" fill="#fff"/>
    <path id="パス_9628" data-name="パス 9628" d="M18.417,15.428H7.793a.573.573,0,1,1,0-1.147H18.417a.573.573,0,0,1,0,1.147" transform="translate(-1.234 -2.441)" fill="#fff"/>
    <path id="パス_9629" data-name="パス 9629" d="M18.828,20.188H10.2a.573.573,0,1,1,0-1.147h8.63a.573.573,0,0,1,0,1.147" transform="translate(-1.645 -3.255)" fill="#fff"/>
    <path id="パス_9630" data-name="パス 9630" d="M19.24,24.952H12.606a.573.573,0,0,1,0-1.147H19.24a.573.573,0,0,1,0,1.147" transform="translate(-2.057 -4.069)" fill="#fff"/>
    <path id="パス_9631" data-name="パス 9631" d="M19.651,29.712h-4.64a.573.573,0,1,1,0-1.147h4.64a.573.573,0,0,1,0,1.147" transform="translate(-2.468 -4.883)" fill="#fff"/>
  </g>
</svg>
