<svg width="154" height="154" viewBox="0 0 154 154" fill="none" xmlns="http://www.w3.org/2000/svg">
<circle cx="77" cy="77" r="76" fill="white" stroke="#5FC1AA" stroke-width="2"/>
<g opacity="0.2">
<path d="M33.7427 116.297C39.9486 111.953 34.7113 104.397 34.4303 104.292C34.1829 104.2 34.3549 106.657 32.2205 109.613C30.0862 112.573 31.5622 116.612 32.3463 116.045C34.0236 114.838 34.5939 110.569 34.5939 110.569C34.7993 111.726 34.1787 114.687 33.3653 115.899C32.7866 116.754 33.7385 116.297 33.7385 116.297H33.7427Z" fill="#5FC1AA"/>
<path d="M43.4878 32.9022C43.5297 32.6799 41.454 33.1747 38.6194 31.77C35.7764 30.3653 32.5351 32.2019 33.1347 32.7973C34.4052 34.0595 38.1372 33.9379 38.1372 33.9379C37.177 34.2775 34.5562 34.1769 33.4031 33.6486C32.5854 33.2796 33.1137 34.0259 33.1137 34.0259C37.7137 38.7224 43.4374 33.1621 43.4878 32.9064V32.9022Z" fill="#5FC1AA"/>
<path d="M27.3356 108.699C34.0867 105.26 29.9438 97.0542 29.6754 96.9075C29.449 96.7817 29.277 99.2389 26.7527 101.872C24.2284 104.51 25.1257 108.716 25.9937 108.259C27.8178 107.298 28.9751 103.147 28.9751 103.147C29.0213 104.321 28.0023 107.168 27.0253 108.259C26.3334 109.022 27.3356 108.699 27.3356 108.699Z" fill="#5FC1AA"/>
<path d="M26.6857 40.8483C28.3001 41.7414 31.9733 40.5799 31.9733 40.5799C31.1137 41.1879 28.4846 41.8169 27.1931 41.6198C26.2789 41.4773 27.0128 42.0727 27.0128 42.0727C32.8959 45.4441 37.0178 38.3198 36.9926 38.0514C36.9759 37.8166 35.0512 38.8942 31.8392 38.2904C28.6271 37.6908 25.9141 40.429 26.6815 40.8525L26.6857 40.8483Z" fill="#5FC1AA"/>
<path d="M21.8465 99.7546C21.0875 100.409 22.0939 100.216 22.0939 100.216C29.0001 97.7377 26.0271 89.3387 25.7839 89.1667C25.5785 89.02 25.1172 91.3556 22.3665 93.5822C19.6199 95.8088 19.9679 99.9601 20.8485 99.6288C22.7271 98.9244 24.3457 95.0792 24.3457 95.0792C24.2408 96.2155 22.9116 98.8279 21.8465 99.7546Z" fill="#5FC1AA"/>
<path d="M18.4582 90.2697C17.6196 90.7729 18.626 90.7603 18.626 90.7603C25.7209 89.4939 24.2155 80.881 24.0142 80.6714C23.8423 80.4953 23.0079 82.6799 19.9804 84.3824C16.9529 86.0848 16.6132 90.1607 17.5189 89.9845C19.4478 89.6113 21.6493 86.1561 21.6493 86.1561C21.3599 87.238 19.6491 89.5484 18.4582 90.2697Z" fill="#5FC1AA"/>
<path d="M18.3031 60.2168C24.9368 62.3973 27.6121 54.3588 27.5324 54.0905C27.4653 53.8598 25.7503 55.3443 22.3915 55.4071C19.0285 55.47 16.8607 58.7869 17.7245 59.0594C19.5401 59.6213 23.0037 57.6883 23.0037 57.6883C22.2657 58.4808 19.7414 59.6591 18.3954 59.7304C17.4477 59.7765 18.3073 60.2168 18.3073 60.2168H18.3031Z" fill="#5FC1AA"/>
<path d="M17.2633 80.491C16.4078 80.9523 17.3974 80.9816 17.3974 80.9816C24.4588 80.0717 23.3938 71.4966 23.1967 71.2869C23.0373 71.0982 22.1106 73.22 19.0454 74.7547C15.9759 76.2894 15.4392 80.2898 16.3449 80.164C18.2696 79.8872 20.6095 76.5829 20.6095 76.5829C20.2698 77.6396 18.4667 79.8369 17.2633 80.491Z" fill="#5FC1AA"/>
<path d="M36.2711 28.8473C35.9859 27.6103 36.3969 25.0272 36.9294 24.1509C36.9294 24.1509 36.074 27.7864 37.051 29.2792C37.5165 29.9836 39.9611 27.17 39.1434 24.1089C38.3341 21.0479 39.2315 19.1148 39.0009 19.1106C38.7367 19.1106 32.1575 23.6141 35.8476 29.0527C35.8476 29.0527 36.4724 29.7195 36.2711 28.8473Z" fill="#5FC1AA"/>
<path d="M59.3425 23.7192C59.4096 23.5179 57.4053 23.6814 54.9606 21.9622C52.516 20.2472 49.2285 21.4926 49.7023 22.1341C50.7087 23.4927 54.2058 23.9162 54.2058 23.9162C53.2624 24.0965 50.8345 23.6227 49.8323 22.9686C49.1278 22.4989 49.5136 23.2747 49.5136 23.2747C53.124 28.3107 59.2545 23.9498 59.3383 23.7192H59.3425Z" fill="#5FC1AA"/>
<path d="M50.9686 19.3496C50.9686 18.1546 51.9121 15.8651 52.583 15.1774C52.583 15.1774 51.0105 18.3307 51.5892 19.9157C51.8659 20.6621 54.7215 18.6032 54.6293 15.6177C54.537 12.6363 55.7782 11.0471 55.5727 11.0009C55.3295 10.9422 48.3185 13.6552 50.5367 19.4461C50.5367 19.4461 50.9602 20.1925 50.9686 19.3538V19.3496Z" fill="#5FC1AA"/>
<path d="M49.941 127.849C54.9519 121.669 47.4753 115.559 47.1567 115.53C46.8841 115.509 47.7731 117.941 46.4732 121.543C45.1775 125.153 47.8905 128.852 48.5195 128.046C49.8613 126.34 49.1526 121.82 49.1526 121.82C49.6936 122.931 49.9242 126.097 49.4546 127.556C49.1149 128.587 49.9452 127.849 49.9452 127.849H49.941Z" fill="#5FC1AA"/>
<path d="M55.1193 18.6787C56.6792 19.1693 59.6522 17.513 59.6522 17.513C59.0148 18.1923 56.8511 19.2029 55.698 19.2574C54.8887 19.2993 55.6267 19.6809 55.6267 19.6809C61.3127 21.5553 63.619 14.6658 63.5477 14.4352C63.4932 14.2339 62.013 15.5044 59.1322 15.559C56.2473 15.6093 54.3897 18.4565 55.1235 18.6829L55.1193 18.6787Z" fill="#5FC1AA"/>
<path d="M51.4089 27.4047C51.4592 27.1909 49.4045 27.5892 46.6831 26.0964C43.9575 24.5994 40.7036 26.2683 41.2697 26.8722C42.4605 28.1595 46.1254 28.1972 46.1254 28.1972C45.1694 28.4907 42.6031 28.2769 41.4961 27.7192C40.7162 27.3166 41.2026 28.0756 41.2026 28.0756C45.5132 32.8685 51.346 27.6563 51.4089 27.4047Z" fill="#5FC1AA"/>
<path d="M44.5863 23.5596C44.3557 22.3394 44.8673 19.8151 45.4208 18.9848C45.4208 18.9848 44.4312 22.5113 45.3411 24.0209C45.7604 24.7295 48.2764 22.071 47.6013 19.0352C46.9303 16.0076 47.8906 14.1459 47.6683 14.1375C47.4126 14.1291 40.7747 18.2678 44.1628 23.7483C44.1628 23.7483 44.7499 24.4234 44.5905 23.5638L44.5863 23.5596Z" fill="#5FC1AA"/>
<path d="M42.3849 122.679C47.2533 116.586 39.8732 110.657 39.5629 110.636C39.2945 110.615 40.1835 112.989 38.9381 116.532C37.6927 120.075 40.3596 123.551 40.976 122.759C42.2759 121.077 41.5631 116.775 41.5631 116.775C42.104 117.857 42.3598 120.964 41.9069 122.394C41.584 123.409 42.3849 122.675 42.3849 122.675V122.679Z" fill="#5FC1AA"/>
<path d="M15.5355 69.6389C17.4393 69.6851 20.2319 66.863 20.2319 66.863C19.7371 67.8275 17.6363 69.6641 16.37 70.1002C15.4684 70.4063 16.4203 70.5992 16.4203 70.5992C23.3978 70.8592 23.7459 62.3972 23.5991 62.1582C23.4649 61.9528 22.2321 63.8523 19.0159 64.8461C15.8039 65.8357 14.6382 69.6222 15.5397 69.6389H15.5355Z" fill="#5FC1AA"/>
<path d="M22.1023 106.275C22.1023 106.275 23.0164 105.755 21.9849 105.747C20.5214 105.734 17.7371 104.573 16.8943 103.751C16.8943 103.751 20.7395 105.688 22.6893 104.988C23.5993 104.657 21.0959 101.164 17.4478 101.252C13.7997 101.34 11.875 99.8134 11.8079 100.069C11.7324 100.363 15.0157 108.955 22.1023 106.279V106.275Z" fill="#5FC1AA"/>
<path d="M28.8243 114.758C28.8243 114.758 29.6377 114.087 28.6146 114.255C27.1763 114.486 24.2327 113.798 23.2682 113.123C23.2682 113.123 27.3776 114.402 29.1807 113.387C30.0277 112.913 26.9834 109.877 23.4024 110.561C19.8172 111.253 17.6577 110.066 17.6451 110.322C17.62 110.628 22.2702 118.561 28.8243 114.758Z" fill="#5FC1AA"/>
<path d="M14.6049 85.3804C14.6049 85.3804 15.5525 85.0617 14.5965 84.8646C13.2337 84.5795 10.8477 82.9693 10.2271 82.0426C10.2271 82.0426 13.4433 84.5753 15.389 84.286C16.3073 84.156 14.63 80.4198 11.2125 79.816C7.79088 79.2122 6.28551 77.4259 6.18068 77.6523C6.05488 77.9123 7.49316 86.5419 14.6091 85.3846L14.6049 85.3804Z" fill="#5FC1AA"/>
<path d="M17.901 96.2323C17.901 96.2323 18.8319 95.813 17.8381 95.7123C16.4292 95.5698 13.8378 94.1944 13.104 93.3264C13.104 93.3264 16.6389 95.5446 18.5803 95.0372C19.4944 94.8024 17.3936 91.2004 13.8629 90.9614C10.3406 90.7182 8.61302 89.0745 8.52915 89.3135C8.43271 89.5944 10.827 98.178 17.9052 96.2281L17.901 96.2323Z" fill="#5FC1AA"/>
<path d="M36.7742 121.09C35.3737 121.639 32.2623 121.606 31.1469 121.14C31.1469 121.14 35.4785 121.547 37.0636 120.13C37.81 119.463 34.1577 117.052 30.7066 118.545C27.2598 120.029 24.8277 119.32 24.8697 119.585C24.9158 119.895 31.3524 126.83 37.0887 121.547C37.0887 121.547 37.7596 120.696 36.77 121.09H36.7742Z" fill="#5FC1AA"/>
<path d="M45.1274 127.43C45.1274 127.43 45.6893 126.474 44.7417 127.007C43.3998 127.761 40.2549 128.16 39.0556 127.849C39.0556 127.849 43.6346 127.652 45.0352 125.996C45.6977 125.22 41.538 123.296 38.2589 125.283C34.984 127.267 32.4262 126.885 32.5016 127.149C32.5897 127.455 40.0578 133.573 45.1232 127.434L45.1274 127.43Z" fill="#5FC1AA"/>
<path d="M21.3641 49.524C23.0246 50.3374 26.6392 48.9998 26.6392 48.9998C25.8131 49.6498 23.2133 50.4045 21.9134 50.2704C20.9951 50.1739 21.7582 50.7316 21.7582 50.7316C27.8007 53.8136 31.5704 46.4965 31.5326 46.2239C31.5033 45.9933 29.6289 47.159 26.3959 46.7187C23.1546 46.2742 20.5799 49.1382 21.3641 49.524Z" fill="#5FC1AA"/>
<path d="M21.6998 44.5846C21.6998 44.5846 22.4923 45.0878 22.073 44.2701C21.4734 43.1044 21.2427 40.4081 21.5489 39.3976C21.5489 39.3976 21.5992 43.2553 22.962 44.5049C23.6035 45.0962 25.3437 41.6661 23.7629 38.8021C22.182 35.9423 22.593 33.7786 22.3665 33.8373C22.1024 33.9044 16.6386 40.0601 21.6956 44.5804L21.6998 44.5846Z" fill="#5FC1AA"/>
<path d="M13.1582 75.8828C13.1582 75.8828 14.1436 75.9373 13.3343 75.4048C12.1895 74.65 10.5835 72.306 10.3361 71.2284C10.3361 71.2284 12.3782 74.7213 14.2694 75.1574C15.1625 75.3629 14.978 71.329 12.0554 69.5385C9.13268 67.7438 8.3821 65.5507 8.21017 65.7226C8.00051 65.9155 6.19743 74.3691 13.154 75.8828H13.1582Z" fill="#5FC1AA"/>
<path d="M17.2006 53.6418C17.2006 53.6418 18.077 54.0611 17.5445 53.277C16.7813 52.1616 16.2027 49.4402 16.3872 48.3709C16.3872 48.3709 16.9323 52.3 18.4796 53.407C19.2134 53.927 20.5468 50.2034 18.5676 47.482C16.5842 44.7648 16.731 42.5004 16.5088 42.5843C16.2446 42.6807 11.4601 49.6708 17.2006 53.6418Z" fill="#5FC1AA"/>
<path d="M27.9352 36.6677C27.5956 35.4055 27.9478 32.7219 28.4594 31.7994C28.4594 31.7994 27.6878 35.5817 28.7571 37.0912C29.2561 37.8041 31.684 34.8185 30.7531 31.6903C29.8096 28.558 30.6776 26.5327 30.447 26.5369C30.1702 26.5453 23.5198 31.3968 27.5033 36.8899C27.5033 36.8899 28.1701 37.5567 27.9352 36.6635V36.6677Z" fill="#5FC1AA"/>
<path d="M14.3991 63.5252C14.3991 63.5252 15.3594 63.6929 14.6297 63.0765C13.6066 62.2085 12.3235 59.7345 12.2144 58.6569C12.2144 58.6569 13.7869 62.3008 15.5732 62.9549C16.416 63.261 16.718 59.311 14.0846 57.2186C11.4597 55.122 10.9984 52.9038 10.8055 53.0463C10.5749 53.2141 7.80735 61.2189 14.3991 63.5252Z" fill="#5FC1AA"/>
<path d="M135.537 53.4865C137.085 52.3795 137.642 48.4547 137.642 48.4547C137.818 49.5239 137.236 52.2453 136.477 53.3565C135.944 54.1407 136.82 53.7214 136.82 53.7214C142.565 49.7588 137.781 42.7645 137.521 42.668C137.294 42.58 137.445 44.8401 135.453 47.5615C133.474 50.2787 134.808 54.0023 135.537 53.4865Z" fill="#5FC1AA"/>
<path d="M138.435 63.0347C140.221 62.3847 141.798 58.7408 141.798 58.7408C141.693 59.8227 140.402 62.2925 139.379 63.1605C138.649 63.7769 139.609 63.605 139.609 63.605C146.201 61.3071 143.446 53.298 143.22 53.1303C143.031 52.9877 142.565 55.2101 139.936 57.3026C137.299 59.395 137.597 63.345 138.439 63.0347H138.435Z" fill="#5FC1AA"/>
<path d="M139.714 75.2411C141.605 74.805 143.651 71.3121 143.651 71.3121C143.412 72.3897 141.798 74.7337 140.653 75.4885C139.84 76.0211 140.829 75.9665 140.829 75.9665C147.79 74.4612 145.995 66.0076 145.786 65.8147C145.61 65.647 144.867 67.8359 141.94 69.6264C139.014 71.4127 138.821 75.4508 139.714 75.2453V75.2411Z" fill="#5FC1AA"/>
<path d="M125.289 37.154C126.35 35.6444 125.595 31.858 125.595 31.858C126.107 32.7805 126.442 35.4683 126.107 36.7263C125.868 37.6194 126.538 36.9527 126.538 36.9527C130.522 31.468 123.884 26.5997 123.612 26.5955C123.377 26.5955 124.245 28.6166 123.301 31.7447C122.358 34.8771 124.79 37.8668 125.293 37.154H125.289Z" fill="#5FC1AA"/>
<path d="M134.988 64.9174C131.776 63.9236 130.547 62.0241 130.413 62.2295C130.262 62.4643 130.606 70.9305 137.579 70.6789C137.579 70.6789 138.531 70.4902 137.63 70.1841C136.355 69.7438 134.262 67.9071 133.772 66.9469C133.772 66.9469 136.565 69.7689 138.468 69.727C139.361 69.7102 138.208 65.9196 134.992 64.9258L134.988 64.9174Z" fill="#5FC1AA"/>
<path d="M117.041 38.0975C117.02 38.3659 121.129 45.4985 127.025 42.1356C127.025 42.1356 127.759 41.5401 126.841 41.6869C125.558 41.8798 122.924 41.2466 122.06 40.6386C122.06 40.6386 125.734 41.8043 127.352 40.9153C128.115 40.496 125.411 37.7536 122.199 38.3533C118.983 38.9445 117.062 37.8669 117.041 38.1017V38.0975Z" fill="#5FC1AA"/>
<path d="M122.501 46.2869C122.467 46.5552 126.22 53.8766 132.267 50.803C132.267 50.803 133.03 50.2495 132.116 50.3417C130.816 50.4759 128.216 49.7169 127.386 49.067C127.386 49.067 131 50.413 132.657 49.5995C133.445 49.2179 130.87 46.3498 127.629 46.7859C124.392 47.2219 122.526 46.052 122.497 46.2869H122.501Z" fill="#5FC1AA"/>
<path d="M131.068 44.5762C132.431 43.3266 132.485 39.473 132.485 39.473C132.791 40.4794 132.552 43.1756 131.961 44.3455C131.537 45.1632 132.334 44.6558 132.334 44.6558C137.395 40.1397 131.94 33.9757 131.676 33.9128C131.454 33.8541 131.869 36.022 130.279 38.8776C128.694 41.7373 130.43 45.1716 131.072 44.5804L131.068 44.5762Z" fill="#5FC1AA"/>
<path d="M136.452 90.06C137.357 90.2403 137.026 86.1603 133.999 84.4537C130.98 82.7512 130.141 80.5582 129.973 80.7385C129.763 80.9481 128.254 89.561 135.349 90.8358C135.349 90.8358 136.351 90.8525 135.517 90.3451C134.326 89.6197 132.615 87.3092 132.33 86.2274C132.33 86.2274 134.523 89.6868 136.456 90.06H136.452Z" fill="#5FC1AA"/>
<path d="M137.638 80.2478C138.544 80.3778 138.016 76.3733 134.951 74.8343C131.889 73.2954 130.963 71.1779 130.795 71.3624C130.611 71.572 129.533 80.1472 136.59 81.0613C136.59 81.0613 137.58 81.0319 136.733 80.5707C135.521 79.9165 133.722 77.7151 133.391 76.6626C133.391 76.6626 135.722 79.971 137.643 80.2478H137.638Z" fill="#5FC1AA"/>
<path d="M136.292 59.1348C137.148 58.8706 134.992 55.5496 131.629 55.4783C128.266 55.407 126.547 53.9268 126.484 54.1574C126.404 54.4258 129.071 62.4684 135.701 60.2963C135.701 60.2963 136.569 59.8518 135.617 59.8057C134.275 59.7344 131.755 58.5519 131.013 57.7594C131.013 57.7594 134.472 59.7009 136.292 59.1348Z" fill="#5FC1AA"/>
<path d="M138.594 84.3656C140.535 84.6549 143.76 82.1264 143.76 82.1264C143.135 83.0531 140.745 84.6633 139.387 84.9442C138.43 85.1413 139.382 85.46 139.382 85.46C146.494 86.6257 147.945 78.0044 147.819 77.7403C147.714 77.518 146.196 79.3001 142.779 79.8998C139.357 80.5036 137.68 84.2314 138.598 84.3697L138.594 84.3656Z" fill="#5FC1AA"/>
<path d="M121.583 116.1C122.375 116.674 123.851 112.636 121.725 109.672C119.595 106.711 119.767 104.254 119.524 104.346C119.239 104.455 113.989 112.003 120.195 116.351C120.195 116.351 121.138 116.813 120.568 115.953C119.75 114.741 119.142 111.781 119.348 110.619C119.348 110.619 119.91 114.892 121.587 116.096L121.583 116.1Z" fill="#5FC1AA"/>
<path d="M133.105 99.7045C133.99 100.04 134.35 95.8845 131.6 93.6537C128.849 91.4271 128.392 89.0873 128.191 89.2298C127.947 89.4018 124.962 97.7966 131.868 100.287C131.868 100.287 132.879 100.48 132.115 99.8261C131.046 98.8994 129.717 96.287 129.616 95.1507C129.616 95.1507 131.231 98.9959 133.105 99.7045Z" fill="#5FC1AA"/>
<path d="M127.96 108.326C128.824 108.783 129.726 104.577 127.206 101.939C124.686 99.2977 124.514 96.8447 124.287 96.9663C124.019 97.113 119.868 105.315 126.619 108.766C126.619 108.766 127.621 109.085 126.929 108.322C125.952 107.235 124.937 104.384 124.983 103.214C124.983 103.214 126.136 107.361 127.96 108.33V108.326Z" fill="#5FC1AA"/>
<path d="M107.372 26.1343C104.654 27.6229 102.6 27.2246 102.646 27.4384C102.709 27.69 108.537 32.9064 112.852 28.1219C112.852 28.1219 113.334 27.3671 112.554 27.7655C111.447 28.3274 108.881 28.5371 107.925 28.2435C107.925 28.2435 111.59 28.21 112.785 26.9227C113.347 26.3146 110.093 24.6457 107.367 26.1343H107.372Z" fill="#5FC1AA"/>
<path d="M130.543 110.632C126.958 109.94 123.906 112.972 124.761 113.45C126.556 114.465 130.673 113.19 130.673 113.19C129.709 113.865 126.761 114.549 125.319 114.314C124.3 114.154 125.113 114.817 125.113 114.817C131.663 118.633 136.322 110.699 136.301 110.397C136.28 110.141 134.124 111.324 130.543 110.632Z" fill="#5FC1AA"/>
<path d="M123.217 118.608C119.775 117.115 116.11 119.517 116.861 120.184C118.446 121.606 122.786 121.203 122.786 121.203C121.666 121.669 118.555 121.698 117.154 121.144C116.164 120.75 116.84 121.601 116.84 121.601C122.563 126.893 129.008 119.962 129.054 119.652C129.092 119.387 126.66 120.096 123.213 118.603L123.217 118.608Z" fill="#5FC1AA"/>
<path d="M136.506 101.327C132.858 101.231 130.355 104.728 131.269 105.059C133.21 105.764 137.06 103.826 137.06 103.826C136.217 104.648 133.424 105.81 131.965 105.818C130.933 105.818 131.852 106.347 131.852 106.347C138.934 109.034 142.226 100.442 142.159 100.149C142.1 99.8974 140.158 101.42 136.515 101.323L136.506 101.327Z" fill="#5FC1AA"/>
<path d="M140.112 91.0496C136.586 91.2845 134.481 94.8823 135.391 95.1213C137.328 95.6245 140.867 93.4146 140.867 93.4146C140.125 94.2826 137.537 95.6538 136.133 95.7964C135.135 95.8928 136.061 96.3163 136.061 96.3163C143.14 98.2704 145.546 89.691 145.45 89.4101C145.366 89.1711 143.639 90.819 140.108 91.0538L140.112 91.0496Z" fill="#5FC1AA"/>
<path d="M98.4439 19.7103C98.4439 19.7103 99.1819 19.3287 98.3726 19.2868C97.2195 19.2281 95.0516 18.2133 94.4142 17.534C94.4142 17.534 97.3872 19.1987 98.9429 18.7081C99.6767 18.4817 97.8233 15.6345 94.9342 15.58C92.0534 15.5213 90.5858 14.2507 90.5229 14.452C90.4558 14.6826 92.7453 21.5763 98.4397 19.7103H98.4439Z" fill="#5FC1AA"/>
<path d="M106.034 130.99C102.956 128.562 98.5743 129.732 98.7924 130.634C97.8405 130.797 96.7209 131.003 95.4629 131.267C96.6916 130.478 98.4863 128.168 98.3353 125.325C98.1256 121.258 99.7694 119.056 99.4842 118.997C99.153 118.922 89.6721 122.851 92.8757 130.671C92.8757 130.671 93.4879 131.678 93.4628 130.52C93.425 128.893 94.6369 125.744 95.53 124.784C95.53 124.784 93.5466 129.216 94.3895 131.363C94.4063 131.414 94.444 131.451 94.4733 131.481C89.5379 132.579 82.9252 134.5 76.9499 137.72C70.9787 134.491 64.3702 132.562 59.4389 131.46C59.4767 131.43 59.506 131.397 59.5312 131.346C60.3698 129.2 58.3948 124.763 58.3948 124.763C59.2838 125.723 60.4873 128.877 60.4537 130.504C60.4286 131.657 61.045 130.655 61.045 130.655C64.257 122.834 54.7761 118.897 54.4448 118.972C54.1597 119.031 55.8034 121.237 55.5854 125.304C55.426 128.147 57.2249 130.458 58.4535 131.246C57.1956 130.982 56.0718 130.772 55.1199 130.608C55.338 129.711 50.9602 128.537 47.8782 130.956C44.6746 133.472 41.9238 133.393 42.0371 133.665C42.1713 133.976 50.8386 139.469 55.3883 132.353C55.3883 132.353 55.8579 131.271 54.9354 131.959C53.6188 132.923 50.348 133.745 49.0439 133.569C49.0439 133.569 53.3797 132.722 54.8893 130.977C64.0767 133.644 70.1275 136.63 74.1152 139.393C71.7628 140.899 69.5824 142.635 67.7373 144.639C67.7373 144.639 71.5993 144.639 72.0773 148.987C72.0773 148.987 72.2241 145.771 76.9499 141.603C81.6714 145.784 81.814 149 81.814 149C82.3004 144.652 86.1582 144.652 86.1582 144.652C84.3132 142.643 82.1327 140.907 79.7845 139.402C83.7764 136.643 89.8314 133.665 99.023 131.011C100.528 132.76 104.86 133.611 104.86 133.611C103.56 133.783 100.289 132.957 98.9769 131.992C98.0502 131.309 98.5156 132.391 98.5156 132.391C103.065 139.515 111.737 134.03 111.867 133.72C111.98 133.451 109.233 133.527 106.03 131.011L106.034 130.99Z" fill="#5FC1AA"/>
<path d="M115.67 125.333C112.395 123.337 108.223 125.258 108.89 126.038C110.29 127.69 114.865 127.895 114.865 127.895C113.67 128.201 110.521 127.803 109.183 127.048C108.244 126.512 108.802 127.472 108.802 127.472C113.854 133.615 121.343 127.51 121.427 127.199C121.503 126.935 118.949 127.317 115.674 125.329L115.67 125.333Z" fill="#5FC1AA"/>
<path d="M99.0985 21.9914C96.6538 23.7022 94.6453 23.5387 94.7249 23.74C94.8046 23.9748 100.927 28.34 104.55 23.3081C104.55 23.3081 104.931 22.5365 104.231 23.0062C103.233 23.6561 100.801 24.1258 99.8575 23.9496C99.8575 23.9496 103.355 23.5261 104.365 22.1717C104.835 21.5302 101.552 20.2806 99.0985 21.9914Z" fill="#5FC1AA"/>
<path d="M116.999 29.3294C117.984 27.8366 117.137 24.2011 117.137 24.2011C117.662 25.0775 118.068 27.6689 117.783 28.9017C117.573 29.7697 118.207 29.1072 118.207 29.1072C121.905 23.6728 115.334 19.1608 115.066 19.165C114.844 19.165 115.733 21.1023 114.915 24.1592C114.097 27.2202 116.534 30.0381 117.003 29.3294H116.999Z" fill="#5FC1AA"/>
<path d="M105.405 128.084C106.034 128.889 108.755 125.195 107.464 121.585C106.168 117.979 107.057 115.551 106.784 115.572C106.462 115.597 98.9808 121.698 103.983 127.883C103.983 127.883 104.809 128.621 104.474 127.594C104.004 126.13 104.243 122.969 104.788 121.857C104.788 121.857 104.067 126.378 105.405 128.084Z" fill="#5FC1AA"/>
<path d="M112.961 122.805C113.569 123.602 116.24 120.13 115.003 116.582C113.762 113.035 114.647 110.665 114.378 110.682C114.068 110.703 106.688 116.624 111.544 122.725C111.544 122.725 112.34 123.455 112.026 122.444C111.577 121.014 111.833 117.911 112.382 116.825C112.382 116.825 111.661 121.128 112.965 122.805H112.961Z" fill="#5FC1AA"/>
<path d="M115.435 31.8202C112.592 33.2165 110.521 32.7217 110.563 32.944C110.613 33.204 116.324 38.7684 120.924 34.0804C120.924 34.0804 121.457 33.334 120.643 33.7072C119.49 34.2313 116.865 34.3361 115.909 33.9923C115.909 33.9923 119.637 34.1139 120.916 32.8559C121.515 32.2605 118.27 30.4197 115.435 31.8202Z" fill="#5FC1AA"/>
<path d="M99.442 15.6471C99.3539 18.6327 102.201 20.7 102.474 19.9494C103.061 18.3601 101.492 15.2068 101.492 15.2068C102.163 15.8987 103.098 18.184 103.098 19.3833C103.098 20.2261 103.53 19.4797 103.53 19.4797C105.753 13.6931 98.7375 10.9717 98.4985 11.0262C98.2888 11.0765 99.53 12.6657 99.4378 15.6471H99.442Z" fill="#5FC1AA"/>
<path d="M108.726 24.0586C109.632 22.5532 108.646 19.0267 108.646 19.0267C109.2 19.8611 109.707 22.3855 109.476 23.6015C109.313 24.4653 109.9 23.786 109.9 23.786C113.297 18.3096 106.671 14.1583 106.407 14.1709C106.185 14.1793 107.141 16.0453 106.466 19.0728C105.791 22.1045 108.298 24.7672 108.726 24.0586Z" fill="#5FC1AA"/>
</g>
</svg>
