<svg xmlns="http://www.w3.org/2000/svg" xmlns:xlink="http://www.w3.org/1999/xlink" width="343" height="41.829" viewBox="0 0 343 41.829">
  <defs>
    <clipPath id="clip-path">
      <rect id="長方形_5062" data-name="長方形 5062" width="343" height="41.829" fill="none"/>
    </clipPath>
  </defs>
  <g id="グループ_6876" data-name="グループ 6876" transform="translate(0 0)">
    <path id="パス_9604" data-name="パス 9604" d="M121.211,20.648l12.03-15.654h12.181l-15.051,17.97,16.46,19.983H134.047l-12.836-16.46v16.46h-9.865V4.994h9.865Z" transform="translate(-46.247 -2.074)" fill="#63c1ab"/>
    <g id="グループ_6875" data-name="グループ 6875" transform="translate(0 0)">
      <g id="グループ_6874" data-name="グループ 6874" clip-path="url(#clip-path)">
        <path id="パス_9605" data-name="パス 9605" d="M177.629,5.134a4.951,4.951,0,0,1,.4-1.988A5.226,5.226,0,0,1,180.775.4a5.108,5.108,0,0,1,3.976,0,5.23,5.23,0,0,1,2.744,2.743,4.97,4.97,0,0,1,.4,1.988,4.968,4.968,0,0,1-.4,1.988,5.224,5.224,0,0,1-2.744,2.743,5.108,5.108,0,0,1-3.976,0,5.221,5.221,0,0,1-2.743-2.743,4.949,4.949,0,0,1-.4-1.988m9.715,35.738h-9.111V15.051h9.111Z" transform="translate(-73.778 0)" fill="#63c1ab"/>
        <path id="パス_9606" data-name="パス 9606" d="M205.824,25.349h9.111v3.272a9.958,9.958,0,0,1,3.775-3.045,11.8,11.8,0,0,1,4.48-.781,11.2,11.2,0,0,1,4.656.881,9.3,9.3,0,0,1,3.3,2.491,7.183,7.183,0,0,1,1.51,2.92,15.21,15.21,0,0,1,.4,3.674V51.17h-9.111V38.134a14.1,14.1,0,0,0-.277-3.1,3.842,3.842,0,0,0-.982-1.888,3.457,3.457,0,0,0-1.359-.856,5.079,5.079,0,0,0-1.611-.251,4.5,4.5,0,0,0-3.549,1.384,5.747,5.747,0,0,0-1.233,3.952V51.17h-9.111Z" transform="translate(-85.489 -10.298)" fill="#63c1ab"/>
        <path id="パス_9607" data-name="パス 9607" d="M263.824,25.349h9.111v3.272a9.958,9.958,0,0,1,3.775-3.045,11.8,11.8,0,0,1,4.48-.781,11.2,11.2,0,0,1,4.656.881,9.3,9.3,0,0,1,3.3,2.491,7.182,7.182,0,0,1,1.51,2.92,15.211,15.211,0,0,1,.4,3.674V51.17h-9.111V38.134a14.094,14.094,0,0,0-.277-3.1,3.842,3.842,0,0,0-.982-1.888,3.458,3.458,0,0,0-1.359-.856,5.079,5.079,0,0,0-1.611-.251,4.5,4.5,0,0,0-3.549,1.384,5.747,5.747,0,0,0-1.233,3.952V51.17h-9.111Z" transform="translate(-109.579 -10.298)" fill="#63c1ab"/>
        <path id="パス_9608" data-name="パス 9608" d="M319.6,37.748a12.559,12.559,0,0,1,1.158-5.361,13.166,13.166,0,0,1,3.221-4.329,15.321,15.321,0,0,1,4.908-2.894,17.714,17.714,0,0,1,6.217-1.057,17.96,17.96,0,0,1,6.166,1.032,15.272,15.272,0,0,1,4.933,2.869,12.9,12.9,0,0,1,3.247,4.378A13.4,13.4,0,0,1,350.61,38a13.142,13.142,0,0,1-1.183,5.612,13.314,13.314,0,0,1-3.247,4.38,14.516,14.516,0,0,1-4.958,2.844,18.968,18.968,0,0,1-6.266,1.007,18.15,18.15,0,0,1-6.141-1.007,14.154,14.154,0,0,1-4.857-2.869,13.308,13.308,0,0,1-3.2-4.455,13.968,13.968,0,0,1-1.158-5.763m9.614.1a5.844,5.844,0,0,0,.478,2.391,6.361,6.361,0,0,0,1.258,1.887,5.524,5.524,0,0,0,1.862,1.259,6.015,6.015,0,0,0,4.581,0,5.544,5.544,0,0,0,1.863-1.259,6.407,6.407,0,0,0,1.258-1.887A5.73,5.73,0,0,0,341,37.9a5.61,5.61,0,0,0-.478-2.291,6.432,6.432,0,0,0-1.258-1.887,5.551,5.551,0,0,0-1.863-1.258,6.015,6.015,0,0,0-4.581,0,5.531,5.531,0,0,0-1.862,1.258,6.477,6.477,0,0,0-1.258,1.863,5.424,5.424,0,0,0-.478,2.265" transform="translate(-132.747 -10.013)" fill="#63c1ab"/>
        <path id="パス_9609" data-name="パス 9609" d="M383.047,4.994h14.7q5.234,0,7.952,2.517t2.718,7.248a9.845,9.845,0,0,1-1.031,4.757,8.67,8.67,0,0,1-3.147,3.2,11.944,11.944,0,0,1,3.6,1.233,7.836,7.836,0,0,1,2.416,2.039,7.635,7.635,0,0,1,1.334,2.717,12.471,12.471,0,0,1,.4,3.221,11.393,11.393,0,0,1-.931,4.732,9.611,9.611,0,0,1-2.617,3.473,11.194,11.194,0,0,1-4.1,2.114,19.4,19.4,0,0,1-5.436.7H383.047Zm9.865,14.9h1.812q4.63,0,4.63-3.675t-4.63-3.675h-1.812Zm0,15.4h2.165a11,11,0,0,0,5.335-.956,3.3,3.3,0,0,0,1.611-3.07,3.3,3.3,0,0,0-1.611-3.071,11.014,11.014,0,0,0-5.335-.956h-2.165Z" transform="translate(-159.098 -2.074)" fill="#63c1ab"/>
        <path id="パス_9610" data-name="パス 9610" d="M452.594,25.742V40.289q0,4.782,4.63,4.782t4.632-4.782V25.742h9.111V42.051q0,5.236-3.448,7.852T457.224,52.52q-6.846,0-10.293-2.617t-3.448-7.852V25.742Z" transform="translate(-184.2 -10.692)" fill="#63c1ab"/>
        <path id="パス_9611" data-name="パス 9611" d="M512.78,27.836V46.057H503.67V27.836h-3.02v-7.6h3.02V12.484h9.111v7.751h5.185v7.6Z" transform="translate(-207.944 -5.185)" fill="#63c1ab"/>
        <path id="パス_9612" data-name="パス 9612" d="M556.129,25.17h9.161V50.992h-9.161V48.123a9.56,9.56,0,0,1-7.9,3.675,12.831,12.831,0,0,1-5.185-1.032,12.476,12.476,0,0,1-4.127-2.894,13.351,13.351,0,0,1-2.744-4.38,14.968,14.968,0,0,1-.981-5.486,14.56,14.56,0,0,1,.956-5.26,13.518,13.518,0,0,1,2.668-4.354,12.59,12.59,0,0,1,4.077-2.945,12.445,12.445,0,0,1,5.234-1.082,10.521,10.521,0,0,1,8,3.372ZM544.652,38.006a6.022,6.022,0,0,0,1.686,4.228,5.529,5.529,0,0,0,1.863,1.258,6,6,0,0,0,2.341.453,5.871,5.871,0,0,0,2.29-.453,5.543,5.543,0,0,0,1.862-1.258,6.528,6.528,0,0,0,1.259-1.863,5.44,5.44,0,0,0,.478-2.265,5.618,5.618,0,0,0-.478-2.29,6.428,6.428,0,0,0-1.259-1.887,5.57,5.57,0,0,0-1.862-1.259,5.881,5.881,0,0,0-2.29-.453,6.01,6.01,0,0,0-2.341.453,5.556,5.556,0,0,0-1.863,1.259,6.2,6.2,0,0,0-1.233,1.837,5.507,5.507,0,0,0-.453,2.24" transform="translate(-222.29 -10.12)" fill="#63c1ab"/>
        <path id="パス_9613" data-name="パス 9613" d="M54.829,12.691a.5.5,0,0,0-.6.363,2.7,2.7,0,0,1-2.388,1.811,3.865,3.865,0,0,0,.464-1.773c.069-2.509-1.13-2.973-1.649-3.055a2.187,2.187,0,0,0-2.3,1.6,3.552,3.552,0,0,0,.6,3.18,2.865,2.865,0,0,0,.9.738,5.87,5.87,0,0,1-1.97.769c-.027-.054-.057-.122-.084-.173-.878-1.644-2.193-3.508-6.03-6.578s-10.416-3.728-14.8-3.837A31.851,31.851,0,0,0,17.213,7.6s-3.07-.329-6.469-.329A22.779,22.779,0,0,0,3.838,8.583a15.417,15.417,0,0,0,1.973,3.508c.877.877,2.851,2.412,2.851,2.412s-1.206,1.425-1.974,2.412-.329,2.412-1.425,4.276S0,23.6,0,23.6a40.22,40.22,0,0,0,2.193,5.92c.438.768,4.714,2.193,4.714,2.193S8.552,33.8,9.539,35.006s4.276,2.631,4.276,2.631l-.767,5.372H19.3l1.974-3.728a35.885,35.885,0,0,0,5.7.658,22.623,22.623,0,0,0,4.934-.658l-.658,3.728h7.236s8.566-9.45,10.306-17.1a14.244,14.244,0,0,0-.485-8.658,6.167,6.167,0,0,0,2.731-1.368,4.035,4.035,0,0,0,.7,0,3.7,3.7,0,0,0,3.455-2.582.5.5,0,0,0-.364-.6M9.1,22.946a1.425,1.425,0,1,1,1.425-1.425A1.425,1.425,0,0,1,9.1,22.946m41.589-8.137a1.877,1.877,0,0,1-.966-.624,2.569,2.569,0,0,1-.416-2.267,1.251,1.251,0,0,1,1.078-.907.693.693,0,0,1,.11.008c.541.087.843.851.81,2.046a2.859,2.859,0,0,1-.616,1.744" transform="translate(0 -2.379)" fill="#e86573"/>
      </g>
    </g>
  </g>
</svg>
