<svg xmlns="http://www.w3.org/2000/svg" xmlns:xlink="http://www.w3.org/1999/xlink" width="456.262" height="370.4" viewBox="0 0 456.262 370.4">
  <defs>
    <clipPath id="clip-path">
      <rect id="長方形_5114" data-name="長方形 5114" width="132.379" height="127.643" fill="#e86573"/>
    </clipPath>
  </defs>
  <g id="グループ_7222" data-name="グループ 7222" transform="translate(-1301.24 481.25)">
    <path id="パス_11633" data-name="パス 11633" d="M84.912-3.045A58.665,58.665,0,0,1,65.25-7.395H77.778V-47.5H9.135V-7.395H23.229A71.454,71.454,0,0,1,1.914-2.871l6.351,11.4C13.92,7.482,25.839,4.872,36.453-2L30.189-7.395H56.9l-6.09,5.307A65.452,65.452,0,0,0,78.648,8.439ZM22.446-29.406H64.38v3.741H22.446Zm0-10.179H64.38v3.654H22.446ZM64.38-19.14v3.828H22.446V-19.14ZM5.133-72.384V-50.46H81.867V-72.384Zm42.978,8.7v5.307H38.976v-5.307Zm-20.793,0v5.307H18.009v-5.307Zm41.673,0v5.307H59.856v-5.307ZM177.48-5.307c-2.523-1.479-7.656-4.437-14.094-12.093,6.351-10.527,9.831-25.4,11.571-38.976V-68.643H138.243V-72.21H93.351v11.919h4v47.328a45.07,45.07,0,0,1-4.611.348L94.221.348a266.767,266.767,0,0,0,27.144-5.655v13.4h12.267V-1.131l5.742,9.483A112.578,112.578,0,0,0,155.034-6,58.19,58.19,0,0,0,169.824,7.83ZM137.634-51.852a83.1,83.1,0,0,0,9.744,34.1A62.913,62.913,0,0,1,133.632-4.872V-60.291h3.393v3.915h25.491c-1.653,13.833-5.133,21.924-7.308,26.361a60.261,60.261,0,0,1-6.438-25.143ZM121.365-41.847v7.569H109.794v-7.569Zm0,25.143c-4.089.87-8.7,1.653-11.571,2.088v-8.7h11.571Zm0-43.587v7.569H109.794v-7.569Zm121.8,28.8H209.148v-4.089h34.017Zm12.354-5.742c2.349,1.392,3.741,2.088,7.83,4.089l5.829-12.789a58.581,58.581,0,0,1-21.924-11.223h19.314V-68.643H232.725V-74.3H220.11v5.655H185.919v11.484h19.575a66.2,66.2,0,0,1-22.185,11.4l5.742,12.615c3.219-1.392,4.785-2.175,7.569-3.654v30.45H185.049V5.394h82.389V-6.351H255.519ZM243.165-18.879H209.148v-4.089h34.017Zm0,12.528H209.148V-10.44h34.017Zm-10.44-39.237V-56.463a86.393,86.393,0,0,0,10.962,10.875Zm-23.316,0a75.708,75.708,0,0,0,10.7-10.962v10.962ZM311.025-9.222a22.618,22.618,0,0,1-11.223-9.4,83.85,83.85,0,0,0,2.958-14.094l-12.615-1.653C287.622-13.05,278.4-4.959,275.181-2.175l8.961,10.614a44.729,44.729,0,0,0,11.4-15.66c5.829,7.047,13.137,13.746,30.8,13.746h30.711l2.7-12.963H328.686c-2.349,0-3.219-.087-4.7-.174V-16.965h25.23V-28.884h-25.23v-8.265h17.226V-48.981H293.973v11.832h17.052Zm-.087-64.989v6.177H278.574v22.62h12.963V-56.463H343.65v11.049h12.963v-22.62H324.075v-6.177Zm96.048,23.055h2.349v-17.4H395.763V-74.3H382.974v5.742H369.837v17.4h6.7c-4.7,5.046-8.352,6.612-9.918,7.308l5.916,9.657c2.61-1.74,3.48-2.349,4.785-3.393a37.954,37.954,0,0,0,3.915,4.959,59.474,59.474,0,0,1-14.79,5.655L371.4-15.225l.174-.087V6.96H406.29V-.957l6,9.57c6.96-3.567,10.527-5.655,15.747-11.31L421.254-9.57h15.573l-6.96,7.047A52.98,52.98,0,0,0,446.049,8.7L451.7-2.871c-5.481-1.914-9.048-3.393-13.485-6.7H447.7V-56.115H433.347a40.993,40.993,0,0,0,1.479-4.176h15.138V-72.123h-39.15V-60.03h11.832a22.3,22.3,0,0,1-1.392,3.915H411.162v29.493A57.292,57.292,0,0,1,398.286-32.1a44.912,44.912,0,0,0,8.7-11.484ZM394.719-2.349H383.5v-7.917h11.223ZM435.087-30.8H423.255v-4.524h11.832Zm0,12.18H423.255v-4.7h11.832ZM411.162-9.57h8.874A34.11,34.11,0,0,1,406.29-1.74v-13.4l4.872-11.31ZM435.087-42.8H423.255v-4.437h11.832ZM390.2-52.722c.435-.783.7-1.305,1.566-3.132l-10.092-1.305v-1.218h16.7v5.655Zm4.35,8.961a27.345,27.345,0,0,1-4.872,5.481,46.738,46.738,0,0,1-5.22-5.481ZM380.1-19.14a77.238,77.238,0,0,0,9.309-5.568,59.253,59.253,0,0,0,8.265,5.568Z" transform="translate(1300 -314.75)"/>
    <path id="パス_11637" data-name="パス 11637" d="M17.04-6.81V-16.5H2.55V-9A15.364,15.364,0,0,1,.27-.6L3.6,2.91A18.11,18.11,0,0,0,6.09-3.6V2.43H17.64V-5.91H6.45c.03-.27.06-.54.09-.9Zm1.59-15.03a13.844,13.844,0,0,1-5.94-3.72H7.89A16.611,16.611,0,0,1,.24-20.7L1.5-16.38a20.871,20.871,0,0,0,4.11-2.13v1.17H15v-1.5c.6.36.96.57,2.01,1.11l1.62-3.33V-4.32H22.5V-24.36H18.63Zm-5.64,8.01v1.11H6.54v-1.11Zm0,3.36V-9.3H6.54v-1.17ZM7.98-20.31a24.034,24.034,0,0,0,2.34-2.28,13,13,0,0,0,2.49,2.28ZM13.71-3V-.6H10.02V-3ZM24.03-25.56V-2.37c0,.54-.48.57-.72.57H19.74l.81,4.59H25.5A2.509,2.509,0,0,0,28.23-.06v-25.5ZM60.93-1.62c-5.28-1.11-7.38-2.19-8.94-3.09H60.6V-8.19H48.75V-9.42h9.99v-2.85H48.75v-1.2h10.8v-3.36H53.61c.18-.39.39-1.05.57-1.53H60.6v-3.72H57c.48-.93.9-1.92,1.23-2.73l-4.35-.84a25.667,25.667,0,0,1-1.29,3.57H51.36v-3.48H47.4v3.48H45.72v-3.48H41.73v3.48H40.47a19.174,19.174,0,0,0-1.29-3.57l-4.35.84a20.722,20.722,0,0,1,1.32,2.73H32.4v3.72h6.51a13.2,13.2,0,0,1,.6,1.53H33.57v3.36H44.31v1.2h-9.9v2.85h9.9v1.23H32.4v3.48h8.82a28.878,28.878,0,0,1-9,3.24l2.1,3.99c4.41-1.26,7.29-2.7,9.99-5.1V2.76h4.44V-2.82a26.077,26.077,0,0,0,9.96,5.34ZM44.1-16.83c-.03-.06-.51-1.29-.6-1.53h6.15a9.054,9.054,0,0,1-.48,1.53ZM66.24-20.4l.63,4.68,4.26-2.97V0H76.2V-24.12H71.7Zm21.3,0,.63,4.68,4.26-2.97V0H97.5V-24.12H93Zm28.53-2.82c.39-1.05.48-1.35.69-2.07l-4.68-.63a17.43,17.43,0,0,1-6.12,8.85l2.94,3.96c.6-.51,1.05-.9,1.56-1.41v6.69h-4.05v4.32h13.71V2.82h4.62V-3.51h10.05V-7.83H124.74v-3.99h8.04v-4.2h-8.04V-18.9h9v-4.32Zm4.05,4.32v2.88h-8.31a29.568,29.568,0,0,0,2.07-2.88Zm0,11.07h-5.19v-3.99h5.19Zm27.39-16.29L137.7,0h3.99l9.81-24.12ZM182.88-1.05a20.229,20.229,0,0,1-6.78-1.5h4.32V-16.38H156.75V-2.55h4.86a24.639,24.639,0,0,1-7.35,1.56l2.19,3.93a27.411,27.411,0,0,0,9.72-3.63l-2.16-1.86h9.21l-2.1,1.83a22.57,22.57,0,0,0,9.6,3.63Zm-21.54-9.09H175.8v1.29H161.34Zm0-3.51H175.8v1.26H161.34ZM175.8-6.6v1.32H161.34V-6.6ZM155.37-24.96v7.56h26.46v-7.56Zm14.82,3v1.83h-3.15v-1.83Zm-7.17,0v1.83h-3.21v-1.83Zm14.37,0v1.83h-3.15v-1.83ZM214.8-1.83A17.22,17.22,0,0,1,209.94-6c2.19-3.63,3.39-8.76,3.99-13.44v-4.23H201.27V-24.9H185.79v4.11h1.38V-4.47a15.542,15.542,0,0,1-1.59.12l.51,4.47a91.989,91.989,0,0,0,9.36-1.95V2.79h4.23V-.39l1.98,3.27a38.82,38.82,0,0,0,5.4-4.95,20.066,20.066,0,0,0,5.1,4.77ZM201.06-17.88a28.656,28.656,0,0,0,3.36,11.76,21.7,21.7,0,0,1-4.74,4.44V-20.79h1.17v1.35h8.79a27.06,27.06,0,0,1-2.52,9.09,20.78,20.78,0,0,1-2.22-8.67Zm-5.61,3.45v2.61h-3.99v-2.61Zm0,8.67c-1.41.3-3,.57-3.99.72v-3h3.99Zm0-15.03v2.61h-3.99v-2.61Zm33.72,7.26h-9.03v3.21h8.82c-.12.75-.18.96-.24,1.32H217.47v3.9h9.63c-2.19,2.7-8.1,3.42-9.9,3.66l1.83,4.38c4.17-.81,8.22-2.28,11.13-5.28a11.045,11.045,0,0,0,1.41-2.07c3.12,5.4,9.66,6.78,12.57,7.32l1.83-4.47c-7.14-.78-8.79-2.55-9.66-3.54h9.45V-9H233.04a13.143,13.143,0,0,0,.24-1.32h9.75v-3.21h-9.51v-1.29h8.37v-1.83h3.18v-7.08H233.88v-1.74h-4.59v1.74H218.25v7.08h2.97v1.83h7.95Zm0-4.74H222.6v-1.68h6.57Zm4.35-1.68h7.11v1.68h-7.11ZM248.97-9c.84-.09,1.17-.12,3.96-.42V2.82h3.48V-9.81c.75-.09.96-.15,1.32-.18.06.3.09.39.24,1.26l2.88-.96V-1.8h2.73a18.114,18.114,0,0,1-5.07,1.5L260.46,3a24.382,24.382,0,0,0,6.81-3.06L265.56-1.8h5.46L269.31-.06a24.951,24.951,0,0,0,6.48,3.09L277.8-.33a24.307,24.307,0,0,1-5.1-1.47h3.45V-13.53h-15.3v3.39a48.417,48.417,0,0,0-2.16-5.91l-2.49.84c.24.66.42,1.05.66,1.89-.39.03-2.16.12-2.55.15a73.036,73.036,0,0,0,5.79-8.25l-3.39-1.2a44.384,44.384,0,0,1-2.61,4.35,12.6,12.6,0,0,0-.93-1.02,38.615,38.615,0,0,0,3.24-5.61l-3.81-.78a25.434,25.434,0,0,1-1.77,4.11c-.15-.12-.66-.6-.78-.69l-1.71,3.96a20.509,20.509,0,0,1,3.48,3.39c-.75,1.05-1.08,1.47-1.41,1.89-1.11.06-1.14.06-1.8.06Zm22.92.69v1.05h-6.81V-8.31Zm0-2.94v.99h-6.81v-.99Zm0,5.91v1.05h-6.81V-5.34ZM249.3-8.07a35.585,35.585,0,0,1-.96,7.44l2.91,1.92a46.315,46.315,0,0,0,.96-8.97Zm7.83.3a54.15,54.15,0,0,1,.39,6.36l2.55-.39a52.333,52.333,0,0,0-.63-6.39Zm9.27-16.59h-6.06v3h6.06v.9h-5.46v2.34h5.46v.93h-6.75v2.76h17.64v-2.76h-6.63v-.93h5.55v-2.34h-5.55v-.9h6.12v-3h-6.12v-1.23H266.4Zm16.44,3.96.63,4.68,4.26-2.97V0h5.07V-24.12h-4.5Zm33.06-4.11c-.66-.06-1.41-.09-1.95-.09-7.8,0-12.06,6.84-12.06,14.13,0,7.86,4.71,10.95,9.24,10.95a8.393,8.393,0,0,0,8.64-8.52,7.921,7.921,0,0,0-7.95-8.16,7.281,7.281,0,0,0-4.32,1.41c1.92-4.71,4.89-5.16,6.9-5.16a11.689,11.689,0,0,1,1.5.12ZM314.67-8.04a3.567,3.567,0,0,1-3.63,3.87,3.982,3.982,0,0,1-4.02-4.05c0-2.28,2.13-3.51,4.02-3.51A3.375,3.375,0,0,1,314.67-8.04Zm29.37-4.44a41.469,41.469,0,0,1-.84,8.97,1.88,1.88,0,0,1-2.04,1.62H336.3l.87,4.68h6.18A4.055,4.055,0,0,0,347.4-.33c.39-1.17,1.47-6.27,1.53-16.5H335.82v-3.51h15.54v-4.44H323.04v4.44h8.07v2.88c0,7.74-2.25,12.54-8.67,16.14l3.03,4.2c6.6-4.29,8.94-9.57,9.87-15.36Zm39-11.22H370.65v-1.98h-4.8v8.07h-9.39V-6.06h24.48V-17.61H370.65v-1.77h12.39Zm-6.87,13.5H361.2v-3.3h14.97ZM357.69,3.3a20.81,20.81,0,0,0,3.66-7.65l-4.02-1.59A14.624,14.624,0,0,1,353.88.45Zm9.51-.63c0-.51.03-1.59.03-2.25a44.327,44.327,0,0,0-.3-5.1h-4.32a23.853,23.853,0,0,1,.15,3,27.683,27.683,0,0,1-.42,4.44Zm8.1-.48a46.3,46.3,0,0,0-2.04-7.2l-4.35.51a27.787,27.787,0,0,1,1.5,7.23ZM383.46.87A41.243,41.243,0,0,0,379.8-6l-3.96,1.92a41.178,41.178,0,0,1,3.3,7.2Zm29.22-25.95-4.92-.12-.18,7.71c-.09,3.69-.33,12.84-11.79,15.99l2.73,4.38a19.707,19.707,0,0,0,8.88-5.76,48.37,48.37,0,0,1,4.17,5.67l3.36-4.2a56.722,56.722,0,0,0-4.89-5.37,22.109,22.109,0,0,0,2.4-9.99ZM386.58.48a128.542,128.542,0,0,0,13.89-5.91l-.78-4.29c-1.08.54-3.03,1.5-6.51,2.88l-.24-18.39-4.86.09.24,20.01c-.81.27-1.38.45-2.58.78Zm8.31-22.08c4.23,4.71,4.41,4.89,6.3,7.83l3.93-3.18a46.916,46.916,0,0,0-6.66-7.53Zm33.69-4.02v22.8h-11.1V1.86h28.44V-2.82H433.41V-13.14h10.98v-4.71H433.41v-7.77Z" transform="translate(1301 -436.75)" fill="#5fc1aa"/>
    <path id="パス_11635" data-name="パス 11635" d="M10,0H58A10,10,0,0,1,68,10V112a10,10,0,0,1-10,10H10A10,10,0,0,1,0,112V10A10,10,0,0,1,10,0Z" transform="translate(1303 -280.75)" fill="#e86573"/>
    <path id="パス_11631" data-name="パス 11631" d="M7.38-12.32v-2.06a10,10,0,0,1,.08-1.72H4.84a10.659,10.659,0,0,1,.1,1.78v2H3.76a14.2,14.2,0,0,1-2.6-.14v2.44a20.346,20.346,0,0,1,2.56-.1H4.94v2.96a13.168,13.168,0,0,1-.08,1.72h2.6a12.311,12.311,0,0,1-.08-1.68v-3h5.18c-.04,1.38-.04,1.86-.08,2.32-.18,2.3-.76,3.62-2.12,4.8A9.289,9.289,0,0,1,6.54-1.1a5.942,5.942,0,0,1,1.5,2.12,11.117,11.117,0,0,0,3.9-2.1,8.009,8.009,0,0,0,2.88-5.74,24.246,24.246,0,0,0,.14-3.3H16.3a20.346,20.346,0,0,1,2.56.1v-2.44a14.2,14.2,0,0,1-2.6.14H14.98c.02-1.2.02-1.2.02-2.42a7.386,7.386,0,0,1,.08-1.34H12.5a12.747,12.747,0,0,1,.1,2.22v.64l-.02.9Zm17.36-2.22a13.7,13.7,0,0,1-2.56-.14v2.6a14.409,14.409,0,0,1,2.52-.12h9.52c-1.28,5.32-4.9,9.04-10.44,10.76A7.36,7.36,0,0,1,25.54.94C31.86-1.7,35.4-5.78,37.02-12.32a2.733,2.733,0,0,0,.38.04,2.322,2.322,0,0,0,2.32-2.32,2.318,2.318,0,0,0-2.32-2.3,2.3,2.3,0,0,0-2.3,2.32c-.34.02-.58.04-1.18.04ZM37.4-15.9a1.3,1.3,0,0,1,1.32,1.3,1.319,1.319,0,0,1-1.32,1.32,1.315,1.315,0,0,1-1.3-1.32A1.3,1.3,0,0,1,37.4-15.9Zm6.68.12a12.628,12.628,0,0,1,.08,1.8v5.5a14.424,14.424,0,0,1-.1,1.8H46.8a9.654,9.654,0,0,1-.08-1.76v-5.52a10.166,10.166,0,0,1,.08-1.8Zm9.02.04a10.532,10.532,0,0,1,.1,1.9v2.5c0,1.6-.02,2.48-.1,3.34-.22,2.64-.88,3.86-2.76,5.1a10.788,10.788,0,0,1-4.32,1.6,6.832,6.832,0,0,1,1.4,2.38,16.917,16.917,0,0,0,3.9-1.54,7.66,7.66,0,0,0,3.94-4.66,23.623,23.623,0,0,0,.52-6.06v-2.7a9.486,9.486,0,0,1,.1-1.86Zm19.76-.28a24.445,24.445,0,0,1-2.82,6.44c-.16-.1-.16-.1-1.66-1.18-.98-.7-1.84-1.26-3.3-2.12l-1.76,1.76a35.854,35.854,0,0,1,5.3,3.6A20.37,20.37,0,0,1,66.08-4.8,20.353,20.353,0,0,1,60.9-1.34,6.2,6.2,0,0,1,62.66.74a25.394,25.394,0,0,0,4.76-3.3A22.935,22.935,0,0,0,70.54-5.9,29.749,29.749,0,0,1,74.6-1.68l1.92-2.06a47.956,47.956,0,0,0-4.46-4.24,33.3,33.3,0,0,0,2.82-5.66,12.213,12.213,0,0,1,.7-1.44Zm8.98,3.18a21,21,0,0,1,5.1,4.06l1.72-2.18a28.326,28.326,0,0,0-5.16-3.86Zm.7,13.2A7.08,7.08,0,0,1,83.86.02a21.6,21.6,0,0,0,7.62-3,17.553,17.553,0,0,0,6.34-7.84,8.624,8.624,0,0,1-2.12-1.96,16.7,16.7,0,0,1-2.04,4,13.362,13.362,0,0,1-5.94,4.9A19.057,19.057,0,0,1,81.8-2.4Zm24.9.54a21.988,21.988,0,0,1-.08-2.22V-6.6a10.339,10.339,0,0,0-.08-1.36,6.462,6.462,0,0,0,.68.34,47.318,47.318,0,0,1,7.08,3.82l1.4-2.36a58.759,58.759,0,0,0-9.08-4.22V-14.1a13.407,13.407,0,0,1,.08-2.1H104.7a12.856,12.856,0,0,1,.12,2.04V-1.34A13.473,13.473,0,0,1,104.7.9ZM129.4-9.98a2.373,2.373,0,0,0-2.38,2.38,2.373,2.373,0,0,0,2.38,2.38,2.373,2.373,0,0,0,2.38-2.38A2.373,2.373,0,0,0,129.4-9.98ZM150.44.24a16.286,16.286,0,0,1,.88-2.66l3-7.04a24.406,24.406,0,0,0,.92-2.92c-.02.3-.08,1.32-.16,3.06v6.64a18.6,18.6,0,0,1-.16,2.92h2.8a17.338,17.338,0,0,1-.16-2.92V-12.72a20.711,20.711,0,0,1,.16-2.96h-3.68a11.083,11.083,0,0,1-.72,2.38l-4.04,9.92-4.06-9.92a13.839,13.839,0,0,1-.74-2.38h-3.66a19.84,19.84,0,0,1,.16,2.96V-2.68a18.759,18.759,0,0,1-.16,2.92h2.8a18.274,18.274,0,0,1-.16-2.92V-9.24c0-.44-.08-2.08-.16-3.14a22.258,22.258,0,0,0,1.02,3.06l2.88,6.86a13.615,13.615,0,0,1,.88,2.7Zm21.42-2.56a21.107,21.107,0,0,1-2.84.14h-5.6V-12.74a18.237,18.237,0,0,1,.16-2.94h-3.02a19.5,19.5,0,0,1,.16,2.96V-2.34A15.869,15.869,0,0,1,160.56.3c.72-.04,1.42-.06,2.54-.06h5.92a19.415,19.415,0,0,1,2.84.14ZM183.04.24a16.286,16.286,0,0,1,.88-2.66l3-7.04a24.406,24.406,0,0,0,.92-2.92c-.02.3-.08,1.32-.16,3.06v6.64a18.6,18.6,0,0,1-.16,2.92h2.8a17.338,17.338,0,0,1-.16-2.92V-12.72a20.711,20.711,0,0,1,.16-2.96h-3.68a11.083,11.083,0,0,1-.72,2.38l-4.04,9.92-4.06-9.92a13.839,13.839,0,0,1-.74-2.38h-3.66a19.84,19.84,0,0,1,.16,2.96V-2.68a18.759,18.759,0,0,1-.16,2.92h2.8a18.274,18.274,0,0,1-.16-2.92V-9.24c0-.44-.08-2.08-.16-3.14a22.258,22.258,0,0,0,1.02,3.06l2.88,6.86a13.615,13.615,0,0,1,.88,2.7Zm18.7-10.22a2.373,2.373,0,0,0-2.38,2.38,2.373,2.373,0,0,0,2.38,2.38,2.373,2.373,0,0,0,2.38-2.38A2.373,2.373,0,0,0,201.74-9.98Zm24.38,9V.24h2.68a13.193,13.193,0,0,1-.1-2.06V-12.8a12.134,12.134,0,0,1,.06-1.66c-.7.04-.7.04-1.74.04H217.4a13.444,13.444,0,0,1-2.58-.14v2.6a19.572,19.572,0,0,1,2.56-.1h8.76v8.72h-9.1a12.858,12.858,0,0,1-2.5-.14V-.9A22.356,22.356,0,0,1,217-.98Zm24.28-.44c-2.42-2.34-2.42-2.34-2.92-2.78a31,31,0,0,0-3.7-2.9,26.487,26.487,0,0,0,3.12-5.52,3.846,3.846,0,0,1,.64-1.08l-1.32-1.36a4.332,4.332,0,0,1-1.78.22l-7.04.1h-.48a8.752,8.752,0,0,1-1.76-.12l.08,2.56a15.762,15.762,0,0,1,2.18-.16c6.3-.1,6.3-.1,6.62-.12l-.22.52a19.278,19.278,0,0,1-6.72,8.14,16.512,16.512,0,0,1-4,2.2A8.023,8.023,0,0,1,234.72.5a23.768,23.768,0,0,0,7.62-5.78A38.447,38.447,0,0,1,248.48.66Zm14.8-14.6a24.446,24.446,0,0,1-2.82,6.44c-.16-.1-.16-.1-1.66-1.18-.98-.7-1.84-1.26-3.3-2.12l-1.76,1.76a35.853,35.853,0,0,1,5.3,3.6,20.371,20.371,0,0,1-2.54,2.72,20.353,20.353,0,0,1-5.18,3.46A6.2,6.2,0,0,1,255,.74a25.394,25.394,0,0,0,4.76-3.3,22.934,22.934,0,0,0,3.12-3.34,29.749,29.749,0,0,1,4.06,4.22l1.92-2.06a47.956,47.956,0,0,0-4.46-4.24,33.306,33.306,0,0,0,2.82-5.66,12.212,12.212,0,0,1,.7-1.44Zm18.22,8.76a30.586,30.586,0,0,0,6.76-4.68c.2-.16.28-.24.44-.36l-1.74-1.76a17.344,17.344,0,0,1-5.46,4.3v-4.46a18.568,18.568,0,0,1,.12-2.4h-2.5a18.776,18.776,0,0,1,.12,2.4V-1.04c0,1.82.6,2.16,3.84,2.16s4.34-.22,4.96-.98c.48-.6.76-1.92.92-4.4a9.79,9.79,0,0,1-2.16-.78c-.1,2.42-.22,3.2-.56,3.66-.26.32-.98.44-2.78.44-1.6,0-1.96-.12-1.96-.66ZM275.5-.98a21.7,21.7,0,0,1-.14,2.6h2.46c-.08-.84-.12-1.74-.12-2.56V-11.68a37.167,37.167,0,0,0,1.44-3.48c.18-.48.26-.7.44-1.1l-2.34-.68a15.225,15.225,0,0,1-2.02,4.96,17.5,17.5,0,0,1-2.8,3.56,10.028,10.028,0,0,1,1.06,2.36,20.747,20.747,0,0,0,2.06-2.6c-.04,1.34-.04,1.54-.04,2.24Zm31.36-13.16v-.98a10.511,10.511,0,0,1,.1-1.52h-2.38a8.6,8.6,0,0,1,.12,1.54v.96h-2.18a13.5,13.5,0,0,1-1.96-.1c.06.66.1,1.6.1,2.64a39.343,39.343,0,0,1-.5,7.46A9.993,9.993,0,0,1,298.42.22a5.648,5.648,0,0,1,1.96,1.32,15.787,15.787,0,0,0,1.74-5.04,44.757,44.757,0,0,0,.6-8.64h6.18a18.559,18.559,0,0,1,2.06.1v-2.22a14.944,14.944,0,0,1-2.08.12Zm-9.26,4.02v-4.72a12.352,12.352,0,0,1,.1-1.98h-2.18a16.137,16.137,0,0,1,.1,2v4.7h-1.24a8.524,8.524,0,0,1-1.62-.1v2.14a9.3,9.3,0,0,1,1.64-.1h.96a14,14,0,0,1-3.02,5.3,5.976,5.976,0,0,1,1.24,1.74,9.349,9.349,0,0,0,.96-1.42,16.188,16.188,0,0,0,1.26-2.78,20.419,20.419,0,0,0-.16,2.4V-.32a13.868,13.868,0,0,1-.12,2.06h2.18a13.172,13.172,0,0,1-.1-2.08v-3.3c-.02-.52-.02-.52-.02-.94,0-.2-.04-.56-.1-1.38a10.554,10.554,0,0,0,1.56,2.5,5.493,5.493,0,0,1,1.02-1.62,9.355,9.355,0,0,1-2.38-3.1h.82a9.584,9.584,0,0,1,1.48.08v-2.1a9.584,9.584,0,0,1-1.48.08Zm7.78,1.96h-.56a11.105,11.105,0,0,1-1.78-.1v2.18a11.14,11.14,0,0,1,1.76-.1h.58v5.2h-1.54a13.058,13.058,0,0,1-2.04-.1V1.2a14.833,14.833,0,0,1,2.06-.12h5.06a14.132,14.132,0,0,1,2.04.12V-1.1a14,14,0,0,1-1.98.12h-1.52v-5.2h.98a12.052,12.052,0,0,1,1.82.12V-8.28a12.147,12.147,0,0,1-1.84.12h-.96V-9.48a17.456,17.456,0,0,1,.08-2.08h-2.26a14.141,14.141,0,0,1,.1,2.08ZM292.6-15.08a21.214,21.214,0,0,1,1.06,4.34l1.74-.62a31.123,31.123,0,0,0-1.02-4.28Zm6.1-.5a19.892,19.892,0,0,1-.9,4.14l1.56.66a25.894,25.894,0,0,0,1.12-4.36Zm17.1,4.8a16.613,16.613,0,0,1-.08,1.84,18.337,18.337,0,0,1,2.08-.08h7.92a18.337,18.337,0,0,1,2.08.08,15.866,15.866,0,0,1-.08-1.86v-3.7a14.264,14.264,0,0,1,.08-1.76,15.74,15.74,0,0,1-2.28.1h-7.54a16.466,16.466,0,0,1-2.26-.1,15.263,15.263,0,0,1,.08,1.78Zm2.14-3.38h7.62v3.2h-7.62ZM313.14-.52a15.035,15.035,0,0,1-.1,2.16h2.22V.6h3.48v.72h2.16a13.756,13.756,0,0,1-.08-1.8V-5.82a11.711,11.711,0,0,1,.06-1.74c-.48.04-.92.06-1.5.06H315a18.094,18.094,0,0,1-1.94-.08,18.673,18.673,0,0,1,.08,1.92Zm2.1-5.04h3.5v4.22h-3.5Zm8.54-1.94c-.6,0-1.02-.02-1.48-.06.04.42.04.74.04,1.64V-.14c0,.82-.02,1.22-.06,1.78h2.14V.6h3.8V1.64h2.24a14.065,14.065,0,0,1-.1-2.14V-5.66a17.231,17.231,0,0,1,.08-1.92,14,14,0,0,1-1.78.08Zm.64,1.94h3.82v4.22h-3.82Zm18.88-7.26a4.371,4.371,0,0,1,2.02.6,4.955,4.955,0,0,1,2.46,4.44,5.6,5.6,0,0,1-2.78,5,10.629,10.629,0,0,1-3.98,1.1A6.38,6.38,0,0,1,342.24.66a13.076,13.076,0,0,0,3.14-.84,7.7,7.7,0,0,0,4.86-7.46c0-4.5-3.12-7.42-7.92-7.42a8.978,8.978,0,0,0-6.88,2.8,8.591,8.591,0,0,0-2.2,5.82c0,3.22,1.64,5.54,3.92,5.54,1.64,0,2.92-1.18,4.06-3.76A28.934,28.934,0,0,0,343.3-12.82Zm-2.44.02a26.358,26.358,0,0,1-1.66,6.76c-.72,1.72-1.4,2.56-2.06,2.56-.88,0-1.58-1.3-1.58-2.94a6.7,6.7,0,0,1,2.72-5.4A5.091,5.091,0,0,1,340.86-12.8ZM359.92-.34a11.9,11.9,0,0,1-.12,2.02H362a12.747,12.747,0,0,1-.1-1.92,5.3,5.3,0,0,1,1.04,1.68,13.612,13.612,0,0,0,3.1-1.94,12.17,12.17,0,0,0,3.92,2.08,10.634,10.634,0,0,1,1.02-1.96,11.913,11.913,0,0,1-3.54-1.42,15.418,15.418,0,0,0,2.28-3.42,3.007,3.007,0,0,1,.32-.58L369-6.94a9.225,9.225,0,0,1-1.5.08h-3.36a11.942,11.942,0,0,1-1.68-.08v1.88a11.125,11.125,0,0,1,1.5-.08h.52l-1.7.76a15.817,15.817,0,0,0,1.82,2.54,10.136,10.136,0,0,1-2.7,1.42V-7.74h6.94a15.133,15.133,0,0,1,2.1.1V-9.58a11.174,11.174,0,0,1-2.08.12H354.72a10.933,10.933,0,0,1-2.06-.12v1.94a13.8,13.8,0,0,1,1.98-.1v6.2c-.84.06-1.4.1-1.72.1a1.947,1.947,0,0,1-.32-.02L353.06.6c.5-.1,1.2-.22,2.8-.44,2.16-.32,2.16-.32,4.06-.68Zm0-1.82c-1.88.28-2.34.34-3.32.44V-2.96h3.32Zm0-2.26H356.6v-.96h3.32Zm0-2.42H356.6v-.9h3.32Zm7.56,1.7A8.289,8.289,0,0,1,366-3.04a8.152,8.152,0,0,1-1.42-2.1Zm1.32-9.4a13.5,13.5,0,0,1,.08-1.74c-.68.06-1.2.08-2.12.08h-9.84c-.92,0-1.46-.02-2.12-.08a14.117,14.117,0,0,1,.08,1.74v2.7a13.974,13.974,0,0,1-.08,1.72c.62-.04,1.16-.06,2.06-.06h10.16c.68,0,1.4.02,1.86.06a13.5,13.5,0,0,1-.08-1.74Zm-11.86-.12h9.78v.8h-9.78Zm0,2.18h9.78v.82h-9.78Zm23.54-2.92h-5.54a16.338,16.338,0,0,1-2.18-.12v2.02a15.392,15.392,0,0,1,2.06-.1h13.8a15.529,15.529,0,0,1,2.08.1v-2.02a15.462,15.462,0,0,1-2.1.12h-5.9v-.26a6.359,6.359,0,0,1,.12-1.24h-2.46a6.267,6.267,0,0,1,.12,1.26ZM375.8-9.72a14.242,14.242,0,0,1-.06,1.48,17.149,17.149,0,0,1,1.88-.08h8.28a15.592,15.592,0,0,1,1.88.08,13.72,13.72,0,0,1-.06-1.48v-1.72c0-.64.02-.94.06-1.46a14.83,14.83,0,0,1-1.78.08h-8.32a17.164,17.164,0,0,1-1.94-.08c.04.48.06.82.06,1.46Zm2.08-1.48h7.74v1.22h-7.74ZM373.32-.5a14.515,14.515,0,0,1-.12,2.2h2.36a13.661,13.661,0,0,1-.12-2.2V-5.82h12.6V-.84c0,.32-.1.42-.48.42-.56,0-1.42-.06-2.52-.18a4.547,4.547,0,0,1,.44,2c.32,0,.32,0,.64.02.64.04.74.04,1.16.04,1.4,0,2-.12,2.4-.48.38-.34.48-.72.48-1.72v-5.1a16.794,16.794,0,0,1,.08-1.8,16.022,16.022,0,0,1-1.96.08H375.32c-.86,0-1.44-.02-2.08-.08a17.681,17.681,0,0,1,.08,1.82ZM386-3.82a10.722,10.722,0,0,1,.06-1.28c-.6.04-.88.06-1.64.06h-5.48c-.74,0-1.16-.02-1.62-.06a11.974,11.974,0,0,1,.06,1.32v2.32A10.487,10.487,0,0,1,377.3.16h2.06v-1h5.04c.54,0,1.28.02,1.66.06A11.871,11.871,0,0,1,386-2.12Zm-6.64.3h4.72v1.1h-4.72Zm24.16-9.72c-.1.5-.16.76-.3,1.32h-.3c-.84,0-1.16,0-1.62-.04a15.642,15.642,0,0,1,.06,1.64v6.56c0,.62-.02,1.1-.06,1.58.76-.06,1.08-.06,1.68-.06h5.14c.6,0,.96.02,1.7.06-.04-.6-.06-.96-.06-1.78v-6.06a17.553,17.553,0,0,1,.08-1.96,16.743,16.743,0,0,1-1.7.06h-2.86c.16-.74.16-.74.28-1.32h3.64a17.822,17.822,0,0,1,1.84.08v-2.1a12.1,12.1,0,0,1-2.08.12h-3.02c.08-.52.08-.52.26-1.54L404-16.8c-.06.78-.08.96-.16,1.66h-3.56a14.086,14.086,0,0,1-2.12-.1v2.08a16.916,16.916,0,0,1,1.88-.08Zm-.14,3.02h4.36v1.04h-4.36Zm0,2.54h4.36v1.06h-4.36Zm0,2.56h4.36v1.18h-4.36ZM394.32-.7a17.084,17.084,0,0,1-.12,2.34h2.3c-.06-.76-.1-1.42-.1-2.32V-11.9a26.228,26.228,0,0,0,1.68-4.5l-2.26-.54a11.577,11.577,0,0,1-.78,2.84,14.4,14.4,0,0,1-2.96,4.98,12.661,12.661,0,0,1,.9,2.38,15.423,15.423,0,0,0,1.4-2.08c-.04.98-.06,1.46-.06,2.22Zm5.56,2.38V.72h8.8a17.653,17.653,0,0,1,2.22.12V-1.3a16.2,16.2,0,0,1-2.2.1h-8.82V-9.58a17.349,17.349,0,0,1,.1-2.28h-2.24a16.62,16.62,0,0,1,.12,2.26V-.8a19.875,19.875,0,0,1-.1,2.48Zm17.96-3.34A13.4,13.4,0,0,1,412.36.08a4.937,4.937,0,0,1,1.22,1.82A15.844,15.844,0,0,0,417.22.86a10.59,10.59,0,0,0,2.74-1.54l-1.24-.98h5.6l-1.2.98A14.261,14.261,0,0,0,426.08.84a15.92,15.92,0,0,0,3.92,1A7.281,7.281,0,0,1,431.08-.1a15.189,15.189,0,0,1-5.72-1.56h1.48c.86,0,1.46.02,2.12.08a19.919,19.919,0,0,1-.08-2.28V-8.52a22.806,22.806,0,0,1,.08-2.28c-.56.04-1.04.06-2.2.06H416.62c-1.06,0-1.48-.02-2.1-.06a21.611,21.611,0,0,1,.1,2.26v4.6a21.555,21.555,0,0,1-.1,2.36c.7-.06,1.3-.08,2.16-.08Zm-1.06-7.4h9.94v.88h-9.94Zm0,2.4h9.94v.84h-9.94Zm0,2.36h9.94v.96h-9.94ZM430.1-14.6a13.082,13.082,0,0,1,.08-1.68,20.654,20.654,0,0,1-2.26.08H415.5a20.89,20.89,0,0,1-2.26-.08,10.381,10.381,0,0,1,.1,1.68v1.56a9.19,9.19,0,0,1-.1,1.62c.44-.04,1.08-.06,2.08-.06h12.76c1.1,0,1.62.02,2.1.06a11.529,11.529,0,0,1-.08-1.62Zm-11.92,1.4H415.4v-1.28h2.78Zm4.78,0H420.2v-1.28h2.76Zm2.02,0v-1.28h2.98v1.28ZM441.1-.76a8.521,8.521,0,0,1,1.22,2.22,15.668,15.668,0,0,0,4.02-3.8,14.738,14.738,0,0,0,3.96,3.78A11.245,11.245,0,0,1,451.5-.8a11.986,11.986,0,0,1-3.86-3.52,23.55,23.55,0,0,0,2.86-9.5c.06-.6.1-1,.14-1.26a14.378,14.378,0,0,1-1.62.1h-5.24c-.5,0-.92-.02-1.28-.04v-1.24a11.968,11.968,0,0,1-1.82.1h-6.1a16.249,16.249,0,0,1-1.8-.1v2.16c.44-.04.66-.06,1.34-.08V-3.26a9.514,9.514,0,0,1-1.54.2l.56,2.28a11.2,11.2,0,0,1,1.6-.42c.9-.18,2.26-.54,4.26-1.14V-.48a17.546,17.546,0,0,1-.12,2.16h2.34a13.735,13.735,0,0,1-.12-2.16Zm0-13.42a6.921,6.921,0,0,1,.76.02v1.28c.32-.04.46-.06.84-.08a25.2,25.2,0,0,0,.92,5.06,18.824,18.824,0,0,0,1.48,3.58,12.3,12.3,0,0,1-4,3.52Zm7.18,1.2a20.439,20.439,0,0,1-1.88,6.56,18.846,18.846,0,0,1-1.66-6.56Zm-12.06-1.2H439v2.2h-2.78Zm0,3.98H439v2.14h-2.78Zm0,3.96H439V-4.3a27.855,27.855,0,0,1-2.78.64Z" transform="translate(1303 -112.75)"/>
    <path id="パス_11636" data-name="パス 11636" d="M47.424-1.728a35.616,35.616,0,0,1-6.768-2.064,22.673,22.673,0,0,0,4.656-7.632V-16.56H24.624v5.088H31.2L25.536-9.888A22.41,22.41,0,0,0,29.664-3.7a40.946,40.946,0,0,1-6.192,1.968V-18.336H46.9v-5.52H1.1v5.52H3.6v14.88c-.432,0-2.352.048-2.832.048l.528,6A138.4,138.4,0,0,0,16.7,1.344V4.416h6.768v-5.76l2.592,5.76A33.92,33.92,0,0,0,35.04.624,32.807,32.807,0,0,0,43.824,4.56ZM16.7-12.24v2.064H10.128V-12.24Zm0,8.208c-1.872.144-4.368.336-6.576.432V-6.24H16.7Zm0-14.3v2.112H10.128v-2.112ZM38.5-11.472A17.678,17.678,0,0,1,35.136-7.1a21.771,21.771,0,0,1-3.7-4.368ZM4.7-25.392H43.2V-39.936H4.7ZM35.952-35.76v1.776H11.9V-35.76Zm0,4.8v1.824H11.9V-30.96ZM4.608,57.32C9.216,55.3,19.344,50.5,24.144,37.88c4.368,12.384,13.488,17.136,19.344,19.536l4.128-7.3c-9.552-3.552-16.224-8.544-19.2-20.112H46.608V22.616H27.456V11.96h-7.68V22.616H1.392v7.392H19.2C16.7,42.2,8.592,46.952.72,49.832Z" transform="translate(1313 -229.75)" fill="#fff"/>
    <path id="パス_11632" data-name="パス 11632" d="M43.86-59.34,10.664,0H21.328l33.11-59.34ZM63.554-17.2c0-8.428-4.558-12.728-12.986-12.728-8.256,0-12.9,4.386-12.9,12.728v5.074c0,8.342,4.472,12.9,12.9,12.9,9.288,0,12.986-5.16,12.986-12.9ZM50.568-6.708c-2.752,0-3.956-1.72-3.956-5.418v-4.816c0-3.87,1.376-5.418,3.956-5.418,2.752,0,4.128,1.462,4.128,5.418v4.816C54.7-8.428,53.406-6.708,50.568-6.708ZM27.778-47.386c0-8.428-4.558-12.728-13.072-12.728-8.17,0-12.814,4.386-12.814,12.728v5.074c0,8.342,4.472,12.9,12.814,12.9,9.374,0,13.072-5.16,13.072-12.9ZM14.792-36.894c-2.838,0-3.956-1.72-3.956-5.418v-4.816c0-3.87,1.376-5.418,3.956-5.418,2.752,0,4.128,1.462,4.128,5.418v4.816C18.92-38.614,17.63-36.894,14.792-36.894Z" transform="translate(1555 -158.75)" fill="#e86573"/>
    <path id="パス_11634" data-name="パス 11634" d="M82.521-20.414H41.347L65.913-49.305C73.525-58.3,83.9-70.584,83.9-86.327c0-19.722-16.262-34.6-37.714-34.6-20.587,0-37.541,14.013-37.541,34.6H30.1c.692-9.515,6.747-14.532,14.878-14.532,7.785,0,14.878,4.844,14.878,14.532,0,7.785-3.633,15.051-11.072,23.7L8.823-15.57V0h73.7ZM173.346-83.04c0-27.853-18.684-37.887-40.136-37.887s-40.136,10.034-40.136,38.06V-36.5c0,26.815,18.684,38.06,40.136,38.06S173.346-9.688,173.346-36.5Zm-24.22,2.249v42.212c0,12.8-5.19,19.722-15.916,19.722-10.9,0-16.089-6.92-16.089-19.722V-80.791c0-12.8,5.19-19.722,16.089-19.722C143.936-100.513,149.126-93.593,149.126-80.791Z" transform="translate(1376 -159.75)" fill="#e86573"/>
    <path id="線_452" data-name="線 452" d="M455.5,1H0V-1H455.5Z" transform="translate(1301.998 -413.656)" fill="#5fc1aa"/>
    <path id="線_453" data-name="線 453" d="M455.5,1H0V-1H455.5Z" transform="translate(1301.998 -480.25)" fill="#5fc1aa"/>
    <g id="グループ_7028" data-name="グループ 7028" transform="translate(1625.123 -284.5)">
      <g id="グループ_7028-2" data-name="グループ 7028" transform="translate(0 0)" clip-path="url(#clip-path)">
        <path id="パス_9809" data-name="パス 9809" d="M41.734,68.124V96.508H25.379V15.9H54.234c18.576,0,30.139,8.524,30.139,25.816,0,17.055-11.448,26.406-30.139,26.406ZM51.9,54.331c11.335,0,16.123-3.967,16.123-12.613,0-7.7-4.788-11.919-16.123-11.919H41.734V54.331Z" transform="translate(48.006 30.081)" fill="#e86573"/>
        <path id="パス_9810" data-name="パス 9810" d="M72.356,29.07,53.749,2.829,35.144,29.07H45.563V88.648c0,13.781-4.554,19.851-14.605,19.851s-14.6-6.069-14.6-19.851V40.631H0V88.648c0,23.714,13.084,33.644,30.957,33.644s30.957-9.93,30.957-33.768V29.07Z" transform="translate(0 5.353)" fill="#e86573"/>
        <path id="パス_9811" data-name="パス 9811" d="M22.822,13.384a.661.661,0,0,0,.266-.159.469.469,0,0,0-.012-.726L9.914,2.364a.653.653,0,0,0-.83.078.467.467,0,0,0,.014.726L22.258,13.3a.625.625,0,0,0,.564.081" transform="translate(16.871 4.256)" fill="#e86573"/>
        <path id="パス_9812" data-name="パス 9812" d="M20.622,13.589a.5.5,0,0,0,.252-.078.47.47,0,0,0,.147-.665L12.517.218a.511.511,0,0,0-.694-.139.47.47,0,0,0-.147.665l8.5,12.625a.508.508,0,0,0,.442.22" transform="translate(21.933 0)" fill="#e86573"/>
        <path id="パス_9813" data-name="パス 9813" d="M22.555,11.267a.525.525,0,0,0,.159-.211.472.472,0,0,0-.272-.627L8.085,5.281a.52.52,0,0,0-.645.3.468.468,0,0,0,.272.627l14.354,5.147a.512.512,0,0,0,.489-.087" transform="translate(14.004 9.939)" fill="#e86573"/>
      </g>
    </g>
  </g>
</svg>
