<svg xmlns="http://www.w3.org/2000/svg" xmlns:xlink="http://www.w3.org/1999/xlink" width="34.398" height="30" viewBox="0 0 34.398 30">
  <defs>
    <clipPath id="clip-path">
      <rect id="長方形_5077" data-name="長方形 5077" width="34.398" height="30" transform="translate(0 0)" fill="#fff"/>
    </clipPath>
  </defs>
  <g id="グループ_6914" data-name="グループ 6914" clip-path="url(#clip-path)">
    <path id="パス_9632" data-name="パス 9632" d="M34.213,46.611H6.694a.337.337,0,0,1-.337-.337V32.453h.675V45.936H33.875V32.453h.675V46.274a.337.337,0,0,1-.337.337" transform="translate(-3.254 -16.612)" fill="#fff"/>
    <path id="パス_9633" data-name="パス 9633" d="M3.983,28.3H3.435C1.541,28.3,0,26.375,0,24.013a.337.337,0,0,1,.337-.338H7.08a.338.338,0,0,1,.337.338c0,2.363-1.541,4.285-3.435,4.285M.687,24.35C.817,26.183,2,27.622,3.435,27.622h.548c1.435,0,2.618-1.439,2.748-3.272Z" transform="translate(0 -12.119)" fill="#fff"/>
    <path id="パス_9634" data-name="パス 9634" d="M17.8,28.3h-.545c-1.9,0-3.437-1.922-3.437-4.285a.337.337,0,0,1,.337-.338H20.9a.337.337,0,0,1,.337.338c0,2.363-1.542,4.285-3.437,4.285M14.5,24.35c.131,1.833,1.315,3.272,2.751,3.272H17.8c1.436,0,2.62-1.439,2.751-3.272Z" transform="translate(-7.071 -12.119)" fill="#fff"/>
    <path id="パス_9635" data-name="パス 9635" d="M31.616,28.3H31.07c-1.9,0-3.437-1.922-3.437-4.285a.337.337,0,0,1,.337-.338h6.745a.338.338,0,0,1,.337.338c0,2.363-1.542,4.285-3.437,4.285m-3.3-3.947c.131,1.833,1.314,3.272,2.751,3.272h.545c1.436,0,2.62-1.439,2.751-3.272Z" transform="translate(-14.145 -12.119)" fill="#fff"/>
    <path id="パス_9636" data-name="パス 9636" d="M45.434,28.3h-.545c-1.9,0-3.437-1.922-3.437-4.285a.337.337,0,0,1,.337-.338h6.745a.337.337,0,0,1,.337.338c0,2.363-1.542,4.285-3.437,4.285m-3.3-3.947c.131,1.833,1.315,3.272,2.751,3.272h.545c1.437,0,2.62-1.439,2.751-3.272Z" transform="translate(-21.218 -12.119)" fill="#fff"/>
    <path id="パス_9637" data-name="パス 9637" d="M59.253,28.3h-.545c-1.9,0-3.437-1.922-3.437-4.285a.337.337,0,0,1,.337-.338h6.745a.337.337,0,0,1,.337.338c0,2.363-1.542,4.285-3.437,4.285m-3.3-3.947c.131,1.833,1.315,3.272,2.751,3.272h.545c1.436,0,2.62-1.439,2.751-3.272Z" transform="translate(-28.291 -12.119)" fill="#fff"/>
    <path id="パス_9638" data-name="パス 9638" d="M7.08,12.231H.337a.338.338,0,0,1-.327-.42L2.921.255A.337.337,0,0,1,3.248,0H8.827a.337.337,0,0,1,.333.388L7.414,11.944a.337.337,0,0,1-.333.287M.77,11.556H6.79L8.435.675H3.512Z" transform="translate(0 0)" fill="#fff"/>
    <path id="パス_9639" data-name="パス 9639" d="M20.9,12.231H14.151a.337.337,0,0,1-.333-.388L15.565.287A.338.338,0,0,1,15.9,0h5.581a.338.338,0,0,1,.337.354l-.582,11.556a.338.338,0,0,1-.337.321m-6.353-.675h6.032L21.124.675H16.189Z" transform="translate(-7.071 0)" fill="#fff"/>
    <path id="パス_9640" data-name="パス 9640" d="M34.715,12.231H27.97a.338.338,0,0,1-.337-.354L28.215.321A.338.338,0,0,1,28.553,0h5.581a.337.337,0,0,1,.337.321l.582,11.556a.339.339,0,0,1-.337.354m-6.39-.675H34.36L33.813.675H28.873Z" transform="translate(-14.145 0)" fill="#fff"/>
    <path id="パス_9641" data-name="パス 9641" d="M47.923,12.231H41.178a.338.338,0,0,1-.337-.321L40.259.354A.338.338,0,0,1,40.6,0h5.581a.338.338,0,0,1,.334.287l1.747,11.556a.337.337,0,0,1-.333.388M41.5,11.556h6.032L45.886.675H40.95Z" transform="translate(-20.607 0)" fill="#fff"/>
    <path id="パス_9642" data-name="パス 9642" d="M60.521,12.231H53.776a.337.337,0,0,1-.333-.287L51.7.388A.337.337,0,0,1,52.029,0H57.61a.338.338,0,0,1,.328.255l2.911,11.556a.338.338,0,0,1-.328.42m-6.455-.675h6.022L57.348.675H52.422Z" transform="translate(-26.46 0)" fill="#fff"/>
    <path id="パス_9643" data-name="パス 9643" d="M28.742,49.362H22.868a.337.337,0,0,1-.337-.337V38.164a.337.337,0,0,1,.337-.338h5.874a.337.337,0,0,1,.337.338V49.025a.337.337,0,0,1-.337.337m-5.536-.675h5.2V38.5h-5.2Z" transform="translate(-11.533 -19.362)" fill="#fff"/>
    <path id="パス_9644" data-name="パス 9644" d="M40.736,49.362H34.862a.338.338,0,0,1-.338-.337V38.164a.338.338,0,0,1,.338-.338h5.874a.338.338,0,0,1,.337.338V49.025a.338.338,0,0,1-.337.337M35.2,48.687h5.2V38.5H35.2Z" transform="translate(-17.672 -19.362)" fill="#fff"/>
  </g>
</svg>
